%TF.GenerationSoftware,KiCad,Pcbnew,10.0.5*%
%TF.CreationDate,2026-08-13T18:09:48-04:00*%
%TF.ProjectId,Legs Power,4c656773-2050-46f7-9765-722e6b696361,rev?*%
%TF.SameCoordinates,Original*%
%TF.FileFunction,Legend,Top*%
%TF.FilePolarity,Positive*%
%FSLAX46Y46*%
G04 Gerber Fmt 4.6, Leading zero omitted, Abs format (unit mm)*
G04 Created by KiCad (PCBNEW 10.0.5) date 2026-08-13 18:09:48*
%MOMM*%
%LPD*%
G01*
G04 APERTURE LIST*
%ADD10C,0.150000*%
%ADD11C,0.300000*%
%ADD12C,0.400000*%
%ADD13C,0.120000*%
%ADD14C,0.152400*%
%ADD15C,0.508000*%
G04 APERTURE END LIST*
D10*
X177002200Y-166007200D02*
X285002200Y-166007200D01*
X285002200Y-198007200D01*
X177002200Y-198007200D01*
X177002200Y-166007200D01*
X10000000Y-10000000D02*
X287002200Y-10000000D01*
X287002200Y-200007200D01*
X10000000Y-200007200D01*
X10000000Y-10000000D01*
X12000000Y-12000000D02*
X285002200Y-12000000D01*
X285002200Y-198007200D01*
X12000000Y-198007200D01*
X12000000Y-12000000D01*
X60000000Y-12000000D02*
X60000000Y-10000000D01*
X110000000Y-12000000D02*
X110000000Y-10000000D01*
X160000000Y-12000000D02*
X160000000Y-10000000D01*
X210000000Y-12000000D02*
X210000000Y-10000000D01*
X260000000Y-12000000D02*
X260000000Y-10000000D01*
X36089160Y-11593604D02*
X35346303Y-11593604D01*
X35717731Y-11593604D02*
X35717731Y-10293604D01*
X35717731Y-10293604D02*
X35593922Y-10479319D01*
X35593922Y-10479319D02*
X35470112Y-10603128D01*
X35470112Y-10603128D02*
X35346303Y-10665033D01*
X85346303Y-10417414D02*
X85408207Y-10355509D01*
X85408207Y-10355509D02*
X85532017Y-10293604D01*
X85532017Y-10293604D02*
X85841541Y-10293604D01*
X85841541Y-10293604D02*
X85965350Y-10355509D01*
X85965350Y-10355509D02*
X86027255Y-10417414D01*
X86027255Y-10417414D02*
X86089160Y-10541223D01*
X86089160Y-10541223D02*
X86089160Y-10665033D01*
X86089160Y-10665033D02*
X86027255Y-10850747D01*
X86027255Y-10850747D02*
X85284398Y-11593604D01*
X85284398Y-11593604D02*
X86089160Y-11593604D01*
X135284398Y-10293604D02*
X136089160Y-10293604D01*
X136089160Y-10293604D02*
X135655826Y-10788842D01*
X135655826Y-10788842D02*
X135841541Y-10788842D01*
X135841541Y-10788842D02*
X135965350Y-10850747D01*
X135965350Y-10850747D02*
X136027255Y-10912652D01*
X136027255Y-10912652D02*
X136089160Y-11036461D01*
X136089160Y-11036461D02*
X136089160Y-11345985D01*
X136089160Y-11345985D02*
X136027255Y-11469795D01*
X136027255Y-11469795D02*
X135965350Y-11531700D01*
X135965350Y-11531700D02*
X135841541Y-11593604D01*
X135841541Y-11593604D02*
X135470112Y-11593604D01*
X135470112Y-11593604D02*
X135346303Y-11531700D01*
X135346303Y-11531700D02*
X135284398Y-11469795D01*
X185965350Y-10726938D02*
X185965350Y-11593604D01*
X185655826Y-10231700D02*
X185346303Y-11160271D01*
X185346303Y-11160271D02*
X186151064Y-11160271D01*
X236027255Y-10293604D02*
X235408207Y-10293604D01*
X235408207Y-10293604D02*
X235346303Y-10912652D01*
X235346303Y-10912652D02*
X235408207Y-10850747D01*
X235408207Y-10850747D02*
X235532017Y-10788842D01*
X235532017Y-10788842D02*
X235841541Y-10788842D01*
X235841541Y-10788842D02*
X235965350Y-10850747D01*
X235965350Y-10850747D02*
X236027255Y-10912652D01*
X236027255Y-10912652D02*
X236089160Y-11036461D01*
X236089160Y-11036461D02*
X236089160Y-11345985D01*
X236089160Y-11345985D02*
X236027255Y-11469795D01*
X236027255Y-11469795D02*
X235965350Y-11531700D01*
X235965350Y-11531700D02*
X235841541Y-11593604D01*
X235841541Y-11593604D02*
X235532017Y-11593604D01*
X235532017Y-11593604D02*
X235408207Y-11531700D01*
X235408207Y-11531700D02*
X235346303Y-11469795D01*
X285965350Y-10293604D02*
X285717731Y-10293604D01*
X285717731Y-10293604D02*
X285593922Y-10355509D01*
X285593922Y-10355509D02*
X285532017Y-10417414D01*
X285532017Y-10417414D02*
X285408207Y-10603128D01*
X285408207Y-10603128D02*
X285346303Y-10850747D01*
X285346303Y-10850747D02*
X285346303Y-11345985D01*
X285346303Y-11345985D02*
X285408207Y-11469795D01*
X285408207Y-11469795D02*
X285470112Y-11531700D01*
X285470112Y-11531700D02*
X285593922Y-11593604D01*
X285593922Y-11593604D02*
X285841541Y-11593604D01*
X285841541Y-11593604D02*
X285965350Y-11531700D01*
X285965350Y-11531700D02*
X286027255Y-11469795D01*
X286027255Y-11469795D02*
X286089160Y-11345985D01*
X286089160Y-11345985D02*
X286089160Y-11036461D01*
X286089160Y-11036461D02*
X286027255Y-10912652D01*
X286027255Y-10912652D02*
X285965350Y-10850747D01*
X285965350Y-10850747D02*
X285841541Y-10788842D01*
X285841541Y-10788842D02*
X285593922Y-10788842D01*
X285593922Y-10788842D02*
X285470112Y-10850747D01*
X285470112Y-10850747D02*
X285408207Y-10912652D01*
X285408207Y-10912652D02*
X285346303Y-11036461D01*
X60000000Y-198007200D02*
X60000000Y-200007200D01*
X110000000Y-198007200D02*
X110000000Y-200007200D01*
X160000000Y-198007200D02*
X160000000Y-200007200D01*
X210000000Y-198007200D02*
X210000000Y-200007200D01*
X260000000Y-198007200D02*
X260000000Y-200007200D01*
X36089160Y-199600804D02*
X35346303Y-199600804D01*
X35717731Y-199600804D02*
X35717731Y-198300804D01*
X35717731Y-198300804D02*
X35593922Y-198486519D01*
X35593922Y-198486519D02*
X35470112Y-198610328D01*
X35470112Y-198610328D02*
X35346303Y-198672233D01*
X85346303Y-198424614D02*
X85408207Y-198362709D01*
X85408207Y-198362709D02*
X85532017Y-198300804D01*
X85532017Y-198300804D02*
X85841541Y-198300804D01*
X85841541Y-198300804D02*
X85965350Y-198362709D01*
X85965350Y-198362709D02*
X86027255Y-198424614D01*
X86027255Y-198424614D02*
X86089160Y-198548423D01*
X86089160Y-198548423D02*
X86089160Y-198672233D01*
X86089160Y-198672233D02*
X86027255Y-198857947D01*
X86027255Y-198857947D02*
X85284398Y-199600804D01*
X85284398Y-199600804D02*
X86089160Y-199600804D01*
X135284398Y-198300804D02*
X136089160Y-198300804D01*
X136089160Y-198300804D02*
X135655826Y-198796042D01*
X135655826Y-198796042D02*
X135841541Y-198796042D01*
X135841541Y-198796042D02*
X135965350Y-198857947D01*
X135965350Y-198857947D02*
X136027255Y-198919852D01*
X136027255Y-198919852D02*
X136089160Y-199043661D01*
X136089160Y-199043661D02*
X136089160Y-199353185D01*
X136089160Y-199353185D02*
X136027255Y-199476995D01*
X136027255Y-199476995D02*
X135965350Y-199538900D01*
X135965350Y-199538900D02*
X135841541Y-199600804D01*
X135841541Y-199600804D02*
X135470112Y-199600804D01*
X135470112Y-199600804D02*
X135346303Y-199538900D01*
X135346303Y-199538900D02*
X135284398Y-199476995D01*
X185965350Y-198734138D02*
X185965350Y-199600804D01*
X185655826Y-198238900D02*
X185346303Y-199167471D01*
X185346303Y-199167471D02*
X186151064Y-199167471D01*
X236027255Y-198300804D02*
X235408207Y-198300804D01*
X235408207Y-198300804D02*
X235346303Y-198919852D01*
X235346303Y-198919852D02*
X235408207Y-198857947D01*
X235408207Y-198857947D02*
X235532017Y-198796042D01*
X235532017Y-198796042D02*
X235841541Y-198796042D01*
X235841541Y-198796042D02*
X235965350Y-198857947D01*
X235965350Y-198857947D02*
X236027255Y-198919852D01*
X236027255Y-198919852D02*
X236089160Y-199043661D01*
X236089160Y-199043661D02*
X236089160Y-199353185D01*
X236089160Y-199353185D02*
X236027255Y-199476995D01*
X236027255Y-199476995D02*
X235965350Y-199538900D01*
X235965350Y-199538900D02*
X235841541Y-199600804D01*
X235841541Y-199600804D02*
X235532017Y-199600804D01*
X235532017Y-199600804D02*
X235408207Y-199538900D01*
X235408207Y-199538900D02*
X235346303Y-199476995D01*
X285965350Y-198300804D02*
X285717731Y-198300804D01*
X285717731Y-198300804D02*
X285593922Y-198362709D01*
X285593922Y-198362709D02*
X285532017Y-198424614D01*
X285532017Y-198424614D02*
X285408207Y-198610328D01*
X285408207Y-198610328D02*
X285346303Y-198857947D01*
X285346303Y-198857947D02*
X285346303Y-199353185D01*
X285346303Y-199353185D02*
X285408207Y-199476995D01*
X285408207Y-199476995D02*
X285470112Y-199538900D01*
X285470112Y-199538900D02*
X285593922Y-199600804D01*
X285593922Y-199600804D02*
X285841541Y-199600804D01*
X285841541Y-199600804D02*
X285965350Y-199538900D01*
X285965350Y-199538900D02*
X286027255Y-199476995D01*
X286027255Y-199476995D02*
X286089160Y-199353185D01*
X286089160Y-199353185D02*
X286089160Y-199043661D01*
X286089160Y-199043661D02*
X286027255Y-198919852D01*
X286027255Y-198919852D02*
X285965350Y-198857947D01*
X285965350Y-198857947D02*
X285841541Y-198796042D01*
X285841541Y-198796042D02*
X285593922Y-198796042D01*
X285593922Y-198796042D02*
X285470112Y-198857947D01*
X285470112Y-198857947D02*
X285408207Y-198919852D01*
X285408207Y-198919852D02*
X285346303Y-199043661D01*
X10000000Y-60000000D02*
X12000000Y-60000000D01*
X10000000Y-110000000D02*
X12000000Y-110000000D01*
X10000000Y-160000000D02*
X12000000Y-160000000D01*
X10690476Y-35222176D02*
X11309523Y-35222176D01*
X10566666Y-35593604D02*
X10999999Y-34293604D01*
X10999999Y-34293604D02*
X11433333Y-35593604D01*
X11092857Y-84912652D02*
X11278571Y-84974557D01*
X11278571Y-84974557D02*
X11340476Y-85036461D01*
X11340476Y-85036461D02*
X11402380Y-85160271D01*
X11402380Y-85160271D02*
X11402380Y-85345985D01*
X11402380Y-85345985D02*
X11340476Y-85469795D01*
X11340476Y-85469795D02*
X11278571Y-85531700D01*
X11278571Y-85531700D02*
X11154761Y-85593604D01*
X11154761Y-85593604D02*
X10659523Y-85593604D01*
X10659523Y-85593604D02*
X10659523Y-84293604D01*
X10659523Y-84293604D02*
X11092857Y-84293604D01*
X11092857Y-84293604D02*
X11216666Y-84355509D01*
X11216666Y-84355509D02*
X11278571Y-84417414D01*
X11278571Y-84417414D02*
X11340476Y-84541223D01*
X11340476Y-84541223D02*
X11340476Y-84665033D01*
X11340476Y-84665033D02*
X11278571Y-84788842D01*
X11278571Y-84788842D02*
X11216666Y-84850747D01*
X11216666Y-84850747D02*
X11092857Y-84912652D01*
X11092857Y-84912652D02*
X10659523Y-84912652D01*
X11402380Y-135469795D02*
X11340476Y-135531700D01*
X11340476Y-135531700D02*
X11154761Y-135593604D01*
X11154761Y-135593604D02*
X11030952Y-135593604D01*
X11030952Y-135593604D02*
X10845238Y-135531700D01*
X10845238Y-135531700D02*
X10721428Y-135407890D01*
X10721428Y-135407890D02*
X10659523Y-135284080D01*
X10659523Y-135284080D02*
X10597619Y-135036461D01*
X10597619Y-135036461D02*
X10597619Y-134850747D01*
X10597619Y-134850747D02*
X10659523Y-134603128D01*
X10659523Y-134603128D02*
X10721428Y-134479319D01*
X10721428Y-134479319D02*
X10845238Y-134355509D01*
X10845238Y-134355509D02*
X11030952Y-134293604D01*
X11030952Y-134293604D02*
X11154761Y-134293604D01*
X11154761Y-134293604D02*
X11340476Y-134355509D01*
X11340476Y-134355509D02*
X11402380Y-134417414D01*
X10659523Y-185593604D02*
X10659523Y-184293604D01*
X10659523Y-184293604D02*
X10969047Y-184293604D01*
X10969047Y-184293604D02*
X11154761Y-184355509D01*
X11154761Y-184355509D02*
X11278571Y-184479319D01*
X11278571Y-184479319D02*
X11340476Y-184603128D01*
X11340476Y-184603128D02*
X11402380Y-184850747D01*
X11402380Y-184850747D02*
X11402380Y-185036461D01*
X11402380Y-185036461D02*
X11340476Y-185284080D01*
X11340476Y-185284080D02*
X11278571Y-185407890D01*
X11278571Y-185407890D02*
X11154761Y-185531700D01*
X11154761Y-185531700D02*
X10969047Y-185593604D01*
X10969047Y-185593604D02*
X10659523Y-185593604D01*
X287002200Y-60000000D02*
X285002200Y-60000000D01*
X287002200Y-110000000D02*
X285002200Y-110000000D01*
X287002200Y-160000000D02*
X285002200Y-160000000D01*
X285692676Y-35222176D02*
X286311723Y-35222176D01*
X285568866Y-35593604D02*
X286002199Y-34293604D01*
X286002199Y-34293604D02*
X286435533Y-35593604D01*
X286095057Y-84912652D02*
X286280771Y-84974557D01*
X286280771Y-84974557D02*
X286342676Y-85036461D01*
X286342676Y-85036461D02*
X286404580Y-85160271D01*
X286404580Y-85160271D02*
X286404580Y-85345985D01*
X286404580Y-85345985D02*
X286342676Y-85469795D01*
X286342676Y-85469795D02*
X286280771Y-85531700D01*
X286280771Y-85531700D02*
X286156961Y-85593604D01*
X286156961Y-85593604D02*
X285661723Y-85593604D01*
X285661723Y-85593604D02*
X285661723Y-84293604D01*
X285661723Y-84293604D02*
X286095057Y-84293604D01*
X286095057Y-84293604D02*
X286218866Y-84355509D01*
X286218866Y-84355509D02*
X286280771Y-84417414D01*
X286280771Y-84417414D02*
X286342676Y-84541223D01*
X286342676Y-84541223D02*
X286342676Y-84665033D01*
X286342676Y-84665033D02*
X286280771Y-84788842D01*
X286280771Y-84788842D02*
X286218866Y-84850747D01*
X286218866Y-84850747D02*
X286095057Y-84912652D01*
X286095057Y-84912652D02*
X285661723Y-84912652D01*
X286404580Y-135469795D02*
X286342676Y-135531700D01*
X286342676Y-135531700D02*
X286156961Y-135593604D01*
X286156961Y-135593604D02*
X286033152Y-135593604D01*
X286033152Y-135593604D02*
X285847438Y-135531700D01*
X285847438Y-135531700D02*
X285723628Y-135407890D01*
X285723628Y-135407890D02*
X285661723Y-135284080D01*
X285661723Y-135284080D02*
X285599819Y-135036461D01*
X285599819Y-135036461D02*
X285599819Y-134850747D01*
X285599819Y-134850747D02*
X285661723Y-134603128D01*
X285661723Y-134603128D02*
X285723628Y-134479319D01*
X285723628Y-134479319D02*
X285847438Y-134355509D01*
X285847438Y-134355509D02*
X286033152Y-134293604D01*
X286033152Y-134293604D02*
X286156961Y-134293604D01*
X286156961Y-134293604D02*
X286342676Y-134355509D01*
X286342676Y-134355509D02*
X286404580Y-134417414D01*
X285661723Y-185593604D02*
X285661723Y-184293604D01*
X285661723Y-184293604D02*
X285971247Y-184293604D01*
X285971247Y-184293604D02*
X286156961Y-184355509D01*
X286156961Y-184355509D02*
X286280771Y-184479319D01*
X286280771Y-184479319D02*
X286342676Y-184603128D01*
X286342676Y-184603128D02*
X286404580Y-184850747D01*
X286404580Y-184850747D02*
X286404580Y-185036461D01*
X286404580Y-185036461D02*
X286342676Y-185284080D01*
X286342676Y-185284080D02*
X286280771Y-185407890D01*
X286280771Y-185407890D02*
X286156961Y-185531700D01*
X286156961Y-185531700D02*
X285971247Y-185593604D01*
X285971247Y-185593604D02*
X285661723Y-185593604D01*
X200458026Y-193793328D02*
X200458026Y-192293328D01*
X200458026Y-192293328D02*
X200815169Y-192293328D01*
X200815169Y-192293328D02*
X201029455Y-192364757D01*
X201029455Y-192364757D02*
X201172312Y-192507614D01*
X201172312Y-192507614D02*
X201243741Y-192650471D01*
X201243741Y-192650471D02*
X201315169Y-192936185D01*
X201315169Y-192936185D02*
X201315169Y-193150471D01*
X201315169Y-193150471D02*
X201243741Y-193436185D01*
X201243741Y-193436185D02*
X201172312Y-193579042D01*
X201172312Y-193579042D02*
X201029455Y-193721900D01*
X201029455Y-193721900D02*
X200815169Y-193793328D01*
X200815169Y-193793328D02*
X200458026Y-193793328D01*
X202600884Y-193793328D02*
X202600884Y-193007614D01*
X202600884Y-193007614D02*
X202529455Y-192864757D01*
X202529455Y-192864757D02*
X202386598Y-192793328D01*
X202386598Y-192793328D02*
X202100884Y-192793328D01*
X202100884Y-192793328D02*
X201958026Y-192864757D01*
X202600884Y-193721900D02*
X202458026Y-193793328D01*
X202458026Y-193793328D02*
X202100884Y-193793328D01*
X202100884Y-193793328D02*
X201958026Y-193721900D01*
X201958026Y-193721900D02*
X201886598Y-193579042D01*
X201886598Y-193579042D02*
X201886598Y-193436185D01*
X201886598Y-193436185D02*
X201958026Y-193293328D01*
X201958026Y-193293328D02*
X202100884Y-193221900D01*
X202100884Y-193221900D02*
X202458026Y-193221900D01*
X202458026Y-193221900D02*
X202600884Y-193150471D01*
X203100884Y-192793328D02*
X203672312Y-192793328D01*
X203315169Y-192293328D02*
X203315169Y-193579042D01*
X203315169Y-193579042D02*
X203386598Y-193721900D01*
X203386598Y-193721900D02*
X203529455Y-193793328D01*
X203529455Y-193793328D02*
X203672312Y-193793328D01*
X204743741Y-193721900D02*
X204600884Y-193793328D01*
X204600884Y-193793328D02*
X204315170Y-193793328D01*
X204315170Y-193793328D02*
X204172312Y-193721900D01*
X204172312Y-193721900D02*
X204100884Y-193579042D01*
X204100884Y-193579042D02*
X204100884Y-193007614D01*
X204100884Y-193007614D02*
X204172312Y-192864757D01*
X204172312Y-192864757D02*
X204315170Y-192793328D01*
X204315170Y-192793328D02*
X204600884Y-192793328D01*
X204600884Y-192793328D02*
X204743741Y-192864757D01*
X204743741Y-192864757D02*
X204815170Y-193007614D01*
X204815170Y-193007614D02*
X204815170Y-193150471D01*
X204815170Y-193150471D02*
X204100884Y-193293328D01*
X205458026Y-193650471D02*
X205529455Y-193721900D01*
X205529455Y-193721900D02*
X205458026Y-193793328D01*
X205458026Y-193793328D02*
X205386598Y-193721900D01*
X205386598Y-193721900D02*
X205458026Y-193650471D01*
X205458026Y-193650471D02*
X205458026Y-193793328D01*
X205458026Y-192864757D02*
X205529455Y-192936185D01*
X205529455Y-192936185D02*
X205458026Y-193007614D01*
X205458026Y-193007614D02*
X205386598Y-192936185D01*
X205386598Y-192936185D02*
X205458026Y-192864757D01*
X205458026Y-192864757D02*
X205458026Y-193007614D01*
X177002200Y-194507200D02*
X285002200Y-194507200D01*
X178458026Y-196593328D02*
X178458026Y-195093328D01*
X179315169Y-196593328D02*
X178672312Y-195736185D01*
X179315169Y-195093328D02*
X178458026Y-195950471D01*
X179958026Y-196593328D02*
X179958026Y-195593328D01*
X179958026Y-195093328D02*
X179886598Y-195164757D01*
X179886598Y-195164757D02*
X179958026Y-195236185D01*
X179958026Y-195236185D02*
X180029455Y-195164757D01*
X180029455Y-195164757D02*
X179958026Y-195093328D01*
X179958026Y-195093328D02*
X179958026Y-195236185D01*
X181529455Y-196450471D02*
X181458027Y-196521900D01*
X181458027Y-196521900D02*
X181243741Y-196593328D01*
X181243741Y-196593328D02*
X181100884Y-196593328D01*
X181100884Y-196593328D02*
X180886598Y-196521900D01*
X180886598Y-196521900D02*
X180743741Y-196379042D01*
X180743741Y-196379042D02*
X180672312Y-196236185D01*
X180672312Y-196236185D02*
X180600884Y-195950471D01*
X180600884Y-195950471D02*
X180600884Y-195736185D01*
X180600884Y-195736185D02*
X180672312Y-195450471D01*
X180672312Y-195450471D02*
X180743741Y-195307614D01*
X180743741Y-195307614D02*
X180886598Y-195164757D01*
X180886598Y-195164757D02*
X181100884Y-195093328D01*
X181100884Y-195093328D02*
X181243741Y-195093328D01*
X181243741Y-195093328D02*
X181458027Y-195164757D01*
X181458027Y-195164757D02*
X181529455Y-195236185D01*
X182815170Y-196593328D02*
X182815170Y-195807614D01*
X182815170Y-195807614D02*
X182743741Y-195664757D01*
X182743741Y-195664757D02*
X182600884Y-195593328D01*
X182600884Y-195593328D02*
X182315170Y-195593328D01*
X182315170Y-195593328D02*
X182172312Y-195664757D01*
X182815170Y-196521900D02*
X182672312Y-196593328D01*
X182672312Y-196593328D02*
X182315170Y-196593328D01*
X182315170Y-196593328D02*
X182172312Y-196521900D01*
X182172312Y-196521900D02*
X182100884Y-196379042D01*
X182100884Y-196379042D02*
X182100884Y-196236185D01*
X182100884Y-196236185D02*
X182172312Y-196093328D01*
X182172312Y-196093328D02*
X182315170Y-196021900D01*
X182315170Y-196021900D02*
X182672312Y-196021900D01*
X182672312Y-196021900D02*
X182815170Y-195950471D01*
X184172313Y-196593328D02*
X184172313Y-195093328D01*
X184172313Y-196521900D02*
X184029455Y-196593328D01*
X184029455Y-196593328D02*
X183743741Y-196593328D01*
X183743741Y-196593328D02*
X183600884Y-196521900D01*
X183600884Y-196521900D02*
X183529455Y-196450471D01*
X183529455Y-196450471D02*
X183458027Y-196307614D01*
X183458027Y-196307614D02*
X183458027Y-195879042D01*
X183458027Y-195879042D02*
X183529455Y-195736185D01*
X183529455Y-195736185D02*
X183600884Y-195664757D01*
X183600884Y-195664757D02*
X183743741Y-195593328D01*
X183743741Y-195593328D02*
X184029455Y-195593328D01*
X184029455Y-195593328D02*
X184172313Y-195664757D01*
X186029455Y-195807614D02*
X186529455Y-195807614D01*
X186743741Y-196593328D02*
X186029455Y-196593328D01*
X186029455Y-196593328D02*
X186029455Y-195093328D01*
X186029455Y-195093328D02*
X186743741Y-195093328D01*
X187386598Y-196450471D02*
X187458027Y-196521900D01*
X187458027Y-196521900D02*
X187386598Y-196593328D01*
X187386598Y-196593328D02*
X187315170Y-196521900D01*
X187315170Y-196521900D02*
X187386598Y-196450471D01*
X187386598Y-196450471D02*
X187386598Y-196593328D01*
X188100884Y-196593328D02*
X188100884Y-195093328D01*
X188100884Y-195093328D02*
X188458027Y-195093328D01*
X188458027Y-195093328D02*
X188672313Y-195164757D01*
X188672313Y-195164757D02*
X188815170Y-195307614D01*
X188815170Y-195307614D02*
X188886599Y-195450471D01*
X188886599Y-195450471D02*
X188958027Y-195736185D01*
X188958027Y-195736185D02*
X188958027Y-195950471D01*
X188958027Y-195950471D02*
X188886599Y-196236185D01*
X188886599Y-196236185D02*
X188815170Y-196379042D01*
X188815170Y-196379042D02*
X188672313Y-196521900D01*
X188672313Y-196521900D02*
X188458027Y-196593328D01*
X188458027Y-196593328D02*
X188100884Y-196593328D01*
X189600884Y-196450471D02*
X189672313Y-196521900D01*
X189672313Y-196521900D02*
X189600884Y-196593328D01*
X189600884Y-196593328D02*
X189529456Y-196521900D01*
X189529456Y-196521900D02*
X189600884Y-196450471D01*
X189600884Y-196450471D02*
X189600884Y-196593328D01*
X190243742Y-196164757D02*
X190958028Y-196164757D01*
X190100885Y-196593328D02*
X190600885Y-195093328D01*
X190600885Y-195093328D02*
X191100885Y-196593328D01*
X191600884Y-196450471D02*
X191672313Y-196521900D01*
X191672313Y-196521900D02*
X191600884Y-196593328D01*
X191600884Y-196593328D02*
X191529456Y-196521900D01*
X191529456Y-196521900D02*
X191600884Y-196450471D01*
X191600884Y-196450471D02*
X191600884Y-196593328D01*
X194243742Y-196593328D02*
X193386599Y-196593328D01*
X193815170Y-196593328D02*
X193815170Y-195093328D01*
X193815170Y-195093328D02*
X193672313Y-195307614D01*
X193672313Y-195307614D02*
X193529456Y-195450471D01*
X193529456Y-195450471D02*
X193386599Y-195521900D01*
X195172313Y-195093328D02*
X195315170Y-195093328D01*
X195315170Y-195093328D02*
X195458027Y-195164757D01*
X195458027Y-195164757D02*
X195529456Y-195236185D01*
X195529456Y-195236185D02*
X195600884Y-195379042D01*
X195600884Y-195379042D02*
X195672313Y-195664757D01*
X195672313Y-195664757D02*
X195672313Y-196021900D01*
X195672313Y-196021900D02*
X195600884Y-196307614D01*
X195600884Y-196307614D02*
X195529456Y-196450471D01*
X195529456Y-196450471D02*
X195458027Y-196521900D01*
X195458027Y-196521900D02*
X195315170Y-196593328D01*
X195315170Y-196593328D02*
X195172313Y-196593328D01*
X195172313Y-196593328D02*
X195029456Y-196521900D01*
X195029456Y-196521900D02*
X194958027Y-196450471D01*
X194958027Y-196450471D02*
X194886598Y-196307614D01*
X194886598Y-196307614D02*
X194815170Y-196021900D01*
X194815170Y-196021900D02*
X194815170Y-195664757D01*
X194815170Y-195664757D02*
X194886598Y-195379042D01*
X194886598Y-195379042D02*
X194958027Y-195236185D01*
X194958027Y-195236185D02*
X195029456Y-195164757D01*
X195029456Y-195164757D02*
X195172313Y-195093328D01*
X196315169Y-196450471D02*
X196386598Y-196521900D01*
X196386598Y-196521900D02*
X196315169Y-196593328D01*
X196315169Y-196593328D02*
X196243741Y-196521900D01*
X196243741Y-196521900D02*
X196315169Y-196450471D01*
X196315169Y-196450471D02*
X196315169Y-196593328D01*
X197315170Y-195093328D02*
X197458027Y-195093328D01*
X197458027Y-195093328D02*
X197600884Y-195164757D01*
X197600884Y-195164757D02*
X197672313Y-195236185D01*
X197672313Y-195236185D02*
X197743741Y-195379042D01*
X197743741Y-195379042D02*
X197815170Y-195664757D01*
X197815170Y-195664757D02*
X197815170Y-196021900D01*
X197815170Y-196021900D02*
X197743741Y-196307614D01*
X197743741Y-196307614D02*
X197672313Y-196450471D01*
X197672313Y-196450471D02*
X197600884Y-196521900D01*
X197600884Y-196521900D02*
X197458027Y-196593328D01*
X197458027Y-196593328D02*
X197315170Y-196593328D01*
X197315170Y-196593328D02*
X197172313Y-196521900D01*
X197172313Y-196521900D02*
X197100884Y-196450471D01*
X197100884Y-196450471D02*
X197029455Y-196307614D01*
X197029455Y-196307614D02*
X196958027Y-196021900D01*
X196958027Y-196021900D02*
X196958027Y-195664757D01*
X196958027Y-195664757D02*
X197029455Y-195379042D01*
X197029455Y-195379042D02*
X197100884Y-195236185D01*
X197100884Y-195236185D02*
X197172313Y-195164757D01*
X197172313Y-195164757D02*
X197315170Y-195093328D01*
X198458026Y-196450471D02*
X198529455Y-196521900D01*
X198529455Y-196521900D02*
X198458026Y-196593328D01*
X198458026Y-196593328D02*
X198386598Y-196521900D01*
X198386598Y-196521900D02*
X198458026Y-196450471D01*
X198458026Y-196450471D02*
X198458026Y-196593328D01*
X199886598Y-195093328D02*
X199172312Y-195093328D01*
X199172312Y-195093328D02*
X199100884Y-195807614D01*
X199100884Y-195807614D02*
X199172312Y-195736185D01*
X199172312Y-195736185D02*
X199315170Y-195664757D01*
X199315170Y-195664757D02*
X199672312Y-195664757D01*
X199672312Y-195664757D02*
X199815170Y-195736185D01*
X199815170Y-195736185D02*
X199886598Y-195807614D01*
X199886598Y-195807614D02*
X199958027Y-195950471D01*
X199958027Y-195950471D02*
X199958027Y-196307614D01*
X199958027Y-196307614D02*
X199886598Y-196450471D01*
X199886598Y-196450471D02*
X199815170Y-196521900D01*
X199815170Y-196521900D02*
X199672312Y-196593328D01*
X199672312Y-196593328D02*
X199315170Y-196593328D01*
X199315170Y-196593328D02*
X199172312Y-196521900D01*
X199172312Y-196521900D02*
X199100884Y-196450471D01*
X177002200Y-191507200D02*
X285002200Y-191507200D01*
D11*
X264413853Y-193785528D02*
X263913853Y-193071242D01*
X263556710Y-193785528D02*
X263556710Y-192285528D01*
X263556710Y-192285528D02*
X264128139Y-192285528D01*
X264128139Y-192285528D02*
X264270996Y-192356957D01*
X264270996Y-192356957D02*
X264342425Y-192428385D01*
X264342425Y-192428385D02*
X264413853Y-192571242D01*
X264413853Y-192571242D02*
X264413853Y-192785528D01*
X264413853Y-192785528D02*
X264342425Y-192928385D01*
X264342425Y-192928385D02*
X264270996Y-192999814D01*
X264270996Y-192999814D02*
X264128139Y-193071242D01*
X264128139Y-193071242D02*
X263556710Y-193071242D01*
X265628139Y-193714100D02*
X265485282Y-193785528D01*
X265485282Y-193785528D02*
X265199568Y-193785528D01*
X265199568Y-193785528D02*
X265056710Y-193714100D01*
X265056710Y-193714100D02*
X264985282Y-193571242D01*
X264985282Y-193571242D02*
X264985282Y-192999814D01*
X264985282Y-192999814D02*
X265056710Y-192856957D01*
X265056710Y-192856957D02*
X265199568Y-192785528D01*
X265199568Y-192785528D02*
X265485282Y-192785528D01*
X265485282Y-192785528D02*
X265628139Y-192856957D01*
X265628139Y-192856957D02*
X265699568Y-192999814D01*
X265699568Y-192999814D02*
X265699568Y-193142671D01*
X265699568Y-193142671D02*
X264985282Y-193285528D01*
X266199567Y-192785528D02*
X266556710Y-193785528D01*
X266556710Y-193785528D02*
X266913853Y-192785528D01*
X267485281Y-193642671D02*
X267556710Y-193714100D01*
X267556710Y-193714100D02*
X267485281Y-193785528D01*
X267485281Y-193785528D02*
X267413853Y-193714100D01*
X267413853Y-193714100D02*
X267485281Y-193642671D01*
X267485281Y-193642671D02*
X267485281Y-193785528D01*
X267485281Y-192856957D02*
X267556710Y-192928385D01*
X267556710Y-192928385D02*
X267485281Y-192999814D01*
X267485281Y-192999814D02*
X267413853Y-192928385D01*
X267413853Y-192928385D02*
X267485281Y-192856957D01*
X267485281Y-192856957D02*
X267485281Y-192999814D01*
D10*
X178386598Y-193721900D02*
X178600884Y-193793328D01*
X178600884Y-193793328D02*
X178958026Y-193793328D01*
X178958026Y-193793328D02*
X179100884Y-193721900D01*
X179100884Y-193721900D02*
X179172312Y-193650471D01*
X179172312Y-193650471D02*
X179243741Y-193507614D01*
X179243741Y-193507614D02*
X179243741Y-193364757D01*
X179243741Y-193364757D02*
X179172312Y-193221900D01*
X179172312Y-193221900D02*
X179100884Y-193150471D01*
X179100884Y-193150471D02*
X178958026Y-193079042D01*
X178958026Y-193079042D02*
X178672312Y-193007614D01*
X178672312Y-193007614D02*
X178529455Y-192936185D01*
X178529455Y-192936185D02*
X178458026Y-192864757D01*
X178458026Y-192864757D02*
X178386598Y-192721900D01*
X178386598Y-192721900D02*
X178386598Y-192579042D01*
X178386598Y-192579042D02*
X178458026Y-192436185D01*
X178458026Y-192436185D02*
X178529455Y-192364757D01*
X178529455Y-192364757D02*
X178672312Y-192293328D01*
X178672312Y-192293328D02*
X179029455Y-192293328D01*
X179029455Y-192293328D02*
X179243741Y-192364757D01*
X179886597Y-193793328D02*
X179886597Y-192793328D01*
X179886597Y-192293328D02*
X179815169Y-192364757D01*
X179815169Y-192364757D02*
X179886597Y-192436185D01*
X179886597Y-192436185D02*
X179958026Y-192364757D01*
X179958026Y-192364757D02*
X179886597Y-192293328D01*
X179886597Y-192293328D02*
X179886597Y-192436185D01*
X180458026Y-192793328D02*
X181243741Y-192793328D01*
X181243741Y-192793328D02*
X180458026Y-193793328D01*
X180458026Y-193793328D02*
X181243741Y-193793328D01*
X182386598Y-193721900D02*
X182243741Y-193793328D01*
X182243741Y-193793328D02*
X181958027Y-193793328D01*
X181958027Y-193793328D02*
X181815169Y-193721900D01*
X181815169Y-193721900D02*
X181743741Y-193579042D01*
X181743741Y-193579042D02*
X181743741Y-193007614D01*
X181743741Y-193007614D02*
X181815169Y-192864757D01*
X181815169Y-192864757D02*
X181958027Y-192793328D01*
X181958027Y-192793328D02*
X182243741Y-192793328D01*
X182243741Y-192793328D02*
X182386598Y-192864757D01*
X182386598Y-192864757D02*
X182458027Y-193007614D01*
X182458027Y-193007614D02*
X182458027Y-193150471D01*
X182458027Y-193150471D02*
X181743741Y-193293328D01*
X183100883Y-193650471D02*
X183172312Y-193721900D01*
X183172312Y-193721900D02*
X183100883Y-193793328D01*
X183100883Y-193793328D02*
X183029455Y-193721900D01*
X183029455Y-193721900D02*
X183100883Y-193650471D01*
X183100883Y-193650471D02*
X183100883Y-193793328D01*
X183100883Y-192864757D02*
X183172312Y-192936185D01*
X183172312Y-192936185D02*
X183100883Y-193007614D01*
X183100883Y-193007614D02*
X183029455Y-192936185D01*
X183029455Y-192936185D02*
X183100883Y-192864757D01*
X183100883Y-192864757D02*
X183100883Y-193007614D01*
X184886598Y-193364757D02*
X185600884Y-193364757D01*
X184743741Y-193793328D02*
X185243741Y-192293328D01*
X185243741Y-192293328D02*
X185743741Y-193793328D01*
X186886598Y-192793328D02*
X186886598Y-193793328D01*
X186529455Y-192221900D02*
X186172312Y-193293328D01*
X186172312Y-193293328D02*
X187100883Y-193293328D01*
X263458026Y-196593328D02*
X263458026Y-195093328D01*
X264815170Y-196593328D02*
X264815170Y-195093328D01*
X264815170Y-196521900D02*
X264672312Y-196593328D01*
X264672312Y-196593328D02*
X264386598Y-196593328D01*
X264386598Y-196593328D02*
X264243741Y-196521900D01*
X264243741Y-196521900D02*
X264172312Y-196450471D01*
X264172312Y-196450471D02*
X264100884Y-196307614D01*
X264100884Y-196307614D02*
X264100884Y-195879042D01*
X264100884Y-195879042D02*
X264172312Y-195736185D01*
X264172312Y-195736185D02*
X264243741Y-195664757D01*
X264243741Y-195664757D02*
X264386598Y-195593328D01*
X264386598Y-195593328D02*
X264672312Y-195593328D01*
X264672312Y-195593328D02*
X264815170Y-195664757D01*
X265529455Y-196450471D02*
X265600884Y-196521900D01*
X265600884Y-196521900D02*
X265529455Y-196593328D01*
X265529455Y-196593328D02*
X265458027Y-196521900D01*
X265458027Y-196521900D02*
X265529455Y-196450471D01*
X265529455Y-196450471D02*
X265529455Y-196593328D01*
X265529455Y-195664757D02*
X265600884Y-195736185D01*
X265600884Y-195736185D02*
X265529455Y-195807614D01*
X265529455Y-195807614D02*
X265458027Y-195736185D01*
X265458027Y-195736185D02*
X265529455Y-195664757D01*
X265529455Y-195664757D02*
X265529455Y-195807614D01*
X268100884Y-195093328D02*
X267386598Y-195093328D01*
X267386598Y-195093328D02*
X267315170Y-195807614D01*
X267315170Y-195807614D02*
X267386598Y-195736185D01*
X267386598Y-195736185D02*
X267529456Y-195664757D01*
X267529456Y-195664757D02*
X267886598Y-195664757D01*
X267886598Y-195664757D02*
X268029456Y-195736185D01*
X268029456Y-195736185D02*
X268100884Y-195807614D01*
X268100884Y-195807614D02*
X268172313Y-195950471D01*
X268172313Y-195950471D02*
X268172313Y-196307614D01*
X268172313Y-196307614D02*
X268100884Y-196450471D01*
X268100884Y-196450471D02*
X268029456Y-196521900D01*
X268029456Y-196521900D02*
X267886598Y-196593328D01*
X267886598Y-196593328D02*
X267529456Y-196593328D01*
X267529456Y-196593328D02*
X267386598Y-196521900D01*
X267386598Y-196521900D02*
X267315170Y-196450471D01*
X269886598Y-195021900D02*
X268600884Y-196950471D01*
X270458027Y-196593328D02*
X270743741Y-196593328D01*
X270743741Y-196593328D02*
X270886598Y-196521900D01*
X270886598Y-196521900D02*
X270958027Y-196450471D01*
X270958027Y-196450471D02*
X271100884Y-196236185D01*
X271100884Y-196236185D02*
X271172313Y-195950471D01*
X271172313Y-195950471D02*
X271172313Y-195379042D01*
X271172313Y-195379042D02*
X271100884Y-195236185D01*
X271100884Y-195236185D02*
X271029456Y-195164757D01*
X271029456Y-195164757D02*
X270886598Y-195093328D01*
X270886598Y-195093328D02*
X270600884Y-195093328D01*
X270600884Y-195093328D02*
X270458027Y-195164757D01*
X270458027Y-195164757D02*
X270386598Y-195236185D01*
X270386598Y-195236185D02*
X270315170Y-195379042D01*
X270315170Y-195379042D02*
X270315170Y-195736185D01*
X270315170Y-195736185D02*
X270386598Y-195879042D01*
X270386598Y-195879042D02*
X270458027Y-195950471D01*
X270458027Y-195950471D02*
X270600884Y-196021900D01*
X270600884Y-196021900D02*
X270886598Y-196021900D01*
X270886598Y-196021900D02*
X271029456Y-195950471D01*
X271029456Y-195950471D02*
X271100884Y-195879042D01*
X271100884Y-195879042D02*
X271172313Y-195736185D01*
X177002200Y-187507200D02*
X285002200Y-187507200D01*
D12*
X178693928Y-188211638D02*
X179836785Y-188211638D01*
X179015357Y-190211638D02*
X179265357Y-188211638D01*
X180253452Y-190211638D02*
X180420119Y-188878304D01*
X180503452Y-188211638D02*
X180396309Y-188306876D01*
X180396309Y-188306876D02*
X180479643Y-188402114D01*
X180479643Y-188402114D02*
X180586786Y-188306876D01*
X180586786Y-188306876D02*
X180503452Y-188211638D01*
X180503452Y-188211638D02*
X180479643Y-188402114D01*
X181086786Y-188878304D02*
X181848690Y-188878304D01*
X181455833Y-188211638D02*
X181241548Y-189925923D01*
X181241548Y-189925923D02*
X181312976Y-190116400D01*
X181312976Y-190116400D02*
X181491548Y-190211638D01*
X181491548Y-190211638D02*
X181682024Y-190211638D01*
X182634405Y-190211638D02*
X182455833Y-190116400D01*
X182455833Y-190116400D02*
X182384405Y-189925923D01*
X182384405Y-189925923D02*
X182598690Y-188211638D01*
X184170119Y-190116400D02*
X183967738Y-190211638D01*
X183967738Y-190211638D02*
X183586785Y-190211638D01*
X183586785Y-190211638D02*
X183408214Y-190116400D01*
X183408214Y-190116400D02*
X183336785Y-189925923D01*
X183336785Y-189925923D02*
X183432024Y-189164019D01*
X183432024Y-189164019D02*
X183551071Y-188973542D01*
X183551071Y-188973542D02*
X183753452Y-188878304D01*
X183753452Y-188878304D02*
X184134404Y-188878304D01*
X184134404Y-188878304D02*
X184312976Y-188973542D01*
X184312976Y-188973542D02*
X184384404Y-189164019D01*
X184384404Y-189164019D02*
X184360595Y-189354495D01*
X184360595Y-189354495D02*
X183384404Y-189544971D01*
X185134405Y-190021161D02*
X185217738Y-190116400D01*
X185217738Y-190116400D02*
X185110595Y-190211638D01*
X185110595Y-190211638D02*
X185027262Y-190116400D01*
X185027262Y-190116400D02*
X185134405Y-190021161D01*
X185134405Y-190021161D02*
X185110595Y-190211638D01*
X185265357Y-188973542D02*
X185348690Y-189068780D01*
X185348690Y-189068780D02*
X185241548Y-189164019D01*
X185241548Y-189164019D02*
X185158214Y-189068780D01*
X185158214Y-189068780D02*
X185265357Y-188973542D01*
X185265357Y-188973542D02*
X185241548Y-189164019D01*
D10*
X178958026Y-185607614D02*
X178458026Y-185607614D01*
X178458026Y-186393328D02*
X178458026Y-184893328D01*
X178458026Y-184893328D02*
X179172312Y-184893328D01*
X179743740Y-186393328D02*
X179743740Y-185393328D01*
X179743740Y-184893328D02*
X179672312Y-184964757D01*
X179672312Y-184964757D02*
X179743740Y-185036185D01*
X179743740Y-185036185D02*
X179815169Y-184964757D01*
X179815169Y-184964757D02*
X179743740Y-184893328D01*
X179743740Y-184893328D02*
X179743740Y-185036185D01*
X180672312Y-186393328D02*
X180529455Y-186321900D01*
X180529455Y-186321900D02*
X180458026Y-186179042D01*
X180458026Y-186179042D02*
X180458026Y-184893328D01*
X181815169Y-186321900D02*
X181672312Y-186393328D01*
X181672312Y-186393328D02*
X181386598Y-186393328D01*
X181386598Y-186393328D02*
X181243740Y-186321900D01*
X181243740Y-186321900D02*
X181172312Y-186179042D01*
X181172312Y-186179042D02*
X181172312Y-185607614D01*
X181172312Y-185607614D02*
X181243740Y-185464757D01*
X181243740Y-185464757D02*
X181386598Y-185393328D01*
X181386598Y-185393328D02*
X181672312Y-185393328D01*
X181672312Y-185393328D02*
X181815169Y-185464757D01*
X181815169Y-185464757D02*
X181886598Y-185607614D01*
X181886598Y-185607614D02*
X181886598Y-185750471D01*
X181886598Y-185750471D02*
X181172312Y-185893328D01*
X182529454Y-186250471D02*
X182600883Y-186321900D01*
X182600883Y-186321900D02*
X182529454Y-186393328D01*
X182529454Y-186393328D02*
X182458026Y-186321900D01*
X182458026Y-186321900D02*
X182529454Y-186250471D01*
X182529454Y-186250471D02*
X182529454Y-186393328D01*
X182529454Y-185464757D02*
X182600883Y-185536185D01*
X182600883Y-185536185D02*
X182529454Y-185607614D01*
X182529454Y-185607614D02*
X182458026Y-185536185D01*
X182458026Y-185536185D02*
X182529454Y-185464757D01*
X182529454Y-185464757D02*
X182529454Y-185607614D01*
X185100883Y-186393328D02*
X184386597Y-186393328D01*
X184386597Y-186393328D02*
X184386597Y-184893328D01*
X186172312Y-186321900D02*
X186029455Y-186393328D01*
X186029455Y-186393328D02*
X185743741Y-186393328D01*
X185743741Y-186393328D02*
X185600883Y-186321900D01*
X185600883Y-186321900D02*
X185529455Y-186179042D01*
X185529455Y-186179042D02*
X185529455Y-185607614D01*
X185529455Y-185607614D02*
X185600883Y-185464757D01*
X185600883Y-185464757D02*
X185743741Y-185393328D01*
X185743741Y-185393328D02*
X186029455Y-185393328D01*
X186029455Y-185393328D02*
X186172312Y-185464757D01*
X186172312Y-185464757D02*
X186243741Y-185607614D01*
X186243741Y-185607614D02*
X186243741Y-185750471D01*
X186243741Y-185750471D02*
X185529455Y-185893328D01*
X187529455Y-185393328D02*
X187529455Y-186607614D01*
X187529455Y-186607614D02*
X187458026Y-186750471D01*
X187458026Y-186750471D02*
X187386597Y-186821900D01*
X187386597Y-186821900D02*
X187243740Y-186893328D01*
X187243740Y-186893328D02*
X187029455Y-186893328D01*
X187029455Y-186893328D02*
X186886597Y-186821900D01*
X187529455Y-186321900D02*
X187386597Y-186393328D01*
X187386597Y-186393328D02*
X187100883Y-186393328D01*
X187100883Y-186393328D02*
X186958026Y-186321900D01*
X186958026Y-186321900D02*
X186886597Y-186250471D01*
X186886597Y-186250471D02*
X186815169Y-186107614D01*
X186815169Y-186107614D02*
X186815169Y-185679042D01*
X186815169Y-185679042D02*
X186886597Y-185536185D01*
X186886597Y-185536185D02*
X186958026Y-185464757D01*
X186958026Y-185464757D02*
X187100883Y-185393328D01*
X187100883Y-185393328D02*
X187386597Y-185393328D01*
X187386597Y-185393328D02*
X187529455Y-185464757D01*
X188172312Y-186321900D02*
X188315169Y-186393328D01*
X188315169Y-186393328D02*
X188600883Y-186393328D01*
X188600883Y-186393328D02*
X188743740Y-186321900D01*
X188743740Y-186321900D02*
X188815169Y-186179042D01*
X188815169Y-186179042D02*
X188815169Y-186107614D01*
X188815169Y-186107614D02*
X188743740Y-185964757D01*
X188743740Y-185964757D02*
X188600883Y-185893328D01*
X188600883Y-185893328D02*
X188386598Y-185893328D01*
X188386598Y-185893328D02*
X188243740Y-185821900D01*
X188243740Y-185821900D02*
X188172312Y-185679042D01*
X188172312Y-185679042D02*
X188172312Y-185607614D01*
X188172312Y-185607614D02*
X188243740Y-185464757D01*
X188243740Y-185464757D02*
X188386598Y-185393328D01*
X188386598Y-185393328D02*
X188600883Y-185393328D01*
X188600883Y-185393328D02*
X188743740Y-185464757D01*
X190600883Y-186393328D02*
X190600883Y-184893328D01*
X190600883Y-184893328D02*
X191172312Y-184893328D01*
X191172312Y-184893328D02*
X191315169Y-184964757D01*
X191315169Y-184964757D02*
X191386598Y-185036185D01*
X191386598Y-185036185D02*
X191458026Y-185179042D01*
X191458026Y-185179042D02*
X191458026Y-185393328D01*
X191458026Y-185393328D02*
X191386598Y-185536185D01*
X191386598Y-185536185D02*
X191315169Y-185607614D01*
X191315169Y-185607614D02*
X191172312Y-185679042D01*
X191172312Y-185679042D02*
X190600883Y-185679042D01*
X192315169Y-186393328D02*
X192172312Y-186321900D01*
X192172312Y-186321900D02*
X192100883Y-186250471D01*
X192100883Y-186250471D02*
X192029455Y-186107614D01*
X192029455Y-186107614D02*
X192029455Y-185679042D01*
X192029455Y-185679042D02*
X192100883Y-185536185D01*
X192100883Y-185536185D02*
X192172312Y-185464757D01*
X192172312Y-185464757D02*
X192315169Y-185393328D01*
X192315169Y-185393328D02*
X192529455Y-185393328D01*
X192529455Y-185393328D02*
X192672312Y-185464757D01*
X192672312Y-185464757D02*
X192743741Y-185536185D01*
X192743741Y-185536185D02*
X192815169Y-185679042D01*
X192815169Y-185679042D02*
X192815169Y-186107614D01*
X192815169Y-186107614D02*
X192743741Y-186250471D01*
X192743741Y-186250471D02*
X192672312Y-186321900D01*
X192672312Y-186321900D02*
X192529455Y-186393328D01*
X192529455Y-186393328D02*
X192315169Y-186393328D01*
X193315169Y-185393328D02*
X193600884Y-186393328D01*
X193600884Y-186393328D02*
X193886598Y-185679042D01*
X193886598Y-185679042D02*
X194172312Y-186393328D01*
X194172312Y-186393328D02*
X194458026Y-185393328D01*
X195600884Y-186321900D02*
X195458027Y-186393328D01*
X195458027Y-186393328D02*
X195172313Y-186393328D01*
X195172313Y-186393328D02*
X195029455Y-186321900D01*
X195029455Y-186321900D02*
X194958027Y-186179042D01*
X194958027Y-186179042D02*
X194958027Y-185607614D01*
X194958027Y-185607614D02*
X195029455Y-185464757D01*
X195029455Y-185464757D02*
X195172313Y-185393328D01*
X195172313Y-185393328D02*
X195458027Y-185393328D01*
X195458027Y-185393328D02*
X195600884Y-185464757D01*
X195600884Y-185464757D02*
X195672313Y-185607614D01*
X195672313Y-185607614D02*
X195672313Y-185750471D01*
X195672313Y-185750471D02*
X194958027Y-185893328D01*
X196315169Y-186393328D02*
X196315169Y-185393328D01*
X196315169Y-185679042D02*
X196386598Y-185536185D01*
X196386598Y-185536185D02*
X196458027Y-185464757D01*
X196458027Y-185464757D02*
X196600884Y-185393328D01*
X196600884Y-185393328D02*
X196743741Y-185393328D01*
X197243740Y-186250471D02*
X197315169Y-186321900D01*
X197315169Y-186321900D02*
X197243740Y-186393328D01*
X197243740Y-186393328D02*
X197172312Y-186321900D01*
X197172312Y-186321900D02*
X197243740Y-186250471D01*
X197243740Y-186250471D02*
X197243740Y-186393328D01*
X197958026Y-186393328D02*
X197958026Y-184893328D01*
X198100884Y-185821900D02*
X198529455Y-186393328D01*
X198529455Y-185393328D02*
X197958026Y-185964757D01*
X199172312Y-186393328D02*
X199172312Y-185393328D01*
X199172312Y-184893328D02*
X199100884Y-184964757D01*
X199100884Y-184964757D02*
X199172312Y-185036185D01*
X199172312Y-185036185D02*
X199243741Y-184964757D01*
X199243741Y-184964757D02*
X199172312Y-184893328D01*
X199172312Y-184893328D02*
X199172312Y-185036185D01*
X200529456Y-186321900D02*
X200386598Y-186393328D01*
X200386598Y-186393328D02*
X200100884Y-186393328D01*
X200100884Y-186393328D02*
X199958027Y-186321900D01*
X199958027Y-186321900D02*
X199886598Y-186250471D01*
X199886598Y-186250471D02*
X199815170Y-186107614D01*
X199815170Y-186107614D02*
X199815170Y-185679042D01*
X199815170Y-185679042D02*
X199886598Y-185536185D01*
X199886598Y-185536185D02*
X199958027Y-185464757D01*
X199958027Y-185464757D02*
X200100884Y-185393328D01*
X200100884Y-185393328D02*
X200386598Y-185393328D01*
X200386598Y-185393328D02*
X200529456Y-185464757D01*
X201815170Y-186393328D02*
X201815170Y-185607614D01*
X201815170Y-185607614D02*
X201743741Y-185464757D01*
X201743741Y-185464757D02*
X201600884Y-185393328D01*
X201600884Y-185393328D02*
X201315170Y-185393328D01*
X201315170Y-185393328D02*
X201172312Y-185464757D01*
X201815170Y-186321900D02*
X201672312Y-186393328D01*
X201672312Y-186393328D02*
X201315170Y-186393328D01*
X201315170Y-186393328D02*
X201172312Y-186321900D01*
X201172312Y-186321900D02*
X201100884Y-186179042D01*
X201100884Y-186179042D02*
X201100884Y-186036185D01*
X201100884Y-186036185D02*
X201172312Y-185893328D01*
X201172312Y-185893328D02*
X201315170Y-185821900D01*
X201315170Y-185821900D02*
X201672312Y-185821900D01*
X201672312Y-185821900D02*
X201815170Y-185750471D01*
X203172313Y-186393328D02*
X203172313Y-184893328D01*
X203172313Y-186321900D02*
X203029455Y-186393328D01*
X203029455Y-186393328D02*
X202743741Y-186393328D01*
X202743741Y-186393328D02*
X202600884Y-186321900D01*
X202600884Y-186321900D02*
X202529455Y-186250471D01*
X202529455Y-186250471D02*
X202458027Y-186107614D01*
X202458027Y-186107614D02*
X202458027Y-185679042D01*
X202458027Y-185679042D02*
X202529455Y-185536185D01*
X202529455Y-185536185D02*
X202600884Y-185464757D01*
X202600884Y-185464757D02*
X202743741Y-185393328D01*
X202743741Y-185393328D02*
X203029455Y-185393328D01*
X203029455Y-185393328D02*
X203172313Y-185464757D01*
X203529456Y-186536185D02*
X204672313Y-186536185D01*
X205029455Y-185393328D02*
X205029455Y-186893328D01*
X205029455Y-185464757D02*
X205172313Y-185393328D01*
X205172313Y-185393328D02*
X205458027Y-185393328D01*
X205458027Y-185393328D02*
X205600884Y-185464757D01*
X205600884Y-185464757D02*
X205672313Y-185536185D01*
X205672313Y-185536185D02*
X205743741Y-185679042D01*
X205743741Y-185679042D02*
X205743741Y-186107614D01*
X205743741Y-186107614D02*
X205672313Y-186250471D01*
X205672313Y-186250471D02*
X205600884Y-186321900D01*
X205600884Y-186321900D02*
X205458027Y-186393328D01*
X205458027Y-186393328D02*
X205172313Y-186393328D01*
X205172313Y-186393328D02*
X205029455Y-186321900D01*
X207029456Y-186321900D02*
X206886598Y-186393328D01*
X206886598Y-186393328D02*
X206600884Y-186393328D01*
X206600884Y-186393328D02*
X206458027Y-186321900D01*
X206458027Y-186321900D02*
X206386598Y-186250471D01*
X206386598Y-186250471D02*
X206315170Y-186107614D01*
X206315170Y-186107614D02*
X206315170Y-185679042D01*
X206315170Y-185679042D02*
X206386598Y-185536185D01*
X206386598Y-185536185D02*
X206458027Y-185464757D01*
X206458027Y-185464757D02*
X206600884Y-185393328D01*
X206600884Y-185393328D02*
X206886598Y-185393328D01*
X206886598Y-185393328D02*
X207029456Y-185464757D01*
X207672312Y-186393328D02*
X207672312Y-184893328D01*
X207672312Y-185464757D02*
X207815170Y-185393328D01*
X207815170Y-185393328D02*
X208100884Y-185393328D01*
X208100884Y-185393328D02*
X208243741Y-185464757D01*
X208243741Y-185464757D02*
X208315170Y-185536185D01*
X208315170Y-185536185D02*
X208386598Y-185679042D01*
X208386598Y-185679042D02*
X208386598Y-186107614D01*
X208386598Y-186107614D02*
X208315170Y-186250471D01*
X208315170Y-186250471D02*
X208243741Y-186321900D01*
X208243741Y-186321900D02*
X208100884Y-186393328D01*
X208100884Y-186393328D02*
X207815170Y-186393328D01*
X207815170Y-186393328D02*
X207672312Y-186321900D01*
X177002200Y-181507200D02*
X285002200Y-181507200D01*
X178386598Y-183621900D02*
X178600884Y-183693328D01*
X178600884Y-183693328D02*
X178958026Y-183693328D01*
X178958026Y-183693328D02*
X179100884Y-183621900D01*
X179100884Y-183621900D02*
X179172312Y-183550471D01*
X179172312Y-183550471D02*
X179243741Y-183407614D01*
X179243741Y-183407614D02*
X179243741Y-183264757D01*
X179243741Y-183264757D02*
X179172312Y-183121900D01*
X179172312Y-183121900D02*
X179100884Y-183050471D01*
X179100884Y-183050471D02*
X178958026Y-182979042D01*
X178958026Y-182979042D02*
X178672312Y-182907614D01*
X178672312Y-182907614D02*
X178529455Y-182836185D01*
X178529455Y-182836185D02*
X178458026Y-182764757D01*
X178458026Y-182764757D02*
X178386598Y-182621900D01*
X178386598Y-182621900D02*
X178386598Y-182479042D01*
X178386598Y-182479042D02*
X178458026Y-182336185D01*
X178458026Y-182336185D02*
X178529455Y-182264757D01*
X178529455Y-182264757D02*
X178672312Y-182193328D01*
X178672312Y-182193328D02*
X179029455Y-182193328D01*
X179029455Y-182193328D02*
X179243741Y-182264757D01*
X179886597Y-183693328D02*
X179886597Y-182193328D01*
X180529455Y-183693328D02*
X180529455Y-182907614D01*
X180529455Y-182907614D02*
X180458026Y-182764757D01*
X180458026Y-182764757D02*
X180315169Y-182693328D01*
X180315169Y-182693328D02*
X180100883Y-182693328D01*
X180100883Y-182693328D02*
X179958026Y-182764757D01*
X179958026Y-182764757D02*
X179886597Y-182836185D01*
X181815169Y-183621900D02*
X181672312Y-183693328D01*
X181672312Y-183693328D02*
X181386598Y-183693328D01*
X181386598Y-183693328D02*
X181243740Y-183621900D01*
X181243740Y-183621900D02*
X181172312Y-183479042D01*
X181172312Y-183479042D02*
X181172312Y-182907614D01*
X181172312Y-182907614D02*
X181243740Y-182764757D01*
X181243740Y-182764757D02*
X181386598Y-182693328D01*
X181386598Y-182693328D02*
X181672312Y-182693328D01*
X181672312Y-182693328D02*
X181815169Y-182764757D01*
X181815169Y-182764757D02*
X181886598Y-182907614D01*
X181886598Y-182907614D02*
X181886598Y-183050471D01*
X181886598Y-183050471D02*
X181172312Y-183193328D01*
X183100883Y-183621900D02*
X182958026Y-183693328D01*
X182958026Y-183693328D02*
X182672312Y-183693328D01*
X182672312Y-183693328D02*
X182529454Y-183621900D01*
X182529454Y-183621900D02*
X182458026Y-183479042D01*
X182458026Y-183479042D02*
X182458026Y-182907614D01*
X182458026Y-182907614D02*
X182529454Y-182764757D01*
X182529454Y-182764757D02*
X182672312Y-182693328D01*
X182672312Y-182693328D02*
X182958026Y-182693328D01*
X182958026Y-182693328D02*
X183100883Y-182764757D01*
X183100883Y-182764757D02*
X183172312Y-182907614D01*
X183172312Y-182907614D02*
X183172312Y-183050471D01*
X183172312Y-183050471D02*
X182458026Y-183193328D01*
X183600883Y-182693328D02*
X184172311Y-182693328D01*
X183815168Y-182193328D02*
X183815168Y-183479042D01*
X183815168Y-183479042D02*
X183886597Y-183621900D01*
X183886597Y-183621900D02*
X184029454Y-183693328D01*
X184029454Y-183693328D02*
X184172311Y-183693328D01*
X184672311Y-183550471D02*
X184743740Y-183621900D01*
X184743740Y-183621900D02*
X184672311Y-183693328D01*
X184672311Y-183693328D02*
X184600883Y-183621900D01*
X184600883Y-183621900D02*
X184672311Y-183550471D01*
X184672311Y-183550471D02*
X184672311Y-183693328D01*
X184672311Y-182764757D02*
X184743740Y-182836185D01*
X184743740Y-182836185D02*
X184672311Y-182907614D01*
X184672311Y-182907614D02*
X184600883Y-182836185D01*
X184600883Y-182836185D02*
X184672311Y-182764757D01*
X184672311Y-182764757D02*
X184672311Y-182907614D01*
X197002200Y-191507200D02*
X197002200Y-194507200D01*
X261002200Y-191507200D02*
X261002200Y-198007200D01*
X105190476Y-42434819D02*
X105190476Y-43149104D01*
X105190476Y-43149104D02*
X105142857Y-43291961D01*
X105142857Y-43291961D02*
X105047619Y-43387200D01*
X105047619Y-43387200D02*
X104904762Y-43434819D01*
X104904762Y-43434819D02*
X104809524Y-43434819D01*
X106190476Y-43434819D02*
X105619048Y-43434819D01*
X105904762Y-43434819D02*
X105904762Y-42434819D01*
X105904762Y-42434819D02*
X105809524Y-42577676D01*
X105809524Y-42577676D02*
X105714286Y-42672914D01*
X105714286Y-42672914D02*
X105619048Y-42720533D01*
X107142857Y-43434819D02*
X106571429Y-43434819D01*
X106857143Y-43434819D02*
X106857143Y-42434819D01*
X106857143Y-42434819D02*
X106761905Y-42577676D01*
X106761905Y-42577676D02*
X106666667Y-42672914D01*
X106666667Y-42672914D02*
X106571429Y-42720533D01*
X110810476Y-42434819D02*
X110810476Y-43149104D01*
X110810476Y-43149104D02*
X110762857Y-43291961D01*
X110762857Y-43291961D02*
X110667619Y-43387200D01*
X110667619Y-43387200D02*
X110524762Y-43434819D01*
X110524762Y-43434819D02*
X110429524Y-43434819D01*
X111239048Y-42530057D02*
X111286667Y-42482438D01*
X111286667Y-42482438D02*
X111381905Y-42434819D01*
X111381905Y-42434819D02*
X111620000Y-42434819D01*
X111620000Y-42434819D02*
X111715238Y-42482438D01*
X111715238Y-42482438D02*
X111762857Y-42530057D01*
X111762857Y-42530057D02*
X111810476Y-42625295D01*
X111810476Y-42625295D02*
X111810476Y-42720533D01*
X111810476Y-42720533D02*
X111762857Y-42863390D01*
X111762857Y-42863390D02*
X111191429Y-43434819D01*
X111191429Y-43434819D02*
X111810476Y-43434819D01*
X112667619Y-42434819D02*
X112477143Y-42434819D01*
X112477143Y-42434819D02*
X112381905Y-42482438D01*
X112381905Y-42482438D02*
X112334286Y-42530057D01*
X112334286Y-42530057D02*
X112239048Y-42672914D01*
X112239048Y-42672914D02*
X112191429Y-42863390D01*
X112191429Y-42863390D02*
X112191429Y-43244342D01*
X112191429Y-43244342D02*
X112239048Y-43339580D01*
X112239048Y-43339580D02*
X112286667Y-43387200D01*
X112286667Y-43387200D02*
X112381905Y-43434819D01*
X112381905Y-43434819D02*
X112572381Y-43434819D01*
X112572381Y-43434819D02*
X112667619Y-43387200D01*
X112667619Y-43387200D02*
X112715238Y-43339580D01*
X112715238Y-43339580D02*
X112762857Y-43244342D01*
X112762857Y-43244342D02*
X112762857Y-43006247D01*
X112762857Y-43006247D02*
X112715238Y-42911009D01*
X112715238Y-42911009D02*
X112667619Y-42863390D01*
X112667619Y-42863390D02*
X112572381Y-42815771D01*
X112572381Y-42815771D02*
X112381905Y-42815771D01*
X112381905Y-42815771D02*
X112286667Y-42863390D01*
X112286667Y-42863390D02*
X112239048Y-42911009D01*
X112239048Y-42911009D02*
X112191429Y-43006247D01*
X110810476Y-55374819D02*
X110810476Y-56089104D01*
X110810476Y-56089104D02*
X110762857Y-56231961D01*
X110762857Y-56231961D02*
X110667619Y-56327200D01*
X110667619Y-56327200D02*
X110524762Y-56374819D01*
X110524762Y-56374819D02*
X110429524Y-56374819D01*
X111239048Y-55470057D02*
X111286667Y-55422438D01*
X111286667Y-55422438D02*
X111381905Y-55374819D01*
X111381905Y-55374819D02*
X111620000Y-55374819D01*
X111620000Y-55374819D02*
X111715238Y-55422438D01*
X111715238Y-55422438D02*
X111762857Y-55470057D01*
X111762857Y-55470057D02*
X111810476Y-55565295D01*
X111810476Y-55565295D02*
X111810476Y-55660533D01*
X111810476Y-55660533D02*
X111762857Y-55803390D01*
X111762857Y-55803390D02*
X111191429Y-56374819D01*
X111191429Y-56374819D02*
X111810476Y-56374819D01*
X112715238Y-55374819D02*
X112239048Y-55374819D01*
X112239048Y-55374819D02*
X112191429Y-55851009D01*
X112191429Y-55851009D02*
X112239048Y-55803390D01*
X112239048Y-55803390D02*
X112334286Y-55755771D01*
X112334286Y-55755771D02*
X112572381Y-55755771D01*
X112572381Y-55755771D02*
X112667619Y-55803390D01*
X112667619Y-55803390D02*
X112715238Y-55851009D01*
X112715238Y-55851009D02*
X112762857Y-55946247D01*
X112762857Y-55946247D02*
X112762857Y-56184342D01*
X112762857Y-56184342D02*
X112715238Y-56279580D01*
X112715238Y-56279580D02*
X112667619Y-56327200D01*
X112667619Y-56327200D02*
X112572381Y-56374819D01*
X112572381Y-56374819D02*
X112334286Y-56374819D01*
X112334286Y-56374819D02*
X112239048Y-56327200D01*
X112239048Y-56327200D02*
X112191429Y-56279580D01*
X110810476Y-71084819D02*
X110810476Y-71799104D01*
X110810476Y-71799104D02*
X110762857Y-71941961D01*
X110762857Y-71941961D02*
X110667619Y-72037200D01*
X110667619Y-72037200D02*
X110524762Y-72084819D01*
X110524762Y-72084819D02*
X110429524Y-72084819D01*
X111239048Y-71180057D02*
X111286667Y-71132438D01*
X111286667Y-71132438D02*
X111381905Y-71084819D01*
X111381905Y-71084819D02*
X111620000Y-71084819D01*
X111620000Y-71084819D02*
X111715238Y-71132438D01*
X111715238Y-71132438D02*
X111762857Y-71180057D01*
X111762857Y-71180057D02*
X111810476Y-71275295D01*
X111810476Y-71275295D02*
X111810476Y-71370533D01*
X111810476Y-71370533D02*
X111762857Y-71513390D01*
X111762857Y-71513390D02*
X111191429Y-72084819D01*
X111191429Y-72084819D02*
X111810476Y-72084819D01*
X112667619Y-71418152D02*
X112667619Y-72084819D01*
X112429524Y-71037200D02*
X112191429Y-71751485D01*
X112191429Y-71751485D02*
X112810476Y-71751485D01*
X110810476Y-83874819D02*
X110810476Y-84589104D01*
X110810476Y-84589104D02*
X110762857Y-84731961D01*
X110762857Y-84731961D02*
X110667619Y-84827200D01*
X110667619Y-84827200D02*
X110524762Y-84874819D01*
X110524762Y-84874819D02*
X110429524Y-84874819D01*
X111239048Y-83970057D02*
X111286667Y-83922438D01*
X111286667Y-83922438D02*
X111381905Y-83874819D01*
X111381905Y-83874819D02*
X111620000Y-83874819D01*
X111620000Y-83874819D02*
X111715238Y-83922438D01*
X111715238Y-83922438D02*
X111762857Y-83970057D01*
X111762857Y-83970057D02*
X111810476Y-84065295D01*
X111810476Y-84065295D02*
X111810476Y-84160533D01*
X111810476Y-84160533D02*
X111762857Y-84303390D01*
X111762857Y-84303390D02*
X111191429Y-84874819D01*
X111191429Y-84874819D02*
X111810476Y-84874819D01*
X112143810Y-83874819D02*
X112762857Y-83874819D01*
X112762857Y-83874819D02*
X112429524Y-84255771D01*
X112429524Y-84255771D02*
X112572381Y-84255771D01*
X112572381Y-84255771D02*
X112667619Y-84303390D01*
X112667619Y-84303390D02*
X112715238Y-84351009D01*
X112715238Y-84351009D02*
X112762857Y-84446247D01*
X112762857Y-84446247D02*
X112762857Y-84684342D01*
X112762857Y-84684342D02*
X112715238Y-84779580D01*
X112715238Y-84779580D02*
X112667619Y-84827200D01*
X112667619Y-84827200D02*
X112572381Y-84874819D01*
X112572381Y-84874819D02*
X112286667Y-84874819D01*
X112286667Y-84874819D02*
X112191429Y-84827200D01*
X112191429Y-84827200D02*
X112143810Y-84779580D01*
X108000476Y-83874819D02*
X108000476Y-84589104D01*
X108000476Y-84589104D02*
X107952857Y-84731961D01*
X107952857Y-84731961D02*
X107857619Y-84827200D01*
X107857619Y-84827200D02*
X107714762Y-84874819D01*
X107714762Y-84874819D02*
X107619524Y-84874819D01*
X108429048Y-83970057D02*
X108476667Y-83922438D01*
X108476667Y-83922438D02*
X108571905Y-83874819D01*
X108571905Y-83874819D02*
X108810000Y-83874819D01*
X108810000Y-83874819D02*
X108905238Y-83922438D01*
X108905238Y-83922438D02*
X108952857Y-83970057D01*
X108952857Y-83970057D02*
X109000476Y-84065295D01*
X109000476Y-84065295D02*
X109000476Y-84160533D01*
X109000476Y-84160533D02*
X108952857Y-84303390D01*
X108952857Y-84303390D02*
X108381429Y-84874819D01*
X108381429Y-84874819D02*
X109000476Y-84874819D01*
X109381429Y-83970057D02*
X109429048Y-83922438D01*
X109429048Y-83922438D02*
X109524286Y-83874819D01*
X109524286Y-83874819D02*
X109762381Y-83874819D01*
X109762381Y-83874819D02*
X109857619Y-83922438D01*
X109857619Y-83922438D02*
X109905238Y-83970057D01*
X109905238Y-83970057D02*
X109952857Y-84065295D01*
X109952857Y-84065295D02*
X109952857Y-84160533D01*
X109952857Y-84160533D02*
X109905238Y-84303390D01*
X109905238Y-84303390D02*
X109333810Y-84874819D01*
X109333810Y-84874819D02*
X109952857Y-84874819D01*
X108000476Y-71084819D02*
X108000476Y-71799104D01*
X108000476Y-71799104D02*
X107952857Y-71941961D01*
X107952857Y-71941961D02*
X107857619Y-72037200D01*
X107857619Y-72037200D02*
X107714762Y-72084819D01*
X107714762Y-72084819D02*
X107619524Y-72084819D01*
X108429048Y-71180057D02*
X108476667Y-71132438D01*
X108476667Y-71132438D02*
X108571905Y-71084819D01*
X108571905Y-71084819D02*
X108810000Y-71084819D01*
X108810000Y-71084819D02*
X108905238Y-71132438D01*
X108905238Y-71132438D02*
X108952857Y-71180057D01*
X108952857Y-71180057D02*
X109000476Y-71275295D01*
X109000476Y-71275295D02*
X109000476Y-71370533D01*
X109000476Y-71370533D02*
X108952857Y-71513390D01*
X108952857Y-71513390D02*
X108381429Y-72084819D01*
X108381429Y-72084819D02*
X109000476Y-72084819D01*
X109952857Y-72084819D02*
X109381429Y-72084819D01*
X109667143Y-72084819D02*
X109667143Y-71084819D01*
X109667143Y-71084819D02*
X109571905Y-71227676D01*
X109571905Y-71227676D02*
X109476667Y-71322914D01*
X109476667Y-71322914D02*
X109381429Y-71370533D01*
X108000476Y-42434819D02*
X108000476Y-43149104D01*
X108000476Y-43149104D02*
X107952857Y-43291961D01*
X107952857Y-43291961D02*
X107857619Y-43387200D01*
X107857619Y-43387200D02*
X107714762Y-43434819D01*
X107714762Y-43434819D02*
X107619524Y-43434819D01*
X108429048Y-42530057D02*
X108476667Y-42482438D01*
X108476667Y-42482438D02*
X108571905Y-42434819D01*
X108571905Y-42434819D02*
X108810000Y-42434819D01*
X108810000Y-42434819D02*
X108905238Y-42482438D01*
X108905238Y-42482438D02*
X108952857Y-42530057D01*
X108952857Y-42530057D02*
X109000476Y-42625295D01*
X109000476Y-42625295D02*
X109000476Y-42720533D01*
X109000476Y-42720533D02*
X108952857Y-42863390D01*
X108952857Y-42863390D02*
X108381429Y-43434819D01*
X108381429Y-43434819D02*
X109000476Y-43434819D01*
X109619524Y-42434819D02*
X109714762Y-42434819D01*
X109714762Y-42434819D02*
X109810000Y-42482438D01*
X109810000Y-42482438D02*
X109857619Y-42530057D01*
X109857619Y-42530057D02*
X109905238Y-42625295D01*
X109905238Y-42625295D02*
X109952857Y-42815771D01*
X109952857Y-42815771D02*
X109952857Y-43053866D01*
X109952857Y-43053866D02*
X109905238Y-43244342D01*
X109905238Y-43244342D02*
X109857619Y-43339580D01*
X109857619Y-43339580D02*
X109810000Y-43387200D01*
X109810000Y-43387200D02*
X109714762Y-43434819D01*
X109714762Y-43434819D02*
X109619524Y-43434819D01*
X109619524Y-43434819D02*
X109524286Y-43387200D01*
X109524286Y-43387200D02*
X109476667Y-43339580D01*
X109476667Y-43339580D02*
X109429048Y-43244342D01*
X109429048Y-43244342D02*
X109381429Y-43053866D01*
X109381429Y-43053866D02*
X109381429Y-42815771D01*
X109381429Y-42815771D02*
X109429048Y-42625295D01*
X109429048Y-42625295D02*
X109476667Y-42530057D01*
X109476667Y-42530057D02*
X109524286Y-42482438D01*
X109524286Y-42482438D02*
X109619524Y-42434819D01*
X108000476Y-55374819D02*
X108000476Y-56089104D01*
X108000476Y-56089104D02*
X107952857Y-56231961D01*
X107952857Y-56231961D02*
X107857619Y-56327200D01*
X107857619Y-56327200D02*
X107714762Y-56374819D01*
X107714762Y-56374819D02*
X107619524Y-56374819D01*
X109000476Y-56374819D02*
X108429048Y-56374819D01*
X108714762Y-56374819D02*
X108714762Y-55374819D01*
X108714762Y-55374819D02*
X108619524Y-55517676D01*
X108619524Y-55517676D02*
X108524286Y-55612914D01*
X108524286Y-55612914D02*
X108429048Y-55660533D01*
X109476667Y-56374819D02*
X109667143Y-56374819D01*
X109667143Y-56374819D02*
X109762381Y-56327200D01*
X109762381Y-56327200D02*
X109810000Y-56279580D01*
X109810000Y-56279580D02*
X109905238Y-56136723D01*
X109905238Y-56136723D02*
X109952857Y-55946247D01*
X109952857Y-55946247D02*
X109952857Y-55565295D01*
X109952857Y-55565295D02*
X109905238Y-55470057D01*
X109905238Y-55470057D02*
X109857619Y-55422438D01*
X109857619Y-55422438D02*
X109762381Y-55374819D01*
X109762381Y-55374819D02*
X109571905Y-55374819D01*
X109571905Y-55374819D02*
X109476667Y-55422438D01*
X109476667Y-55422438D02*
X109429048Y-55470057D01*
X109429048Y-55470057D02*
X109381429Y-55565295D01*
X109381429Y-55565295D02*
X109381429Y-55803390D01*
X109381429Y-55803390D02*
X109429048Y-55898628D01*
X109429048Y-55898628D02*
X109476667Y-55946247D01*
X109476667Y-55946247D02*
X109571905Y-55993866D01*
X109571905Y-55993866D02*
X109762381Y-55993866D01*
X109762381Y-55993866D02*
X109857619Y-55946247D01*
X109857619Y-55946247D02*
X109905238Y-55898628D01*
X109905238Y-55898628D02*
X109952857Y-55803390D01*
X105190476Y-71084819D02*
X105190476Y-71799104D01*
X105190476Y-71799104D02*
X105142857Y-71941961D01*
X105142857Y-71941961D02*
X105047619Y-72037200D01*
X105047619Y-72037200D02*
X104904762Y-72084819D01*
X104904762Y-72084819D02*
X104809524Y-72084819D01*
X106190476Y-72084819D02*
X105619048Y-72084819D01*
X105904762Y-72084819D02*
X105904762Y-71084819D01*
X105904762Y-71084819D02*
X105809524Y-71227676D01*
X105809524Y-71227676D02*
X105714286Y-71322914D01*
X105714286Y-71322914D02*
X105619048Y-71370533D01*
X106761905Y-71513390D02*
X106666667Y-71465771D01*
X106666667Y-71465771D02*
X106619048Y-71418152D01*
X106619048Y-71418152D02*
X106571429Y-71322914D01*
X106571429Y-71322914D02*
X106571429Y-71275295D01*
X106571429Y-71275295D02*
X106619048Y-71180057D01*
X106619048Y-71180057D02*
X106666667Y-71132438D01*
X106666667Y-71132438D02*
X106761905Y-71084819D01*
X106761905Y-71084819D02*
X106952381Y-71084819D01*
X106952381Y-71084819D02*
X107047619Y-71132438D01*
X107047619Y-71132438D02*
X107095238Y-71180057D01*
X107095238Y-71180057D02*
X107142857Y-71275295D01*
X107142857Y-71275295D02*
X107142857Y-71322914D01*
X107142857Y-71322914D02*
X107095238Y-71418152D01*
X107095238Y-71418152D02*
X107047619Y-71465771D01*
X107047619Y-71465771D02*
X106952381Y-71513390D01*
X106952381Y-71513390D02*
X106761905Y-71513390D01*
X106761905Y-71513390D02*
X106666667Y-71561009D01*
X106666667Y-71561009D02*
X106619048Y-71608628D01*
X106619048Y-71608628D02*
X106571429Y-71703866D01*
X106571429Y-71703866D02*
X106571429Y-71894342D01*
X106571429Y-71894342D02*
X106619048Y-71989580D01*
X106619048Y-71989580D02*
X106666667Y-72037200D01*
X106666667Y-72037200D02*
X106761905Y-72084819D01*
X106761905Y-72084819D02*
X106952381Y-72084819D01*
X106952381Y-72084819D02*
X107047619Y-72037200D01*
X107047619Y-72037200D02*
X107095238Y-71989580D01*
X107095238Y-71989580D02*
X107142857Y-71894342D01*
X107142857Y-71894342D02*
X107142857Y-71703866D01*
X107142857Y-71703866D02*
X107095238Y-71608628D01*
X107095238Y-71608628D02*
X107047619Y-71561009D01*
X107047619Y-71561009D02*
X106952381Y-71513390D01*
X105190476Y-55374819D02*
X105190476Y-56089104D01*
X105190476Y-56089104D02*
X105142857Y-56231961D01*
X105142857Y-56231961D02*
X105047619Y-56327200D01*
X105047619Y-56327200D02*
X104904762Y-56374819D01*
X104904762Y-56374819D02*
X104809524Y-56374819D01*
X106190476Y-56374819D02*
X105619048Y-56374819D01*
X105904762Y-56374819D02*
X105904762Y-55374819D01*
X105904762Y-55374819D02*
X105809524Y-55517676D01*
X105809524Y-55517676D02*
X105714286Y-55612914D01*
X105714286Y-55612914D02*
X105619048Y-55660533D01*
X106523810Y-55374819D02*
X107142857Y-55374819D01*
X107142857Y-55374819D02*
X106809524Y-55755771D01*
X106809524Y-55755771D02*
X106952381Y-55755771D01*
X106952381Y-55755771D02*
X107047619Y-55803390D01*
X107047619Y-55803390D02*
X107095238Y-55851009D01*
X107095238Y-55851009D02*
X107142857Y-55946247D01*
X107142857Y-55946247D02*
X107142857Y-56184342D01*
X107142857Y-56184342D02*
X107095238Y-56279580D01*
X107095238Y-56279580D02*
X107047619Y-56327200D01*
X107047619Y-56327200D02*
X106952381Y-56374819D01*
X106952381Y-56374819D02*
X106666667Y-56374819D01*
X106666667Y-56374819D02*
X106571429Y-56327200D01*
X106571429Y-56327200D02*
X106523810Y-56279580D01*
X105190476Y-83874819D02*
X105190476Y-84589104D01*
X105190476Y-84589104D02*
X105142857Y-84731961D01*
X105142857Y-84731961D02*
X105047619Y-84827200D01*
X105047619Y-84827200D02*
X104904762Y-84874819D01*
X104904762Y-84874819D02*
X104809524Y-84874819D01*
X106190476Y-84874819D02*
X105619048Y-84874819D01*
X105904762Y-84874819D02*
X105904762Y-83874819D01*
X105904762Y-83874819D02*
X105809524Y-84017676D01*
X105809524Y-84017676D02*
X105714286Y-84112914D01*
X105714286Y-84112914D02*
X105619048Y-84160533D01*
X106571429Y-83970057D02*
X106619048Y-83922438D01*
X106619048Y-83922438D02*
X106714286Y-83874819D01*
X106714286Y-83874819D02*
X106952381Y-83874819D01*
X106952381Y-83874819D02*
X107047619Y-83922438D01*
X107047619Y-83922438D02*
X107095238Y-83970057D01*
X107095238Y-83970057D02*
X107142857Y-84065295D01*
X107142857Y-84065295D02*
X107142857Y-84160533D01*
X107142857Y-84160533D02*
X107095238Y-84303390D01*
X107095238Y-84303390D02*
X106523810Y-84874819D01*
X106523810Y-84874819D02*
X107142857Y-84874819D01*
X115954819Y-103999999D02*
X114954819Y-103999999D01*
X129323866Y-104380951D02*
X129323866Y-103619047D01*
X129704819Y-103999999D02*
X128942914Y-103999999D01*
X134856666Y-42484819D02*
X134856666Y-43199104D01*
X134856666Y-43199104D02*
X134809047Y-43341961D01*
X134809047Y-43341961D02*
X134713809Y-43437200D01*
X134713809Y-43437200D02*
X134570952Y-43484819D01*
X134570952Y-43484819D02*
X134475714Y-43484819D01*
X135285238Y-42580057D02*
X135332857Y-42532438D01*
X135332857Y-42532438D02*
X135428095Y-42484819D01*
X135428095Y-42484819D02*
X135666190Y-42484819D01*
X135666190Y-42484819D02*
X135761428Y-42532438D01*
X135761428Y-42532438D02*
X135809047Y-42580057D01*
X135809047Y-42580057D02*
X135856666Y-42675295D01*
X135856666Y-42675295D02*
X135856666Y-42770533D01*
X135856666Y-42770533D02*
X135809047Y-42913390D01*
X135809047Y-42913390D02*
X135237619Y-43484819D01*
X135237619Y-43484819D02*
X135856666Y-43484819D01*
X134866666Y-71024819D02*
X134866666Y-71739104D01*
X134866666Y-71739104D02*
X134819047Y-71881961D01*
X134819047Y-71881961D02*
X134723809Y-71977200D01*
X134723809Y-71977200D02*
X134580952Y-72024819D01*
X134580952Y-72024819D02*
X134485714Y-72024819D01*
X135247619Y-71024819D02*
X135866666Y-71024819D01*
X135866666Y-71024819D02*
X135533333Y-71405771D01*
X135533333Y-71405771D02*
X135676190Y-71405771D01*
X135676190Y-71405771D02*
X135771428Y-71453390D01*
X135771428Y-71453390D02*
X135819047Y-71501009D01*
X135819047Y-71501009D02*
X135866666Y-71596247D01*
X135866666Y-71596247D02*
X135866666Y-71834342D01*
X135866666Y-71834342D02*
X135819047Y-71929580D01*
X135819047Y-71929580D02*
X135771428Y-71977200D01*
X135771428Y-71977200D02*
X135676190Y-72024819D01*
X135676190Y-72024819D02*
X135390476Y-72024819D01*
X135390476Y-72024819D02*
X135295238Y-71977200D01*
X135295238Y-71977200D02*
X135247619Y-71929580D01*
X134866666Y-84024819D02*
X134866666Y-84739104D01*
X134866666Y-84739104D02*
X134819047Y-84881961D01*
X134819047Y-84881961D02*
X134723809Y-84977200D01*
X134723809Y-84977200D02*
X134580952Y-85024819D01*
X134580952Y-85024819D02*
X134485714Y-85024819D01*
X135771428Y-84358152D02*
X135771428Y-85024819D01*
X135533333Y-83977200D02*
X135295238Y-84691485D01*
X135295238Y-84691485D02*
X135914285Y-84691485D01*
X134866666Y-55424819D02*
X134866666Y-56139104D01*
X134866666Y-56139104D02*
X134819047Y-56281961D01*
X134819047Y-56281961D02*
X134723809Y-56377200D01*
X134723809Y-56377200D02*
X134580952Y-56424819D01*
X134580952Y-56424819D02*
X134485714Y-56424819D01*
X135819047Y-55424819D02*
X135342857Y-55424819D01*
X135342857Y-55424819D02*
X135295238Y-55901009D01*
X135295238Y-55901009D02*
X135342857Y-55853390D01*
X135342857Y-55853390D02*
X135438095Y-55805771D01*
X135438095Y-55805771D02*
X135676190Y-55805771D01*
X135676190Y-55805771D02*
X135771428Y-55853390D01*
X135771428Y-55853390D02*
X135819047Y-55901009D01*
X135819047Y-55901009D02*
X135866666Y-55996247D01*
X135866666Y-55996247D02*
X135866666Y-56234342D01*
X135866666Y-56234342D02*
X135819047Y-56329580D01*
X135819047Y-56329580D02*
X135771428Y-56377200D01*
X135771428Y-56377200D02*
X135676190Y-56424819D01*
X135676190Y-56424819D02*
X135438095Y-56424819D01*
X135438095Y-56424819D02*
X135342857Y-56377200D01*
X135342857Y-56377200D02*
X135295238Y-56329580D01*
X137676666Y-84024819D02*
X137676666Y-84739104D01*
X137676666Y-84739104D02*
X137629047Y-84881961D01*
X137629047Y-84881961D02*
X137533809Y-84977200D01*
X137533809Y-84977200D02*
X137390952Y-85024819D01*
X137390952Y-85024819D02*
X137295714Y-85024819D01*
X138057619Y-84024819D02*
X138724285Y-84024819D01*
X138724285Y-84024819D02*
X138295714Y-85024819D01*
X137676666Y-71024819D02*
X137676666Y-71739104D01*
X137676666Y-71739104D02*
X137629047Y-71881961D01*
X137629047Y-71881961D02*
X137533809Y-71977200D01*
X137533809Y-71977200D02*
X137390952Y-72024819D01*
X137390952Y-72024819D02*
X137295714Y-72024819D01*
X138295714Y-71453390D02*
X138200476Y-71405771D01*
X138200476Y-71405771D02*
X138152857Y-71358152D01*
X138152857Y-71358152D02*
X138105238Y-71262914D01*
X138105238Y-71262914D02*
X138105238Y-71215295D01*
X138105238Y-71215295D02*
X138152857Y-71120057D01*
X138152857Y-71120057D02*
X138200476Y-71072438D01*
X138200476Y-71072438D02*
X138295714Y-71024819D01*
X138295714Y-71024819D02*
X138486190Y-71024819D01*
X138486190Y-71024819D02*
X138581428Y-71072438D01*
X138581428Y-71072438D02*
X138629047Y-71120057D01*
X138629047Y-71120057D02*
X138676666Y-71215295D01*
X138676666Y-71215295D02*
X138676666Y-71262914D01*
X138676666Y-71262914D02*
X138629047Y-71358152D01*
X138629047Y-71358152D02*
X138581428Y-71405771D01*
X138581428Y-71405771D02*
X138486190Y-71453390D01*
X138486190Y-71453390D02*
X138295714Y-71453390D01*
X138295714Y-71453390D02*
X138200476Y-71501009D01*
X138200476Y-71501009D02*
X138152857Y-71548628D01*
X138152857Y-71548628D02*
X138105238Y-71643866D01*
X138105238Y-71643866D02*
X138105238Y-71834342D01*
X138105238Y-71834342D02*
X138152857Y-71929580D01*
X138152857Y-71929580D02*
X138200476Y-71977200D01*
X138200476Y-71977200D02*
X138295714Y-72024819D01*
X138295714Y-72024819D02*
X138486190Y-72024819D01*
X138486190Y-72024819D02*
X138581428Y-71977200D01*
X138581428Y-71977200D02*
X138629047Y-71929580D01*
X138629047Y-71929580D02*
X138676666Y-71834342D01*
X138676666Y-71834342D02*
X138676666Y-71643866D01*
X138676666Y-71643866D02*
X138629047Y-71548628D01*
X138629047Y-71548628D02*
X138581428Y-71501009D01*
X138581428Y-71501009D02*
X138486190Y-71453390D01*
X137676666Y-55424819D02*
X137676666Y-56139104D01*
X137676666Y-56139104D02*
X137629047Y-56281961D01*
X137629047Y-56281961D02*
X137533809Y-56377200D01*
X137533809Y-56377200D02*
X137390952Y-56424819D01*
X137390952Y-56424819D02*
X137295714Y-56424819D01*
X138200476Y-56424819D02*
X138390952Y-56424819D01*
X138390952Y-56424819D02*
X138486190Y-56377200D01*
X138486190Y-56377200D02*
X138533809Y-56329580D01*
X138533809Y-56329580D02*
X138629047Y-56186723D01*
X138629047Y-56186723D02*
X138676666Y-55996247D01*
X138676666Y-55996247D02*
X138676666Y-55615295D01*
X138676666Y-55615295D02*
X138629047Y-55520057D01*
X138629047Y-55520057D02*
X138581428Y-55472438D01*
X138581428Y-55472438D02*
X138486190Y-55424819D01*
X138486190Y-55424819D02*
X138295714Y-55424819D01*
X138295714Y-55424819D02*
X138200476Y-55472438D01*
X138200476Y-55472438D02*
X138152857Y-55520057D01*
X138152857Y-55520057D02*
X138105238Y-55615295D01*
X138105238Y-55615295D02*
X138105238Y-55853390D01*
X138105238Y-55853390D02*
X138152857Y-55948628D01*
X138152857Y-55948628D02*
X138200476Y-55996247D01*
X138200476Y-55996247D02*
X138295714Y-56043866D01*
X138295714Y-56043866D02*
X138486190Y-56043866D01*
X138486190Y-56043866D02*
X138581428Y-55996247D01*
X138581428Y-55996247D02*
X138629047Y-55948628D01*
X138629047Y-55948628D02*
X138676666Y-55853390D01*
X137190476Y-42484819D02*
X137190476Y-43199104D01*
X137190476Y-43199104D02*
X137142857Y-43341961D01*
X137142857Y-43341961D02*
X137047619Y-43437200D01*
X137047619Y-43437200D02*
X136904762Y-43484819D01*
X136904762Y-43484819D02*
X136809524Y-43484819D01*
X138190476Y-43484819D02*
X137619048Y-43484819D01*
X137904762Y-43484819D02*
X137904762Y-42484819D01*
X137904762Y-42484819D02*
X137809524Y-42627676D01*
X137809524Y-42627676D02*
X137714286Y-42722914D01*
X137714286Y-42722914D02*
X137619048Y-42770533D01*
X138809524Y-42484819D02*
X138904762Y-42484819D01*
X138904762Y-42484819D02*
X139000000Y-42532438D01*
X139000000Y-42532438D02*
X139047619Y-42580057D01*
X139047619Y-42580057D02*
X139095238Y-42675295D01*
X139095238Y-42675295D02*
X139142857Y-42865771D01*
X139142857Y-42865771D02*
X139142857Y-43103866D01*
X139142857Y-43103866D02*
X139095238Y-43294342D01*
X139095238Y-43294342D02*
X139047619Y-43389580D01*
X139047619Y-43389580D02*
X139000000Y-43437200D01*
X139000000Y-43437200D02*
X138904762Y-43484819D01*
X138904762Y-43484819D02*
X138809524Y-43484819D01*
X138809524Y-43484819D02*
X138714286Y-43437200D01*
X138714286Y-43437200D02*
X138666667Y-43389580D01*
X138666667Y-43389580D02*
X138619048Y-43294342D01*
X138619048Y-43294342D02*
X138571429Y-43103866D01*
X138571429Y-43103866D02*
X138571429Y-42865771D01*
X138571429Y-42865771D02*
X138619048Y-42675295D01*
X138619048Y-42675295D02*
X138666667Y-42580057D01*
X138666667Y-42580057D02*
X138714286Y-42532438D01*
X138714286Y-42532438D02*
X138809524Y-42484819D01*
X131580476Y-71024819D02*
X131580476Y-71739104D01*
X131580476Y-71739104D02*
X131532857Y-71881961D01*
X131532857Y-71881961D02*
X131437619Y-71977200D01*
X131437619Y-71977200D02*
X131294762Y-72024819D01*
X131294762Y-72024819D02*
X131199524Y-72024819D01*
X132580476Y-72024819D02*
X132009048Y-72024819D01*
X132294762Y-72024819D02*
X132294762Y-71024819D01*
X132294762Y-71024819D02*
X132199524Y-71167676D01*
X132199524Y-71167676D02*
X132104286Y-71262914D01*
X132104286Y-71262914D02*
X132009048Y-71310533D01*
X133437619Y-71358152D02*
X133437619Y-72024819D01*
X133199524Y-70977200D02*
X132961429Y-71691485D01*
X132961429Y-71691485D02*
X133580476Y-71691485D01*
X131570476Y-42484819D02*
X131570476Y-43199104D01*
X131570476Y-43199104D02*
X131522857Y-43341961D01*
X131522857Y-43341961D02*
X131427619Y-43437200D01*
X131427619Y-43437200D02*
X131284762Y-43484819D01*
X131284762Y-43484819D02*
X131189524Y-43484819D01*
X132570476Y-43484819D02*
X131999048Y-43484819D01*
X132284762Y-43484819D02*
X132284762Y-42484819D01*
X132284762Y-42484819D02*
X132189524Y-42627676D01*
X132189524Y-42627676D02*
X132094286Y-42722914D01*
X132094286Y-42722914D02*
X131999048Y-42770533D01*
X133475238Y-42484819D02*
X132999048Y-42484819D01*
X132999048Y-42484819D02*
X132951429Y-42961009D01*
X132951429Y-42961009D02*
X132999048Y-42913390D01*
X132999048Y-42913390D02*
X133094286Y-42865771D01*
X133094286Y-42865771D02*
X133332381Y-42865771D01*
X133332381Y-42865771D02*
X133427619Y-42913390D01*
X133427619Y-42913390D02*
X133475238Y-42961009D01*
X133475238Y-42961009D02*
X133522857Y-43056247D01*
X133522857Y-43056247D02*
X133522857Y-43294342D01*
X133522857Y-43294342D02*
X133475238Y-43389580D01*
X133475238Y-43389580D02*
X133427619Y-43437200D01*
X133427619Y-43437200D02*
X133332381Y-43484819D01*
X133332381Y-43484819D02*
X133094286Y-43484819D01*
X133094286Y-43484819D02*
X132999048Y-43437200D01*
X132999048Y-43437200D02*
X132951429Y-43389580D01*
X131580476Y-84024819D02*
X131580476Y-84739104D01*
X131580476Y-84739104D02*
X131532857Y-84881961D01*
X131532857Y-84881961D02*
X131437619Y-84977200D01*
X131437619Y-84977200D02*
X131294762Y-85024819D01*
X131294762Y-85024819D02*
X131199524Y-85024819D01*
X132580476Y-85024819D02*
X132009048Y-85024819D01*
X132294762Y-85024819D02*
X132294762Y-84024819D01*
X132294762Y-84024819D02*
X132199524Y-84167676D01*
X132199524Y-84167676D02*
X132104286Y-84262914D01*
X132104286Y-84262914D02*
X132009048Y-84310533D01*
X133437619Y-84024819D02*
X133247143Y-84024819D01*
X133247143Y-84024819D02*
X133151905Y-84072438D01*
X133151905Y-84072438D02*
X133104286Y-84120057D01*
X133104286Y-84120057D02*
X133009048Y-84262914D01*
X133009048Y-84262914D02*
X132961429Y-84453390D01*
X132961429Y-84453390D02*
X132961429Y-84834342D01*
X132961429Y-84834342D02*
X133009048Y-84929580D01*
X133009048Y-84929580D02*
X133056667Y-84977200D01*
X133056667Y-84977200D02*
X133151905Y-85024819D01*
X133151905Y-85024819D02*
X133342381Y-85024819D01*
X133342381Y-85024819D02*
X133437619Y-84977200D01*
X133437619Y-84977200D02*
X133485238Y-84929580D01*
X133485238Y-84929580D02*
X133532857Y-84834342D01*
X133532857Y-84834342D02*
X133532857Y-84596247D01*
X133532857Y-84596247D02*
X133485238Y-84501009D01*
X133485238Y-84501009D02*
X133437619Y-84453390D01*
X133437619Y-84453390D02*
X133342381Y-84405771D01*
X133342381Y-84405771D02*
X133151905Y-84405771D01*
X133151905Y-84405771D02*
X133056667Y-84453390D01*
X133056667Y-84453390D02*
X133009048Y-84501009D01*
X133009048Y-84501009D02*
X132961429Y-84596247D01*
X131580476Y-55424819D02*
X131580476Y-56139104D01*
X131580476Y-56139104D02*
X131532857Y-56281961D01*
X131532857Y-56281961D02*
X131437619Y-56377200D01*
X131437619Y-56377200D02*
X131294762Y-56424819D01*
X131294762Y-56424819D02*
X131199524Y-56424819D01*
X132580476Y-56424819D02*
X132009048Y-56424819D01*
X132294762Y-56424819D02*
X132294762Y-55424819D01*
X132294762Y-55424819D02*
X132199524Y-55567676D01*
X132199524Y-55567676D02*
X132104286Y-55662914D01*
X132104286Y-55662914D02*
X132009048Y-55710533D01*
X132913810Y-55424819D02*
X133580476Y-55424819D01*
X133580476Y-55424819D02*
X133151905Y-56424819D01*
X132009374Y-25359580D02*
X131961755Y-25407200D01*
X131961755Y-25407200D02*
X131818898Y-25454819D01*
X131818898Y-25454819D02*
X131723660Y-25454819D01*
X131723660Y-25454819D02*
X131580803Y-25407200D01*
X131580803Y-25407200D02*
X131485565Y-25311961D01*
X131485565Y-25311961D02*
X131437946Y-25216723D01*
X131437946Y-25216723D02*
X131390327Y-25026247D01*
X131390327Y-25026247D02*
X131390327Y-24883390D01*
X131390327Y-24883390D02*
X131437946Y-24692914D01*
X131437946Y-24692914D02*
X131485565Y-24597676D01*
X131485565Y-24597676D02*
X131580803Y-24502438D01*
X131580803Y-24502438D02*
X131723660Y-24454819D01*
X131723660Y-24454819D02*
X131818898Y-24454819D01*
X131818898Y-24454819D02*
X131961755Y-24502438D01*
X131961755Y-24502438D02*
X132009374Y-24550057D01*
X132961755Y-25454819D02*
X132390327Y-25454819D01*
X132676041Y-25454819D02*
X132676041Y-24454819D01*
X132676041Y-24454819D02*
X132580803Y-24597676D01*
X132580803Y-24597676D02*
X132485565Y-24692914D01*
X132485565Y-24692914D02*
X132390327Y-24740533D01*
X122083333Y-55859580D02*
X122035714Y-55907200D01*
X122035714Y-55907200D02*
X121892857Y-55954819D01*
X121892857Y-55954819D02*
X121797619Y-55954819D01*
X121797619Y-55954819D02*
X121654762Y-55907200D01*
X121654762Y-55907200D02*
X121559524Y-55811961D01*
X121559524Y-55811961D02*
X121511905Y-55716723D01*
X121511905Y-55716723D02*
X121464286Y-55526247D01*
X121464286Y-55526247D02*
X121464286Y-55383390D01*
X121464286Y-55383390D02*
X121511905Y-55192914D01*
X121511905Y-55192914D02*
X121559524Y-55097676D01*
X121559524Y-55097676D02*
X121654762Y-55002438D01*
X121654762Y-55002438D02*
X121797619Y-54954819D01*
X121797619Y-54954819D02*
X121892857Y-54954819D01*
X121892857Y-54954819D02*
X122035714Y-55002438D01*
X122035714Y-55002438D02*
X122083333Y-55050057D01*
X122988095Y-54954819D02*
X122511905Y-54954819D01*
X122511905Y-54954819D02*
X122464286Y-55431009D01*
X122464286Y-55431009D02*
X122511905Y-55383390D01*
X122511905Y-55383390D02*
X122607143Y-55335771D01*
X122607143Y-55335771D02*
X122845238Y-55335771D01*
X122845238Y-55335771D02*
X122940476Y-55383390D01*
X122940476Y-55383390D02*
X122988095Y-55431009D01*
X122988095Y-55431009D02*
X123035714Y-55526247D01*
X123035714Y-55526247D02*
X123035714Y-55764342D01*
X123035714Y-55764342D02*
X122988095Y-55859580D01*
X122988095Y-55859580D02*
X122940476Y-55907200D01*
X122940476Y-55907200D02*
X122845238Y-55954819D01*
X122845238Y-55954819D02*
X122607143Y-55954819D01*
X122607143Y-55954819D02*
X122511905Y-55907200D01*
X122511905Y-55907200D02*
X122464286Y-55859580D01*
X122083333Y-71859580D02*
X122035714Y-71907200D01*
X122035714Y-71907200D02*
X121892857Y-71954819D01*
X121892857Y-71954819D02*
X121797619Y-71954819D01*
X121797619Y-71954819D02*
X121654762Y-71907200D01*
X121654762Y-71907200D02*
X121559524Y-71811961D01*
X121559524Y-71811961D02*
X121511905Y-71716723D01*
X121511905Y-71716723D02*
X121464286Y-71526247D01*
X121464286Y-71526247D02*
X121464286Y-71383390D01*
X121464286Y-71383390D02*
X121511905Y-71192914D01*
X121511905Y-71192914D02*
X121559524Y-71097676D01*
X121559524Y-71097676D02*
X121654762Y-71002438D01*
X121654762Y-71002438D02*
X121797619Y-70954819D01*
X121797619Y-70954819D02*
X121892857Y-70954819D01*
X121892857Y-70954819D02*
X122035714Y-71002438D01*
X122035714Y-71002438D02*
X122083333Y-71050057D01*
X122940476Y-71288152D02*
X122940476Y-71954819D01*
X122702381Y-70907200D02*
X122464286Y-71621485D01*
X122464286Y-71621485D02*
X123083333Y-71621485D01*
X122009374Y-39859580D02*
X121961755Y-39907200D01*
X121961755Y-39907200D02*
X121818898Y-39954819D01*
X121818898Y-39954819D02*
X121723660Y-39954819D01*
X121723660Y-39954819D02*
X121580803Y-39907200D01*
X121580803Y-39907200D02*
X121485565Y-39811961D01*
X121485565Y-39811961D02*
X121437946Y-39716723D01*
X121437946Y-39716723D02*
X121390327Y-39526247D01*
X121390327Y-39526247D02*
X121390327Y-39383390D01*
X121390327Y-39383390D02*
X121437946Y-39192914D01*
X121437946Y-39192914D02*
X121485565Y-39097676D01*
X121485565Y-39097676D02*
X121580803Y-39002438D01*
X121580803Y-39002438D02*
X121723660Y-38954819D01*
X121723660Y-38954819D02*
X121818898Y-38954819D01*
X121818898Y-38954819D02*
X121961755Y-39002438D01*
X121961755Y-39002438D02*
X122009374Y-39050057D01*
X122342708Y-38954819D02*
X122961755Y-38954819D01*
X122961755Y-38954819D02*
X122628422Y-39335771D01*
X122628422Y-39335771D02*
X122771279Y-39335771D01*
X122771279Y-39335771D02*
X122866517Y-39383390D01*
X122866517Y-39383390D02*
X122914136Y-39431009D01*
X122914136Y-39431009D02*
X122961755Y-39526247D01*
X122961755Y-39526247D02*
X122961755Y-39764342D01*
X122961755Y-39764342D02*
X122914136Y-39859580D01*
X122914136Y-39859580D02*
X122866517Y-39907200D01*
X122866517Y-39907200D02*
X122771279Y-39954819D01*
X122771279Y-39954819D02*
X122485565Y-39954819D01*
X122485565Y-39954819D02*
X122390327Y-39907200D01*
X122390327Y-39907200D02*
X122342708Y-39859580D01*
X111833333Y-25109580D02*
X111785714Y-25157200D01*
X111785714Y-25157200D02*
X111642857Y-25204819D01*
X111642857Y-25204819D02*
X111547619Y-25204819D01*
X111547619Y-25204819D02*
X111404762Y-25157200D01*
X111404762Y-25157200D02*
X111309524Y-25061961D01*
X111309524Y-25061961D02*
X111261905Y-24966723D01*
X111261905Y-24966723D02*
X111214286Y-24776247D01*
X111214286Y-24776247D02*
X111214286Y-24633390D01*
X111214286Y-24633390D02*
X111261905Y-24442914D01*
X111261905Y-24442914D02*
X111309524Y-24347676D01*
X111309524Y-24347676D02*
X111404762Y-24252438D01*
X111404762Y-24252438D02*
X111547619Y-24204819D01*
X111547619Y-24204819D02*
X111642857Y-24204819D01*
X111642857Y-24204819D02*
X111785714Y-24252438D01*
X111785714Y-24252438D02*
X111833333Y-24300057D01*
X112214286Y-24300057D02*
X112261905Y-24252438D01*
X112261905Y-24252438D02*
X112357143Y-24204819D01*
X112357143Y-24204819D02*
X112595238Y-24204819D01*
X112595238Y-24204819D02*
X112690476Y-24252438D01*
X112690476Y-24252438D02*
X112738095Y-24300057D01*
X112738095Y-24300057D02*
X112785714Y-24395295D01*
X112785714Y-24395295D02*
X112785714Y-24490533D01*
X112785714Y-24490533D02*
X112738095Y-24633390D01*
X112738095Y-24633390D02*
X112166667Y-25204819D01*
X112166667Y-25204819D02*
X112785714Y-25204819D01*
X122583333Y-95545180D02*
X122583333Y-94830895D01*
X122583333Y-94830895D02*
X122630952Y-94688038D01*
X122630952Y-94688038D02*
X122726190Y-94592800D01*
X122726190Y-94592800D02*
X122869047Y-94545180D01*
X122869047Y-94545180D02*
X122964285Y-94545180D01*
X121583333Y-94545180D02*
X122154761Y-94545180D01*
X121869047Y-94545180D02*
X121869047Y-95545180D01*
X121869047Y-95545180D02*
X121964285Y-95402323D01*
X121964285Y-95402323D02*
X122059523Y-95307085D01*
X122059523Y-95307085D02*
X122154761Y-95259466D01*
%TO.C,J11*%
D13*
X104670000Y-43980000D02*
X106000000Y-43980000D01*
X104670000Y-45310000D02*
X104670000Y-43980000D01*
X104670000Y-46580000D02*
X104670000Y-54260000D01*
X104670000Y-46580000D02*
X107330000Y-46580000D01*
X104670000Y-54260000D02*
X107330000Y-54260000D01*
X107330000Y-46580000D02*
X107330000Y-54260000D01*
%TO.C,J26*%
X110290000Y-43980000D02*
X111620000Y-43980000D01*
X110290000Y-45310000D02*
X110290000Y-43980000D01*
X110290000Y-46580000D02*
X110290000Y-54260000D01*
X110290000Y-46580000D02*
X112950000Y-46580000D01*
X110290000Y-54260000D02*
X112950000Y-54260000D01*
X112950000Y-46580000D02*
X112950000Y-54260000D01*
%TO.C,J25*%
X110290000Y-56920000D02*
X111620000Y-56920000D01*
X110290000Y-58250000D02*
X110290000Y-56920000D01*
X110290000Y-59520000D02*
X110290000Y-67200000D01*
X110290000Y-59520000D02*
X112950000Y-59520000D01*
X110290000Y-67200000D02*
X112950000Y-67200000D01*
X112950000Y-59520000D02*
X112950000Y-67200000D01*
%TO.C,J24*%
X110290000Y-72630000D02*
X111620000Y-72630000D01*
X110290000Y-73960000D02*
X110290000Y-72630000D01*
X110290000Y-75230000D02*
X110290000Y-82910000D01*
X110290000Y-75230000D02*
X112950000Y-75230000D01*
X110290000Y-82910000D02*
X112950000Y-82910000D01*
X112950000Y-75230000D02*
X112950000Y-82910000D01*
%TO.C,J23*%
X110290000Y-85420000D02*
X111620000Y-85420000D01*
X110290000Y-86750000D02*
X110290000Y-85420000D01*
X110290000Y-88020000D02*
X110290000Y-95700000D01*
X110290000Y-88020000D02*
X112950000Y-88020000D01*
X110290000Y-95700000D02*
X112950000Y-95700000D01*
X112950000Y-88020000D02*
X112950000Y-95700000D01*
%TO.C,J22*%
X107480000Y-85420000D02*
X108810000Y-85420000D01*
X107480000Y-86750000D02*
X107480000Y-85420000D01*
X107480000Y-88020000D02*
X107480000Y-95700000D01*
X107480000Y-88020000D02*
X110140000Y-88020000D01*
X107480000Y-95700000D02*
X110140000Y-95700000D01*
X110140000Y-88020000D02*
X110140000Y-95700000D01*
%TO.C,J21*%
X107480000Y-72630000D02*
X108810000Y-72630000D01*
X107480000Y-73960000D02*
X107480000Y-72630000D01*
X107480000Y-75230000D02*
X107480000Y-82910000D01*
X107480000Y-75230000D02*
X110140000Y-75230000D01*
X107480000Y-82910000D02*
X110140000Y-82910000D01*
X110140000Y-75230000D02*
X110140000Y-82910000D01*
%TO.C,J20*%
X107480000Y-43980000D02*
X108810000Y-43980000D01*
X107480000Y-45310000D02*
X107480000Y-43980000D01*
X107480000Y-46580000D02*
X107480000Y-54260000D01*
X107480000Y-46580000D02*
X110140000Y-46580000D01*
X107480000Y-54260000D02*
X110140000Y-54260000D01*
X110140000Y-46580000D02*
X110140000Y-54260000D01*
%TO.C,J19*%
X107480000Y-56920000D02*
X108810000Y-56920000D01*
X107480000Y-58250000D02*
X107480000Y-56920000D01*
X107480000Y-59520000D02*
X107480000Y-67200000D01*
X107480000Y-59520000D02*
X110140000Y-59520000D01*
X107480000Y-67200000D02*
X110140000Y-67200000D01*
X110140000Y-59520000D02*
X110140000Y-67200000D01*
%TO.C,J18*%
X104670000Y-72630000D02*
X106000000Y-72630000D01*
X104670000Y-73960000D02*
X104670000Y-72630000D01*
X104670000Y-75230000D02*
X104670000Y-82910000D01*
X104670000Y-75230000D02*
X107330000Y-75230000D01*
X104670000Y-82910000D02*
X107330000Y-82910000D01*
X107330000Y-75230000D02*
X107330000Y-82910000D01*
%TO.C,J13*%
X104670000Y-56920000D02*
X106000000Y-56920000D01*
X104670000Y-58250000D02*
X104670000Y-56920000D01*
X104670000Y-59520000D02*
X104670000Y-67200000D01*
X104670000Y-59520000D02*
X107330000Y-59520000D01*
X104670000Y-67200000D02*
X107330000Y-67200000D01*
X107330000Y-59520000D02*
X107330000Y-67200000D01*
%TO.C,J12*%
X104670000Y-85420000D02*
X106000000Y-85420000D01*
X104670000Y-86750000D02*
X104670000Y-85420000D01*
X104670000Y-88020000D02*
X104670000Y-95700000D01*
X104670000Y-88020000D02*
X107330000Y-88020000D01*
X104670000Y-95700000D02*
X107330000Y-95700000D01*
X107330000Y-88020000D02*
X107330000Y-95700000D01*
%TO.C,J2*%
X136520000Y-46630000D02*
X136520000Y-54310000D01*
X133860000Y-54310000D02*
X136520000Y-54310000D01*
X133860000Y-46630000D02*
X136520000Y-46630000D01*
X133860000Y-46630000D02*
X133860000Y-54310000D01*
X133860000Y-45360000D02*
X133860000Y-44030000D01*
X133860000Y-44030000D02*
X135190000Y-44030000D01*
%TO.C,J3*%
X136530000Y-75170000D02*
X136530000Y-82850000D01*
X133870000Y-82850000D02*
X136530000Y-82850000D01*
X133870000Y-75170000D02*
X136530000Y-75170000D01*
X133870000Y-75170000D02*
X133870000Y-82850000D01*
X133870000Y-73900000D02*
X133870000Y-72570000D01*
X133870000Y-72570000D02*
X135200000Y-72570000D01*
%TO.C,J4*%
X136530000Y-88170000D02*
X136530000Y-95850000D01*
X133870000Y-95850000D02*
X136530000Y-95850000D01*
X133870000Y-88170000D02*
X136530000Y-88170000D01*
X133870000Y-88170000D02*
X133870000Y-95850000D01*
X133870000Y-86900000D02*
X133870000Y-85570000D01*
X133870000Y-85570000D02*
X135200000Y-85570000D01*
%TO.C,J5*%
X136530000Y-59570000D02*
X136530000Y-67250000D01*
X133870000Y-67250000D02*
X136530000Y-67250000D01*
X133870000Y-59570000D02*
X136530000Y-59570000D01*
X133870000Y-59570000D02*
X133870000Y-67250000D01*
X133870000Y-58300000D02*
X133870000Y-56970000D01*
X133870000Y-56970000D02*
X135200000Y-56970000D01*
%TO.C,J7*%
X139340000Y-88170000D02*
X139340000Y-95850000D01*
X136680000Y-95850000D02*
X139340000Y-95850000D01*
X136680000Y-88170000D02*
X139340000Y-88170000D01*
X136680000Y-88170000D02*
X136680000Y-95850000D01*
X136680000Y-86900000D02*
X136680000Y-85570000D01*
X136680000Y-85570000D02*
X138010000Y-85570000D01*
%TO.C,J8*%
X139340000Y-75170000D02*
X139340000Y-82850000D01*
X136680000Y-82850000D02*
X139340000Y-82850000D01*
X136680000Y-75170000D02*
X139340000Y-75170000D01*
X136680000Y-75170000D02*
X136680000Y-82850000D01*
X136680000Y-73900000D02*
X136680000Y-72570000D01*
X136680000Y-72570000D02*
X138010000Y-72570000D01*
%TO.C,J9*%
X139340000Y-59570000D02*
X139340000Y-67250000D01*
X136680000Y-67250000D02*
X139340000Y-67250000D01*
X136680000Y-59570000D02*
X139340000Y-59570000D01*
X136680000Y-59570000D02*
X136680000Y-67250000D01*
X136680000Y-58300000D02*
X136680000Y-56970000D01*
X136680000Y-56970000D02*
X138010000Y-56970000D01*
%TO.C,J10*%
X139330000Y-46630000D02*
X139330000Y-54310000D01*
X136670000Y-54310000D02*
X139330000Y-54310000D01*
X136670000Y-46630000D02*
X139330000Y-46630000D01*
X136670000Y-46630000D02*
X136670000Y-54310000D01*
X136670000Y-45360000D02*
X136670000Y-44030000D01*
X136670000Y-44030000D02*
X138000000Y-44030000D01*
%TO.C,J14*%
X133720000Y-75170000D02*
X133720000Y-82850000D01*
X131060000Y-82850000D02*
X133720000Y-82850000D01*
X131060000Y-75170000D02*
X133720000Y-75170000D01*
X131060000Y-75170000D02*
X131060000Y-82850000D01*
X131060000Y-73900000D02*
X131060000Y-72570000D01*
X131060000Y-72570000D02*
X132390000Y-72570000D01*
%TO.C,J15*%
X133710000Y-46630000D02*
X133710000Y-54310000D01*
X131050000Y-54310000D02*
X133710000Y-54310000D01*
X131050000Y-46630000D02*
X133710000Y-46630000D01*
X131050000Y-46630000D02*
X131050000Y-54310000D01*
X131050000Y-45360000D02*
X131050000Y-44030000D01*
X131050000Y-44030000D02*
X132380000Y-44030000D01*
%TO.C,J16*%
X133720000Y-88170000D02*
X133720000Y-95850000D01*
X131060000Y-95850000D02*
X133720000Y-95850000D01*
X131060000Y-88170000D02*
X133720000Y-88170000D01*
X131060000Y-88170000D02*
X131060000Y-95850000D01*
X131060000Y-86900000D02*
X131060000Y-85570000D01*
X131060000Y-85570000D02*
X132390000Y-85570000D01*
%TO.C,J17*%
X133720000Y-59570000D02*
X133720000Y-67250000D01*
X131060000Y-67250000D02*
X133720000Y-67250000D01*
X131060000Y-59570000D02*
X133720000Y-59570000D01*
X131060000Y-59570000D02*
X131060000Y-67250000D01*
X131060000Y-58300000D02*
X131060000Y-56970000D01*
X131060000Y-56970000D02*
X132390000Y-56970000D01*
%TO.C,C1*%
X125983959Y-28300000D02*
X125983959Y-29550000D01*
X125358959Y-28925000D02*
X126608959Y-28925000D01*
X138537041Y-32183000D02*
X138537041Y-32817000D01*
X138497041Y-31743000D02*
X138497041Y-33257000D01*
X138457041Y-31472000D02*
X138457041Y-33528000D01*
X138417041Y-31259000D02*
X138417041Y-33741000D01*
X138377041Y-31078000D02*
X138377041Y-33922000D01*
X138337041Y-30917000D02*
X138337041Y-34083000D01*
X138297041Y-30772000D02*
X138297041Y-34228000D01*
X138257041Y-30639000D02*
X138257041Y-34361000D01*
X138217041Y-30516000D02*
X138217041Y-34484000D01*
X138177041Y-30400000D02*
X138177041Y-34600000D01*
X138137041Y-30291000D02*
X138137041Y-34709000D01*
X138097041Y-30188000D02*
X138097041Y-34812000D01*
X138057041Y-30090000D02*
X138057041Y-34910000D01*
X138017041Y-29996000D02*
X138017041Y-35004000D01*
X137977041Y-29906000D02*
X137977041Y-35094000D01*
X137937041Y-29819000D02*
X137937041Y-35181000D01*
X137897041Y-29736000D02*
X137897041Y-35264000D01*
X137857041Y-29656000D02*
X137857041Y-35344000D01*
X137817041Y-29579000D02*
X137817041Y-35421000D01*
X137777041Y-29504000D02*
X137777041Y-35496000D01*
X137737041Y-29431000D02*
X137737041Y-35569000D01*
X137697041Y-29360000D02*
X137697041Y-35640000D01*
X137657041Y-29292000D02*
X137657041Y-35708000D01*
X137617041Y-29225000D02*
X137617041Y-35775000D01*
X137577041Y-29161000D02*
X137577041Y-35839000D01*
X137537041Y-29098000D02*
X137537041Y-35902000D01*
X137497041Y-29036000D02*
X137497041Y-35964000D01*
X137457041Y-28976000D02*
X137457041Y-36024000D01*
X137417041Y-28917000D02*
X137417041Y-36083000D01*
X137377041Y-28860000D02*
X137377041Y-36140000D01*
X137337041Y-28804000D02*
X137337041Y-36196000D01*
X137297041Y-28750000D02*
X137297041Y-36250000D01*
X137257041Y-28696000D02*
X137257041Y-36304000D01*
X137217041Y-28644000D02*
X137217041Y-36356000D01*
X137177041Y-28593000D02*
X137177041Y-36407000D01*
X137137041Y-28543000D02*
X137137041Y-36457000D01*
X137097041Y-28493000D02*
X137097041Y-36507000D01*
X137057041Y-28445000D02*
X137057041Y-36555000D01*
X137017041Y-28398000D02*
X137017041Y-36602000D01*
X136977041Y-28352000D02*
X136977041Y-36648000D01*
X136937041Y-28306000D02*
X136937041Y-36694000D01*
X136897041Y-28262000D02*
X136897041Y-36738000D01*
X136857041Y-28218000D02*
X136857041Y-36782000D01*
X136817041Y-28175000D02*
X136817041Y-36825000D01*
X136777041Y-28133000D02*
X136777041Y-36867000D01*
X136737041Y-28092000D02*
X136737041Y-36908000D01*
X136697041Y-28051000D02*
X136697041Y-36949000D01*
X136657041Y-28011000D02*
X136657041Y-36989000D01*
X136617041Y-27972000D02*
X136617041Y-37028000D01*
X136577041Y-27933000D02*
X136577041Y-37067000D01*
X136537041Y-27895000D02*
X136537041Y-37105000D01*
X136497041Y-27858000D02*
X136497041Y-37142000D01*
X136457041Y-27822000D02*
X136457041Y-37178000D01*
X136417041Y-27786000D02*
X136417041Y-37214000D01*
X136377041Y-27750000D02*
X136377041Y-37250000D01*
X136337041Y-27715000D02*
X136337041Y-37285000D01*
X136297041Y-27681000D02*
X136297041Y-37319000D01*
X136257041Y-27648000D02*
X136257041Y-37352000D01*
X136217041Y-27615000D02*
X136217041Y-37385000D01*
X136177041Y-27582000D02*
X136177041Y-37418000D01*
X136137041Y-27550000D02*
X136137041Y-37450000D01*
X136097041Y-33940000D02*
X136097041Y-37482000D01*
X136097041Y-27518000D02*
X136097041Y-31060000D01*
X136057041Y-33940000D02*
X136057041Y-37512000D01*
X136057041Y-27488000D02*
X136057041Y-31060000D01*
X136017041Y-33940000D02*
X136017041Y-37543000D01*
X136017041Y-27457000D02*
X136017041Y-31060000D01*
X135977041Y-33940000D02*
X135977041Y-37573000D01*
X135977041Y-27427000D02*
X135977041Y-31060000D01*
X135937041Y-33940000D02*
X135937041Y-37602000D01*
X135937041Y-27398000D02*
X135937041Y-31060000D01*
X135897041Y-33940000D02*
X135897041Y-37631000D01*
X135897041Y-27369000D02*
X135897041Y-31060000D01*
X135857041Y-33940000D02*
X135857041Y-37660000D01*
X135857041Y-27340000D02*
X135857041Y-31060000D01*
X135817041Y-33940000D02*
X135817041Y-37688000D01*
X135817041Y-27312000D02*
X135817041Y-31060000D01*
X135777041Y-33940000D02*
X135777041Y-37716000D01*
X135777041Y-27284000D02*
X135777041Y-31060000D01*
X135737041Y-33940000D02*
X135737041Y-37743000D01*
X135737041Y-27257000D02*
X135737041Y-31060000D01*
X135697041Y-33940000D02*
X135697041Y-37770000D01*
X135697041Y-27230000D02*
X135697041Y-31060000D01*
X135657041Y-33940000D02*
X135657041Y-37796000D01*
X135657041Y-27204000D02*
X135657041Y-31060000D01*
X135617041Y-33940000D02*
X135617041Y-37822000D01*
X135617041Y-27178000D02*
X135617041Y-31060000D01*
X135577041Y-33940000D02*
X135577041Y-37847000D01*
X135577041Y-27153000D02*
X135577041Y-31060000D01*
X135537041Y-33940000D02*
X135537041Y-37872000D01*
X135537041Y-27128000D02*
X135537041Y-31060000D01*
X135497041Y-33940000D02*
X135497041Y-37897000D01*
X135497041Y-27103000D02*
X135497041Y-31060000D01*
X135457041Y-33940000D02*
X135457041Y-37921000D01*
X135457041Y-27079000D02*
X135457041Y-31060000D01*
X135417041Y-33940000D02*
X135417041Y-37945000D01*
X135417041Y-27055000D02*
X135417041Y-31060000D01*
X135377041Y-33940000D02*
X135377041Y-37968000D01*
X135377041Y-27032000D02*
X135377041Y-31060000D01*
X135337041Y-33940000D02*
X135337041Y-37991000D01*
X135337041Y-27009000D02*
X135337041Y-31060000D01*
X135297041Y-33940000D02*
X135297041Y-38014000D01*
X135297041Y-26986000D02*
X135297041Y-31060000D01*
X135257041Y-33940000D02*
X135257041Y-38036000D01*
X135257041Y-26964000D02*
X135257041Y-31060000D01*
X135217041Y-33940000D02*
X135217041Y-38058000D01*
X135217041Y-26942000D02*
X135217041Y-31060000D01*
X135177041Y-33940000D02*
X135177041Y-38080000D01*
X135177041Y-26920000D02*
X135177041Y-31060000D01*
X135137041Y-33940000D02*
X135137041Y-38101000D01*
X135137041Y-26899000D02*
X135137041Y-31060000D01*
X135097041Y-33940000D02*
X135097041Y-38122000D01*
X135097041Y-26878000D02*
X135097041Y-31060000D01*
X135057041Y-33940000D02*
X135057041Y-38142000D01*
X135057041Y-26858000D02*
X135057041Y-31060000D01*
X135017041Y-33940000D02*
X135017041Y-38162000D01*
X135017041Y-26838000D02*
X135017041Y-31060000D01*
X134977041Y-33940000D02*
X134977041Y-38182000D01*
X134977041Y-26818000D02*
X134977041Y-31060000D01*
X134937041Y-33940000D02*
X134937041Y-38202000D01*
X134937041Y-26798000D02*
X134937041Y-31060000D01*
X134897041Y-33940000D02*
X134897041Y-38221000D01*
X134897041Y-26779000D02*
X134897041Y-31060000D01*
X134857041Y-33940000D02*
X134857041Y-38239000D01*
X134857041Y-26761000D02*
X134857041Y-31060000D01*
X134817041Y-33940000D02*
X134817041Y-38258000D01*
X134817041Y-26742000D02*
X134817041Y-31060000D01*
X134777041Y-33940000D02*
X134777041Y-38276000D01*
X134777041Y-26724000D02*
X134777041Y-31060000D01*
X134737041Y-33940000D02*
X134737041Y-38293000D01*
X134737041Y-26707000D02*
X134737041Y-31060000D01*
X134697041Y-33940000D02*
X134697041Y-38311000D01*
X134697041Y-26689000D02*
X134697041Y-31060000D01*
X134657041Y-33940000D02*
X134657041Y-38328000D01*
X134657041Y-26672000D02*
X134657041Y-31060000D01*
X134617041Y-33940000D02*
X134617041Y-38345000D01*
X134617041Y-26655000D02*
X134617041Y-31060000D01*
X134577041Y-33940000D02*
X134577041Y-38361000D01*
X134577041Y-26639000D02*
X134577041Y-31060000D01*
X134537041Y-33940000D02*
X134537041Y-38377000D01*
X134537041Y-26623000D02*
X134537041Y-31060000D01*
X134497041Y-33940000D02*
X134497041Y-38393000D01*
X134497041Y-26607000D02*
X134497041Y-31060000D01*
X134457041Y-33940000D02*
X134457041Y-38408000D01*
X134457041Y-26592000D02*
X134457041Y-31060000D01*
X134417041Y-33940000D02*
X134417041Y-38424000D01*
X134417041Y-26576000D02*
X134417041Y-31060000D01*
X134377041Y-33940000D02*
X134377041Y-38439000D01*
X134377041Y-26561000D02*
X134377041Y-31060000D01*
X134337041Y-33940000D02*
X134337041Y-38453000D01*
X134337041Y-26547000D02*
X134337041Y-31060000D01*
X134297041Y-33940000D02*
X134297041Y-38467000D01*
X134297041Y-26533000D02*
X134297041Y-31060000D01*
X134257041Y-33940000D02*
X134257041Y-38481000D01*
X134257041Y-26519000D02*
X134257041Y-31060000D01*
X134217041Y-33940000D02*
X134217041Y-38495000D01*
X134217041Y-26505000D02*
X134217041Y-31060000D01*
X134177041Y-33940000D02*
X134177041Y-38508000D01*
X134177041Y-26492000D02*
X134177041Y-31060000D01*
X134137041Y-33940000D02*
X134137041Y-38521000D01*
X134137041Y-26479000D02*
X134137041Y-31060000D01*
X134097041Y-33940000D02*
X134097041Y-38534000D01*
X134097041Y-26466000D02*
X134097041Y-31060000D01*
X134057041Y-33940000D02*
X134057041Y-38547000D01*
X134057041Y-26453000D02*
X134057041Y-31060000D01*
X134017041Y-33940000D02*
X134017041Y-38559000D01*
X134017041Y-26441000D02*
X134017041Y-31060000D01*
X133977041Y-33940000D02*
X133977041Y-38571000D01*
X133977041Y-26429000D02*
X133977041Y-31060000D01*
X133937041Y-33940000D02*
X133937041Y-38583000D01*
X133937041Y-26417000D02*
X133937041Y-31060000D01*
X133897041Y-33940000D02*
X133897041Y-38594000D01*
X133897041Y-26406000D02*
X133897041Y-31060000D01*
X133857041Y-33940000D02*
X133857041Y-38605000D01*
X133857041Y-26395000D02*
X133857041Y-31060000D01*
X133817041Y-33940000D02*
X133817041Y-38616000D01*
X133817041Y-26384000D02*
X133817041Y-31060000D01*
X133777041Y-33940000D02*
X133777041Y-38626000D01*
X133777041Y-26374000D02*
X133777041Y-31060000D01*
X133737041Y-33940000D02*
X133737041Y-38637000D01*
X133737041Y-26363000D02*
X133737041Y-31060000D01*
X133697041Y-33940000D02*
X133697041Y-38646000D01*
X133697041Y-26354000D02*
X133697041Y-31060000D01*
X133657041Y-33940000D02*
X133657041Y-38656000D01*
X133657041Y-26344000D02*
X133657041Y-31060000D01*
X133617041Y-33940000D02*
X133617041Y-38666000D01*
X133617041Y-26334000D02*
X133617041Y-31060000D01*
X133577041Y-33940000D02*
X133577041Y-38675000D01*
X133577041Y-26325000D02*
X133577041Y-31060000D01*
X133537041Y-33940000D02*
X133537041Y-38684000D01*
X133537041Y-26316000D02*
X133537041Y-31060000D01*
X133497041Y-33940000D02*
X133497041Y-38692000D01*
X133497041Y-26308000D02*
X133497041Y-31060000D01*
X133457041Y-33940000D02*
X133457041Y-38701000D01*
X133457041Y-26299000D02*
X133457041Y-31060000D01*
X133417041Y-33940000D02*
X133417041Y-38709000D01*
X133417041Y-26291000D02*
X133417041Y-31060000D01*
X133377041Y-33940000D02*
X133377041Y-38716000D01*
X133377041Y-26284000D02*
X133377041Y-31060000D01*
X133337041Y-33940000D02*
X133337041Y-38724000D01*
X133337041Y-26276000D02*
X133337041Y-31060000D01*
X133297041Y-33940000D02*
X133297041Y-38731000D01*
X133297041Y-26269000D02*
X133297041Y-31060000D01*
X133257041Y-33940000D02*
X133257041Y-38738000D01*
X133257041Y-26262000D02*
X133257041Y-31060000D01*
X133217041Y-26255000D02*
X133217041Y-38745000D01*
X133177041Y-26248000D02*
X133177041Y-38752000D01*
X133137041Y-26242000D02*
X133137041Y-38758000D01*
X133097041Y-26236000D02*
X133097041Y-38764000D01*
X133057041Y-26231000D02*
X133057041Y-38769000D01*
X133017041Y-26225000D02*
X133017041Y-38775000D01*
X132977041Y-26220000D02*
X132977041Y-38780000D01*
X132937041Y-26215000D02*
X132937041Y-38785000D01*
X132897041Y-26210000D02*
X132897041Y-38790000D01*
X132856041Y-26206000D02*
X132856041Y-38794000D01*
X132816041Y-26202000D02*
X132816041Y-38798000D01*
X132776041Y-26198000D02*
X132776041Y-38802000D01*
X132736041Y-26194000D02*
X132736041Y-38806000D01*
X132696041Y-26191000D02*
X132696041Y-38809000D01*
X132656041Y-26188000D02*
X132656041Y-38812000D01*
X132616041Y-26185000D02*
X132616041Y-38815000D01*
X132576041Y-26182000D02*
X132576041Y-38818000D01*
X132536041Y-26180000D02*
X132536041Y-38820000D01*
X132496041Y-26178000D02*
X132496041Y-38822000D01*
X132456041Y-26176000D02*
X132456041Y-38824000D01*
X132416041Y-26174000D02*
X132416041Y-38826000D01*
X132376041Y-26173000D02*
X132376041Y-38827000D01*
X132336041Y-26172000D02*
X132336041Y-38828000D01*
X132296041Y-26171000D02*
X132296041Y-38829000D01*
X132256041Y-26170000D02*
X132256041Y-38830000D01*
X132216041Y-26170000D02*
X132216041Y-38830000D01*
X132176041Y-26170000D02*
X132176041Y-38830000D01*
X138546041Y-32500000D02*
G75*
G02*
X125806041Y-32500000I-6370000J0D01*
G01*
X125806041Y-32500000D02*
G75*
G02*
X138546041Y-32500000I6370000J0D01*
G01*
%TO.C,C5*%
X128620000Y-63000000D02*
G75*
G02*
X115880000Y-63000000I-6370000J0D01*
G01*
X115880000Y-63000000D02*
G75*
G02*
X128620000Y-63000000I6370000J0D01*
G01*
X122250000Y-56670000D02*
X122250000Y-69330000D01*
X122290000Y-56670000D02*
X122290000Y-69330000D01*
X122330000Y-56670000D02*
X122330000Y-69330000D01*
X122370000Y-56671000D02*
X122370000Y-69329000D01*
X122410000Y-56672000D02*
X122410000Y-69328000D01*
X122450000Y-56673000D02*
X122450000Y-69327000D01*
X122490000Y-56674000D02*
X122490000Y-69326000D01*
X122530000Y-56676000D02*
X122530000Y-69324000D01*
X122570000Y-56678000D02*
X122570000Y-69322000D01*
X122610000Y-56680000D02*
X122610000Y-69320000D01*
X122650000Y-56682000D02*
X122650000Y-69318000D01*
X122690000Y-56685000D02*
X122690000Y-69315000D01*
X122730000Y-56688000D02*
X122730000Y-69312000D01*
X122770000Y-56691000D02*
X122770000Y-69309000D01*
X122810000Y-56694000D02*
X122810000Y-69306000D01*
X122850000Y-56698000D02*
X122850000Y-69302000D01*
X122890000Y-56702000D02*
X122890000Y-69298000D01*
X122930000Y-56706000D02*
X122930000Y-69294000D01*
X122971000Y-56710000D02*
X122971000Y-69290000D01*
X123011000Y-56715000D02*
X123011000Y-69285000D01*
X123051000Y-56720000D02*
X123051000Y-69280000D01*
X123091000Y-56725000D02*
X123091000Y-69275000D01*
X123131000Y-56731000D02*
X123131000Y-69269000D01*
X123171000Y-56736000D02*
X123171000Y-69264000D01*
X123211000Y-56742000D02*
X123211000Y-69258000D01*
X123251000Y-56748000D02*
X123251000Y-69252000D01*
X123291000Y-56755000D02*
X123291000Y-69245000D01*
X123331000Y-56762000D02*
X123331000Y-61560000D01*
X123331000Y-64440000D02*
X123331000Y-69238000D01*
X123371000Y-56769000D02*
X123371000Y-61560000D01*
X123371000Y-64440000D02*
X123371000Y-69231000D01*
X123411000Y-56776000D02*
X123411000Y-61560000D01*
X123411000Y-64440000D02*
X123411000Y-69224000D01*
X123451000Y-56784000D02*
X123451000Y-61560000D01*
X123451000Y-64440000D02*
X123451000Y-69216000D01*
X123491000Y-56791000D02*
X123491000Y-61560000D01*
X123491000Y-64440000D02*
X123491000Y-69209000D01*
X123531000Y-56799000D02*
X123531000Y-61560000D01*
X123531000Y-64440000D02*
X123531000Y-69201000D01*
X123571000Y-56808000D02*
X123571000Y-61560000D01*
X123571000Y-64440000D02*
X123571000Y-69192000D01*
X123611000Y-56816000D02*
X123611000Y-61560000D01*
X123611000Y-64440000D02*
X123611000Y-69184000D01*
X123651000Y-56825000D02*
X123651000Y-61560000D01*
X123651000Y-64440000D02*
X123651000Y-69175000D01*
X123691000Y-56834000D02*
X123691000Y-61560000D01*
X123691000Y-64440000D02*
X123691000Y-69166000D01*
X123731000Y-56844000D02*
X123731000Y-61560000D01*
X123731000Y-64440000D02*
X123731000Y-69156000D01*
X123771000Y-56854000D02*
X123771000Y-61560000D01*
X123771000Y-64440000D02*
X123771000Y-69146000D01*
X123811000Y-56863000D02*
X123811000Y-61560000D01*
X123811000Y-64440000D02*
X123811000Y-69137000D01*
X123851000Y-56874000D02*
X123851000Y-61560000D01*
X123851000Y-64440000D02*
X123851000Y-69126000D01*
X123891000Y-56884000D02*
X123891000Y-61560000D01*
X123891000Y-64440000D02*
X123891000Y-69116000D01*
X123931000Y-56895000D02*
X123931000Y-61560000D01*
X123931000Y-64440000D02*
X123931000Y-69105000D01*
X123971000Y-56906000D02*
X123971000Y-61560000D01*
X123971000Y-64440000D02*
X123971000Y-69094000D01*
X124011000Y-56917000D02*
X124011000Y-61560000D01*
X124011000Y-64440000D02*
X124011000Y-69083000D01*
X124051000Y-56929000D02*
X124051000Y-61560000D01*
X124051000Y-64440000D02*
X124051000Y-69071000D01*
X124091000Y-56941000D02*
X124091000Y-61560000D01*
X124091000Y-64440000D02*
X124091000Y-69059000D01*
X124131000Y-56953000D02*
X124131000Y-61560000D01*
X124131000Y-64440000D02*
X124131000Y-69047000D01*
X124171000Y-56966000D02*
X124171000Y-61560000D01*
X124171000Y-64440000D02*
X124171000Y-69034000D01*
X124211000Y-56979000D02*
X124211000Y-61560000D01*
X124211000Y-64440000D02*
X124211000Y-69021000D01*
X124251000Y-56992000D02*
X124251000Y-61560000D01*
X124251000Y-64440000D02*
X124251000Y-69008000D01*
X124291000Y-57005000D02*
X124291000Y-61560000D01*
X124291000Y-64440000D02*
X124291000Y-68995000D01*
X124331000Y-57019000D02*
X124331000Y-61560000D01*
X124331000Y-64440000D02*
X124331000Y-68981000D01*
X124371000Y-57033000D02*
X124371000Y-61560000D01*
X124371000Y-64440000D02*
X124371000Y-68967000D01*
X124411000Y-57047000D02*
X124411000Y-61560000D01*
X124411000Y-64440000D02*
X124411000Y-68953000D01*
X124451000Y-57061000D02*
X124451000Y-61560000D01*
X124451000Y-64440000D02*
X124451000Y-68939000D01*
X124491000Y-57076000D02*
X124491000Y-61560000D01*
X124491000Y-64440000D02*
X124491000Y-68924000D01*
X124531000Y-57092000D02*
X124531000Y-61560000D01*
X124531000Y-64440000D02*
X124531000Y-68908000D01*
X124571000Y-57107000D02*
X124571000Y-61560000D01*
X124571000Y-64440000D02*
X124571000Y-68893000D01*
X124611000Y-57123000D02*
X124611000Y-61560000D01*
X124611000Y-64440000D02*
X124611000Y-68877000D01*
X124651000Y-57139000D02*
X124651000Y-61560000D01*
X124651000Y-64440000D02*
X124651000Y-68861000D01*
X124691000Y-57155000D02*
X124691000Y-61560000D01*
X124691000Y-64440000D02*
X124691000Y-68845000D01*
X124731000Y-57172000D02*
X124731000Y-61560000D01*
X124731000Y-64440000D02*
X124731000Y-68828000D01*
X124771000Y-57189000D02*
X124771000Y-61560000D01*
X124771000Y-64440000D02*
X124771000Y-68811000D01*
X124811000Y-57207000D02*
X124811000Y-61560000D01*
X124811000Y-64440000D02*
X124811000Y-68793000D01*
X124851000Y-57224000D02*
X124851000Y-61560000D01*
X124851000Y-64440000D02*
X124851000Y-68776000D01*
X124891000Y-57242000D02*
X124891000Y-61560000D01*
X124891000Y-64440000D02*
X124891000Y-68758000D01*
X124931000Y-57261000D02*
X124931000Y-61560000D01*
X124931000Y-64440000D02*
X124931000Y-68739000D01*
X124971000Y-57279000D02*
X124971000Y-61560000D01*
X124971000Y-64440000D02*
X124971000Y-68721000D01*
X125011000Y-57298000D02*
X125011000Y-61560000D01*
X125011000Y-64440000D02*
X125011000Y-68702000D01*
X125051000Y-57318000D02*
X125051000Y-61560000D01*
X125051000Y-64440000D02*
X125051000Y-68682000D01*
X125091000Y-57338000D02*
X125091000Y-61560000D01*
X125091000Y-64440000D02*
X125091000Y-68662000D01*
X125131000Y-57358000D02*
X125131000Y-61560000D01*
X125131000Y-64440000D02*
X125131000Y-68642000D01*
X125171000Y-57378000D02*
X125171000Y-61560000D01*
X125171000Y-64440000D02*
X125171000Y-68622000D01*
X125211000Y-57399000D02*
X125211000Y-61560000D01*
X125211000Y-64440000D02*
X125211000Y-68601000D01*
X125251000Y-57420000D02*
X125251000Y-61560000D01*
X125251000Y-64440000D02*
X125251000Y-68580000D01*
X125291000Y-57442000D02*
X125291000Y-61560000D01*
X125291000Y-64440000D02*
X125291000Y-68558000D01*
X125331000Y-57464000D02*
X125331000Y-61560000D01*
X125331000Y-64440000D02*
X125331000Y-68536000D01*
X125371000Y-57486000D02*
X125371000Y-61560000D01*
X125371000Y-64440000D02*
X125371000Y-68514000D01*
X125411000Y-57509000D02*
X125411000Y-61560000D01*
X125411000Y-64440000D02*
X125411000Y-68491000D01*
X125451000Y-57532000D02*
X125451000Y-61560000D01*
X125451000Y-64440000D02*
X125451000Y-68468000D01*
X125491000Y-57555000D02*
X125491000Y-61560000D01*
X125491000Y-64440000D02*
X125491000Y-68445000D01*
X125531000Y-57579000D02*
X125531000Y-61560000D01*
X125531000Y-64440000D02*
X125531000Y-68421000D01*
X125571000Y-57603000D02*
X125571000Y-61560000D01*
X125571000Y-64440000D02*
X125571000Y-68397000D01*
X125611000Y-57628000D02*
X125611000Y-61560000D01*
X125611000Y-64440000D02*
X125611000Y-68372000D01*
X125651000Y-57653000D02*
X125651000Y-61560000D01*
X125651000Y-64440000D02*
X125651000Y-68347000D01*
X125691000Y-57678000D02*
X125691000Y-61560000D01*
X125691000Y-64440000D02*
X125691000Y-68322000D01*
X125731000Y-57704000D02*
X125731000Y-61560000D01*
X125731000Y-64440000D02*
X125731000Y-68296000D01*
X125771000Y-57730000D02*
X125771000Y-61560000D01*
X125771000Y-64440000D02*
X125771000Y-68270000D01*
X125811000Y-57757000D02*
X125811000Y-61560000D01*
X125811000Y-64440000D02*
X125811000Y-68243000D01*
X125851000Y-57784000D02*
X125851000Y-61560000D01*
X125851000Y-64440000D02*
X125851000Y-68216000D01*
X125891000Y-57812000D02*
X125891000Y-61560000D01*
X125891000Y-64440000D02*
X125891000Y-68188000D01*
X125931000Y-57840000D02*
X125931000Y-61560000D01*
X125931000Y-64440000D02*
X125931000Y-68160000D01*
X125971000Y-57869000D02*
X125971000Y-61560000D01*
X125971000Y-64440000D02*
X125971000Y-68131000D01*
X126011000Y-57898000D02*
X126011000Y-61560000D01*
X126011000Y-64440000D02*
X126011000Y-68102000D01*
X126051000Y-57927000D02*
X126051000Y-61560000D01*
X126051000Y-64440000D02*
X126051000Y-68073000D01*
X126091000Y-57957000D02*
X126091000Y-61560000D01*
X126091000Y-64440000D02*
X126091000Y-68043000D01*
X126131000Y-57988000D02*
X126131000Y-61560000D01*
X126131000Y-64440000D02*
X126131000Y-68012000D01*
X126171000Y-58018000D02*
X126171000Y-61560000D01*
X126171000Y-64440000D02*
X126171000Y-67982000D01*
X126211000Y-58050000D02*
X126211000Y-67950000D01*
X126251000Y-58082000D02*
X126251000Y-67918000D01*
X126291000Y-58115000D02*
X126291000Y-67885000D01*
X126331000Y-58148000D02*
X126331000Y-67852000D01*
X126371000Y-58181000D02*
X126371000Y-67819000D01*
X126411000Y-58215000D02*
X126411000Y-67785000D01*
X126451000Y-58250000D02*
X126451000Y-67750000D01*
X126491000Y-58286000D02*
X126491000Y-67714000D01*
X126531000Y-58322000D02*
X126531000Y-67678000D01*
X126571000Y-58358000D02*
X126571000Y-67642000D01*
X126611000Y-58395000D02*
X126611000Y-67605000D01*
X126651000Y-58433000D02*
X126651000Y-67567000D01*
X126691000Y-58472000D02*
X126691000Y-67528000D01*
X126731000Y-58511000D02*
X126731000Y-67489000D01*
X126771000Y-58551000D02*
X126771000Y-67449000D01*
X126811000Y-58592000D02*
X126811000Y-67408000D01*
X126851000Y-58633000D02*
X126851000Y-67367000D01*
X126891000Y-58675000D02*
X126891000Y-67325000D01*
X126931000Y-58718000D02*
X126931000Y-67282000D01*
X126971000Y-58762000D02*
X126971000Y-67238000D01*
X127011000Y-58806000D02*
X127011000Y-67194000D01*
X127051000Y-58852000D02*
X127051000Y-67148000D01*
X127091000Y-58898000D02*
X127091000Y-67102000D01*
X127131000Y-58945000D02*
X127131000Y-67055000D01*
X127171000Y-58993000D02*
X127171000Y-67007000D01*
X127211000Y-59043000D02*
X127211000Y-66957000D01*
X127251000Y-59093000D02*
X127251000Y-66907000D01*
X127291000Y-59144000D02*
X127291000Y-66856000D01*
X127331000Y-59196000D02*
X127331000Y-66804000D01*
X127371000Y-59250000D02*
X127371000Y-66750000D01*
X127411000Y-59304000D02*
X127411000Y-66696000D01*
X127451000Y-59360000D02*
X127451000Y-66640000D01*
X127491000Y-59417000D02*
X127491000Y-66583000D01*
X127531000Y-59476000D02*
X127531000Y-66524000D01*
X127571000Y-59536000D02*
X127571000Y-66464000D01*
X127611000Y-59598000D02*
X127611000Y-66402000D01*
X127651000Y-59661000D02*
X127651000Y-66339000D01*
X127691000Y-59725000D02*
X127691000Y-66275000D01*
X127731000Y-59792000D02*
X127731000Y-66208000D01*
X127771000Y-59860000D02*
X127771000Y-66140000D01*
X127811000Y-59931000D02*
X127811000Y-66069000D01*
X127851000Y-60004000D02*
X127851000Y-65996000D01*
X127891000Y-60079000D02*
X127891000Y-65921000D01*
X127931000Y-60156000D02*
X127931000Y-65844000D01*
X127971000Y-60236000D02*
X127971000Y-65764000D01*
X128011000Y-60319000D02*
X128011000Y-65681000D01*
X128051000Y-60406000D02*
X128051000Y-65594000D01*
X128091000Y-60496000D02*
X128091000Y-65504000D01*
X128131000Y-60590000D02*
X128131000Y-65410000D01*
X128171000Y-60688000D02*
X128171000Y-65312000D01*
X128211000Y-60791000D02*
X128211000Y-65209000D01*
X128251000Y-60900000D02*
X128251000Y-65100000D01*
X128291000Y-61016000D02*
X128291000Y-64984000D01*
X128331000Y-61139000D02*
X128331000Y-64861000D01*
X128371000Y-61272000D02*
X128371000Y-64728000D01*
X128411000Y-61417000D02*
X128411000Y-64583000D01*
X128451000Y-61578000D02*
X128451000Y-64422000D01*
X128491000Y-61759000D02*
X128491000Y-64241000D01*
X128531000Y-61972000D02*
X128531000Y-64028000D01*
X128571000Y-62243000D02*
X128571000Y-63757000D01*
X128611000Y-62683000D02*
X128611000Y-63317000D01*
X115432918Y-59425000D02*
X116682918Y-59425000D01*
X116057918Y-58800000D02*
X116057918Y-60050000D01*
%TO.C,C4*%
X116057918Y-74800000D02*
X116057918Y-76050000D01*
X115432918Y-75425000D02*
X116682918Y-75425000D01*
X128611000Y-78683000D02*
X128611000Y-79317000D01*
X128571000Y-78243000D02*
X128571000Y-79757000D01*
X128531000Y-77972000D02*
X128531000Y-80028000D01*
X128491000Y-77759000D02*
X128491000Y-80241000D01*
X128451000Y-77578000D02*
X128451000Y-80422000D01*
X128411000Y-77417000D02*
X128411000Y-80583000D01*
X128371000Y-77272000D02*
X128371000Y-80728000D01*
X128331000Y-77139000D02*
X128331000Y-80861000D01*
X128291000Y-77016000D02*
X128291000Y-80984000D01*
X128251000Y-76900000D02*
X128251000Y-81100000D01*
X128211000Y-76791000D02*
X128211000Y-81209000D01*
X128171000Y-76688000D02*
X128171000Y-81312000D01*
X128131000Y-76590000D02*
X128131000Y-81410000D01*
X128091000Y-76496000D02*
X128091000Y-81504000D01*
X128051000Y-76406000D02*
X128051000Y-81594000D01*
X128011000Y-76319000D02*
X128011000Y-81681000D01*
X127971000Y-76236000D02*
X127971000Y-81764000D01*
X127931000Y-76156000D02*
X127931000Y-81844000D01*
X127891000Y-76079000D02*
X127891000Y-81921000D01*
X127851000Y-76004000D02*
X127851000Y-81996000D01*
X127811000Y-75931000D02*
X127811000Y-82069000D01*
X127771000Y-75860000D02*
X127771000Y-82140000D01*
X127731000Y-75792000D02*
X127731000Y-82208000D01*
X127691000Y-75725000D02*
X127691000Y-82275000D01*
X127651000Y-75661000D02*
X127651000Y-82339000D01*
X127611000Y-75598000D02*
X127611000Y-82402000D01*
X127571000Y-75536000D02*
X127571000Y-82464000D01*
X127531000Y-75476000D02*
X127531000Y-82524000D01*
X127491000Y-75417000D02*
X127491000Y-82583000D01*
X127451000Y-75360000D02*
X127451000Y-82640000D01*
X127411000Y-75304000D02*
X127411000Y-82696000D01*
X127371000Y-75250000D02*
X127371000Y-82750000D01*
X127331000Y-75196000D02*
X127331000Y-82804000D01*
X127291000Y-75144000D02*
X127291000Y-82856000D01*
X127251000Y-75093000D02*
X127251000Y-82907000D01*
X127211000Y-75043000D02*
X127211000Y-82957000D01*
X127171000Y-74993000D02*
X127171000Y-83007000D01*
X127131000Y-74945000D02*
X127131000Y-83055000D01*
X127091000Y-74898000D02*
X127091000Y-83102000D01*
X127051000Y-74852000D02*
X127051000Y-83148000D01*
X127011000Y-74806000D02*
X127011000Y-83194000D01*
X126971000Y-74762000D02*
X126971000Y-83238000D01*
X126931000Y-74718000D02*
X126931000Y-83282000D01*
X126891000Y-74675000D02*
X126891000Y-83325000D01*
X126851000Y-74633000D02*
X126851000Y-83367000D01*
X126811000Y-74592000D02*
X126811000Y-83408000D01*
X126771000Y-74551000D02*
X126771000Y-83449000D01*
X126731000Y-74511000D02*
X126731000Y-83489000D01*
X126691000Y-74472000D02*
X126691000Y-83528000D01*
X126651000Y-74433000D02*
X126651000Y-83567000D01*
X126611000Y-74395000D02*
X126611000Y-83605000D01*
X126571000Y-74358000D02*
X126571000Y-83642000D01*
X126531000Y-74322000D02*
X126531000Y-83678000D01*
X126491000Y-74286000D02*
X126491000Y-83714000D01*
X126451000Y-74250000D02*
X126451000Y-83750000D01*
X126411000Y-74215000D02*
X126411000Y-83785000D01*
X126371000Y-74181000D02*
X126371000Y-83819000D01*
X126331000Y-74148000D02*
X126331000Y-83852000D01*
X126291000Y-74115000D02*
X126291000Y-83885000D01*
X126251000Y-74082000D02*
X126251000Y-83918000D01*
X126211000Y-74050000D02*
X126211000Y-83950000D01*
X126171000Y-80440000D02*
X126171000Y-83982000D01*
X126171000Y-74018000D02*
X126171000Y-77560000D01*
X126131000Y-80440000D02*
X126131000Y-84012000D01*
X126131000Y-73988000D02*
X126131000Y-77560000D01*
X126091000Y-80440000D02*
X126091000Y-84043000D01*
X126091000Y-73957000D02*
X126091000Y-77560000D01*
X126051000Y-80440000D02*
X126051000Y-84073000D01*
X126051000Y-73927000D02*
X126051000Y-77560000D01*
X126011000Y-80440000D02*
X126011000Y-84102000D01*
X126011000Y-73898000D02*
X126011000Y-77560000D01*
X125971000Y-80440000D02*
X125971000Y-84131000D01*
X125971000Y-73869000D02*
X125971000Y-77560000D01*
X125931000Y-80440000D02*
X125931000Y-84160000D01*
X125931000Y-73840000D02*
X125931000Y-77560000D01*
X125891000Y-80440000D02*
X125891000Y-84188000D01*
X125891000Y-73812000D02*
X125891000Y-77560000D01*
X125851000Y-80440000D02*
X125851000Y-84216000D01*
X125851000Y-73784000D02*
X125851000Y-77560000D01*
X125811000Y-80440000D02*
X125811000Y-84243000D01*
X125811000Y-73757000D02*
X125811000Y-77560000D01*
X125771000Y-80440000D02*
X125771000Y-84270000D01*
X125771000Y-73730000D02*
X125771000Y-77560000D01*
X125731000Y-80440000D02*
X125731000Y-84296000D01*
X125731000Y-73704000D02*
X125731000Y-77560000D01*
X125691000Y-80440000D02*
X125691000Y-84322000D01*
X125691000Y-73678000D02*
X125691000Y-77560000D01*
X125651000Y-80440000D02*
X125651000Y-84347000D01*
X125651000Y-73653000D02*
X125651000Y-77560000D01*
X125611000Y-80440000D02*
X125611000Y-84372000D01*
X125611000Y-73628000D02*
X125611000Y-77560000D01*
X125571000Y-80440000D02*
X125571000Y-84397000D01*
X125571000Y-73603000D02*
X125571000Y-77560000D01*
X125531000Y-80440000D02*
X125531000Y-84421000D01*
X125531000Y-73579000D02*
X125531000Y-77560000D01*
X125491000Y-80440000D02*
X125491000Y-84445000D01*
X125491000Y-73555000D02*
X125491000Y-77560000D01*
X125451000Y-80440000D02*
X125451000Y-84468000D01*
X125451000Y-73532000D02*
X125451000Y-77560000D01*
X125411000Y-80440000D02*
X125411000Y-84491000D01*
X125411000Y-73509000D02*
X125411000Y-77560000D01*
X125371000Y-80440000D02*
X125371000Y-84514000D01*
X125371000Y-73486000D02*
X125371000Y-77560000D01*
X125331000Y-80440000D02*
X125331000Y-84536000D01*
X125331000Y-73464000D02*
X125331000Y-77560000D01*
X125291000Y-80440000D02*
X125291000Y-84558000D01*
X125291000Y-73442000D02*
X125291000Y-77560000D01*
X125251000Y-80440000D02*
X125251000Y-84580000D01*
X125251000Y-73420000D02*
X125251000Y-77560000D01*
X125211000Y-80440000D02*
X125211000Y-84601000D01*
X125211000Y-73399000D02*
X125211000Y-77560000D01*
X125171000Y-80440000D02*
X125171000Y-84622000D01*
X125171000Y-73378000D02*
X125171000Y-77560000D01*
X125131000Y-80440000D02*
X125131000Y-84642000D01*
X125131000Y-73358000D02*
X125131000Y-77560000D01*
X125091000Y-80440000D02*
X125091000Y-84662000D01*
X125091000Y-73338000D02*
X125091000Y-77560000D01*
X125051000Y-80440000D02*
X125051000Y-84682000D01*
X125051000Y-73318000D02*
X125051000Y-77560000D01*
X125011000Y-80440000D02*
X125011000Y-84702000D01*
X125011000Y-73298000D02*
X125011000Y-77560000D01*
X124971000Y-80440000D02*
X124971000Y-84721000D01*
X124971000Y-73279000D02*
X124971000Y-77560000D01*
X124931000Y-80440000D02*
X124931000Y-84739000D01*
X124931000Y-73261000D02*
X124931000Y-77560000D01*
X124891000Y-80440000D02*
X124891000Y-84758000D01*
X124891000Y-73242000D02*
X124891000Y-77560000D01*
X124851000Y-80440000D02*
X124851000Y-84776000D01*
X124851000Y-73224000D02*
X124851000Y-77560000D01*
X124811000Y-80440000D02*
X124811000Y-84793000D01*
X124811000Y-73207000D02*
X124811000Y-77560000D01*
X124771000Y-80440000D02*
X124771000Y-84811000D01*
X124771000Y-73189000D02*
X124771000Y-77560000D01*
X124731000Y-80440000D02*
X124731000Y-84828000D01*
X124731000Y-73172000D02*
X124731000Y-77560000D01*
X124691000Y-80440000D02*
X124691000Y-84845000D01*
X124691000Y-73155000D02*
X124691000Y-77560000D01*
X124651000Y-80440000D02*
X124651000Y-84861000D01*
X124651000Y-73139000D02*
X124651000Y-77560000D01*
X124611000Y-80440000D02*
X124611000Y-84877000D01*
X124611000Y-73123000D02*
X124611000Y-77560000D01*
X124571000Y-80440000D02*
X124571000Y-84893000D01*
X124571000Y-73107000D02*
X124571000Y-77560000D01*
X124531000Y-80440000D02*
X124531000Y-84908000D01*
X124531000Y-73092000D02*
X124531000Y-77560000D01*
X124491000Y-80440000D02*
X124491000Y-84924000D01*
X124491000Y-73076000D02*
X124491000Y-77560000D01*
X124451000Y-80440000D02*
X124451000Y-84939000D01*
X124451000Y-73061000D02*
X124451000Y-77560000D01*
X124411000Y-80440000D02*
X124411000Y-84953000D01*
X124411000Y-73047000D02*
X124411000Y-77560000D01*
X124371000Y-80440000D02*
X124371000Y-84967000D01*
X124371000Y-73033000D02*
X124371000Y-77560000D01*
X124331000Y-80440000D02*
X124331000Y-84981000D01*
X124331000Y-73019000D02*
X124331000Y-77560000D01*
X124291000Y-80440000D02*
X124291000Y-84995000D01*
X124291000Y-73005000D02*
X124291000Y-77560000D01*
X124251000Y-80440000D02*
X124251000Y-85008000D01*
X124251000Y-72992000D02*
X124251000Y-77560000D01*
X124211000Y-80440000D02*
X124211000Y-85021000D01*
X124211000Y-72979000D02*
X124211000Y-77560000D01*
X124171000Y-80440000D02*
X124171000Y-85034000D01*
X124171000Y-72966000D02*
X124171000Y-77560000D01*
X124131000Y-80440000D02*
X124131000Y-85047000D01*
X124131000Y-72953000D02*
X124131000Y-77560000D01*
X124091000Y-80440000D02*
X124091000Y-85059000D01*
X124091000Y-72941000D02*
X124091000Y-77560000D01*
X124051000Y-80440000D02*
X124051000Y-85071000D01*
X124051000Y-72929000D02*
X124051000Y-77560000D01*
X124011000Y-80440000D02*
X124011000Y-85083000D01*
X124011000Y-72917000D02*
X124011000Y-77560000D01*
X123971000Y-80440000D02*
X123971000Y-85094000D01*
X123971000Y-72906000D02*
X123971000Y-77560000D01*
X123931000Y-80440000D02*
X123931000Y-85105000D01*
X123931000Y-72895000D02*
X123931000Y-77560000D01*
X123891000Y-80440000D02*
X123891000Y-85116000D01*
X123891000Y-72884000D02*
X123891000Y-77560000D01*
X123851000Y-80440000D02*
X123851000Y-85126000D01*
X123851000Y-72874000D02*
X123851000Y-77560000D01*
X123811000Y-80440000D02*
X123811000Y-85137000D01*
X123811000Y-72863000D02*
X123811000Y-77560000D01*
X123771000Y-80440000D02*
X123771000Y-85146000D01*
X123771000Y-72854000D02*
X123771000Y-77560000D01*
X123731000Y-80440000D02*
X123731000Y-85156000D01*
X123731000Y-72844000D02*
X123731000Y-77560000D01*
X123691000Y-80440000D02*
X123691000Y-85166000D01*
X123691000Y-72834000D02*
X123691000Y-77560000D01*
X123651000Y-80440000D02*
X123651000Y-85175000D01*
X123651000Y-72825000D02*
X123651000Y-77560000D01*
X123611000Y-80440000D02*
X123611000Y-85184000D01*
X123611000Y-72816000D02*
X123611000Y-77560000D01*
X123571000Y-80440000D02*
X123571000Y-85192000D01*
X123571000Y-72808000D02*
X123571000Y-77560000D01*
X123531000Y-80440000D02*
X123531000Y-85201000D01*
X123531000Y-72799000D02*
X123531000Y-77560000D01*
X123491000Y-80440000D02*
X123491000Y-85209000D01*
X123491000Y-72791000D02*
X123491000Y-77560000D01*
X123451000Y-80440000D02*
X123451000Y-85216000D01*
X123451000Y-72784000D02*
X123451000Y-77560000D01*
X123411000Y-80440000D02*
X123411000Y-85224000D01*
X123411000Y-72776000D02*
X123411000Y-77560000D01*
X123371000Y-80440000D02*
X123371000Y-85231000D01*
X123371000Y-72769000D02*
X123371000Y-77560000D01*
X123331000Y-80440000D02*
X123331000Y-85238000D01*
X123331000Y-72762000D02*
X123331000Y-77560000D01*
X123291000Y-72755000D02*
X123291000Y-85245000D01*
X123251000Y-72748000D02*
X123251000Y-85252000D01*
X123211000Y-72742000D02*
X123211000Y-85258000D01*
X123171000Y-72736000D02*
X123171000Y-85264000D01*
X123131000Y-72731000D02*
X123131000Y-85269000D01*
X123091000Y-72725000D02*
X123091000Y-85275000D01*
X123051000Y-72720000D02*
X123051000Y-85280000D01*
X123011000Y-72715000D02*
X123011000Y-85285000D01*
X122971000Y-72710000D02*
X122971000Y-85290000D01*
X122930000Y-72706000D02*
X122930000Y-85294000D01*
X122890000Y-72702000D02*
X122890000Y-85298000D01*
X122850000Y-72698000D02*
X122850000Y-85302000D01*
X122810000Y-72694000D02*
X122810000Y-85306000D01*
X122770000Y-72691000D02*
X122770000Y-85309000D01*
X122730000Y-72688000D02*
X122730000Y-85312000D01*
X122690000Y-72685000D02*
X122690000Y-85315000D01*
X122650000Y-72682000D02*
X122650000Y-85318000D01*
X122610000Y-72680000D02*
X122610000Y-85320000D01*
X122570000Y-72678000D02*
X122570000Y-85322000D01*
X122530000Y-72676000D02*
X122530000Y-85324000D01*
X122490000Y-72674000D02*
X122490000Y-85326000D01*
X122450000Y-72673000D02*
X122450000Y-85327000D01*
X122410000Y-72672000D02*
X122410000Y-85328000D01*
X122370000Y-72671000D02*
X122370000Y-85329000D01*
X122330000Y-72670000D02*
X122330000Y-85330000D01*
X122290000Y-72670000D02*
X122290000Y-85330000D01*
X122250000Y-72670000D02*
X122250000Y-85330000D01*
X128620000Y-79000000D02*
G75*
G02*
X115880000Y-79000000I-6370000J0D01*
G01*
X115880000Y-79000000D02*
G75*
G02*
X128620000Y-79000000I6370000J0D01*
G01*
%TO.C,C3*%
X128546041Y-47000000D02*
G75*
G02*
X115806041Y-47000000I-6370000J0D01*
G01*
X115806041Y-47000000D02*
G75*
G02*
X128546041Y-47000000I6370000J0D01*
G01*
X122176041Y-40670000D02*
X122176041Y-53330000D01*
X122216041Y-40670000D02*
X122216041Y-53330000D01*
X122256041Y-40670000D02*
X122256041Y-53330000D01*
X122296041Y-40671000D02*
X122296041Y-53329000D01*
X122336041Y-40672000D02*
X122336041Y-53328000D01*
X122376041Y-40673000D02*
X122376041Y-53327000D01*
X122416041Y-40674000D02*
X122416041Y-53326000D01*
X122456041Y-40676000D02*
X122456041Y-53324000D01*
X122496041Y-40678000D02*
X122496041Y-53322000D01*
X122536041Y-40680000D02*
X122536041Y-53320000D01*
X122576041Y-40682000D02*
X122576041Y-53318000D01*
X122616041Y-40685000D02*
X122616041Y-53315000D01*
X122656041Y-40688000D02*
X122656041Y-53312000D01*
X122696041Y-40691000D02*
X122696041Y-53309000D01*
X122736041Y-40694000D02*
X122736041Y-53306000D01*
X122776041Y-40698000D02*
X122776041Y-53302000D01*
X122816041Y-40702000D02*
X122816041Y-53298000D01*
X122856041Y-40706000D02*
X122856041Y-53294000D01*
X122897041Y-40710000D02*
X122897041Y-53290000D01*
X122937041Y-40715000D02*
X122937041Y-53285000D01*
X122977041Y-40720000D02*
X122977041Y-53280000D01*
X123017041Y-40725000D02*
X123017041Y-53275000D01*
X123057041Y-40731000D02*
X123057041Y-53269000D01*
X123097041Y-40736000D02*
X123097041Y-53264000D01*
X123137041Y-40742000D02*
X123137041Y-53258000D01*
X123177041Y-40748000D02*
X123177041Y-53252000D01*
X123217041Y-40755000D02*
X123217041Y-53245000D01*
X123257041Y-40762000D02*
X123257041Y-45560000D01*
X123257041Y-48440000D02*
X123257041Y-53238000D01*
X123297041Y-40769000D02*
X123297041Y-45560000D01*
X123297041Y-48440000D02*
X123297041Y-53231000D01*
X123337041Y-40776000D02*
X123337041Y-45560000D01*
X123337041Y-48440000D02*
X123337041Y-53224000D01*
X123377041Y-40784000D02*
X123377041Y-45560000D01*
X123377041Y-48440000D02*
X123377041Y-53216000D01*
X123417041Y-40791000D02*
X123417041Y-45560000D01*
X123417041Y-48440000D02*
X123417041Y-53209000D01*
X123457041Y-40799000D02*
X123457041Y-45560000D01*
X123457041Y-48440000D02*
X123457041Y-53201000D01*
X123497041Y-40808000D02*
X123497041Y-45560000D01*
X123497041Y-48440000D02*
X123497041Y-53192000D01*
X123537041Y-40816000D02*
X123537041Y-45560000D01*
X123537041Y-48440000D02*
X123537041Y-53184000D01*
X123577041Y-40825000D02*
X123577041Y-45560000D01*
X123577041Y-48440000D02*
X123577041Y-53175000D01*
X123617041Y-40834000D02*
X123617041Y-45560000D01*
X123617041Y-48440000D02*
X123617041Y-53166000D01*
X123657041Y-40844000D02*
X123657041Y-45560000D01*
X123657041Y-48440000D02*
X123657041Y-53156000D01*
X123697041Y-40854000D02*
X123697041Y-45560000D01*
X123697041Y-48440000D02*
X123697041Y-53146000D01*
X123737041Y-40863000D02*
X123737041Y-45560000D01*
X123737041Y-48440000D02*
X123737041Y-53137000D01*
X123777041Y-40874000D02*
X123777041Y-45560000D01*
X123777041Y-48440000D02*
X123777041Y-53126000D01*
X123817041Y-40884000D02*
X123817041Y-45560000D01*
X123817041Y-48440000D02*
X123817041Y-53116000D01*
X123857041Y-40895000D02*
X123857041Y-45560000D01*
X123857041Y-48440000D02*
X123857041Y-53105000D01*
X123897041Y-40906000D02*
X123897041Y-45560000D01*
X123897041Y-48440000D02*
X123897041Y-53094000D01*
X123937041Y-40917000D02*
X123937041Y-45560000D01*
X123937041Y-48440000D02*
X123937041Y-53083000D01*
X123977041Y-40929000D02*
X123977041Y-45560000D01*
X123977041Y-48440000D02*
X123977041Y-53071000D01*
X124017041Y-40941000D02*
X124017041Y-45560000D01*
X124017041Y-48440000D02*
X124017041Y-53059000D01*
X124057041Y-40953000D02*
X124057041Y-45560000D01*
X124057041Y-48440000D02*
X124057041Y-53047000D01*
X124097041Y-40966000D02*
X124097041Y-45560000D01*
X124097041Y-48440000D02*
X124097041Y-53034000D01*
X124137041Y-40979000D02*
X124137041Y-45560000D01*
X124137041Y-48440000D02*
X124137041Y-53021000D01*
X124177041Y-40992000D02*
X124177041Y-45560000D01*
X124177041Y-48440000D02*
X124177041Y-53008000D01*
X124217041Y-41005000D02*
X124217041Y-45560000D01*
X124217041Y-48440000D02*
X124217041Y-52995000D01*
X124257041Y-41019000D02*
X124257041Y-45560000D01*
X124257041Y-48440000D02*
X124257041Y-52981000D01*
X124297041Y-41033000D02*
X124297041Y-45560000D01*
X124297041Y-48440000D02*
X124297041Y-52967000D01*
X124337041Y-41047000D02*
X124337041Y-45560000D01*
X124337041Y-48440000D02*
X124337041Y-52953000D01*
X124377041Y-41061000D02*
X124377041Y-45560000D01*
X124377041Y-48440000D02*
X124377041Y-52939000D01*
X124417041Y-41076000D02*
X124417041Y-45560000D01*
X124417041Y-48440000D02*
X124417041Y-52924000D01*
X124457041Y-41092000D02*
X124457041Y-45560000D01*
X124457041Y-48440000D02*
X124457041Y-52908000D01*
X124497041Y-41107000D02*
X124497041Y-45560000D01*
X124497041Y-48440000D02*
X124497041Y-52893000D01*
X124537041Y-41123000D02*
X124537041Y-45560000D01*
X124537041Y-48440000D02*
X124537041Y-52877000D01*
X124577041Y-41139000D02*
X124577041Y-45560000D01*
X124577041Y-48440000D02*
X124577041Y-52861000D01*
X124617041Y-41155000D02*
X124617041Y-45560000D01*
X124617041Y-48440000D02*
X124617041Y-52845000D01*
X124657041Y-41172000D02*
X124657041Y-45560000D01*
X124657041Y-48440000D02*
X124657041Y-52828000D01*
X124697041Y-41189000D02*
X124697041Y-45560000D01*
X124697041Y-48440000D02*
X124697041Y-52811000D01*
X124737041Y-41207000D02*
X124737041Y-45560000D01*
X124737041Y-48440000D02*
X124737041Y-52793000D01*
X124777041Y-41224000D02*
X124777041Y-45560000D01*
X124777041Y-48440000D02*
X124777041Y-52776000D01*
X124817041Y-41242000D02*
X124817041Y-45560000D01*
X124817041Y-48440000D02*
X124817041Y-52758000D01*
X124857041Y-41261000D02*
X124857041Y-45560000D01*
X124857041Y-48440000D02*
X124857041Y-52739000D01*
X124897041Y-41279000D02*
X124897041Y-45560000D01*
X124897041Y-48440000D02*
X124897041Y-52721000D01*
X124937041Y-41298000D02*
X124937041Y-45560000D01*
X124937041Y-48440000D02*
X124937041Y-52702000D01*
X124977041Y-41318000D02*
X124977041Y-45560000D01*
X124977041Y-48440000D02*
X124977041Y-52682000D01*
X125017041Y-41338000D02*
X125017041Y-45560000D01*
X125017041Y-48440000D02*
X125017041Y-52662000D01*
X125057041Y-41358000D02*
X125057041Y-45560000D01*
X125057041Y-48440000D02*
X125057041Y-52642000D01*
X125097041Y-41378000D02*
X125097041Y-45560000D01*
X125097041Y-48440000D02*
X125097041Y-52622000D01*
X125137041Y-41399000D02*
X125137041Y-45560000D01*
X125137041Y-48440000D02*
X125137041Y-52601000D01*
X125177041Y-41420000D02*
X125177041Y-45560000D01*
X125177041Y-48440000D02*
X125177041Y-52580000D01*
X125217041Y-41442000D02*
X125217041Y-45560000D01*
X125217041Y-48440000D02*
X125217041Y-52558000D01*
X125257041Y-41464000D02*
X125257041Y-45560000D01*
X125257041Y-48440000D02*
X125257041Y-52536000D01*
X125297041Y-41486000D02*
X125297041Y-45560000D01*
X125297041Y-48440000D02*
X125297041Y-52514000D01*
X125337041Y-41509000D02*
X125337041Y-45560000D01*
X125337041Y-48440000D02*
X125337041Y-52491000D01*
X125377041Y-41532000D02*
X125377041Y-45560000D01*
X125377041Y-48440000D02*
X125377041Y-52468000D01*
X125417041Y-41555000D02*
X125417041Y-45560000D01*
X125417041Y-48440000D02*
X125417041Y-52445000D01*
X125457041Y-41579000D02*
X125457041Y-45560000D01*
X125457041Y-48440000D02*
X125457041Y-52421000D01*
X125497041Y-41603000D02*
X125497041Y-45560000D01*
X125497041Y-48440000D02*
X125497041Y-52397000D01*
X125537041Y-41628000D02*
X125537041Y-45560000D01*
X125537041Y-48440000D02*
X125537041Y-52372000D01*
X125577041Y-41653000D02*
X125577041Y-45560000D01*
X125577041Y-48440000D02*
X125577041Y-52347000D01*
X125617041Y-41678000D02*
X125617041Y-45560000D01*
X125617041Y-48440000D02*
X125617041Y-52322000D01*
X125657041Y-41704000D02*
X125657041Y-45560000D01*
X125657041Y-48440000D02*
X125657041Y-52296000D01*
X125697041Y-41730000D02*
X125697041Y-45560000D01*
X125697041Y-48440000D02*
X125697041Y-52270000D01*
X125737041Y-41757000D02*
X125737041Y-45560000D01*
X125737041Y-48440000D02*
X125737041Y-52243000D01*
X125777041Y-41784000D02*
X125777041Y-45560000D01*
X125777041Y-48440000D02*
X125777041Y-52216000D01*
X125817041Y-41812000D02*
X125817041Y-45560000D01*
X125817041Y-48440000D02*
X125817041Y-52188000D01*
X125857041Y-41840000D02*
X125857041Y-45560000D01*
X125857041Y-48440000D02*
X125857041Y-52160000D01*
X125897041Y-41869000D02*
X125897041Y-45560000D01*
X125897041Y-48440000D02*
X125897041Y-52131000D01*
X125937041Y-41898000D02*
X125937041Y-45560000D01*
X125937041Y-48440000D02*
X125937041Y-52102000D01*
X125977041Y-41927000D02*
X125977041Y-45560000D01*
X125977041Y-48440000D02*
X125977041Y-52073000D01*
X126017041Y-41957000D02*
X126017041Y-45560000D01*
X126017041Y-48440000D02*
X126017041Y-52043000D01*
X126057041Y-41988000D02*
X126057041Y-45560000D01*
X126057041Y-48440000D02*
X126057041Y-52012000D01*
X126097041Y-42018000D02*
X126097041Y-45560000D01*
X126097041Y-48440000D02*
X126097041Y-51982000D01*
X126137041Y-42050000D02*
X126137041Y-51950000D01*
X126177041Y-42082000D02*
X126177041Y-51918000D01*
X126217041Y-42115000D02*
X126217041Y-51885000D01*
X126257041Y-42148000D02*
X126257041Y-51852000D01*
X126297041Y-42181000D02*
X126297041Y-51819000D01*
X126337041Y-42215000D02*
X126337041Y-51785000D01*
X126377041Y-42250000D02*
X126377041Y-51750000D01*
X126417041Y-42286000D02*
X126417041Y-51714000D01*
X126457041Y-42322000D02*
X126457041Y-51678000D01*
X126497041Y-42358000D02*
X126497041Y-51642000D01*
X126537041Y-42395000D02*
X126537041Y-51605000D01*
X126577041Y-42433000D02*
X126577041Y-51567000D01*
X126617041Y-42472000D02*
X126617041Y-51528000D01*
X126657041Y-42511000D02*
X126657041Y-51489000D01*
X126697041Y-42551000D02*
X126697041Y-51449000D01*
X126737041Y-42592000D02*
X126737041Y-51408000D01*
X126777041Y-42633000D02*
X126777041Y-51367000D01*
X126817041Y-42675000D02*
X126817041Y-51325000D01*
X126857041Y-42718000D02*
X126857041Y-51282000D01*
X126897041Y-42762000D02*
X126897041Y-51238000D01*
X126937041Y-42806000D02*
X126937041Y-51194000D01*
X126977041Y-42852000D02*
X126977041Y-51148000D01*
X127017041Y-42898000D02*
X127017041Y-51102000D01*
X127057041Y-42945000D02*
X127057041Y-51055000D01*
X127097041Y-42993000D02*
X127097041Y-51007000D01*
X127137041Y-43043000D02*
X127137041Y-50957000D01*
X127177041Y-43093000D02*
X127177041Y-50907000D01*
X127217041Y-43144000D02*
X127217041Y-50856000D01*
X127257041Y-43196000D02*
X127257041Y-50804000D01*
X127297041Y-43250000D02*
X127297041Y-50750000D01*
X127337041Y-43304000D02*
X127337041Y-50696000D01*
X127377041Y-43360000D02*
X127377041Y-50640000D01*
X127417041Y-43417000D02*
X127417041Y-50583000D01*
X127457041Y-43476000D02*
X127457041Y-50524000D01*
X127497041Y-43536000D02*
X127497041Y-50464000D01*
X127537041Y-43598000D02*
X127537041Y-50402000D01*
X127577041Y-43661000D02*
X127577041Y-50339000D01*
X127617041Y-43725000D02*
X127617041Y-50275000D01*
X127657041Y-43792000D02*
X127657041Y-50208000D01*
X127697041Y-43860000D02*
X127697041Y-50140000D01*
X127737041Y-43931000D02*
X127737041Y-50069000D01*
X127777041Y-44004000D02*
X127777041Y-49996000D01*
X127817041Y-44079000D02*
X127817041Y-49921000D01*
X127857041Y-44156000D02*
X127857041Y-49844000D01*
X127897041Y-44236000D02*
X127897041Y-49764000D01*
X127937041Y-44319000D02*
X127937041Y-49681000D01*
X127977041Y-44406000D02*
X127977041Y-49594000D01*
X128017041Y-44496000D02*
X128017041Y-49504000D01*
X128057041Y-44590000D02*
X128057041Y-49410000D01*
X128097041Y-44688000D02*
X128097041Y-49312000D01*
X128137041Y-44791000D02*
X128137041Y-49209000D01*
X128177041Y-44900000D02*
X128177041Y-49100000D01*
X128217041Y-45016000D02*
X128217041Y-48984000D01*
X128257041Y-45139000D02*
X128257041Y-48861000D01*
X128297041Y-45272000D02*
X128297041Y-48728000D01*
X128337041Y-45417000D02*
X128337041Y-48583000D01*
X128377041Y-45578000D02*
X128377041Y-48422000D01*
X128417041Y-45759000D02*
X128417041Y-48241000D01*
X128457041Y-45972000D02*
X128457041Y-48028000D01*
X128497041Y-46243000D02*
X128497041Y-47757000D01*
X128537041Y-46683000D02*
X128537041Y-47317000D01*
X115358959Y-43425000D02*
X116608959Y-43425000D01*
X115983959Y-42800000D02*
X115983959Y-44050000D01*
%TO.C,C2*%
X118370000Y-32250000D02*
G75*
G02*
X105630000Y-32250000I-6370000J0D01*
G01*
X105630000Y-32250000D02*
G75*
G02*
X118370000Y-32250000I6370000J0D01*
G01*
X112000000Y-25920000D02*
X112000000Y-38580000D01*
X112040000Y-25920000D02*
X112040000Y-38580000D01*
X112080000Y-25920000D02*
X112080000Y-38580000D01*
X112120000Y-25921000D02*
X112120000Y-38579000D01*
X112160000Y-25922000D02*
X112160000Y-38578000D01*
X112200000Y-25923000D02*
X112200000Y-38577000D01*
X112240000Y-25924000D02*
X112240000Y-38576000D01*
X112280000Y-25926000D02*
X112280000Y-38574000D01*
X112320000Y-25928000D02*
X112320000Y-38572000D01*
X112360000Y-25930000D02*
X112360000Y-38570000D01*
X112400000Y-25932000D02*
X112400000Y-38568000D01*
X112440000Y-25935000D02*
X112440000Y-38565000D01*
X112480000Y-25938000D02*
X112480000Y-38562000D01*
X112520000Y-25941000D02*
X112520000Y-38559000D01*
X112560000Y-25944000D02*
X112560000Y-38556000D01*
X112600000Y-25948000D02*
X112600000Y-38552000D01*
X112640000Y-25952000D02*
X112640000Y-38548000D01*
X112680000Y-25956000D02*
X112680000Y-38544000D01*
X112721000Y-25960000D02*
X112721000Y-38540000D01*
X112761000Y-25965000D02*
X112761000Y-38535000D01*
X112801000Y-25970000D02*
X112801000Y-38530000D01*
X112841000Y-25975000D02*
X112841000Y-38525000D01*
X112881000Y-25981000D02*
X112881000Y-38519000D01*
X112921000Y-25986000D02*
X112921000Y-38514000D01*
X112961000Y-25992000D02*
X112961000Y-38508000D01*
X113001000Y-25998000D02*
X113001000Y-38502000D01*
X113041000Y-26005000D02*
X113041000Y-38495000D01*
X113081000Y-26012000D02*
X113081000Y-30810000D01*
X113081000Y-33690000D02*
X113081000Y-38488000D01*
X113121000Y-26019000D02*
X113121000Y-30810000D01*
X113121000Y-33690000D02*
X113121000Y-38481000D01*
X113161000Y-26026000D02*
X113161000Y-30810000D01*
X113161000Y-33690000D02*
X113161000Y-38474000D01*
X113201000Y-26034000D02*
X113201000Y-30810000D01*
X113201000Y-33690000D02*
X113201000Y-38466000D01*
X113241000Y-26041000D02*
X113241000Y-30810000D01*
X113241000Y-33690000D02*
X113241000Y-38459000D01*
X113281000Y-26049000D02*
X113281000Y-30810000D01*
X113281000Y-33690000D02*
X113281000Y-38451000D01*
X113321000Y-26058000D02*
X113321000Y-30810000D01*
X113321000Y-33690000D02*
X113321000Y-38442000D01*
X113361000Y-26066000D02*
X113361000Y-30810000D01*
X113361000Y-33690000D02*
X113361000Y-38434000D01*
X113401000Y-26075000D02*
X113401000Y-30810000D01*
X113401000Y-33690000D02*
X113401000Y-38425000D01*
X113441000Y-26084000D02*
X113441000Y-30810000D01*
X113441000Y-33690000D02*
X113441000Y-38416000D01*
X113481000Y-26094000D02*
X113481000Y-30810000D01*
X113481000Y-33690000D02*
X113481000Y-38406000D01*
X113521000Y-26104000D02*
X113521000Y-30810000D01*
X113521000Y-33690000D02*
X113521000Y-38396000D01*
X113561000Y-26113000D02*
X113561000Y-30810000D01*
X113561000Y-33690000D02*
X113561000Y-38387000D01*
X113601000Y-26124000D02*
X113601000Y-30810000D01*
X113601000Y-33690000D02*
X113601000Y-38376000D01*
X113641000Y-26134000D02*
X113641000Y-30810000D01*
X113641000Y-33690000D02*
X113641000Y-38366000D01*
X113681000Y-26145000D02*
X113681000Y-30810000D01*
X113681000Y-33690000D02*
X113681000Y-38355000D01*
X113721000Y-26156000D02*
X113721000Y-30810000D01*
X113721000Y-33690000D02*
X113721000Y-38344000D01*
X113761000Y-26167000D02*
X113761000Y-30810000D01*
X113761000Y-33690000D02*
X113761000Y-38333000D01*
X113801000Y-26179000D02*
X113801000Y-30810000D01*
X113801000Y-33690000D02*
X113801000Y-38321000D01*
X113841000Y-26191000D02*
X113841000Y-30810000D01*
X113841000Y-33690000D02*
X113841000Y-38309000D01*
X113881000Y-26203000D02*
X113881000Y-30810000D01*
X113881000Y-33690000D02*
X113881000Y-38297000D01*
X113921000Y-26216000D02*
X113921000Y-30810000D01*
X113921000Y-33690000D02*
X113921000Y-38284000D01*
X113961000Y-26229000D02*
X113961000Y-30810000D01*
X113961000Y-33690000D02*
X113961000Y-38271000D01*
X114001000Y-26242000D02*
X114001000Y-30810000D01*
X114001000Y-33690000D02*
X114001000Y-38258000D01*
X114041000Y-26255000D02*
X114041000Y-30810000D01*
X114041000Y-33690000D02*
X114041000Y-38245000D01*
X114081000Y-26269000D02*
X114081000Y-30810000D01*
X114081000Y-33690000D02*
X114081000Y-38231000D01*
X114121000Y-26283000D02*
X114121000Y-30810000D01*
X114121000Y-33690000D02*
X114121000Y-38217000D01*
X114161000Y-26297000D02*
X114161000Y-30810000D01*
X114161000Y-33690000D02*
X114161000Y-38203000D01*
X114201000Y-26311000D02*
X114201000Y-30810000D01*
X114201000Y-33690000D02*
X114201000Y-38189000D01*
X114241000Y-26326000D02*
X114241000Y-30810000D01*
X114241000Y-33690000D02*
X114241000Y-38174000D01*
X114281000Y-26342000D02*
X114281000Y-30810000D01*
X114281000Y-33690000D02*
X114281000Y-38158000D01*
X114321000Y-26357000D02*
X114321000Y-30810000D01*
X114321000Y-33690000D02*
X114321000Y-38143000D01*
X114361000Y-26373000D02*
X114361000Y-30810000D01*
X114361000Y-33690000D02*
X114361000Y-38127000D01*
X114401000Y-26389000D02*
X114401000Y-30810000D01*
X114401000Y-33690000D02*
X114401000Y-38111000D01*
X114441000Y-26405000D02*
X114441000Y-30810000D01*
X114441000Y-33690000D02*
X114441000Y-38095000D01*
X114481000Y-26422000D02*
X114481000Y-30810000D01*
X114481000Y-33690000D02*
X114481000Y-38078000D01*
X114521000Y-26439000D02*
X114521000Y-30810000D01*
X114521000Y-33690000D02*
X114521000Y-38061000D01*
X114561000Y-26457000D02*
X114561000Y-30810000D01*
X114561000Y-33690000D02*
X114561000Y-38043000D01*
X114601000Y-26474000D02*
X114601000Y-30810000D01*
X114601000Y-33690000D02*
X114601000Y-38026000D01*
X114641000Y-26492000D02*
X114641000Y-30810000D01*
X114641000Y-33690000D02*
X114641000Y-38008000D01*
X114681000Y-26511000D02*
X114681000Y-30810000D01*
X114681000Y-33690000D02*
X114681000Y-37989000D01*
X114721000Y-26529000D02*
X114721000Y-30810000D01*
X114721000Y-33690000D02*
X114721000Y-37971000D01*
X114761000Y-26548000D02*
X114761000Y-30810000D01*
X114761000Y-33690000D02*
X114761000Y-37952000D01*
X114801000Y-26568000D02*
X114801000Y-30810000D01*
X114801000Y-33690000D02*
X114801000Y-37932000D01*
X114841000Y-26588000D02*
X114841000Y-30810000D01*
X114841000Y-33690000D02*
X114841000Y-37912000D01*
X114881000Y-26608000D02*
X114881000Y-30810000D01*
X114881000Y-33690000D02*
X114881000Y-37892000D01*
X114921000Y-26628000D02*
X114921000Y-30810000D01*
X114921000Y-33690000D02*
X114921000Y-37872000D01*
X114961000Y-26649000D02*
X114961000Y-30810000D01*
X114961000Y-33690000D02*
X114961000Y-37851000D01*
X115001000Y-26670000D02*
X115001000Y-30810000D01*
X115001000Y-33690000D02*
X115001000Y-37830000D01*
X115041000Y-26692000D02*
X115041000Y-30810000D01*
X115041000Y-33690000D02*
X115041000Y-37808000D01*
X115081000Y-26714000D02*
X115081000Y-30810000D01*
X115081000Y-33690000D02*
X115081000Y-37786000D01*
X115121000Y-26736000D02*
X115121000Y-30810000D01*
X115121000Y-33690000D02*
X115121000Y-37764000D01*
X115161000Y-26759000D02*
X115161000Y-30810000D01*
X115161000Y-33690000D02*
X115161000Y-37741000D01*
X115201000Y-26782000D02*
X115201000Y-30810000D01*
X115201000Y-33690000D02*
X115201000Y-37718000D01*
X115241000Y-26805000D02*
X115241000Y-30810000D01*
X115241000Y-33690000D02*
X115241000Y-37695000D01*
X115281000Y-26829000D02*
X115281000Y-30810000D01*
X115281000Y-33690000D02*
X115281000Y-37671000D01*
X115321000Y-26853000D02*
X115321000Y-30810000D01*
X115321000Y-33690000D02*
X115321000Y-37647000D01*
X115361000Y-26878000D02*
X115361000Y-30810000D01*
X115361000Y-33690000D02*
X115361000Y-37622000D01*
X115401000Y-26903000D02*
X115401000Y-30810000D01*
X115401000Y-33690000D02*
X115401000Y-37597000D01*
X115441000Y-26928000D02*
X115441000Y-30810000D01*
X115441000Y-33690000D02*
X115441000Y-37572000D01*
X115481000Y-26954000D02*
X115481000Y-30810000D01*
X115481000Y-33690000D02*
X115481000Y-37546000D01*
X115521000Y-26980000D02*
X115521000Y-30810000D01*
X115521000Y-33690000D02*
X115521000Y-37520000D01*
X115561000Y-27007000D02*
X115561000Y-30810000D01*
X115561000Y-33690000D02*
X115561000Y-37493000D01*
X115601000Y-27034000D02*
X115601000Y-30810000D01*
X115601000Y-33690000D02*
X115601000Y-37466000D01*
X115641000Y-27062000D02*
X115641000Y-30810000D01*
X115641000Y-33690000D02*
X115641000Y-37438000D01*
X115681000Y-27090000D02*
X115681000Y-30810000D01*
X115681000Y-33690000D02*
X115681000Y-37410000D01*
X115721000Y-27119000D02*
X115721000Y-30810000D01*
X115721000Y-33690000D02*
X115721000Y-37381000D01*
X115761000Y-27148000D02*
X115761000Y-30810000D01*
X115761000Y-33690000D02*
X115761000Y-37352000D01*
X115801000Y-27177000D02*
X115801000Y-30810000D01*
X115801000Y-33690000D02*
X115801000Y-37323000D01*
X115841000Y-27207000D02*
X115841000Y-30810000D01*
X115841000Y-33690000D02*
X115841000Y-37293000D01*
X115881000Y-27238000D02*
X115881000Y-30810000D01*
X115881000Y-33690000D02*
X115881000Y-37262000D01*
X115921000Y-27268000D02*
X115921000Y-30810000D01*
X115921000Y-33690000D02*
X115921000Y-37232000D01*
X115961000Y-27300000D02*
X115961000Y-37200000D01*
X116001000Y-27332000D02*
X116001000Y-37168000D01*
X116041000Y-27365000D02*
X116041000Y-37135000D01*
X116081000Y-27398000D02*
X116081000Y-37102000D01*
X116121000Y-27431000D02*
X116121000Y-37069000D01*
X116161000Y-27465000D02*
X116161000Y-37035000D01*
X116201000Y-27500000D02*
X116201000Y-37000000D01*
X116241000Y-27536000D02*
X116241000Y-36964000D01*
X116281000Y-27572000D02*
X116281000Y-36928000D01*
X116321000Y-27608000D02*
X116321000Y-36892000D01*
X116361000Y-27645000D02*
X116361000Y-36855000D01*
X116401000Y-27683000D02*
X116401000Y-36817000D01*
X116441000Y-27722000D02*
X116441000Y-36778000D01*
X116481000Y-27761000D02*
X116481000Y-36739000D01*
X116521000Y-27801000D02*
X116521000Y-36699000D01*
X116561000Y-27842000D02*
X116561000Y-36658000D01*
X116601000Y-27883000D02*
X116601000Y-36617000D01*
X116641000Y-27925000D02*
X116641000Y-36575000D01*
X116681000Y-27968000D02*
X116681000Y-36532000D01*
X116721000Y-28012000D02*
X116721000Y-36488000D01*
X116761000Y-28056000D02*
X116761000Y-36444000D01*
X116801000Y-28102000D02*
X116801000Y-36398000D01*
X116841000Y-28148000D02*
X116841000Y-36352000D01*
X116881000Y-28195000D02*
X116881000Y-36305000D01*
X116921000Y-28243000D02*
X116921000Y-36257000D01*
X116961000Y-28293000D02*
X116961000Y-36207000D01*
X117001000Y-28343000D02*
X117001000Y-36157000D01*
X117041000Y-28394000D02*
X117041000Y-36106000D01*
X117081000Y-28446000D02*
X117081000Y-36054000D01*
X117121000Y-28500000D02*
X117121000Y-36000000D01*
X117161000Y-28554000D02*
X117161000Y-35946000D01*
X117201000Y-28610000D02*
X117201000Y-35890000D01*
X117241000Y-28667000D02*
X117241000Y-35833000D01*
X117281000Y-28726000D02*
X117281000Y-35774000D01*
X117321000Y-28786000D02*
X117321000Y-35714000D01*
X117361000Y-28848000D02*
X117361000Y-35652000D01*
X117401000Y-28911000D02*
X117401000Y-35589000D01*
X117441000Y-28975000D02*
X117441000Y-35525000D01*
X117481000Y-29042000D02*
X117481000Y-35458000D01*
X117521000Y-29110000D02*
X117521000Y-35390000D01*
X117561000Y-29181000D02*
X117561000Y-35319000D01*
X117601000Y-29254000D02*
X117601000Y-35246000D01*
X117641000Y-29329000D02*
X117641000Y-35171000D01*
X117681000Y-29406000D02*
X117681000Y-35094000D01*
X117721000Y-29486000D02*
X117721000Y-35014000D01*
X117761000Y-29569000D02*
X117761000Y-34931000D01*
X117801000Y-29656000D02*
X117801000Y-34844000D01*
X117841000Y-29746000D02*
X117841000Y-34754000D01*
X117881000Y-29840000D02*
X117881000Y-34660000D01*
X117921000Y-29938000D02*
X117921000Y-34562000D01*
X117961000Y-30041000D02*
X117961000Y-34459000D01*
X118001000Y-30150000D02*
X118001000Y-34350000D01*
X118041000Y-30266000D02*
X118041000Y-34234000D01*
X118081000Y-30389000D02*
X118081000Y-34111000D01*
X118121000Y-30522000D02*
X118121000Y-33978000D01*
X118161000Y-30667000D02*
X118161000Y-33833000D01*
X118201000Y-30828000D02*
X118201000Y-33672000D01*
X118241000Y-31009000D02*
X118241000Y-33491000D01*
X118281000Y-31222000D02*
X118281000Y-33278000D01*
X118321000Y-31493000D02*
X118321000Y-33007000D01*
X118361000Y-31933000D02*
X118361000Y-32567000D01*
X105182918Y-28675000D02*
X106432918Y-28675000D01*
X105807918Y-28050000D02*
X105807918Y-29300000D01*
%TO.C,J1*%
D14*
X117123000Y-90373001D02*
X117123000Y-99627001D01*
X117123000Y-99627001D02*
X127377000Y-99627001D01*
X127377000Y-90373001D02*
X117123000Y-90373001D01*
X127377000Y-99627001D02*
X127377000Y-90373001D01*
D15*
X129536000Y-95000000D02*
G75*
G02*
X128774000Y-95000000I-381000J0D01*
G01*
X128774000Y-95000000D02*
G75*
G02*
X129536000Y-95000000I381000J0D01*
G01*
%TD*%
M02*
