%TF.GenerationSoftware,KiCad,Pcbnew,10.0.5*%
%TF.CreationDate,2026-08-13T18:09:51-04:00*%
%TF.ProjectId,Legs Power,4c656773-2050-46f7-9765-722e6b696361,rev?*%
%TF.SameCoordinates,Original*%
%TF.FileFunction,Drillmap*%
%TF.FilePolarity,Positive*%
%FSLAX45Y45*%
G04 Gerber Fmt 4.5, Leading zero omitted, Abs format (unit mm)*
G04 Created by KiCad (PCBNEW 10.0.5) date 2026-08-13 18:09:51*
%MOMM*%
%LPD*%
G01*
G04 APERTURE LIST*
%ADD10C,0.050000*%
%ADD11C,0.200000*%
%ADD12C,0.320000*%
G04 APERTURE END LIST*
D10*
X10350000Y-2350000D02*
X14150000Y-2350000D01*
X14150000Y-10725000D01*
X10350000Y-10725000D01*
X10350000Y-2350000D01*
D11*
D12*
X12062500Y-2587500D02*
X12382500Y-2907500D01*
X12382500Y-2587500D02*
X12062500Y-2907500D01*
X12090000Y-10190000D02*
X12410000Y-10510000D01*
X12410000Y-10190000D02*
X12090000Y-10510000D01*
D11*
X10608277Y-11038984D02*
X10608277Y-10838984D01*
X10608277Y-10838984D02*
X10655896Y-10838984D01*
X10655896Y-10838984D02*
X10684467Y-10848508D01*
X10684467Y-10848508D02*
X10703515Y-10867555D01*
X10703515Y-10867555D02*
X10713039Y-10886603D01*
X10713039Y-10886603D02*
X10722563Y-10924698D01*
X10722563Y-10924698D02*
X10722563Y-10953270D01*
X10722563Y-10953270D02*
X10713039Y-10991365D01*
X10713039Y-10991365D02*
X10703515Y-11010412D01*
X10703515Y-11010412D02*
X10684467Y-11029460D01*
X10684467Y-11029460D02*
X10655896Y-11038984D01*
X10655896Y-11038984D02*
X10608277Y-11038984D01*
X10808277Y-11038984D02*
X10808277Y-10905650D01*
X10808277Y-10943746D02*
X10817801Y-10924698D01*
X10817801Y-10924698D02*
X10827324Y-10915174D01*
X10827324Y-10915174D02*
X10846372Y-10905650D01*
X10846372Y-10905650D02*
X10865420Y-10905650D01*
X10932086Y-11038984D02*
X10932086Y-10905650D01*
X10932086Y-10838984D02*
X10922563Y-10848508D01*
X10922563Y-10848508D02*
X10932086Y-10858031D01*
X10932086Y-10858031D02*
X10941610Y-10848508D01*
X10941610Y-10848508D02*
X10932086Y-10838984D01*
X10932086Y-10838984D02*
X10932086Y-10858031D01*
X11055896Y-11038984D02*
X11036848Y-11029460D01*
X11036848Y-11029460D02*
X11027324Y-11010412D01*
X11027324Y-11010412D02*
X11027324Y-10838984D01*
X11160658Y-11038984D02*
X11141610Y-11029460D01*
X11141610Y-11029460D02*
X11132086Y-11010412D01*
X11132086Y-11010412D02*
X11132086Y-10838984D01*
X11389229Y-11038984D02*
X11389229Y-10838984D01*
X11389229Y-10838984D02*
X11455896Y-10981841D01*
X11455896Y-10981841D02*
X11522562Y-10838984D01*
X11522562Y-10838984D02*
X11522562Y-11038984D01*
X11703515Y-11038984D02*
X11703515Y-10934222D01*
X11703515Y-10934222D02*
X11693991Y-10915174D01*
X11693991Y-10915174D02*
X11674943Y-10905650D01*
X11674943Y-10905650D02*
X11636848Y-10905650D01*
X11636848Y-10905650D02*
X11617801Y-10915174D01*
X11703515Y-11029460D02*
X11684467Y-11038984D01*
X11684467Y-11038984D02*
X11636848Y-11038984D01*
X11636848Y-11038984D02*
X11617801Y-11029460D01*
X11617801Y-11029460D02*
X11608277Y-11010412D01*
X11608277Y-11010412D02*
X11608277Y-10991365D01*
X11608277Y-10991365D02*
X11617801Y-10972317D01*
X11617801Y-10972317D02*
X11636848Y-10962793D01*
X11636848Y-10962793D02*
X11684467Y-10962793D01*
X11684467Y-10962793D02*
X11703515Y-10953270D01*
X11798753Y-10905650D02*
X11798753Y-11105650D01*
X11798753Y-10915174D02*
X11817801Y-10905650D01*
X11817801Y-10905650D02*
X11855896Y-10905650D01*
X11855896Y-10905650D02*
X11874943Y-10915174D01*
X11874943Y-10915174D02*
X11884467Y-10924698D01*
X11884467Y-10924698D02*
X11893991Y-10943746D01*
X11893991Y-10943746D02*
X11893991Y-11000889D01*
X11893991Y-11000889D02*
X11884467Y-11019936D01*
X11884467Y-11019936D02*
X11874943Y-11029460D01*
X11874943Y-11029460D02*
X11855896Y-11038984D01*
X11855896Y-11038984D02*
X11817801Y-11038984D01*
X11817801Y-11038984D02*
X11798753Y-11029460D01*
X11979705Y-11019936D02*
X11989229Y-11029460D01*
X11989229Y-11029460D02*
X11979705Y-11038984D01*
X11979705Y-11038984D02*
X11970182Y-11029460D01*
X11970182Y-11029460D02*
X11979705Y-11019936D01*
X11979705Y-11019936D02*
X11979705Y-11038984D01*
X11979705Y-10915174D02*
X11989229Y-10924698D01*
X11989229Y-10924698D02*
X11979705Y-10934222D01*
X11979705Y-10934222D02*
X11970182Y-10924698D01*
X11970182Y-10924698D02*
X11979705Y-10915174D01*
X11979705Y-10915174D02*
X11979705Y-10934222D01*
X10147500Y-11267500D02*
X10347500Y-11467500D01*
X10347500Y-11267500D02*
X10147500Y-11467500D01*
X10589229Y-11258984D02*
X10713039Y-11258984D01*
X10713039Y-11258984D02*
X10646372Y-11335174D01*
X10646372Y-11335174D02*
X10674944Y-11335174D01*
X10674944Y-11335174D02*
X10693991Y-11344698D01*
X10693991Y-11344698D02*
X10703515Y-11354222D01*
X10703515Y-11354222D02*
X10713039Y-11373269D01*
X10713039Y-11373269D02*
X10713039Y-11420888D01*
X10713039Y-11420888D02*
X10703515Y-11439936D01*
X10703515Y-11439936D02*
X10693991Y-11449460D01*
X10693991Y-11449460D02*
X10674944Y-11458984D01*
X10674944Y-11458984D02*
X10617801Y-11458984D01*
X10617801Y-11458984D02*
X10598753Y-11449460D01*
X10598753Y-11449460D02*
X10589229Y-11439936D01*
X10798753Y-11439936D02*
X10808277Y-11449460D01*
X10808277Y-11449460D02*
X10798753Y-11458984D01*
X10798753Y-11458984D02*
X10789229Y-11449460D01*
X10789229Y-11449460D02*
X10798753Y-11439936D01*
X10798753Y-11439936D02*
X10798753Y-11458984D01*
X10884467Y-11278031D02*
X10893991Y-11268508D01*
X10893991Y-11268508D02*
X10913039Y-11258984D01*
X10913039Y-11258984D02*
X10960658Y-11258984D01*
X10960658Y-11258984D02*
X10979705Y-11268508D01*
X10979705Y-11268508D02*
X10989229Y-11278031D01*
X10989229Y-11278031D02*
X10998753Y-11297079D01*
X10998753Y-11297079D02*
X10998753Y-11316127D01*
X10998753Y-11316127D02*
X10989229Y-11344698D01*
X10989229Y-11344698D02*
X10874944Y-11458984D01*
X10874944Y-11458984D02*
X10998753Y-11458984D01*
X11122563Y-11258984D02*
X11141610Y-11258984D01*
X11141610Y-11258984D02*
X11160658Y-11268508D01*
X11160658Y-11268508D02*
X11170182Y-11278031D01*
X11170182Y-11278031D02*
X11179705Y-11297079D01*
X11179705Y-11297079D02*
X11189229Y-11335174D01*
X11189229Y-11335174D02*
X11189229Y-11382793D01*
X11189229Y-11382793D02*
X11179705Y-11420888D01*
X11179705Y-11420888D02*
X11170182Y-11439936D01*
X11170182Y-11439936D02*
X11160658Y-11449460D01*
X11160658Y-11449460D02*
X11141610Y-11458984D01*
X11141610Y-11458984D02*
X11122563Y-11458984D01*
X11122563Y-11458984D02*
X11103515Y-11449460D01*
X11103515Y-11449460D02*
X11093991Y-11439936D01*
X11093991Y-11439936D02*
X11084467Y-11420888D01*
X11084467Y-11420888D02*
X11074944Y-11382793D01*
X11074944Y-11382793D02*
X11074944Y-11335174D01*
X11074944Y-11335174D02*
X11084467Y-11297079D01*
X11084467Y-11297079D02*
X11093991Y-11278031D01*
X11093991Y-11278031D02*
X11103515Y-11268508D01*
X11103515Y-11268508D02*
X11122563Y-11258984D01*
X11313039Y-11258984D02*
X11332086Y-11258984D01*
X11332086Y-11258984D02*
X11351134Y-11268508D01*
X11351134Y-11268508D02*
X11360658Y-11278031D01*
X11360658Y-11278031D02*
X11370182Y-11297079D01*
X11370182Y-11297079D02*
X11379705Y-11335174D01*
X11379705Y-11335174D02*
X11379705Y-11382793D01*
X11379705Y-11382793D02*
X11370182Y-11420888D01*
X11370182Y-11420888D02*
X11360658Y-11439936D01*
X11360658Y-11439936D02*
X11351134Y-11449460D01*
X11351134Y-11449460D02*
X11332086Y-11458984D01*
X11332086Y-11458984D02*
X11313039Y-11458984D01*
X11313039Y-11458984D02*
X11293991Y-11449460D01*
X11293991Y-11449460D02*
X11284467Y-11439936D01*
X11284467Y-11439936D02*
X11274943Y-11420888D01*
X11274943Y-11420888D02*
X11265420Y-11382793D01*
X11265420Y-11382793D02*
X11265420Y-11335174D01*
X11265420Y-11335174D02*
X11274943Y-11297079D01*
X11274943Y-11297079D02*
X11284467Y-11278031D01*
X11284467Y-11278031D02*
X11293991Y-11268508D01*
X11293991Y-11268508D02*
X11313039Y-11258984D01*
X11465420Y-11458984D02*
X11465420Y-11325650D01*
X11465420Y-11344698D02*
X11474943Y-11335174D01*
X11474943Y-11335174D02*
X11493991Y-11325650D01*
X11493991Y-11325650D02*
X11522563Y-11325650D01*
X11522563Y-11325650D02*
X11541610Y-11335174D01*
X11541610Y-11335174D02*
X11551134Y-11354222D01*
X11551134Y-11354222D02*
X11551134Y-11458984D01*
X11551134Y-11354222D02*
X11560658Y-11335174D01*
X11560658Y-11335174D02*
X11579705Y-11325650D01*
X11579705Y-11325650D02*
X11608277Y-11325650D01*
X11608277Y-11325650D02*
X11627324Y-11335174D01*
X11627324Y-11335174D02*
X11636848Y-11354222D01*
X11636848Y-11354222D02*
X11636848Y-11458984D01*
X11732086Y-11458984D02*
X11732086Y-11325650D01*
X11732086Y-11344698D02*
X11741610Y-11335174D01*
X11741610Y-11335174D02*
X11760658Y-11325650D01*
X11760658Y-11325650D02*
X11789229Y-11325650D01*
X11789229Y-11325650D02*
X11808277Y-11335174D01*
X11808277Y-11335174D02*
X11817801Y-11354222D01*
X11817801Y-11354222D02*
X11817801Y-11458984D01*
X11817801Y-11354222D02*
X11827324Y-11335174D01*
X11827324Y-11335174D02*
X11846372Y-11325650D01*
X11846372Y-11325650D02*
X11874943Y-11325650D01*
X11874943Y-11325650D02*
X11893991Y-11335174D01*
X11893991Y-11335174D02*
X11903515Y-11354222D01*
X11903515Y-11354222D02*
X11903515Y-11458984D01*
X12293991Y-11249460D02*
X12122563Y-11506603D01*
X12551134Y-11258984D02*
X12570182Y-11258984D01*
X12570182Y-11258984D02*
X12589229Y-11268508D01*
X12589229Y-11268508D02*
X12598753Y-11278031D01*
X12598753Y-11278031D02*
X12608277Y-11297079D01*
X12608277Y-11297079D02*
X12617801Y-11335174D01*
X12617801Y-11335174D02*
X12617801Y-11382793D01*
X12617801Y-11382793D02*
X12608277Y-11420888D01*
X12608277Y-11420888D02*
X12598753Y-11439936D01*
X12598753Y-11439936D02*
X12589229Y-11449460D01*
X12589229Y-11449460D02*
X12570182Y-11458984D01*
X12570182Y-11458984D02*
X12551134Y-11458984D01*
X12551134Y-11458984D02*
X12532086Y-11449460D01*
X12532086Y-11449460D02*
X12522563Y-11439936D01*
X12522563Y-11439936D02*
X12513039Y-11420888D01*
X12513039Y-11420888D02*
X12503515Y-11382793D01*
X12503515Y-11382793D02*
X12503515Y-11335174D01*
X12503515Y-11335174D02*
X12513039Y-11297079D01*
X12513039Y-11297079D02*
X12522563Y-11278031D01*
X12522563Y-11278031D02*
X12532086Y-11268508D01*
X12532086Y-11268508D02*
X12551134Y-11258984D01*
X12703515Y-11439936D02*
X12713039Y-11449460D01*
X12713039Y-11449460D02*
X12703515Y-11458984D01*
X12703515Y-11458984D02*
X12693991Y-11449460D01*
X12693991Y-11449460D02*
X12703515Y-11439936D01*
X12703515Y-11439936D02*
X12703515Y-11458984D01*
X12903515Y-11458984D02*
X12789229Y-11458984D01*
X12846372Y-11458984D02*
X12846372Y-11258984D01*
X12846372Y-11258984D02*
X12827325Y-11287555D01*
X12827325Y-11287555D02*
X12808277Y-11306603D01*
X12808277Y-11306603D02*
X12789229Y-11316127D01*
X12979706Y-11278031D02*
X12989229Y-11268508D01*
X12989229Y-11268508D02*
X13008277Y-11258984D01*
X13008277Y-11258984D02*
X13055896Y-11258984D01*
X13055896Y-11258984D02*
X13074944Y-11268508D01*
X13074944Y-11268508D02*
X13084467Y-11278031D01*
X13084467Y-11278031D02*
X13093991Y-11297079D01*
X13093991Y-11297079D02*
X13093991Y-11316127D01*
X13093991Y-11316127D02*
X13084467Y-11344698D01*
X13084467Y-11344698D02*
X12970182Y-11458984D01*
X12970182Y-11458984D02*
X13093991Y-11458984D01*
X13265420Y-11258984D02*
X13227325Y-11258984D01*
X13227325Y-11258984D02*
X13208277Y-11268508D01*
X13208277Y-11268508D02*
X13198753Y-11278031D01*
X13198753Y-11278031D02*
X13179706Y-11306603D01*
X13179706Y-11306603D02*
X13170182Y-11344698D01*
X13170182Y-11344698D02*
X13170182Y-11420888D01*
X13170182Y-11420888D02*
X13179706Y-11439936D01*
X13179706Y-11439936D02*
X13189229Y-11449460D01*
X13189229Y-11449460D02*
X13208277Y-11458984D01*
X13208277Y-11458984D02*
X13246372Y-11458984D01*
X13246372Y-11458984D02*
X13265420Y-11449460D01*
X13265420Y-11449460D02*
X13274944Y-11439936D01*
X13274944Y-11439936D02*
X13284467Y-11420888D01*
X13284467Y-11420888D02*
X13284467Y-11373269D01*
X13284467Y-11373269D02*
X13274944Y-11354222D01*
X13274944Y-11354222D02*
X13265420Y-11344698D01*
X13265420Y-11344698D02*
X13246372Y-11335174D01*
X13246372Y-11335174D02*
X13208277Y-11335174D01*
X13208277Y-11335174D02*
X13189229Y-11344698D01*
X13189229Y-11344698D02*
X13179706Y-11354222D01*
X13179706Y-11354222D02*
X13170182Y-11373269D01*
X13408277Y-11258984D02*
X13427325Y-11258984D01*
X13427325Y-11258984D02*
X13446372Y-11268508D01*
X13446372Y-11268508D02*
X13455896Y-11278031D01*
X13455896Y-11278031D02*
X13465420Y-11297079D01*
X13465420Y-11297079D02*
X13474944Y-11335174D01*
X13474944Y-11335174D02*
X13474944Y-11382793D01*
X13474944Y-11382793D02*
X13465420Y-11420888D01*
X13465420Y-11420888D02*
X13455896Y-11439936D01*
X13455896Y-11439936D02*
X13446372Y-11449460D01*
X13446372Y-11449460D02*
X13427325Y-11458984D01*
X13427325Y-11458984D02*
X13408277Y-11458984D01*
X13408277Y-11458984D02*
X13389229Y-11449460D01*
X13389229Y-11449460D02*
X13379706Y-11439936D01*
X13379706Y-11439936D02*
X13370182Y-11420888D01*
X13370182Y-11420888D02*
X13360658Y-11382793D01*
X13360658Y-11382793D02*
X13360658Y-11335174D01*
X13360658Y-11335174D02*
X13370182Y-11297079D01*
X13370182Y-11297079D02*
X13379706Y-11278031D01*
X13379706Y-11278031D02*
X13389229Y-11268508D01*
X13389229Y-11268508D02*
X13408277Y-11258984D01*
X13551134Y-11258984D02*
X13551134Y-11297079D01*
X13627325Y-11258984D02*
X13627325Y-11297079D01*
X13922563Y-11535174D02*
X13913039Y-11525650D01*
X13913039Y-11525650D02*
X13893991Y-11497079D01*
X13893991Y-11497079D02*
X13884468Y-11478031D01*
X13884468Y-11478031D02*
X13874944Y-11449460D01*
X13874944Y-11449460D02*
X13865420Y-11401841D01*
X13865420Y-11401841D02*
X13865420Y-11363746D01*
X13865420Y-11363746D02*
X13874944Y-11316127D01*
X13874944Y-11316127D02*
X13884468Y-11287555D01*
X13884468Y-11287555D02*
X13893991Y-11268508D01*
X13893991Y-11268508D02*
X13913039Y-11239936D01*
X13913039Y-11239936D02*
X13922563Y-11230412D01*
X13989229Y-11278031D02*
X13998753Y-11268508D01*
X13998753Y-11268508D02*
X14017801Y-11258984D01*
X14017801Y-11258984D02*
X14065420Y-11258984D01*
X14065420Y-11258984D02*
X14084468Y-11268508D01*
X14084468Y-11268508D02*
X14093991Y-11278031D01*
X14093991Y-11278031D02*
X14103515Y-11297079D01*
X14103515Y-11297079D02*
X14103515Y-11316127D01*
X14103515Y-11316127D02*
X14093991Y-11344698D01*
X14093991Y-11344698D02*
X13979706Y-11458984D01*
X13979706Y-11458984D02*
X14103515Y-11458984D01*
X14341610Y-11458984D02*
X14341610Y-11258984D01*
X14427325Y-11458984D02*
X14427325Y-11354222D01*
X14427325Y-11354222D02*
X14417801Y-11335174D01*
X14417801Y-11335174D02*
X14398753Y-11325650D01*
X14398753Y-11325650D02*
X14370182Y-11325650D01*
X14370182Y-11325650D02*
X14351134Y-11335174D01*
X14351134Y-11335174D02*
X14341610Y-11344698D01*
X14551134Y-11458984D02*
X14532087Y-11449460D01*
X14532087Y-11449460D02*
X14522563Y-11439936D01*
X14522563Y-11439936D02*
X14513039Y-11420888D01*
X14513039Y-11420888D02*
X14513039Y-11363746D01*
X14513039Y-11363746D02*
X14522563Y-11344698D01*
X14522563Y-11344698D02*
X14532087Y-11335174D01*
X14532087Y-11335174D02*
X14551134Y-11325650D01*
X14551134Y-11325650D02*
X14579706Y-11325650D01*
X14579706Y-11325650D02*
X14598753Y-11335174D01*
X14598753Y-11335174D02*
X14608277Y-11344698D01*
X14608277Y-11344698D02*
X14617801Y-11363746D01*
X14617801Y-11363746D02*
X14617801Y-11420888D01*
X14617801Y-11420888D02*
X14608277Y-11439936D01*
X14608277Y-11439936D02*
X14598753Y-11449460D01*
X14598753Y-11449460D02*
X14579706Y-11458984D01*
X14579706Y-11458984D02*
X14551134Y-11458984D01*
X14732087Y-11458984D02*
X14713039Y-11449460D01*
X14713039Y-11449460D02*
X14703515Y-11430412D01*
X14703515Y-11430412D02*
X14703515Y-11258984D01*
X14884468Y-11449460D02*
X14865420Y-11458984D01*
X14865420Y-11458984D02*
X14827325Y-11458984D01*
X14827325Y-11458984D02*
X14808277Y-11449460D01*
X14808277Y-11449460D02*
X14798753Y-11430412D01*
X14798753Y-11430412D02*
X14798753Y-11354222D01*
X14798753Y-11354222D02*
X14808277Y-11335174D01*
X14808277Y-11335174D02*
X14827325Y-11325650D01*
X14827325Y-11325650D02*
X14865420Y-11325650D01*
X14865420Y-11325650D02*
X14884468Y-11335174D01*
X14884468Y-11335174D02*
X14893991Y-11354222D01*
X14893991Y-11354222D02*
X14893991Y-11373269D01*
X14893991Y-11373269D02*
X14798753Y-11392317D01*
X14970182Y-11449460D02*
X14989230Y-11458984D01*
X14989230Y-11458984D02*
X15027325Y-11458984D01*
X15027325Y-11458984D02*
X15046372Y-11449460D01*
X15046372Y-11449460D02*
X15055896Y-11430412D01*
X15055896Y-11430412D02*
X15055896Y-11420888D01*
X15055896Y-11420888D02*
X15046372Y-11401841D01*
X15046372Y-11401841D02*
X15027325Y-11392317D01*
X15027325Y-11392317D02*
X14998753Y-11392317D01*
X14998753Y-11392317D02*
X14979706Y-11382793D01*
X14979706Y-11382793D02*
X14970182Y-11363746D01*
X14970182Y-11363746D02*
X14970182Y-11354222D01*
X14970182Y-11354222D02*
X14979706Y-11335174D01*
X14979706Y-11335174D02*
X14998753Y-11325650D01*
X14998753Y-11325650D02*
X15027325Y-11325650D01*
X15027325Y-11325650D02*
X15046372Y-11335174D01*
X15122563Y-11535174D02*
X15132087Y-11525650D01*
X15132087Y-11525650D02*
X15151134Y-11497079D01*
X15151134Y-11497079D02*
X15160658Y-11478031D01*
X15160658Y-11478031D02*
X15170182Y-11449460D01*
X15170182Y-11449460D02*
X15179706Y-11401841D01*
X15179706Y-11401841D02*
X15179706Y-11363746D01*
X15179706Y-11363746D02*
X15170182Y-11316127D01*
X15170182Y-11316127D02*
X15160658Y-11287555D01*
X15160658Y-11287555D02*
X15151134Y-11268508D01*
X15151134Y-11268508D02*
X15132087Y-11239936D01*
X15132087Y-11239936D02*
X15122563Y-11230412D01*
X15484468Y-11535174D02*
X15474944Y-11525650D01*
X15474944Y-11525650D02*
X15455896Y-11497079D01*
X15455896Y-11497079D02*
X15446372Y-11478031D01*
X15446372Y-11478031D02*
X15436849Y-11449460D01*
X15436849Y-11449460D02*
X15427325Y-11401841D01*
X15427325Y-11401841D02*
X15427325Y-11363746D01*
X15427325Y-11363746D02*
X15436849Y-11316127D01*
X15436849Y-11316127D02*
X15446372Y-11287555D01*
X15446372Y-11287555D02*
X15455896Y-11268508D01*
X15455896Y-11268508D02*
X15474944Y-11239936D01*
X15474944Y-11239936D02*
X15484468Y-11230412D01*
X15560658Y-11325650D02*
X15560658Y-11458984D01*
X15560658Y-11344698D02*
X15570182Y-11335174D01*
X15570182Y-11335174D02*
X15589230Y-11325650D01*
X15589230Y-11325650D02*
X15617801Y-11325650D01*
X15617801Y-11325650D02*
X15636849Y-11335174D01*
X15636849Y-11335174D02*
X15646372Y-11354222D01*
X15646372Y-11354222D02*
X15646372Y-11458984D01*
X15770182Y-11458984D02*
X15751134Y-11449460D01*
X15751134Y-11449460D02*
X15741611Y-11439936D01*
X15741611Y-11439936D02*
X15732087Y-11420888D01*
X15732087Y-11420888D02*
X15732087Y-11363746D01*
X15732087Y-11363746D02*
X15741611Y-11344698D01*
X15741611Y-11344698D02*
X15751134Y-11335174D01*
X15751134Y-11335174D02*
X15770182Y-11325650D01*
X15770182Y-11325650D02*
X15798753Y-11325650D01*
X15798753Y-11325650D02*
X15817801Y-11335174D01*
X15817801Y-11335174D02*
X15827325Y-11344698D01*
X15827325Y-11344698D02*
X15836849Y-11363746D01*
X15836849Y-11363746D02*
X15836849Y-11420888D01*
X15836849Y-11420888D02*
X15827325Y-11439936D01*
X15827325Y-11439936D02*
X15817801Y-11449460D01*
X15817801Y-11449460D02*
X15798753Y-11458984D01*
X15798753Y-11458984D02*
X15770182Y-11458984D01*
X15893992Y-11325650D02*
X15970182Y-11325650D01*
X15922563Y-11258984D02*
X15922563Y-11430412D01*
X15922563Y-11430412D02*
X15932087Y-11449460D01*
X15932087Y-11449460D02*
X15951134Y-11458984D01*
X15951134Y-11458984D02*
X15970182Y-11458984D01*
X16189230Y-11325650D02*
X16189230Y-11525650D01*
X16189230Y-11335174D02*
X16208277Y-11325650D01*
X16208277Y-11325650D02*
X16246373Y-11325650D01*
X16246373Y-11325650D02*
X16265420Y-11335174D01*
X16265420Y-11335174D02*
X16274944Y-11344698D01*
X16274944Y-11344698D02*
X16284468Y-11363746D01*
X16284468Y-11363746D02*
X16284468Y-11420888D01*
X16284468Y-11420888D02*
X16274944Y-11439936D01*
X16274944Y-11439936D02*
X16265420Y-11449460D01*
X16265420Y-11449460D02*
X16246373Y-11458984D01*
X16246373Y-11458984D02*
X16208277Y-11458984D01*
X16208277Y-11458984D02*
X16189230Y-11449460D01*
X16398753Y-11458984D02*
X16379706Y-11449460D01*
X16379706Y-11449460D02*
X16370182Y-11430412D01*
X16370182Y-11430412D02*
X16370182Y-11258984D01*
X16560658Y-11458984D02*
X16560658Y-11354222D01*
X16560658Y-11354222D02*
X16551134Y-11335174D01*
X16551134Y-11335174D02*
X16532087Y-11325650D01*
X16532087Y-11325650D02*
X16493992Y-11325650D01*
X16493992Y-11325650D02*
X16474944Y-11335174D01*
X16560658Y-11449460D02*
X16541611Y-11458984D01*
X16541611Y-11458984D02*
X16493992Y-11458984D01*
X16493992Y-11458984D02*
X16474944Y-11449460D01*
X16474944Y-11449460D02*
X16465420Y-11430412D01*
X16465420Y-11430412D02*
X16465420Y-11411365D01*
X16465420Y-11411365D02*
X16474944Y-11392317D01*
X16474944Y-11392317D02*
X16493992Y-11382793D01*
X16493992Y-11382793D02*
X16541611Y-11382793D01*
X16541611Y-11382793D02*
X16560658Y-11373269D01*
X16627325Y-11325650D02*
X16703515Y-11325650D01*
X16655896Y-11258984D02*
X16655896Y-11430412D01*
X16655896Y-11430412D02*
X16665420Y-11449460D01*
X16665420Y-11449460D02*
X16684468Y-11458984D01*
X16684468Y-11458984D02*
X16703515Y-11458984D01*
X16846373Y-11449460D02*
X16827325Y-11458984D01*
X16827325Y-11458984D02*
X16789230Y-11458984D01*
X16789230Y-11458984D02*
X16770182Y-11449460D01*
X16770182Y-11449460D02*
X16760658Y-11430412D01*
X16760658Y-11430412D02*
X16760658Y-11354222D01*
X16760658Y-11354222D02*
X16770182Y-11335174D01*
X16770182Y-11335174D02*
X16789230Y-11325650D01*
X16789230Y-11325650D02*
X16827325Y-11325650D01*
X16827325Y-11325650D02*
X16846373Y-11335174D01*
X16846373Y-11335174D02*
X16855896Y-11354222D01*
X16855896Y-11354222D02*
X16855896Y-11373269D01*
X16855896Y-11373269D02*
X16760658Y-11392317D01*
X17027325Y-11458984D02*
X17027325Y-11258984D01*
X17027325Y-11449460D02*
X17008277Y-11458984D01*
X17008277Y-11458984D02*
X16970182Y-11458984D01*
X16970182Y-11458984D02*
X16951135Y-11449460D01*
X16951135Y-11449460D02*
X16941611Y-11439936D01*
X16941611Y-11439936D02*
X16932087Y-11420888D01*
X16932087Y-11420888D02*
X16932087Y-11363746D01*
X16932087Y-11363746D02*
X16941611Y-11344698D01*
X16941611Y-11344698D02*
X16951135Y-11335174D01*
X16951135Y-11335174D02*
X16970182Y-11325650D01*
X16970182Y-11325650D02*
X17008277Y-11325650D01*
X17008277Y-11325650D02*
X17027325Y-11335174D01*
X17103516Y-11535174D02*
X17113039Y-11525650D01*
X17113039Y-11525650D02*
X17132087Y-11497079D01*
X17132087Y-11497079D02*
X17141611Y-11478031D01*
X17141611Y-11478031D02*
X17151135Y-11449460D01*
X17151135Y-11449460D02*
X17160658Y-11401841D01*
X17160658Y-11401841D02*
X17160658Y-11363746D01*
X17160658Y-11363746D02*
X17151135Y-11316127D01*
X17151135Y-11316127D02*
X17141611Y-11287555D01*
X17141611Y-11287555D02*
X17132087Y-11268508D01*
X17132087Y-11268508D02*
X17113039Y-11239936D01*
X17113039Y-11239936D02*
X17103516Y-11230412D01*
M02*
