%TF.GenerationSoftware,KiCad,Pcbnew,10.0.5*%
%TF.CreationDate,2026-08-13T18:09:48-04:00*%
%TF.ProjectId,Legs Power,4c656773-2050-46f7-9765-722e6b696361,rev?*%
%TF.SameCoordinates,Original*%
%TF.FileFunction,Copper,L1,Top*%
%TF.FilePolarity,Positive*%
%FSLAX46Y46*%
G04 Gerber Fmt 4.6, Leading zero omitted, Abs format (unit mm)*
G04 Created by KiCad (PCBNEW 10.0.5) date 2026-08-13 18:09:48*
%MOMM*%
%LPD*%
G01*
G04 APERTURE LIST*
G04 Aperture macros list*
%AMRoundRect*
0 Rectangle with rounded corners*
0 $1 Rounding radius*
0 $2 $3 $4 $5 $6 $7 $8 $9 X,Y pos of 4 corners*
0 Add a 4 corners polygon primitive as box body*
4,1,4,$2,$3,$4,$5,$6,$7,$8,$9,$2,$3,0*
0 Add four circle primitives for the rounded corners*
1,1,$1+$1,$2,$3*
1,1,$1+$1,$4,$5*
1,1,$1+$1,$6,$7*
1,1,$1+$1,$8,$9*
0 Add four rect primitives between the rounded corners*
20,1,$1+$1,$2,$3,$4,$5,0*
20,1,$1+$1,$4,$5,$6,$7,0*
20,1,$1+$1,$6,$7,$8,$9,0*
20,1,$1+$1,$8,$9,$2,$3,0*%
G04 Aperture macros list end*
%ADD10C,0.150000*%
%ADD11C,0.300000*%
%ADD12C,0.400000*%
%TA.AperFunction,ComponentPad*%
%ADD13R,1.700000X1.700000*%
%TD*%
%TA.AperFunction,ComponentPad*%
%ADD14O,1.700000X1.700000*%
%TD*%
%TA.AperFunction,SMDPad,CuDef*%
%ADD15RoundRect,1.250000X3.750000X-1.250000X3.750000X1.250000X-3.750000X1.250000X-3.750000X-1.250000X0*%
%TD*%
%TA.AperFunction,ComponentPad*%
%ADD16C,2.400000*%
%TD*%
%TA.AperFunction,ComponentPad*%
%ADD17R,2.400000X2.400000*%
%TD*%
%TA.AperFunction,ComponentPad*%
%ADD18C,1.803400*%
%TD*%
%TA.AperFunction,Conductor*%
%ADD19C,2.000000*%
%TD*%
%TA.AperFunction,Conductor*%
%ADD20C,0.200000*%
%TD*%
G04 APERTURE END LIST*
D10*
X177002200Y-166007200D02*
X285002200Y-166007200D01*
X285002200Y-198007200D01*
X177002200Y-198007200D01*
X177002200Y-166007200D01*
X10000000Y-10000000D02*
X287002200Y-10000000D01*
X287002200Y-200007200D01*
X10000000Y-200007200D01*
X10000000Y-10000000D01*
X12000000Y-12000000D02*
X285002200Y-12000000D01*
X285002200Y-198007200D01*
X12000000Y-198007200D01*
X12000000Y-12000000D01*
X60000000Y-12000000D02*
X60000000Y-10000000D01*
X110000000Y-12000000D02*
X110000000Y-10000000D01*
X160000000Y-12000000D02*
X160000000Y-10000000D01*
X210000000Y-12000000D02*
X210000000Y-10000000D01*
X260000000Y-12000000D02*
X260000000Y-10000000D01*
X36089160Y-11593604D02*
X35346303Y-11593604D01*
X35717731Y-11593604D02*
X35717731Y-10293604D01*
X35717731Y-10293604D02*
X35593922Y-10479319D01*
X35593922Y-10479319D02*
X35470112Y-10603128D01*
X35470112Y-10603128D02*
X35346303Y-10665033D01*
X85346303Y-10417414D02*
X85408207Y-10355509D01*
X85408207Y-10355509D02*
X85532017Y-10293604D01*
X85532017Y-10293604D02*
X85841541Y-10293604D01*
X85841541Y-10293604D02*
X85965350Y-10355509D01*
X85965350Y-10355509D02*
X86027255Y-10417414D01*
X86027255Y-10417414D02*
X86089160Y-10541223D01*
X86089160Y-10541223D02*
X86089160Y-10665033D01*
X86089160Y-10665033D02*
X86027255Y-10850747D01*
X86027255Y-10850747D02*
X85284398Y-11593604D01*
X85284398Y-11593604D02*
X86089160Y-11593604D01*
X135284398Y-10293604D02*
X136089160Y-10293604D01*
X136089160Y-10293604D02*
X135655826Y-10788842D01*
X135655826Y-10788842D02*
X135841541Y-10788842D01*
X135841541Y-10788842D02*
X135965350Y-10850747D01*
X135965350Y-10850747D02*
X136027255Y-10912652D01*
X136027255Y-10912652D02*
X136089160Y-11036461D01*
X136089160Y-11036461D02*
X136089160Y-11345985D01*
X136089160Y-11345985D02*
X136027255Y-11469795D01*
X136027255Y-11469795D02*
X135965350Y-11531700D01*
X135965350Y-11531700D02*
X135841541Y-11593604D01*
X135841541Y-11593604D02*
X135470112Y-11593604D01*
X135470112Y-11593604D02*
X135346303Y-11531700D01*
X135346303Y-11531700D02*
X135284398Y-11469795D01*
X185965350Y-10726938D02*
X185965350Y-11593604D01*
X185655826Y-10231700D02*
X185346303Y-11160271D01*
X185346303Y-11160271D02*
X186151064Y-11160271D01*
X236027255Y-10293604D02*
X235408207Y-10293604D01*
X235408207Y-10293604D02*
X235346303Y-10912652D01*
X235346303Y-10912652D02*
X235408207Y-10850747D01*
X235408207Y-10850747D02*
X235532017Y-10788842D01*
X235532017Y-10788842D02*
X235841541Y-10788842D01*
X235841541Y-10788842D02*
X235965350Y-10850747D01*
X235965350Y-10850747D02*
X236027255Y-10912652D01*
X236027255Y-10912652D02*
X236089160Y-11036461D01*
X236089160Y-11036461D02*
X236089160Y-11345985D01*
X236089160Y-11345985D02*
X236027255Y-11469795D01*
X236027255Y-11469795D02*
X235965350Y-11531700D01*
X235965350Y-11531700D02*
X235841541Y-11593604D01*
X235841541Y-11593604D02*
X235532017Y-11593604D01*
X235532017Y-11593604D02*
X235408207Y-11531700D01*
X235408207Y-11531700D02*
X235346303Y-11469795D01*
X285965350Y-10293604D02*
X285717731Y-10293604D01*
X285717731Y-10293604D02*
X285593922Y-10355509D01*
X285593922Y-10355509D02*
X285532017Y-10417414D01*
X285532017Y-10417414D02*
X285408207Y-10603128D01*
X285408207Y-10603128D02*
X285346303Y-10850747D01*
X285346303Y-10850747D02*
X285346303Y-11345985D01*
X285346303Y-11345985D02*
X285408207Y-11469795D01*
X285408207Y-11469795D02*
X285470112Y-11531700D01*
X285470112Y-11531700D02*
X285593922Y-11593604D01*
X285593922Y-11593604D02*
X285841541Y-11593604D01*
X285841541Y-11593604D02*
X285965350Y-11531700D01*
X285965350Y-11531700D02*
X286027255Y-11469795D01*
X286027255Y-11469795D02*
X286089160Y-11345985D01*
X286089160Y-11345985D02*
X286089160Y-11036461D01*
X286089160Y-11036461D02*
X286027255Y-10912652D01*
X286027255Y-10912652D02*
X285965350Y-10850747D01*
X285965350Y-10850747D02*
X285841541Y-10788842D01*
X285841541Y-10788842D02*
X285593922Y-10788842D01*
X285593922Y-10788842D02*
X285470112Y-10850747D01*
X285470112Y-10850747D02*
X285408207Y-10912652D01*
X285408207Y-10912652D02*
X285346303Y-11036461D01*
X60000000Y-198007200D02*
X60000000Y-200007200D01*
X110000000Y-198007200D02*
X110000000Y-200007200D01*
X160000000Y-198007200D02*
X160000000Y-200007200D01*
X210000000Y-198007200D02*
X210000000Y-200007200D01*
X260000000Y-198007200D02*
X260000000Y-200007200D01*
X36089160Y-199600804D02*
X35346303Y-199600804D01*
X35717731Y-199600804D02*
X35717731Y-198300804D01*
X35717731Y-198300804D02*
X35593922Y-198486519D01*
X35593922Y-198486519D02*
X35470112Y-198610328D01*
X35470112Y-198610328D02*
X35346303Y-198672233D01*
X85346303Y-198424614D02*
X85408207Y-198362709D01*
X85408207Y-198362709D02*
X85532017Y-198300804D01*
X85532017Y-198300804D02*
X85841541Y-198300804D01*
X85841541Y-198300804D02*
X85965350Y-198362709D01*
X85965350Y-198362709D02*
X86027255Y-198424614D01*
X86027255Y-198424614D02*
X86089160Y-198548423D01*
X86089160Y-198548423D02*
X86089160Y-198672233D01*
X86089160Y-198672233D02*
X86027255Y-198857947D01*
X86027255Y-198857947D02*
X85284398Y-199600804D01*
X85284398Y-199600804D02*
X86089160Y-199600804D01*
X135284398Y-198300804D02*
X136089160Y-198300804D01*
X136089160Y-198300804D02*
X135655826Y-198796042D01*
X135655826Y-198796042D02*
X135841541Y-198796042D01*
X135841541Y-198796042D02*
X135965350Y-198857947D01*
X135965350Y-198857947D02*
X136027255Y-198919852D01*
X136027255Y-198919852D02*
X136089160Y-199043661D01*
X136089160Y-199043661D02*
X136089160Y-199353185D01*
X136089160Y-199353185D02*
X136027255Y-199476995D01*
X136027255Y-199476995D02*
X135965350Y-199538900D01*
X135965350Y-199538900D02*
X135841541Y-199600804D01*
X135841541Y-199600804D02*
X135470112Y-199600804D01*
X135470112Y-199600804D02*
X135346303Y-199538900D01*
X135346303Y-199538900D02*
X135284398Y-199476995D01*
X185965350Y-198734138D02*
X185965350Y-199600804D01*
X185655826Y-198238900D02*
X185346303Y-199167471D01*
X185346303Y-199167471D02*
X186151064Y-199167471D01*
X236027255Y-198300804D02*
X235408207Y-198300804D01*
X235408207Y-198300804D02*
X235346303Y-198919852D01*
X235346303Y-198919852D02*
X235408207Y-198857947D01*
X235408207Y-198857947D02*
X235532017Y-198796042D01*
X235532017Y-198796042D02*
X235841541Y-198796042D01*
X235841541Y-198796042D02*
X235965350Y-198857947D01*
X235965350Y-198857947D02*
X236027255Y-198919852D01*
X236027255Y-198919852D02*
X236089160Y-199043661D01*
X236089160Y-199043661D02*
X236089160Y-199353185D01*
X236089160Y-199353185D02*
X236027255Y-199476995D01*
X236027255Y-199476995D02*
X235965350Y-199538900D01*
X235965350Y-199538900D02*
X235841541Y-199600804D01*
X235841541Y-199600804D02*
X235532017Y-199600804D01*
X235532017Y-199600804D02*
X235408207Y-199538900D01*
X235408207Y-199538900D02*
X235346303Y-199476995D01*
X285965350Y-198300804D02*
X285717731Y-198300804D01*
X285717731Y-198300804D02*
X285593922Y-198362709D01*
X285593922Y-198362709D02*
X285532017Y-198424614D01*
X285532017Y-198424614D02*
X285408207Y-198610328D01*
X285408207Y-198610328D02*
X285346303Y-198857947D01*
X285346303Y-198857947D02*
X285346303Y-199353185D01*
X285346303Y-199353185D02*
X285408207Y-199476995D01*
X285408207Y-199476995D02*
X285470112Y-199538900D01*
X285470112Y-199538900D02*
X285593922Y-199600804D01*
X285593922Y-199600804D02*
X285841541Y-199600804D01*
X285841541Y-199600804D02*
X285965350Y-199538900D01*
X285965350Y-199538900D02*
X286027255Y-199476995D01*
X286027255Y-199476995D02*
X286089160Y-199353185D01*
X286089160Y-199353185D02*
X286089160Y-199043661D01*
X286089160Y-199043661D02*
X286027255Y-198919852D01*
X286027255Y-198919852D02*
X285965350Y-198857947D01*
X285965350Y-198857947D02*
X285841541Y-198796042D01*
X285841541Y-198796042D02*
X285593922Y-198796042D01*
X285593922Y-198796042D02*
X285470112Y-198857947D01*
X285470112Y-198857947D02*
X285408207Y-198919852D01*
X285408207Y-198919852D02*
X285346303Y-199043661D01*
X10000000Y-60000000D02*
X12000000Y-60000000D01*
X10000000Y-110000000D02*
X12000000Y-110000000D01*
X10000000Y-160000000D02*
X12000000Y-160000000D01*
X10690476Y-35222176D02*
X11309523Y-35222176D01*
X10566666Y-35593604D02*
X10999999Y-34293604D01*
X10999999Y-34293604D02*
X11433333Y-35593604D01*
X11092857Y-84912652D02*
X11278571Y-84974557D01*
X11278571Y-84974557D02*
X11340476Y-85036461D01*
X11340476Y-85036461D02*
X11402380Y-85160271D01*
X11402380Y-85160271D02*
X11402380Y-85345985D01*
X11402380Y-85345985D02*
X11340476Y-85469795D01*
X11340476Y-85469795D02*
X11278571Y-85531700D01*
X11278571Y-85531700D02*
X11154761Y-85593604D01*
X11154761Y-85593604D02*
X10659523Y-85593604D01*
X10659523Y-85593604D02*
X10659523Y-84293604D01*
X10659523Y-84293604D02*
X11092857Y-84293604D01*
X11092857Y-84293604D02*
X11216666Y-84355509D01*
X11216666Y-84355509D02*
X11278571Y-84417414D01*
X11278571Y-84417414D02*
X11340476Y-84541223D01*
X11340476Y-84541223D02*
X11340476Y-84665033D01*
X11340476Y-84665033D02*
X11278571Y-84788842D01*
X11278571Y-84788842D02*
X11216666Y-84850747D01*
X11216666Y-84850747D02*
X11092857Y-84912652D01*
X11092857Y-84912652D02*
X10659523Y-84912652D01*
X11402380Y-135469795D02*
X11340476Y-135531700D01*
X11340476Y-135531700D02*
X11154761Y-135593604D01*
X11154761Y-135593604D02*
X11030952Y-135593604D01*
X11030952Y-135593604D02*
X10845238Y-135531700D01*
X10845238Y-135531700D02*
X10721428Y-135407890D01*
X10721428Y-135407890D02*
X10659523Y-135284080D01*
X10659523Y-135284080D02*
X10597619Y-135036461D01*
X10597619Y-135036461D02*
X10597619Y-134850747D01*
X10597619Y-134850747D02*
X10659523Y-134603128D01*
X10659523Y-134603128D02*
X10721428Y-134479319D01*
X10721428Y-134479319D02*
X10845238Y-134355509D01*
X10845238Y-134355509D02*
X11030952Y-134293604D01*
X11030952Y-134293604D02*
X11154761Y-134293604D01*
X11154761Y-134293604D02*
X11340476Y-134355509D01*
X11340476Y-134355509D02*
X11402380Y-134417414D01*
X10659523Y-185593604D02*
X10659523Y-184293604D01*
X10659523Y-184293604D02*
X10969047Y-184293604D01*
X10969047Y-184293604D02*
X11154761Y-184355509D01*
X11154761Y-184355509D02*
X11278571Y-184479319D01*
X11278571Y-184479319D02*
X11340476Y-184603128D01*
X11340476Y-184603128D02*
X11402380Y-184850747D01*
X11402380Y-184850747D02*
X11402380Y-185036461D01*
X11402380Y-185036461D02*
X11340476Y-185284080D01*
X11340476Y-185284080D02*
X11278571Y-185407890D01*
X11278571Y-185407890D02*
X11154761Y-185531700D01*
X11154761Y-185531700D02*
X10969047Y-185593604D01*
X10969047Y-185593604D02*
X10659523Y-185593604D01*
X287002200Y-60000000D02*
X285002200Y-60000000D01*
X287002200Y-110000000D02*
X285002200Y-110000000D01*
X287002200Y-160000000D02*
X285002200Y-160000000D01*
X285692676Y-35222176D02*
X286311723Y-35222176D01*
X285568866Y-35593604D02*
X286002199Y-34293604D01*
X286002199Y-34293604D02*
X286435533Y-35593604D01*
X286095057Y-84912652D02*
X286280771Y-84974557D01*
X286280771Y-84974557D02*
X286342676Y-85036461D01*
X286342676Y-85036461D02*
X286404580Y-85160271D01*
X286404580Y-85160271D02*
X286404580Y-85345985D01*
X286404580Y-85345985D02*
X286342676Y-85469795D01*
X286342676Y-85469795D02*
X286280771Y-85531700D01*
X286280771Y-85531700D02*
X286156961Y-85593604D01*
X286156961Y-85593604D02*
X285661723Y-85593604D01*
X285661723Y-85593604D02*
X285661723Y-84293604D01*
X285661723Y-84293604D02*
X286095057Y-84293604D01*
X286095057Y-84293604D02*
X286218866Y-84355509D01*
X286218866Y-84355509D02*
X286280771Y-84417414D01*
X286280771Y-84417414D02*
X286342676Y-84541223D01*
X286342676Y-84541223D02*
X286342676Y-84665033D01*
X286342676Y-84665033D02*
X286280771Y-84788842D01*
X286280771Y-84788842D02*
X286218866Y-84850747D01*
X286218866Y-84850747D02*
X286095057Y-84912652D01*
X286095057Y-84912652D02*
X285661723Y-84912652D01*
X286404580Y-135469795D02*
X286342676Y-135531700D01*
X286342676Y-135531700D02*
X286156961Y-135593604D01*
X286156961Y-135593604D02*
X286033152Y-135593604D01*
X286033152Y-135593604D02*
X285847438Y-135531700D01*
X285847438Y-135531700D02*
X285723628Y-135407890D01*
X285723628Y-135407890D02*
X285661723Y-135284080D01*
X285661723Y-135284080D02*
X285599819Y-135036461D01*
X285599819Y-135036461D02*
X285599819Y-134850747D01*
X285599819Y-134850747D02*
X285661723Y-134603128D01*
X285661723Y-134603128D02*
X285723628Y-134479319D01*
X285723628Y-134479319D02*
X285847438Y-134355509D01*
X285847438Y-134355509D02*
X286033152Y-134293604D01*
X286033152Y-134293604D02*
X286156961Y-134293604D01*
X286156961Y-134293604D02*
X286342676Y-134355509D01*
X286342676Y-134355509D02*
X286404580Y-134417414D01*
X285661723Y-185593604D02*
X285661723Y-184293604D01*
X285661723Y-184293604D02*
X285971247Y-184293604D01*
X285971247Y-184293604D02*
X286156961Y-184355509D01*
X286156961Y-184355509D02*
X286280771Y-184479319D01*
X286280771Y-184479319D02*
X286342676Y-184603128D01*
X286342676Y-184603128D02*
X286404580Y-184850747D01*
X286404580Y-184850747D02*
X286404580Y-185036461D01*
X286404580Y-185036461D02*
X286342676Y-185284080D01*
X286342676Y-185284080D02*
X286280771Y-185407890D01*
X286280771Y-185407890D02*
X286156961Y-185531700D01*
X286156961Y-185531700D02*
X285971247Y-185593604D01*
X285971247Y-185593604D02*
X285661723Y-185593604D01*
X200458026Y-193793328D02*
X200458026Y-192293328D01*
X200458026Y-192293328D02*
X200815169Y-192293328D01*
X200815169Y-192293328D02*
X201029455Y-192364757D01*
X201029455Y-192364757D02*
X201172312Y-192507614D01*
X201172312Y-192507614D02*
X201243741Y-192650471D01*
X201243741Y-192650471D02*
X201315169Y-192936185D01*
X201315169Y-192936185D02*
X201315169Y-193150471D01*
X201315169Y-193150471D02*
X201243741Y-193436185D01*
X201243741Y-193436185D02*
X201172312Y-193579042D01*
X201172312Y-193579042D02*
X201029455Y-193721900D01*
X201029455Y-193721900D02*
X200815169Y-193793328D01*
X200815169Y-193793328D02*
X200458026Y-193793328D01*
X202600884Y-193793328D02*
X202600884Y-193007614D01*
X202600884Y-193007614D02*
X202529455Y-192864757D01*
X202529455Y-192864757D02*
X202386598Y-192793328D01*
X202386598Y-192793328D02*
X202100884Y-192793328D01*
X202100884Y-192793328D02*
X201958026Y-192864757D01*
X202600884Y-193721900D02*
X202458026Y-193793328D01*
X202458026Y-193793328D02*
X202100884Y-193793328D01*
X202100884Y-193793328D02*
X201958026Y-193721900D01*
X201958026Y-193721900D02*
X201886598Y-193579042D01*
X201886598Y-193579042D02*
X201886598Y-193436185D01*
X201886598Y-193436185D02*
X201958026Y-193293328D01*
X201958026Y-193293328D02*
X202100884Y-193221900D01*
X202100884Y-193221900D02*
X202458026Y-193221900D01*
X202458026Y-193221900D02*
X202600884Y-193150471D01*
X203100884Y-192793328D02*
X203672312Y-192793328D01*
X203315169Y-192293328D02*
X203315169Y-193579042D01*
X203315169Y-193579042D02*
X203386598Y-193721900D01*
X203386598Y-193721900D02*
X203529455Y-193793328D01*
X203529455Y-193793328D02*
X203672312Y-193793328D01*
X204743741Y-193721900D02*
X204600884Y-193793328D01*
X204600884Y-193793328D02*
X204315170Y-193793328D01*
X204315170Y-193793328D02*
X204172312Y-193721900D01*
X204172312Y-193721900D02*
X204100884Y-193579042D01*
X204100884Y-193579042D02*
X204100884Y-193007614D01*
X204100884Y-193007614D02*
X204172312Y-192864757D01*
X204172312Y-192864757D02*
X204315170Y-192793328D01*
X204315170Y-192793328D02*
X204600884Y-192793328D01*
X204600884Y-192793328D02*
X204743741Y-192864757D01*
X204743741Y-192864757D02*
X204815170Y-193007614D01*
X204815170Y-193007614D02*
X204815170Y-193150471D01*
X204815170Y-193150471D02*
X204100884Y-193293328D01*
X205458026Y-193650471D02*
X205529455Y-193721900D01*
X205529455Y-193721900D02*
X205458026Y-193793328D01*
X205458026Y-193793328D02*
X205386598Y-193721900D01*
X205386598Y-193721900D02*
X205458026Y-193650471D01*
X205458026Y-193650471D02*
X205458026Y-193793328D01*
X205458026Y-192864757D02*
X205529455Y-192936185D01*
X205529455Y-192936185D02*
X205458026Y-193007614D01*
X205458026Y-193007614D02*
X205386598Y-192936185D01*
X205386598Y-192936185D02*
X205458026Y-192864757D01*
X205458026Y-192864757D02*
X205458026Y-193007614D01*
X177002200Y-194507200D02*
X285002200Y-194507200D01*
X178458026Y-196593328D02*
X178458026Y-195093328D01*
X179315169Y-196593328D02*
X178672312Y-195736185D01*
X179315169Y-195093328D02*
X178458026Y-195950471D01*
X179958026Y-196593328D02*
X179958026Y-195593328D01*
X179958026Y-195093328D02*
X179886598Y-195164757D01*
X179886598Y-195164757D02*
X179958026Y-195236185D01*
X179958026Y-195236185D02*
X180029455Y-195164757D01*
X180029455Y-195164757D02*
X179958026Y-195093328D01*
X179958026Y-195093328D02*
X179958026Y-195236185D01*
X181529455Y-196450471D02*
X181458027Y-196521900D01*
X181458027Y-196521900D02*
X181243741Y-196593328D01*
X181243741Y-196593328D02*
X181100884Y-196593328D01*
X181100884Y-196593328D02*
X180886598Y-196521900D01*
X180886598Y-196521900D02*
X180743741Y-196379042D01*
X180743741Y-196379042D02*
X180672312Y-196236185D01*
X180672312Y-196236185D02*
X180600884Y-195950471D01*
X180600884Y-195950471D02*
X180600884Y-195736185D01*
X180600884Y-195736185D02*
X180672312Y-195450471D01*
X180672312Y-195450471D02*
X180743741Y-195307614D01*
X180743741Y-195307614D02*
X180886598Y-195164757D01*
X180886598Y-195164757D02*
X181100884Y-195093328D01*
X181100884Y-195093328D02*
X181243741Y-195093328D01*
X181243741Y-195093328D02*
X181458027Y-195164757D01*
X181458027Y-195164757D02*
X181529455Y-195236185D01*
X182815170Y-196593328D02*
X182815170Y-195807614D01*
X182815170Y-195807614D02*
X182743741Y-195664757D01*
X182743741Y-195664757D02*
X182600884Y-195593328D01*
X182600884Y-195593328D02*
X182315170Y-195593328D01*
X182315170Y-195593328D02*
X182172312Y-195664757D01*
X182815170Y-196521900D02*
X182672312Y-196593328D01*
X182672312Y-196593328D02*
X182315170Y-196593328D01*
X182315170Y-196593328D02*
X182172312Y-196521900D01*
X182172312Y-196521900D02*
X182100884Y-196379042D01*
X182100884Y-196379042D02*
X182100884Y-196236185D01*
X182100884Y-196236185D02*
X182172312Y-196093328D01*
X182172312Y-196093328D02*
X182315170Y-196021900D01*
X182315170Y-196021900D02*
X182672312Y-196021900D01*
X182672312Y-196021900D02*
X182815170Y-195950471D01*
X184172313Y-196593328D02*
X184172313Y-195093328D01*
X184172313Y-196521900D02*
X184029455Y-196593328D01*
X184029455Y-196593328D02*
X183743741Y-196593328D01*
X183743741Y-196593328D02*
X183600884Y-196521900D01*
X183600884Y-196521900D02*
X183529455Y-196450471D01*
X183529455Y-196450471D02*
X183458027Y-196307614D01*
X183458027Y-196307614D02*
X183458027Y-195879042D01*
X183458027Y-195879042D02*
X183529455Y-195736185D01*
X183529455Y-195736185D02*
X183600884Y-195664757D01*
X183600884Y-195664757D02*
X183743741Y-195593328D01*
X183743741Y-195593328D02*
X184029455Y-195593328D01*
X184029455Y-195593328D02*
X184172313Y-195664757D01*
X186029455Y-195807614D02*
X186529455Y-195807614D01*
X186743741Y-196593328D02*
X186029455Y-196593328D01*
X186029455Y-196593328D02*
X186029455Y-195093328D01*
X186029455Y-195093328D02*
X186743741Y-195093328D01*
X187386598Y-196450471D02*
X187458027Y-196521900D01*
X187458027Y-196521900D02*
X187386598Y-196593328D01*
X187386598Y-196593328D02*
X187315170Y-196521900D01*
X187315170Y-196521900D02*
X187386598Y-196450471D01*
X187386598Y-196450471D02*
X187386598Y-196593328D01*
X188100884Y-196593328D02*
X188100884Y-195093328D01*
X188100884Y-195093328D02*
X188458027Y-195093328D01*
X188458027Y-195093328D02*
X188672313Y-195164757D01*
X188672313Y-195164757D02*
X188815170Y-195307614D01*
X188815170Y-195307614D02*
X188886599Y-195450471D01*
X188886599Y-195450471D02*
X188958027Y-195736185D01*
X188958027Y-195736185D02*
X188958027Y-195950471D01*
X188958027Y-195950471D02*
X188886599Y-196236185D01*
X188886599Y-196236185D02*
X188815170Y-196379042D01*
X188815170Y-196379042D02*
X188672313Y-196521900D01*
X188672313Y-196521900D02*
X188458027Y-196593328D01*
X188458027Y-196593328D02*
X188100884Y-196593328D01*
X189600884Y-196450471D02*
X189672313Y-196521900D01*
X189672313Y-196521900D02*
X189600884Y-196593328D01*
X189600884Y-196593328D02*
X189529456Y-196521900D01*
X189529456Y-196521900D02*
X189600884Y-196450471D01*
X189600884Y-196450471D02*
X189600884Y-196593328D01*
X190243742Y-196164757D02*
X190958028Y-196164757D01*
X190100885Y-196593328D02*
X190600885Y-195093328D01*
X190600885Y-195093328D02*
X191100885Y-196593328D01*
X191600884Y-196450471D02*
X191672313Y-196521900D01*
X191672313Y-196521900D02*
X191600884Y-196593328D01*
X191600884Y-196593328D02*
X191529456Y-196521900D01*
X191529456Y-196521900D02*
X191600884Y-196450471D01*
X191600884Y-196450471D02*
X191600884Y-196593328D01*
X194243742Y-196593328D02*
X193386599Y-196593328D01*
X193815170Y-196593328D02*
X193815170Y-195093328D01*
X193815170Y-195093328D02*
X193672313Y-195307614D01*
X193672313Y-195307614D02*
X193529456Y-195450471D01*
X193529456Y-195450471D02*
X193386599Y-195521900D01*
X195172313Y-195093328D02*
X195315170Y-195093328D01*
X195315170Y-195093328D02*
X195458027Y-195164757D01*
X195458027Y-195164757D02*
X195529456Y-195236185D01*
X195529456Y-195236185D02*
X195600884Y-195379042D01*
X195600884Y-195379042D02*
X195672313Y-195664757D01*
X195672313Y-195664757D02*
X195672313Y-196021900D01*
X195672313Y-196021900D02*
X195600884Y-196307614D01*
X195600884Y-196307614D02*
X195529456Y-196450471D01*
X195529456Y-196450471D02*
X195458027Y-196521900D01*
X195458027Y-196521900D02*
X195315170Y-196593328D01*
X195315170Y-196593328D02*
X195172313Y-196593328D01*
X195172313Y-196593328D02*
X195029456Y-196521900D01*
X195029456Y-196521900D02*
X194958027Y-196450471D01*
X194958027Y-196450471D02*
X194886598Y-196307614D01*
X194886598Y-196307614D02*
X194815170Y-196021900D01*
X194815170Y-196021900D02*
X194815170Y-195664757D01*
X194815170Y-195664757D02*
X194886598Y-195379042D01*
X194886598Y-195379042D02*
X194958027Y-195236185D01*
X194958027Y-195236185D02*
X195029456Y-195164757D01*
X195029456Y-195164757D02*
X195172313Y-195093328D01*
X196315169Y-196450471D02*
X196386598Y-196521900D01*
X196386598Y-196521900D02*
X196315169Y-196593328D01*
X196315169Y-196593328D02*
X196243741Y-196521900D01*
X196243741Y-196521900D02*
X196315169Y-196450471D01*
X196315169Y-196450471D02*
X196315169Y-196593328D01*
X197315170Y-195093328D02*
X197458027Y-195093328D01*
X197458027Y-195093328D02*
X197600884Y-195164757D01*
X197600884Y-195164757D02*
X197672313Y-195236185D01*
X197672313Y-195236185D02*
X197743741Y-195379042D01*
X197743741Y-195379042D02*
X197815170Y-195664757D01*
X197815170Y-195664757D02*
X197815170Y-196021900D01*
X197815170Y-196021900D02*
X197743741Y-196307614D01*
X197743741Y-196307614D02*
X197672313Y-196450471D01*
X197672313Y-196450471D02*
X197600884Y-196521900D01*
X197600884Y-196521900D02*
X197458027Y-196593328D01*
X197458027Y-196593328D02*
X197315170Y-196593328D01*
X197315170Y-196593328D02*
X197172313Y-196521900D01*
X197172313Y-196521900D02*
X197100884Y-196450471D01*
X197100884Y-196450471D02*
X197029455Y-196307614D01*
X197029455Y-196307614D02*
X196958027Y-196021900D01*
X196958027Y-196021900D02*
X196958027Y-195664757D01*
X196958027Y-195664757D02*
X197029455Y-195379042D01*
X197029455Y-195379042D02*
X197100884Y-195236185D01*
X197100884Y-195236185D02*
X197172313Y-195164757D01*
X197172313Y-195164757D02*
X197315170Y-195093328D01*
X198458026Y-196450471D02*
X198529455Y-196521900D01*
X198529455Y-196521900D02*
X198458026Y-196593328D01*
X198458026Y-196593328D02*
X198386598Y-196521900D01*
X198386598Y-196521900D02*
X198458026Y-196450471D01*
X198458026Y-196450471D02*
X198458026Y-196593328D01*
X199886598Y-195093328D02*
X199172312Y-195093328D01*
X199172312Y-195093328D02*
X199100884Y-195807614D01*
X199100884Y-195807614D02*
X199172312Y-195736185D01*
X199172312Y-195736185D02*
X199315170Y-195664757D01*
X199315170Y-195664757D02*
X199672312Y-195664757D01*
X199672312Y-195664757D02*
X199815170Y-195736185D01*
X199815170Y-195736185D02*
X199886598Y-195807614D01*
X199886598Y-195807614D02*
X199958027Y-195950471D01*
X199958027Y-195950471D02*
X199958027Y-196307614D01*
X199958027Y-196307614D02*
X199886598Y-196450471D01*
X199886598Y-196450471D02*
X199815170Y-196521900D01*
X199815170Y-196521900D02*
X199672312Y-196593328D01*
X199672312Y-196593328D02*
X199315170Y-196593328D01*
X199315170Y-196593328D02*
X199172312Y-196521900D01*
X199172312Y-196521900D02*
X199100884Y-196450471D01*
X177002200Y-191507200D02*
X285002200Y-191507200D01*
D11*
X264413853Y-193785528D02*
X263913853Y-193071242D01*
X263556710Y-193785528D02*
X263556710Y-192285528D01*
X263556710Y-192285528D02*
X264128139Y-192285528D01*
X264128139Y-192285528D02*
X264270996Y-192356957D01*
X264270996Y-192356957D02*
X264342425Y-192428385D01*
X264342425Y-192428385D02*
X264413853Y-192571242D01*
X264413853Y-192571242D02*
X264413853Y-192785528D01*
X264413853Y-192785528D02*
X264342425Y-192928385D01*
X264342425Y-192928385D02*
X264270996Y-192999814D01*
X264270996Y-192999814D02*
X264128139Y-193071242D01*
X264128139Y-193071242D02*
X263556710Y-193071242D01*
X265628139Y-193714100D02*
X265485282Y-193785528D01*
X265485282Y-193785528D02*
X265199568Y-193785528D01*
X265199568Y-193785528D02*
X265056710Y-193714100D01*
X265056710Y-193714100D02*
X264985282Y-193571242D01*
X264985282Y-193571242D02*
X264985282Y-192999814D01*
X264985282Y-192999814D02*
X265056710Y-192856957D01*
X265056710Y-192856957D02*
X265199568Y-192785528D01*
X265199568Y-192785528D02*
X265485282Y-192785528D01*
X265485282Y-192785528D02*
X265628139Y-192856957D01*
X265628139Y-192856957D02*
X265699568Y-192999814D01*
X265699568Y-192999814D02*
X265699568Y-193142671D01*
X265699568Y-193142671D02*
X264985282Y-193285528D01*
X266199567Y-192785528D02*
X266556710Y-193785528D01*
X266556710Y-193785528D02*
X266913853Y-192785528D01*
X267485281Y-193642671D02*
X267556710Y-193714100D01*
X267556710Y-193714100D02*
X267485281Y-193785528D01*
X267485281Y-193785528D02*
X267413853Y-193714100D01*
X267413853Y-193714100D02*
X267485281Y-193642671D01*
X267485281Y-193642671D02*
X267485281Y-193785528D01*
X267485281Y-192856957D02*
X267556710Y-192928385D01*
X267556710Y-192928385D02*
X267485281Y-192999814D01*
X267485281Y-192999814D02*
X267413853Y-192928385D01*
X267413853Y-192928385D02*
X267485281Y-192856957D01*
X267485281Y-192856957D02*
X267485281Y-192999814D01*
D10*
X178386598Y-193721900D02*
X178600884Y-193793328D01*
X178600884Y-193793328D02*
X178958026Y-193793328D01*
X178958026Y-193793328D02*
X179100884Y-193721900D01*
X179100884Y-193721900D02*
X179172312Y-193650471D01*
X179172312Y-193650471D02*
X179243741Y-193507614D01*
X179243741Y-193507614D02*
X179243741Y-193364757D01*
X179243741Y-193364757D02*
X179172312Y-193221900D01*
X179172312Y-193221900D02*
X179100884Y-193150471D01*
X179100884Y-193150471D02*
X178958026Y-193079042D01*
X178958026Y-193079042D02*
X178672312Y-193007614D01*
X178672312Y-193007614D02*
X178529455Y-192936185D01*
X178529455Y-192936185D02*
X178458026Y-192864757D01*
X178458026Y-192864757D02*
X178386598Y-192721900D01*
X178386598Y-192721900D02*
X178386598Y-192579042D01*
X178386598Y-192579042D02*
X178458026Y-192436185D01*
X178458026Y-192436185D02*
X178529455Y-192364757D01*
X178529455Y-192364757D02*
X178672312Y-192293328D01*
X178672312Y-192293328D02*
X179029455Y-192293328D01*
X179029455Y-192293328D02*
X179243741Y-192364757D01*
X179886597Y-193793328D02*
X179886597Y-192793328D01*
X179886597Y-192293328D02*
X179815169Y-192364757D01*
X179815169Y-192364757D02*
X179886597Y-192436185D01*
X179886597Y-192436185D02*
X179958026Y-192364757D01*
X179958026Y-192364757D02*
X179886597Y-192293328D01*
X179886597Y-192293328D02*
X179886597Y-192436185D01*
X180458026Y-192793328D02*
X181243741Y-192793328D01*
X181243741Y-192793328D02*
X180458026Y-193793328D01*
X180458026Y-193793328D02*
X181243741Y-193793328D01*
X182386598Y-193721900D02*
X182243741Y-193793328D01*
X182243741Y-193793328D02*
X181958027Y-193793328D01*
X181958027Y-193793328D02*
X181815169Y-193721900D01*
X181815169Y-193721900D02*
X181743741Y-193579042D01*
X181743741Y-193579042D02*
X181743741Y-193007614D01*
X181743741Y-193007614D02*
X181815169Y-192864757D01*
X181815169Y-192864757D02*
X181958027Y-192793328D01*
X181958027Y-192793328D02*
X182243741Y-192793328D01*
X182243741Y-192793328D02*
X182386598Y-192864757D01*
X182386598Y-192864757D02*
X182458027Y-193007614D01*
X182458027Y-193007614D02*
X182458027Y-193150471D01*
X182458027Y-193150471D02*
X181743741Y-193293328D01*
X183100883Y-193650471D02*
X183172312Y-193721900D01*
X183172312Y-193721900D02*
X183100883Y-193793328D01*
X183100883Y-193793328D02*
X183029455Y-193721900D01*
X183029455Y-193721900D02*
X183100883Y-193650471D01*
X183100883Y-193650471D02*
X183100883Y-193793328D01*
X183100883Y-192864757D02*
X183172312Y-192936185D01*
X183172312Y-192936185D02*
X183100883Y-193007614D01*
X183100883Y-193007614D02*
X183029455Y-192936185D01*
X183029455Y-192936185D02*
X183100883Y-192864757D01*
X183100883Y-192864757D02*
X183100883Y-193007614D01*
X184886598Y-193364757D02*
X185600884Y-193364757D01*
X184743741Y-193793328D02*
X185243741Y-192293328D01*
X185243741Y-192293328D02*
X185743741Y-193793328D01*
X186886598Y-192793328D02*
X186886598Y-193793328D01*
X186529455Y-192221900D02*
X186172312Y-193293328D01*
X186172312Y-193293328D02*
X187100883Y-193293328D01*
X263458026Y-196593328D02*
X263458026Y-195093328D01*
X264815170Y-196593328D02*
X264815170Y-195093328D01*
X264815170Y-196521900D02*
X264672312Y-196593328D01*
X264672312Y-196593328D02*
X264386598Y-196593328D01*
X264386598Y-196593328D02*
X264243741Y-196521900D01*
X264243741Y-196521900D02*
X264172312Y-196450471D01*
X264172312Y-196450471D02*
X264100884Y-196307614D01*
X264100884Y-196307614D02*
X264100884Y-195879042D01*
X264100884Y-195879042D02*
X264172312Y-195736185D01*
X264172312Y-195736185D02*
X264243741Y-195664757D01*
X264243741Y-195664757D02*
X264386598Y-195593328D01*
X264386598Y-195593328D02*
X264672312Y-195593328D01*
X264672312Y-195593328D02*
X264815170Y-195664757D01*
X265529455Y-196450471D02*
X265600884Y-196521900D01*
X265600884Y-196521900D02*
X265529455Y-196593328D01*
X265529455Y-196593328D02*
X265458027Y-196521900D01*
X265458027Y-196521900D02*
X265529455Y-196450471D01*
X265529455Y-196450471D02*
X265529455Y-196593328D01*
X265529455Y-195664757D02*
X265600884Y-195736185D01*
X265600884Y-195736185D02*
X265529455Y-195807614D01*
X265529455Y-195807614D02*
X265458027Y-195736185D01*
X265458027Y-195736185D02*
X265529455Y-195664757D01*
X265529455Y-195664757D02*
X265529455Y-195807614D01*
X268172313Y-196593328D02*
X267315170Y-196593328D01*
X267743741Y-196593328D02*
X267743741Y-195093328D01*
X267743741Y-195093328D02*
X267600884Y-195307614D01*
X267600884Y-195307614D02*
X267458027Y-195450471D01*
X267458027Y-195450471D02*
X267315170Y-195521900D01*
X269886598Y-195021900D02*
X268600884Y-196950471D01*
X270458027Y-196593328D02*
X270743741Y-196593328D01*
X270743741Y-196593328D02*
X270886598Y-196521900D01*
X270886598Y-196521900D02*
X270958027Y-196450471D01*
X270958027Y-196450471D02*
X271100884Y-196236185D01*
X271100884Y-196236185D02*
X271172313Y-195950471D01*
X271172313Y-195950471D02*
X271172313Y-195379042D01*
X271172313Y-195379042D02*
X271100884Y-195236185D01*
X271100884Y-195236185D02*
X271029456Y-195164757D01*
X271029456Y-195164757D02*
X270886598Y-195093328D01*
X270886598Y-195093328D02*
X270600884Y-195093328D01*
X270600884Y-195093328D02*
X270458027Y-195164757D01*
X270458027Y-195164757D02*
X270386598Y-195236185D01*
X270386598Y-195236185D02*
X270315170Y-195379042D01*
X270315170Y-195379042D02*
X270315170Y-195736185D01*
X270315170Y-195736185D02*
X270386598Y-195879042D01*
X270386598Y-195879042D02*
X270458027Y-195950471D01*
X270458027Y-195950471D02*
X270600884Y-196021900D01*
X270600884Y-196021900D02*
X270886598Y-196021900D01*
X270886598Y-196021900D02*
X271029456Y-195950471D01*
X271029456Y-195950471D02*
X271100884Y-195879042D01*
X271100884Y-195879042D02*
X271172313Y-195736185D01*
X177002200Y-187507200D02*
X285002200Y-187507200D01*
D12*
X178693928Y-188211638D02*
X179836785Y-188211638D01*
X179015357Y-190211638D02*
X179265357Y-188211638D01*
X180253452Y-190211638D02*
X180420119Y-188878304D01*
X180503452Y-188211638D02*
X180396309Y-188306876D01*
X180396309Y-188306876D02*
X180479643Y-188402114D01*
X180479643Y-188402114D02*
X180586786Y-188306876D01*
X180586786Y-188306876D02*
X180503452Y-188211638D01*
X180503452Y-188211638D02*
X180479643Y-188402114D01*
X181086786Y-188878304D02*
X181848690Y-188878304D01*
X181455833Y-188211638D02*
X181241548Y-189925923D01*
X181241548Y-189925923D02*
X181312976Y-190116400D01*
X181312976Y-190116400D02*
X181491548Y-190211638D01*
X181491548Y-190211638D02*
X181682024Y-190211638D01*
X182634405Y-190211638D02*
X182455833Y-190116400D01*
X182455833Y-190116400D02*
X182384405Y-189925923D01*
X182384405Y-189925923D02*
X182598690Y-188211638D01*
X184170119Y-190116400D02*
X183967738Y-190211638D01*
X183967738Y-190211638D02*
X183586785Y-190211638D01*
X183586785Y-190211638D02*
X183408214Y-190116400D01*
X183408214Y-190116400D02*
X183336785Y-189925923D01*
X183336785Y-189925923D02*
X183432024Y-189164019D01*
X183432024Y-189164019D02*
X183551071Y-188973542D01*
X183551071Y-188973542D02*
X183753452Y-188878304D01*
X183753452Y-188878304D02*
X184134404Y-188878304D01*
X184134404Y-188878304D02*
X184312976Y-188973542D01*
X184312976Y-188973542D02*
X184384404Y-189164019D01*
X184384404Y-189164019D02*
X184360595Y-189354495D01*
X184360595Y-189354495D02*
X183384404Y-189544971D01*
X185134405Y-190021161D02*
X185217738Y-190116400D01*
X185217738Y-190116400D02*
X185110595Y-190211638D01*
X185110595Y-190211638D02*
X185027262Y-190116400D01*
X185027262Y-190116400D02*
X185134405Y-190021161D01*
X185134405Y-190021161D02*
X185110595Y-190211638D01*
X185265357Y-188973542D02*
X185348690Y-189068780D01*
X185348690Y-189068780D02*
X185241548Y-189164019D01*
X185241548Y-189164019D02*
X185158214Y-189068780D01*
X185158214Y-189068780D02*
X185265357Y-188973542D01*
X185265357Y-188973542D02*
X185241548Y-189164019D01*
D10*
X178958026Y-185607614D02*
X178458026Y-185607614D01*
X178458026Y-186393328D02*
X178458026Y-184893328D01*
X178458026Y-184893328D02*
X179172312Y-184893328D01*
X179743740Y-186393328D02*
X179743740Y-185393328D01*
X179743740Y-184893328D02*
X179672312Y-184964757D01*
X179672312Y-184964757D02*
X179743740Y-185036185D01*
X179743740Y-185036185D02*
X179815169Y-184964757D01*
X179815169Y-184964757D02*
X179743740Y-184893328D01*
X179743740Y-184893328D02*
X179743740Y-185036185D01*
X180672312Y-186393328D02*
X180529455Y-186321900D01*
X180529455Y-186321900D02*
X180458026Y-186179042D01*
X180458026Y-186179042D02*
X180458026Y-184893328D01*
X181815169Y-186321900D02*
X181672312Y-186393328D01*
X181672312Y-186393328D02*
X181386598Y-186393328D01*
X181386598Y-186393328D02*
X181243740Y-186321900D01*
X181243740Y-186321900D02*
X181172312Y-186179042D01*
X181172312Y-186179042D02*
X181172312Y-185607614D01*
X181172312Y-185607614D02*
X181243740Y-185464757D01*
X181243740Y-185464757D02*
X181386598Y-185393328D01*
X181386598Y-185393328D02*
X181672312Y-185393328D01*
X181672312Y-185393328D02*
X181815169Y-185464757D01*
X181815169Y-185464757D02*
X181886598Y-185607614D01*
X181886598Y-185607614D02*
X181886598Y-185750471D01*
X181886598Y-185750471D02*
X181172312Y-185893328D01*
X182529454Y-186250471D02*
X182600883Y-186321900D01*
X182600883Y-186321900D02*
X182529454Y-186393328D01*
X182529454Y-186393328D02*
X182458026Y-186321900D01*
X182458026Y-186321900D02*
X182529454Y-186250471D01*
X182529454Y-186250471D02*
X182529454Y-186393328D01*
X182529454Y-185464757D02*
X182600883Y-185536185D01*
X182600883Y-185536185D02*
X182529454Y-185607614D01*
X182529454Y-185607614D02*
X182458026Y-185536185D01*
X182458026Y-185536185D02*
X182529454Y-185464757D01*
X182529454Y-185464757D02*
X182529454Y-185607614D01*
X185100883Y-186393328D02*
X184386597Y-186393328D01*
X184386597Y-186393328D02*
X184386597Y-184893328D01*
X186172312Y-186321900D02*
X186029455Y-186393328D01*
X186029455Y-186393328D02*
X185743741Y-186393328D01*
X185743741Y-186393328D02*
X185600883Y-186321900D01*
X185600883Y-186321900D02*
X185529455Y-186179042D01*
X185529455Y-186179042D02*
X185529455Y-185607614D01*
X185529455Y-185607614D02*
X185600883Y-185464757D01*
X185600883Y-185464757D02*
X185743741Y-185393328D01*
X185743741Y-185393328D02*
X186029455Y-185393328D01*
X186029455Y-185393328D02*
X186172312Y-185464757D01*
X186172312Y-185464757D02*
X186243741Y-185607614D01*
X186243741Y-185607614D02*
X186243741Y-185750471D01*
X186243741Y-185750471D02*
X185529455Y-185893328D01*
X187529455Y-185393328D02*
X187529455Y-186607614D01*
X187529455Y-186607614D02*
X187458026Y-186750471D01*
X187458026Y-186750471D02*
X187386597Y-186821900D01*
X187386597Y-186821900D02*
X187243740Y-186893328D01*
X187243740Y-186893328D02*
X187029455Y-186893328D01*
X187029455Y-186893328D02*
X186886597Y-186821900D01*
X187529455Y-186321900D02*
X187386597Y-186393328D01*
X187386597Y-186393328D02*
X187100883Y-186393328D01*
X187100883Y-186393328D02*
X186958026Y-186321900D01*
X186958026Y-186321900D02*
X186886597Y-186250471D01*
X186886597Y-186250471D02*
X186815169Y-186107614D01*
X186815169Y-186107614D02*
X186815169Y-185679042D01*
X186815169Y-185679042D02*
X186886597Y-185536185D01*
X186886597Y-185536185D02*
X186958026Y-185464757D01*
X186958026Y-185464757D02*
X187100883Y-185393328D01*
X187100883Y-185393328D02*
X187386597Y-185393328D01*
X187386597Y-185393328D02*
X187529455Y-185464757D01*
X188172312Y-186321900D02*
X188315169Y-186393328D01*
X188315169Y-186393328D02*
X188600883Y-186393328D01*
X188600883Y-186393328D02*
X188743740Y-186321900D01*
X188743740Y-186321900D02*
X188815169Y-186179042D01*
X188815169Y-186179042D02*
X188815169Y-186107614D01*
X188815169Y-186107614D02*
X188743740Y-185964757D01*
X188743740Y-185964757D02*
X188600883Y-185893328D01*
X188600883Y-185893328D02*
X188386598Y-185893328D01*
X188386598Y-185893328D02*
X188243740Y-185821900D01*
X188243740Y-185821900D02*
X188172312Y-185679042D01*
X188172312Y-185679042D02*
X188172312Y-185607614D01*
X188172312Y-185607614D02*
X188243740Y-185464757D01*
X188243740Y-185464757D02*
X188386598Y-185393328D01*
X188386598Y-185393328D02*
X188600883Y-185393328D01*
X188600883Y-185393328D02*
X188743740Y-185464757D01*
X190600883Y-186393328D02*
X190600883Y-184893328D01*
X190600883Y-184893328D02*
X191172312Y-184893328D01*
X191172312Y-184893328D02*
X191315169Y-184964757D01*
X191315169Y-184964757D02*
X191386598Y-185036185D01*
X191386598Y-185036185D02*
X191458026Y-185179042D01*
X191458026Y-185179042D02*
X191458026Y-185393328D01*
X191458026Y-185393328D02*
X191386598Y-185536185D01*
X191386598Y-185536185D02*
X191315169Y-185607614D01*
X191315169Y-185607614D02*
X191172312Y-185679042D01*
X191172312Y-185679042D02*
X190600883Y-185679042D01*
X192315169Y-186393328D02*
X192172312Y-186321900D01*
X192172312Y-186321900D02*
X192100883Y-186250471D01*
X192100883Y-186250471D02*
X192029455Y-186107614D01*
X192029455Y-186107614D02*
X192029455Y-185679042D01*
X192029455Y-185679042D02*
X192100883Y-185536185D01*
X192100883Y-185536185D02*
X192172312Y-185464757D01*
X192172312Y-185464757D02*
X192315169Y-185393328D01*
X192315169Y-185393328D02*
X192529455Y-185393328D01*
X192529455Y-185393328D02*
X192672312Y-185464757D01*
X192672312Y-185464757D02*
X192743741Y-185536185D01*
X192743741Y-185536185D02*
X192815169Y-185679042D01*
X192815169Y-185679042D02*
X192815169Y-186107614D01*
X192815169Y-186107614D02*
X192743741Y-186250471D01*
X192743741Y-186250471D02*
X192672312Y-186321900D01*
X192672312Y-186321900D02*
X192529455Y-186393328D01*
X192529455Y-186393328D02*
X192315169Y-186393328D01*
X193315169Y-185393328D02*
X193600884Y-186393328D01*
X193600884Y-186393328D02*
X193886598Y-185679042D01*
X193886598Y-185679042D02*
X194172312Y-186393328D01*
X194172312Y-186393328D02*
X194458026Y-185393328D01*
X195600884Y-186321900D02*
X195458027Y-186393328D01*
X195458027Y-186393328D02*
X195172313Y-186393328D01*
X195172313Y-186393328D02*
X195029455Y-186321900D01*
X195029455Y-186321900D02*
X194958027Y-186179042D01*
X194958027Y-186179042D02*
X194958027Y-185607614D01*
X194958027Y-185607614D02*
X195029455Y-185464757D01*
X195029455Y-185464757D02*
X195172313Y-185393328D01*
X195172313Y-185393328D02*
X195458027Y-185393328D01*
X195458027Y-185393328D02*
X195600884Y-185464757D01*
X195600884Y-185464757D02*
X195672313Y-185607614D01*
X195672313Y-185607614D02*
X195672313Y-185750471D01*
X195672313Y-185750471D02*
X194958027Y-185893328D01*
X196315169Y-186393328D02*
X196315169Y-185393328D01*
X196315169Y-185679042D02*
X196386598Y-185536185D01*
X196386598Y-185536185D02*
X196458027Y-185464757D01*
X196458027Y-185464757D02*
X196600884Y-185393328D01*
X196600884Y-185393328D02*
X196743741Y-185393328D01*
X197243740Y-186250471D02*
X197315169Y-186321900D01*
X197315169Y-186321900D02*
X197243740Y-186393328D01*
X197243740Y-186393328D02*
X197172312Y-186321900D01*
X197172312Y-186321900D02*
X197243740Y-186250471D01*
X197243740Y-186250471D02*
X197243740Y-186393328D01*
X197958026Y-186393328D02*
X197958026Y-184893328D01*
X198100884Y-185821900D02*
X198529455Y-186393328D01*
X198529455Y-185393328D02*
X197958026Y-185964757D01*
X199172312Y-186393328D02*
X199172312Y-185393328D01*
X199172312Y-184893328D02*
X199100884Y-184964757D01*
X199100884Y-184964757D02*
X199172312Y-185036185D01*
X199172312Y-185036185D02*
X199243741Y-184964757D01*
X199243741Y-184964757D02*
X199172312Y-184893328D01*
X199172312Y-184893328D02*
X199172312Y-185036185D01*
X200529456Y-186321900D02*
X200386598Y-186393328D01*
X200386598Y-186393328D02*
X200100884Y-186393328D01*
X200100884Y-186393328D02*
X199958027Y-186321900D01*
X199958027Y-186321900D02*
X199886598Y-186250471D01*
X199886598Y-186250471D02*
X199815170Y-186107614D01*
X199815170Y-186107614D02*
X199815170Y-185679042D01*
X199815170Y-185679042D02*
X199886598Y-185536185D01*
X199886598Y-185536185D02*
X199958027Y-185464757D01*
X199958027Y-185464757D02*
X200100884Y-185393328D01*
X200100884Y-185393328D02*
X200386598Y-185393328D01*
X200386598Y-185393328D02*
X200529456Y-185464757D01*
X201815170Y-186393328D02*
X201815170Y-185607614D01*
X201815170Y-185607614D02*
X201743741Y-185464757D01*
X201743741Y-185464757D02*
X201600884Y-185393328D01*
X201600884Y-185393328D02*
X201315170Y-185393328D01*
X201315170Y-185393328D02*
X201172312Y-185464757D01*
X201815170Y-186321900D02*
X201672312Y-186393328D01*
X201672312Y-186393328D02*
X201315170Y-186393328D01*
X201315170Y-186393328D02*
X201172312Y-186321900D01*
X201172312Y-186321900D02*
X201100884Y-186179042D01*
X201100884Y-186179042D02*
X201100884Y-186036185D01*
X201100884Y-186036185D02*
X201172312Y-185893328D01*
X201172312Y-185893328D02*
X201315170Y-185821900D01*
X201315170Y-185821900D02*
X201672312Y-185821900D01*
X201672312Y-185821900D02*
X201815170Y-185750471D01*
X203172313Y-186393328D02*
X203172313Y-184893328D01*
X203172313Y-186321900D02*
X203029455Y-186393328D01*
X203029455Y-186393328D02*
X202743741Y-186393328D01*
X202743741Y-186393328D02*
X202600884Y-186321900D01*
X202600884Y-186321900D02*
X202529455Y-186250471D01*
X202529455Y-186250471D02*
X202458027Y-186107614D01*
X202458027Y-186107614D02*
X202458027Y-185679042D01*
X202458027Y-185679042D02*
X202529455Y-185536185D01*
X202529455Y-185536185D02*
X202600884Y-185464757D01*
X202600884Y-185464757D02*
X202743741Y-185393328D01*
X202743741Y-185393328D02*
X203029455Y-185393328D01*
X203029455Y-185393328D02*
X203172313Y-185464757D01*
X203529456Y-186536185D02*
X204672313Y-186536185D01*
X205029455Y-185393328D02*
X205029455Y-186893328D01*
X205029455Y-185464757D02*
X205172313Y-185393328D01*
X205172313Y-185393328D02*
X205458027Y-185393328D01*
X205458027Y-185393328D02*
X205600884Y-185464757D01*
X205600884Y-185464757D02*
X205672313Y-185536185D01*
X205672313Y-185536185D02*
X205743741Y-185679042D01*
X205743741Y-185679042D02*
X205743741Y-186107614D01*
X205743741Y-186107614D02*
X205672313Y-186250471D01*
X205672313Y-186250471D02*
X205600884Y-186321900D01*
X205600884Y-186321900D02*
X205458027Y-186393328D01*
X205458027Y-186393328D02*
X205172313Y-186393328D01*
X205172313Y-186393328D02*
X205029455Y-186321900D01*
X207029456Y-186321900D02*
X206886598Y-186393328D01*
X206886598Y-186393328D02*
X206600884Y-186393328D01*
X206600884Y-186393328D02*
X206458027Y-186321900D01*
X206458027Y-186321900D02*
X206386598Y-186250471D01*
X206386598Y-186250471D02*
X206315170Y-186107614D01*
X206315170Y-186107614D02*
X206315170Y-185679042D01*
X206315170Y-185679042D02*
X206386598Y-185536185D01*
X206386598Y-185536185D02*
X206458027Y-185464757D01*
X206458027Y-185464757D02*
X206600884Y-185393328D01*
X206600884Y-185393328D02*
X206886598Y-185393328D01*
X206886598Y-185393328D02*
X207029456Y-185464757D01*
X207672312Y-186393328D02*
X207672312Y-184893328D01*
X207672312Y-185464757D02*
X207815170Y-185393328D01*
X207815170Y-185393328D02*
X208100884Y-185393328D01*
X208100884Y-185393328D02*
X208243741Y-185464757D01*
X208243741Y-185464757D02*
X208315170Y-185536185D01*
X208315170Y-185536185D02*
X208386598Y-185679042D01*
X208386598Y-185679042D02*
X208386598Y-186107614D01*
X208386598Y-186107614D02*
X208315170Y-186250471D01*
X208315170Y-186250471D02*
X208243741Y-186321900D01*
X208243741Y-186321900D02*
X208100884Y-186393328D01*
X208100884Y-186393328D02*
X207815170Y-186393328D01*
X207815170Y-186393328D02*
X207672312Y-186321900D01*
X177002200Y-181507200D02*
X285002200Y-181507200D01*
X178386598Y-183621900D02*
X178600884Y-183693328D01*
X178600884Y-183693328D02*
X178958026Y-183693328D01*
X178958026Y-183693328D02*
X179100884Y-183621900D01*
X179100884Y-183621900D02*
X179172312Y-183550471D01*
X179172312Y-183550471D02*
X179243741Y-183407614D01*
X179243741Y-183407614D02*
X179243741Y-183264757D01*
X179243741Y-183264757D02*
X179172312Y-183121900D01*
X179172312Y-183121900D02*
X179100884Y-183050471D01*
X179100884Y-183050471D02*
X178958026Y-182979042D01*
X178958026Y-182979042D02*
X178672312Y-182907614D01*
X178672312Y-182907614D02*
X178529455Y-182836185D01*
X178529455Y-182836185D02*
X178458026Y-182764757D01*
X178458026Y-182764757D02*
X178386598Y-182621900D01*
X178386598Y-182621900D02*
X178386598Y-182479042D01*
X178386598Y-182479042D02*
X178458026Y-182336185D01*
X178458026Y-182336185D02*
X178529455Y-182264757D01*
X178529455Y-182264757D02*
X178672312Y-182193328D01*
X178672312Y-182193328D02*
X179029455Y-182193328D01*
X179029455Y-182193328D02*
X179243741Y-182264757D01*
X179886597Y-183693328D02*
X179886597Y-182193328D01*
X180529455Y-183693328D02*
X180529455Y-182907614D01*
X180529455Y-182907614D02*
X180458026Y-182764757D01*
X180458026Y-182764757D02*
X180315169Y-182693328D01*
X180315169Y-182693328D02*
X180100883Y-182693328D01*
X180100883Y-182693328D02*
X179958026Y-182764757D01*
X179958026Y-182764757D02*
X179886597Y-182836185D01*
X181815169Y-183621900D02*
X181672312Y-183693328D01*
X181672312Y-183693328D02*
X181386598Y-183693328D01*
X181386598Y-183693328D02*
X181243740Y-183621900D01*
X181243740Y-183621900D02*
X181172312Y-183479042D01*
X181172312Y-183479042D02*
X181172312Y-182907614D01*
X181172312Y-182907614D02*
X181243740Y-182764757D01*
X181243740Y-182764757D02*
X181386598Y-182693328D01*
X181386598Y-182693328D02*
X181672312Y-182693328D01*
X181672312Y-182693328D02*
X181815169Y-182764757D01*
X181815169Y-182764757D02*
X181886598Y-182907614D01*
X181886598Y-182907614D02*
X181886598Y-183050471D01*
X181886598Y-183050471D02*
X181172312Y-183193328D01*
X183100883Y-183621900D02*
X182958026Y-183693328D01*
X182958026Y-183693328D02*
X182672312Y-183693328D01*
X182672312Y-183693328D02*
X182529454Y-183621900D01*
X182529454Y-183621900D02*
X182458026Y-183479042D01*
X182458026Y-183479042D02*
X182458026Y-182907614D01*
X182458026Y-182907614D02*
X182529454Y-182764757D01*
X182529454Y-182764757D02*
X182672312Y-182693328D01*
X182672312Y-182693328D02*
X182958026Y-182693328D01*
X182958026Y-182693328D02*
X183100883Y-182764757D01*
X183100883Y-182764757D02*
X183172312Y-182907614D01*
X183172312Y-182907614D02*
X183172312Y-183050471D01*
X183172312Y-183050471D02*
X182458026Y-183193328D01*
X183600883Y-182693328D02*
X184172311Y-182693328D01*
X183815168Y-182193328D02*
X183815168Y-183479042D01*
X183815168Y-183479042D02*
X183886597Y-183621900D01*
X183886597Y-183621900D02*
X184029454Y-183693328D01*
X184029454Y-183693328D02*
X184172311Y-183693328D01*
X184672311Y-183550471D02*
X184743740Y-183621900D01*
X184743740Y-183621900D02*
X184672311Y-183693328D01*
X184672311Y-183693328D02*
X184600883Y-183621900D01*
X184600883Y-183621900D02*
X184672311Y-183550471D01*
X184672311Y-183550471D02*
X184672311Y-183693328D01*
X184672311Y-182764757D02*
X184743740Y-182836185D01*
X184743740Y-182836185D02*
X184672311Y-182907614D01*
X184672311Y-182907614D02*
X184600883Y-182836185D01*
X184600883Y-182836185D02*
X184672311Y-182764757D01*
X184672311Y-182764757D02*
X184672311Y-182907614D01*
X197002200Y-191507200D02*
X197002200Y-194507200D01*
X261002200Y-191507200D02*
X261002200Y-198007200D01*
D13*
%TO.P,J11,1,Pin_1_1*%
%TO.N,Net-(J11-Pin_1)*%
X106000000Y-45310000D03*
D14*
%TO.P,J11,2,Pin_2_2*%
%TO.N,Net-(J11-Pin_2)*%
X106000000Y-47850000D03*
%TO.P,J11,3,Pin_3_3*%
%TO.N,Net-(J11-Pin_3)*%
X106000000Y-50390000D03*
%TO.P,J11,4,Pin_4_4*%
%TO.N,Net-(J11-Pin_4)*%
X106000000Y-52930000D03*
%TD*%
D13*
%TO.P,J26,1,Pin_1_1*%
%TO.N,Net-(J10-Pin_1)*%
X111620000Y-45310000D03*
D14*
%TO.P,J26,2,Pin_2_2*%
X111620000Y-47850000D03*
%TO.P,J26,3,Pin_3_3*%
X111620000Y-50390000D03*
%TO.P,J26,4,Pin_4_4*%
X111620000Y-52930000D03*
%TD*%
D13*
%TO.P,J25,1,Pin_1_1*%
%TO.N,Net-(J10-Pin_1)*%
X111620000Y-58250000D03*
D14*
%TO.P,J25,2,Pin_2_2*%
X111620000Y-60790000D03*
%TO.P,J25,3,Pin_3_3*%
X111620000Y-63330000D03*
%TO.P,J25,4,Pin_4_4*%
X111620000Y-65870000D03*
%TD*%
D13*
%TO.P,J24,1,Pin_1_1*%
%TO.N,Net-(J10-Pin_1)*%
X111620000Y-73960000D03*
D14*
%TO.P,J24,2,Pin_2_2*%
X111620000Y-76500000D03*
%TO.P,J24,3,Pin_3_3*%
X111620000Y-79040000D03*
%TO.P,J24,4,Pin_4_4*%
X111620000Y-81580000D03*
%TD*%
D13*
%TO.P,J23,1,Pin_1_1*%
%TO.N,Net-(J10-Pin_1)*%
X111620000Y-86750000D03*
D14*
%TO.P,J23,2,Pin_2_2*%
X111620000Y-89290000D03*
%TO.P,J23,3,Pin_3_3*%
X111620000Y-91830000D03*
%TO.P,J23,4,Pin_4_4*%
X111620000Y-94370000D03*
%TD*%
D13*
%TO.P,J22,1,Pin_1_1*%
%TO.N,unconnected-(J22-Pin_1-Pad1)*%
X108810000Y-86750000D03*
D14*
%TO.P,J22,2,Pin_2_2*%
%TO.N,unconnected-(J22-Pin_2-Pad2)*%
X108810000Y-89290000D03*
%TO.P,J22,3,Pin_3_3*%
%TO.N,unconnected-(J22-Pin_3-Pad3)*%
X108810000Y-91830000D03*
%TO.P,J22,4,Pin_4_4*%
%TO.N,unconnected-(J22-Pin_4-Pad4)*%
X108810000Y-94370000D03*
%TD*%
D13*
%TO.P,J21,1,Pin_1_1*%
%TO.N,unconnected-(J21-Pin_1-Pad1)*%
X108810000Y-73960000D03*
D14*
%TO.P,J21,2,Pin_2_2*%
%TO.N,unconnected-(J21-Pin_2-Pad2)*%
X108810000Y-76500000D03*
%TO.P,J21,3,Pin_3_3*%
%TO.N,unconnected-(J21-Pin_3-Pad3)*%
X108810000Y-79040000D03*
%TO.P,J21,4,Pin_4_4*%
%TO.N,unconnected-(J21-Pin_4-Pad4)*%
X108810000Y-81580000D03*
%TD*%
D13*
%TO.P,J20,1,Pin_1_1*%
%TO.N,unconnected-(J20-Pin_1-Pad1)*%
X108810000Y-45310000D03*
D14*
%TO.P,J20,2,Pin_2_2*%
%TO.N,unconnected-(J20-Pin_2-Pad2)*%
X108810000Y-47850000D03*
%TO.P,J20,3,Pin_3_3*%
%TO.N,unconnected-(J20-Pin_3-Pad3)*%
X108810000Y-50390000D03*
%TO.P,J20,4,Pin_4_4*%
%TO.N,unconnected-(J20-Pin_4-Pad4)*%
X108810000Y-52930000D03*
%TD*%
D13*
%TO.P,J19,1,Pin_1_1*%
%TO.N,unconnected-(J19-Pin_1-Pad1)*%
X108810000Y-58250000D03*
D14*
%TO.P,J19,2,Pin_2_2*%
%TO.N,unconnected-(J19-Pin_2-Pad2)*%
X108810000Y-60790000D03*
%TO.P,J19,3,Pin_3_3*%
%TO.N,unconnected-(J19-Pin_3-Pad3)*%
X108810000Y-63330000D03*
%TO.P,J19,4,Pin_4_4*%
%TO.N,unconnected-(J19-Pin_4-Pad4)*%
X108810000Y-65870000D03*
%TD*%
D13*
%TO.P,J18,1,Pin_1_1*%
%TO.N,Net-(J14-Pin_1)*%
X106000000Y-73960000D03*
D14*
%TO.P,J18,2,Pin_2_2*%
%TO.N,Net-(J14-Pin_2)*%
X106000000Y-76500000D03*
%TO.P,J18,3,Pin_3_3*%
%TO.N,Net-(J14-Pin_3)*%
X106000000Y-79040000D03*
%TO.P,J18,4,Pin_4_4*%
%TO.N,Net-(J14-Pin_4)*%
X106000000Y-81580000D03*
%TD*%
D13*
%TO.P,J13,1,Pin_1_1*%
%TO.N,Net-(J13-Pin_1)*%
X106000000Y-58250000D03*
D14*
%TO.P,J13,2,Pin_2_2*%
%TO.N,Net-(J13-Pin_2)*%
X106000000Y-60790000D03*
%TO.P,J13,3,Pin_3_3*%
%TO.N,Net-(J13-Pin_3)*%
X106000000Y-63330000D03*
%TO.P,J13,4,Pin_4_4*%
%TO.N,Net-(J13-Pin_4)*%
X106000000Y-65870000D03*
%TD*%
D13*
%TO.P,J12,1,Pin_1_1*%
%TO.N,Net-(J12-Pin_1)*%
X106000000Y-86750000D03*
D14*
%TO.P,J12,2,Pin_2_2*%
%TO.N,Net-(J12-Pin_2)*%
X106000000Y-89290000D03*
%TO.P,J12,3,Pin_3_3*%
%TO.N,Net-(J12-Pin_3)*%
X106000000Y-91830000D03*
%TO.P,J12,4,Pin_4_4*%
%TO.N,Net-(J12-Pin_4)*%
X106000000Y-94370000D03*
%TD*%
D15*
%TO.P,I,1,Pin_1_1*%
%TO.N,Net-(J10-Pin_1)*%
X109250000Y-104000000D03*
%TD*%
%TO.P,+,1,Pin_1_1*%
%TO.N,Net-(J2-Pin_1)*%
X135250000Y-104000000D03*
%TD*%
D14*
%TO.P,J2,4,Pin_4_4*%
%TO.N,Net-(J2-Pin_1)*%
X135190000Y-52980000D03*
%TO.P,J2,3,Pin_3_3*%
X135190000Y-50440000D03*
%TO.P,J2,2,Pin_2_2*%
X135190000Y-47900000D03*
D13*
%TO.P,J2,1,Pin_1_1*%
X135190000Y-45360000D03*
%TD*%
D14*
%TO.P,J3,4,Pin_4_4*%
%TO.N,Net-(J2-Pin_1)*%
X135200000Y-81520000D03*
%TO.P,J3,3,Pin_3_3*%
X135200000Y-78980000D03*
%TO.P,J3,2,Pin_2_2*%
X135200000Y-76440000D03*
D13*
%TO.P,J3,1,Pin_1_1*%
X135200000Y-73900000D03*
%TD*%
D14*
%TO.P,J4,4,Pin_4_4*%
%TO.N,Net-(J2-Pin_1)*%
X135200000Y-94520000D03*
%TO.P,J4,3,Pin_3_3*%
X135200000Y-91980000D03*
%TO.P,J4,2,Pin_2_2*%
X135200000Y-89440000D03*
D13*
%TO.P,J4,1,Pin_1_1*%
X135200000Y-86900000D03*
%TD*%
D14*
%TO.P,J5,4,Pin_4_4*%
%TO.N,Net-(J2-Pin_1)*%
X135200000Y-65920000D03*
%TO.P,J5,3,Pin_3_3*%
X135200000Y-63380000D03*
%TO.P,J5,2,Pin_2_2*%
X135200000Y-60840000D03*
D13*
%TO.P,J5,1,Pin_1_1*%
X135200000Y-58300000D03*
%TD*%
D14*
%TO.P,J7,4,Pin_4_4*%
%TO.N,Net-(J10-Pin_1)*%
X138010000Y-94520000D03*
%TO.P,J7,3,Pin_3_3*%
X138010000Y-91980000D03*
%TO.P,J7,2,Pin_2_2*%
X138010000Y-89440000D03*
D13*
%TO.P,J7,1,Pin_1_1*%
X138010000Y-86900000D03*
%TD*%
D14*
%TO.P,J8,4,Pin_4_4*%
%TO.N,Net-(J10-Pin_1)*%
X138010000Y-81520000D03*
%TO.P,J8,3,Pin_3_3*%
X138010000Y-78980000D03*
%TO.P,J8,2,Pin_2_2*%
X138010000Y-76440000D03*
D13*
%TO.P,J8,1,Pin_1_1*%
X138010000Y-73900000D03*
%TD*%
D14*
%TO.P,J9,4,Pin_4_4*%
%TO.N,Net-(J10-Pin_1)*%
X138010000Y-65920000D03*
%TO.P,J9,3,Pin_3_3*%
X138010000Y-63380000D03*
%TO.P,J9,2,Pin_2_2*%
X138010000Y-60840000D03*
D13*
%TO.P,J9,1,Pin_1_1*%
X138010000Y-58300000D03*
%TD*%
D14*
%TO.P,J10,4,Pin_4_4*%
%TO.N,Net-(J10-Pin_1)*%
X138000000Y-52980000D03*
%TO.P,J10,3,Pin_3_3*%
X138000000Y-50440000D03*
%TO.P,J10,2,Pin_2_2*%
X138000000Y-47900000D03*
D13*
%TO.P,J10,1,Pin_1_1*%
X138000000Y-45360000D03*
%TD*%
D14*
%TO.P,J14,4,Pin_4_4*%
%TO.N,Net-(J14-Pin_4)*%
X132390000Y-81520000D03*
%TO.P,J14,3,Pin_3_3*%
%TO.N,Net-(J14-Pin_3)*%
X132390000Y-78980000D03*
%TO.P,J14,2,Pin_2_2*%
%TO.N,Net-(J14-Pin_2)*%
X132390000Y-76440000D03*
D13*
%TO.P,J14,1,Pin_1_1*%
%TO.N,Net-(J14-Pin_1)*%
X132390000Y-73900000D03*
%TD*%
D14*
%TO.P,J15,4,Pin_4_4*%
%TO.N,Net-(J11-Pin_4)*%
X132380000Y-52980000D03*
%TO.P,J15,3,Pin_3_3*%
%TO.N,Net-(J11-Pin_3)*%
X132380000Y-50440000D03*
%TO.P,J15,2,Pin_2_2*%
%TO.N,Net-(J11-Pin_2)*%
X132380000Y-47900000D03*
D13*
%TO.P,J15,1,Pin_1_1*%
%TO.N,Net-(J11-Pin_1)*%
X132380000Y-45360000D03*
%TD*%
D14*
%TO.P,J16,4,Pin_4_4*%
%TO.N,Net-(J12-Pin_4)*%
X132390000Y-94520000D03*
%TO.P,J16,3,Pin_3_3*%
%TO.N,Net-(J12-Pin_3)*%
X132390000Y-91980000D03*
%TO.P,J16,2,Pin_2_2*%
%TO.N,Net-(J12-Pin_2)*%
X132390000Y-89440000D03*
D13*
%TO.P,J16,1,Pin_1_1*%
%TO.N,Net-(J12-Pin_1)*%
X132390000Y-86900000D03*
%TD*%
D14*
%TO.P,J17,4,Pin_4_4*%
%TO.N,Net-(J13-Pin_4)*%
X132390000Y-65920000D03*
%TO.P,J17,3,Pin_3_3*%
%TO.N,Net-(J13-Pin_3)*%
X132390000Y-63380000D03*
%TO.P,J17,2,Pin_2_2*%
%TO.N,Net-(J13-Pin_2)*%
X132390000Y-60840000D03*
D13*
%TO.P,J17,1,Pin_1_1*%
%TO.N,Net-(J13-Pin_1)*%
X132390000Y-58300000D03*
%TD*%
D16*
%TO.P,C1,2*%
%TO.N,Net-(J10-Pin_1)*%
X134676041Y-32500000D03*
D17*
%TO.P,C1,1*%
%TO.N,Net-(J2-Pin_1)*%
X129676041Y-32500000D03*
%TD*%
%TO.P,C5,1*%
%TO.N,Net-(J2-Pin_1)*%
X119750000Y-63000000D03*
D16*
%TO.P,C5,2*%
%TO.N,Net-(J10-Pin_1)*%
X124750000Y-63000000D03*
%TD*%
%TO.P,C4,2*%
%TO.N,Net-(J10-Pin_1)*%
X124750000Y-79000000D03*
D17*
%TO.P,C4,1*%
%TO.N,Net-(J2-Pin_1)*%
X119750000Y-79000000D03*
%TD*%
%TO.P,C3,1*%
%TO.N,Net-(J2-Pin_1)*%
X119676041Y-47000000D03*
D16*
%TO.P,C3,2*%
%TO.N,Net-(J10-Pin_1)*%
X124676041Y-47000000D03*
%TD*%
D17*
%TO.P,C2,1*%
%TO.N,Net-(J2-Pin_1)*%
X109500000Y-32250000D03*
D16*
%TO.P,C2,2*%
%TO.N,Net-(J10-Pin_1)*%
X114500000Y-32250000D03*
%TD*%
D18*
%TO.P,J1,1,1_1*%
%TO.N,Net-(J2-Pin_1)*%
X124750000Y-95000000D03*
%TO.P,J1,2,2_2*%
%TO.N,Net-(J10-Pin_1)*%
X119750000Y-95000000D03*
%TD*%
%TO.N,Net-(J2-Pin_1)*%
D19*
X124750000Y-91750000D02*
X124750000Y-95000000D01*
X127145100Y-89354900D02*
X124750000Y-91750000D01*
X127145100Y-87604900D02*
X127145100Y-89354900D01*
X126250000Y-95000000D02*
X135250000Y-104000000D01*
X124750000Y-95000000D02*
X126250000Y-95000000D01*
X119750000Y-42500000D02*
X109500000Y-32250000D01*
X119750000Y-43352082D02*
X119750000Y-42500000D01*
X119750000Y-62926041D02*
X119750000Y-43352082D01*
X119676041Y-63000000D02*
X119750000Y-62926041D01*
X119750000Y-63073959D02*
X119676041Y-63000000D01*
X119750000Y-79000000D02*
X119750000Y-63073959D01*
X124750000Y-32750000D02*
X129426041Y-32750000D01*
X129426041Y-32750000D02*
X129676041Y-32500000D01*
X123250000Y-38926041D02*
X123250000Y-34250000D01*
X120176041Y-42000000D02*
X123250000Y-38926041D01*
X123250000Y-34250000D02*
X124750000Y-32750000D01*
X127145100Y-86395100D02*
X119750000Y-79000000D01*
X127145100Y-87604900D02*
X127145100Y-86395100D01*
%TO.N,Net-(J10-Pin_1)*%
X112500000Y-104000000D02*
X109000000Y-104000000D01*
%TO.N,Net-(J2-Pin_1)*%
X134950000Y-84250000D02*
X135200000Y-84000000D01*
X127145100Y-87604900D02*
X130500000Y-84250000D01*
X130500000Y-84250000D02*
X134950000Y-84250000D01*
X135200000Y-84000000D02*
X135200000Y-81520000D01*
X135200000Y-63380000D02*
X135200000Y-45370000D01*
D20*
X135200000Y-60840000D02*
X135200000Y-58300000D01*
D19*
X135200000Y-94520000D02*
X135200000Y-91980000D01*
D20*
X135190000Y-45360000D02*
X135190000Y-47900000D01*
D19*
X135200000Y-76440000D02*
X135200000Y-73900000D01*
X135200000Y-73900000D02*
X135200000Y-65920000D01*
X135200000Y-78980000D02*
X135200000Y-76440000D01*
X135200000Y-45370000D02*
X135190000Y-45360000D01*
X135200000Y-86900000D02*
X135200000Y-89440000D01*
D20*
X135190000Y-52980000D02*
X135190000Y-50440000D01*
D19*
X135200000Y-86900000D02*
X135200000Y-84000000D01*
X135200000Y-81520000D02*
X135200000Y-78980000D01*
X135200000Y-65920000D02*
X135200000Y-63380000D01*
X135200000Y-91980000D02*
X135200000Y-89440000D01*
D20*
X135190000Y-47900000D02*
X135190000Y-50440000D01*
%TO.N,Net-(J10-Pin_1)*%
D19*
X138010000Y-52990000D02*
X138000000Y-52980000D01*
%TD*%
%TA.AperFunction,Conductor*%
%TO.N,Net-(J10-Pin_1)*%
G36*
X111870000Y-93936988D02*
G01*
X111812993Y-93904075D01*
X111685826Y-93870000D01*
X111554174Y-93870000D01*
X111427007Y-93904075D01*
X111370000Y-93936988D01*
X111370000Y-92263012D01*
X111427007Y-92295925D01*
X111554174Y-92330000D01*
X111685826Y-92330000D01*
X111812993Y-92295925D01*
X111870000Y-92263012D01*
X111870000Y-93936988D01*
G37*
%TD.AperFunction*%
%TA.AperFunction,Conductor*%
G36*
X111870000Y-91396988D02*
G01*
X111812993Y-91364075D01*
X111685826Y-91330000D01*
X111554174Y-91330000D01*
X111427007Y-91364075D01*
X111370000Y-91396988D01*
X111370000Y-89723012D01*
X111427007Y-89755925D01*
X111554174Y-89790000D01*
X111685826Y-89790000D01*
X111812993Y-89755925D01*
X111870000Y-89723012D01*
X111870000Y-91396988D01*
G37*
%TD.AperFunction*%
%TA.AperFunction,Conductor*%
G36*
X111870000Y-88856988D02*
G01*
X111812993Y-88824075D01*
X111685826Y-88790000D01*
X111554174Y-88790000D01*
X111427007Y-88824075D01*
X111370000Y-88856988D01*
X111370000Y-87183012D01*
X111427007Y-87215925D01*
X111554174Y-87250000D01*
X111685826Y-87250000D01*
X111812993Y-87215925D01*
X111870000Y-87183012D01*
X111870000Y-88856988D01*
G37*
%TD.AperFunction*%
%TA.AperFunction,Conductor*%
G36*
X111870000Y-81146988D02*
G01*
X111812993Y-81114075D01*
X111685826Y-81080000D01*
X111554174Y-81080000D01*
X111427007Y-81114075D01*
X111370000Y-81146988D01*
X111370000Y-79473012D01*
X111427007Y-79505925D01*
X111554174Y-79540000D01*
X111685826Y-79540000D01*
X111812993Y-79505925D01*
X111870000Y-79473012D01*
X111870000Y-81146988D01*
G37*
%TD.AperFunction*%
%TA.AperFunction,Conductor*%
G36*
X111870000Y-78606988D02*
G01*
X111812993Y-78574075D01*
X111685826Y-78540000D01*
X111554174Y-78540000D01*
X111427007Y-78574075D01*
X111370000Y-78606988D01*
X111370000Y-76933012D01*
X111427007Y-76965925D01*
X111554174Y-77000000D01*
X111685826Y-77000000D01*
X111812993Y-76965925D01*
X111870000Y-76933012D01*
X111870000Y-78606988D01*
G37*
%TD.AperFunction*%
%TA.AperFunction,Conductor*%
G36*
X111870000Y-76066988D02*
G01*
X111812993Y-76034075D01*
X111685826Y-76000000D01*
X111554174Y-76000000D01*
X111427007Y-76034075D01*
X111370000Y-76066988D01*
X111370000Y-74393012D01*
X111427007Y-74425925D01*
X111554174Y-74460000D01*
X111685826Y-74460000D01*
X111812993Y-74425925D01*
X111870000Y-74393012D01*
X111870000Y-76066988D01*
G37*
%TD.AperFunction*%
%TA.AperFunction,Conductor*%
G36*
X111870000Y-65436988D02*
G01*
X111812993Y-65404075D01*
X111685826Y-65370000D01*
X111554174Y-65370000D01*
X111427007Y-65404075D01*
X111370000Y-65436988D01*
X111370000Y-63763012D01*
X111427007Y-63795925D01*
X111554174Y-63830000D01*
X111685826Y-63830000D01*
X111812993Y-63795925D01*
X111870000Y-63763012D01*
X111870000Y-65436988D01*
G37*
%TD.AperFunction*%
%TA.AperFunction,Conductor*%
G36*
X111870000Y-62896988D02*
G01*
X111812993Y-62864075D01*
X111685826Y-62830000D01*
X111554174Y-62830000D01*
X111427007Y-62864075D01*
X111370000Y-62896988D01*
X111370000Y-61223012D01*
X111427007Y-61255925D01*
X111554174Y-61290000D01*
X111685826Y-61290000D01*
X111812993Y-61255925D01*
X111870000Y-61223012D01*
X111870000Y-62896988D01*
G37*
%TD.AperFunction*%
%TA.AperFunction,Conductor*%
G36*
X111870000Y-60356988D02*
G01*
X111812993Y-60324075D01*
X111685826Y-60290000D01*
X111554174Y-60290000D01*
X111427007Y-60324075D01*
X111370000Y-60356988D01*
X111370000Y-58683012D01*
X111427007Y-58715925D01*
X111554174Y-58750000D01*
X111685826Y-58750000D01*
X111812993Y-58715925D01*
X111870000Y-58683012D01*
X111870000Y-60356988D01*
G37*
%TD.AperFunction*%
%TA.AperFunction,Conductor*%
G36*
X111870000Y-52496988D02*
G01*
X111812993Y-52464075D01*
X111685826Y-52430000D01*
X111554174Y-52430000D01*
X111427007Y-52464075D01*
X111370000Y-52496988D01*
X111370000Y-50823012D01*
X111427007Y-50855925D01*
X111554174Y-50890000D01*
X111685826Y-50890000D01*
X111812993Y-50855925D01*
X111870000Y-50823012D01*
X111870000Y-52496988D01*
G37*
%TD.AperFunction*%
%TA.AperFunction,Conductor*%
G36*
X111870000Y-49956988D02*
G01*
X111812993Y-49924075D01*
X111685826Y-49890000D01*
X111554174Y-49890000D01*
X111427007Y-49924075D01*
X111370000Y-49956988D01*
X111370000Y-48283012D01*
X111427007Y-48315925D01*
X111554174Y-48350000D01*
X111685826Y-48350000D01*
X111812993Y-48315925D01*
X111870000Y-48283012D01*
X111870000Y-49956988D01*
G37*
%TD.AperFunction*%
%TA.AperFunction,Conductor*%
G36*
X111870000Y-47416988D02*
G01*
X111812993Y-47384075D01*
X111685826Y-47350000D01*
X111554174Y-47350000D01*
X111427007Y-47384075D01*
X111370000Y-47416988D01*
X111370000Y-45743012D01*
X111427007Y-45775925D01*
X111554174Y-45810000D01*
X111685826Y-45810000D01*
X111812993Y-45775925D01*
X111870000Y-45743012D01*
X111870000Y-47416988D01*
G37*
%TD.AperFunction*%
%TA.AperFunction,Conductor*%
G36*
X135765786Y-24337499D02*
G01*
X135787406Y-24354591D01*
X140695874Y-29213400D01*
X140729671Y-29274552D01*
X140732639Y-29301952D01*
X140484673Y-101460157D01*
X140464758Y-101527129D01*
X140411798Y-101572702D01*
X140342605Y-101582407D01*
X140279150Y-101553164D01*
X140272993Y-101547412D01*
X140145031Y-101419450D01*
X140140478Y-101416090D01*
X139933933Y-101263654D01*
X139933929Y-101263652D01*
X139933928Y-101263651D01*
X139701978Y-101141061D01*
X139701977Y-101141060D01*
X139701974Y-101141059D01*
X139454333Y-101054406D01*
X139454332Y-101054405D01*
X139454327Y-101054404D01*
X139454322Y-101054403D01*
X139196554Y-101005631D01*
X139196544Y-101005630D01*
X139196543Y-101005630D01*
X139087392Y-100999500D01*
X139087389Y-100999500D01*
X134422889Y-100999500D01*
X134355850Y-100979815D01*
X134335208Y-100963181D01*
X127227511Y-93855484D01*
X127222418Y-93851784D01*
X127036434Y-93716657D01*
X127005690Y-93700992D01*
X126825996Y-93609433D01*
X126601368Y-93536446D01*
X126368089Y-93499498D01*
X126364765Y-93499237D01*
X126363576Y-93498783D01*
X126363280Y-93498737D01*
X126363289Y-93498674D01*
X126299478Y-93474351D01*
X126258010Y-93418118D01*
X126250500Y-93375620D01*
X126250500Y-92422889D01*
X126270185Y-92355850D01*
X126286819Y-92335208D01*
X127257952Y-91364075D01*
X128289617Y-90332410D01*
X128428443Y-90141333D01*
X128535668Y-89930892D01*
X128608653Y-89706268D01*
X128618921Y-89641441D01*
X128645600Y-89472997D01*
X128645600Y-88277789D01*
X128665285Y-88210750D01*
X128681919Y-88190108D01*
X129722027Y-87150000D01*
X130827821Y-86044205D01*
X130889142Y-86010722D01*
X130958834Y-86015706D01*
X131014767Y-86057578D01*
X131039184Y-86123042D01*
X131039500Y-86131888D01*
X131039500Y-87797870D01*
X131039501Y-87797876D01*
X131045908Y-87857483D01*
X131096202Y-87992328D01*
X131096206Y-87992335D01*
X131182452Y-88107544D01*
X131182455Y-88107547D01*
X131297664Y-88193793D01*
X131297671Y-88193797D01*
X131429082Y-88242810D01*
X131485016Y-88284681D01*
X131509433Y-88350145D01*
X131494582Y-88418418D01*
X131473431Y-88446673D01*
X131359889Y-88560215D01*
X131234951Y-88732179D01*
X131138444Y-88921585D01*
X131138443Y-88921587D01*
X131138443Y-88921588D01*
X131121389Y-88974075D01*
X131072753Y-89123760D01*
X131039500Y-89333713D01*
X131039500Y-89546286D01*
X131072703Y-89755925D01*
X131072754Y-89756243D01*
X131129502Y-89930896D01*
X131138444Y-89958414D01*
X131234951Y-90147820D01*
X131359890Y-90319786D01*
X131510213Y-90470109D01*
X131682182Y-90595050D01*
X131690946Y-90599516D01*
X131741742Y-90647491D01*
X131758536Y-90715312D01*
X131735998Y-90781447D01*
X131690946Y-90820484D01*
X131682182Y-90824949D01*
X131510213Y-90949890D01*
X131359890Y-91100213D01*
X131234951Y-91272179D01*
X131138444Y-91461585D01*
X131138443Y-91461587D01*
X131138443Y-91461588D01*
X131121389Y-91514075D01*
X131072753Y-91663760D01*
X131039500Y-91873713D01*
X131039500Y-92086286D01*
X131072703Y-92295925D01*
X131072754Y-92296243D01*
X131097215Y-92371527D01*
X131138444Y-92498414D01*
X131234951Y-92687820D01*
X131359890Y-92859786D01*
X131510213Y-93010109D01*
X131682182Y-93135050D01*
X131690946Y-93139516D01*
X131741742Y-93187491D01*
X131758536Y-93255312D01*
X131735998Y-93321447D01*
X131690946Y-93360484D01*
X131682182Y-93364949D01*
X131510213Y-93489890D01*
X131359890Y-93640213D01*
X131234951Y-93812179D01*
X131138444Y-94001585D01*
X131138443Y-94001587D01*
X131138443Y-94001588D01*
X131121389Y-94054075D01*
X131072753Y-94203760D01*
X131039500Y-94413713D01*
X131039500Y-94626286D01*
X131072703Y-94835925D01*
X131072754Y-94836243D01*
X131125962Y-95000001D01*
X131138444Y-95038414D01*
X131234951Y-95227820D01*
X131359890Y-95399786D01*
X131510213Y-95550109D01*
X131682179Y-95675048D01*
X131682181Y-95675049D01*
X131682184Y-95675051D01*
X131871588Y-95771557D01*
X132073757Y-95837246D01*
X132283713Y-95870500D01*
X132283714Y-95870500D01*
X132496286Y-95870500D01*
X132496287Y-95870500D01*
X132706243Y-95837246D01*
X132908412Y-95771557D01*
X133097816Y-95675051D01*
X133135462Y-95647700D01*
X133269786Y-95550109D01*
X133269788Y-95550106D01*
X133269792Y-95550104D01*
X133420104Y-95399792D01*
X133420106Y-95399788D01*
X133420109Y-95399786D01*
X133507678Y-95279255D01*
X133545051Y-95227816D01*
X133600340Y-95119304D01*
X133648314Y-95068508D01*
X133716135Y-95051713D01*
X133782270Y-95074250D01*
X133821310Y-95119304D01*
X133916657Y-95306433D01*
X134055483Y-95497510D01*
X134222490Y-95664517D01*
X134413567Y-95803343D01*
X134499700Y-95847230D01*
X134624003Y-95910566D01*
X134624005Y-95910566D01*
X134624008Y-95910568D01*
X134744412Y-95949689D01*
X134848631Y-95983553D01*
X135081903Y-96020500D01*
X135081908Y-96020500D01*
X135318097Y-96020500D01*
X135551368Y-95983553D01*
X135569966Y-95977510D01*
X135775992Y-95910568D01*
X135986433Y-95803343D01*
X136177510Y-95664517D01*
X136344517Y-95497510D01*
X136483343Y-95306433D01*
X136578971Y-95118751D01*
X136626944Y-95067957D01*
X136694765Y-95051162D01*
X136760900Y-95073699D01*
X136799940Y-95118753D01*
X136855379Y-95227557D01*
X136980272Y-95399459D01*
X136980276Y-95399464D01*
X137130535Y-95549723D01*
X137130540Y-95549727D01*
X137302442Y-95674620D01*
X137491782Y-95771095D01*
X137693871Y-95836757D01*
X137760000Y-95847231D01*
X137760000Y-94953012D01*
X137817007Y-94985925D01*
X137944174Y-95020000D01*
X138075826Y-95020000D01*
X138202993Y-94985925D01*
X138260000Y-94953012D01*
X138260000Y-95847230D01*
X138326126Y-95836757D01*
X138326129Y-95836757D01*
X138528217Y-95771095D01*
X138717557Y-95674620D01*
X138889459Y-95549727D01*
X138889464Y-95549723D01*
X139039723Y-95399464D01*
X139039727Y-95399459D01*
X139164620Y-95227557D01*
X139261095Y-95038217D01*
X139326757Y-94836129D01*
X139326757Y-94836126D01*
X139337231Y-94770000D01*
X138443012Y-94770000D01*
X138475925Y-94712993D01*
X138510000Y-94585826D01*
X138510000Y-94454174D01*
X138475925Y-94327007D01*
X138443012Y-94270000D01*
X139337231Y-94270000D01*
X139326757Y-94203873D01*
X139326757Y-94203870D01*
X139261095Y-94001782D01*
X139164620Y-93812442D01*
X139039727Y-93640540D01*
X139039723Y-93640535D01*
X138889464Y-93490276D01*
X138889459Y-93490272D01*
X138717558Y-93365379D01*
X138707954Y-93360486D01*
X138657157Y-93312512D01*
X138640361Y-93244692D01*
X138662897Y-93178556D01*
X138707954Y-93139514D01*
X138717558Y-93134620D01*
X138889459Y-93009727D01*
X138889464Y-93009723D01*
X139039723Y-92859464D01*
X139039727Y-92859459D01*
X139164620Y-92687557D01*
X139261095Y-92498217D01*
X139326757Y-92296129D01*
X139326757Y-92296126D01*
X139337231Y-92230000D01*
X138443012Y-92230000D01*
X138475925Y-92172993D01*
X138510000Y-92045826D01*
X138510000Y-91914174D01*
X138475925Y-91787007D01*
X138443012Y-91730000D01*
X139337231Y-91730000D01*
X139326757Y-91663873D01*
X139326757Y-91663870D01*
X139261095Y-91461782D01*
X139164620Y-91272442D01*
X139039727Y-91100540D01*
X139039723Y-91100535D01*
X138889464Y-90950276D01*
X138889459Y-90950272D01*
X138717558Y-90825379D01*
X138707954Y-90820486D01*
X138657157Y-90772512D01*
X138640361Y-90704692D01*
X138662897Y-90638556D01*
X138707954Y-90599514D01*
X138717558Y-90594620D01*
X138889459Y-90469727D01*
X138889464Y-90469723D01*
X139039723Y-90319464D01*
X139039727Y-90319459D01*
X139164620Y-90147557D01*
X139261095Y-89958217D01*
X139326757Y-89756129D01*
X139326757Y-89756126D01*
X139337231Y-89690000D01*
X138443012Y-89690000D01*
X138475925Y-89632993D01*
X138510000Y-89505826D01*
X138510000Y-89374174D01*
X138475925Y-89247007D01*
X138443012Y-89190000D01*
X139337231Y-89190000D01*
X139326757Y-89123873D01*
X139326757Y-89123870D01*
X139261095Y-88921782D01*
X139164620Y-88732442D01*
X139039727Y-88560540D01*
X139039723Y-88560535D01*
X138925665Y-88446477D01*
X138892180Y-88385154D01*
X138897164Y-88315462D01*
X138939036Y-88259529D01*
X138970013Y-88242614D01*
X139102086Y-88193354D01*
X139102093Y-88193350D01*
X139217187Y-88107190D01*
X139217190Y-88107187D01*
X139303350Y-87992093D01*
X139303354Y-87992086D01*
X139353596Y-87857379D01*
X139353598Y-87857372D01*
X139359999Y-87797844D01*
X139360000Y-87797827D01*
X139360000Y-87150000D01*
X138443012Y-87150000D01*
X138475925Y-87092993D01*
X138510000Y-86965826D01*
X138510000Y-86834174D01*
X138475925Y-86707007D01*
X138443012Y-86650000D01*
X139360000Y-86650000D01*
X139360000Y-86002172D01*
X139359999Y-86002155D01*
X139353598Y-85942627D01*
X139353596Y-85942620D01*
X139303354Y-85807913D01*
X139303350Y-85807906D01*
X139217190Y-85692812D01*
X139217187Y-85692809D01*
X139102093Y-85606649D01*
X139102086Y-85606645D01*
X138967379Y-85556403D01*
X138967372Y-85556401D01*
X138907844Y-85550000D01*
X138260000Y-85550000D01*
X138260000Y-86466988D01*
X138202993Y-86434075D01*
X138075826Y-86400000D01*
X137944174Y-86400000D01*
X137817007Y-86434075D01*
X137760000Y-86466988D01*
X137760000Y-85550000D01*
X137112155Y-85550000D01*
X137052627Y-85556401D01*
X137052620Y-85556403D01*
X136917913Y-85606645D01*
X136917906Y-85606649D01*
X136898810Y-85620945D01*
X136833346Y-85645362D01*
X136765073Y-85630510D01*
X136715668Y-85581105D01*
X136700500Y-85521678D01*
X136700500Y-82396017D01*
X136720185Y-82328978D01*
X136772989Y-82283223D01*
X136842147Y-82273279D01*
X136905703Y-82302304D01*
X136924819Y-82323132D01*
X136980278Y-82399466D01*
X137130535Y-82549723D01*
X137130540Y-82549727D01*
X137302442Y-82674620D01*
X137491782Y-82771095D01*
X137693871Y-82836757D01*
X137760000Y-82847231D01*
X137760000Y-81953012D01*
X137817007Y-81985925D01*
X137944174Y-82020000D01*
X138075826Y-82020000D01*
X138202993Y-81985925D01*
X138260000Y-81953012D01*
X138260000Y-82847230D01*
X138326126Y-82836757D01*
X138326129Y-82836757D01*
X138528217Y-82771095D01*
X138717557Y-82674620D01*
X138889459Y-82549727D01*
X138889464Y-82549723D01*
X139039723Y-82399464D01*
X139039727Y-82399459D01*
X139164620Y-82227557D01*
X139261095Y-82038217D01*
X139326757Y-81836129D01*
X139326757Y-81836126D01*
X139337231Y-81770000D01*
X138443012Y-81770000D01*
X138475925Y-81712993D01*
X138510000Y-81585826D01*
X138510000Y-81454174D01*
X138475925Y-81327007D01*
X138443012Y-81270000D01*
X139337231Y-81270000D01*
X139326757Y-81203873D01*
X139326757Y-81203870D01*
X139261095Y-81001782D01*
X139164620Y-80812442D01*
X139039727Y-80640540D01*
X139039723Y-80640535D01*
X138889464Y-80490276D01*
X138889459Y-80490272D01*
X138717558Y-80365379D01*
X138707954Y-80360486D01*
X138657157Y-80312512D01*
X138640361Y-80244692D01*
X138662897Y-80178556D01*
X138707954Y-80139514D01*
X138717558Y-80134620D01*
X138889459Y-80009727D01*
X138889464Y-80009723D01*
X139039723Y-79859464D01*
X139039727Y-79859459D01*
X139164620Y-79687557D01*
X139261095Y-79498217D01*
X139326757Y-79296129D01*
X139326757Y-79296126D01*
X139337231Y-79230000D01*
X138443012Y-79230000D01*
X138475925Y-79172993D01*
X138510000Y-79045826D01*
X138510000Y-78914174D01*
X138475925Y-78787007D01*
X138443012Y-78730000D01*
X139337231Y-78730000D01*
X139326757Y-78663873D01*
X139326757Y-78663870D01*
X139261095Y-78461782D01*
X139164620Y-78272442D01*
X139039727Y-78100540D01*
X139039723Y-78100535D01*
X138889464Y-77950276D01*
X138889459Y-77950272D01*
X138717558Y-77825379D01*
X138707954Y-77820486D01*
X138657157Y-77772512D01*
X138640361Y-77704692D01*
X138662897Y-77638556D01*
X138707954Y-77599514D01*
X138717558Y-77594620D01*
X138889459Y-77469727D01*
X138889464Y-77469723D01*
X139039723Y-77319464D01*
X139039727Y-77319459D01*
X139164620Y-77147557D01*
X139261095Y-76958217D01*
X139326757Y-76756129D01*
X139326757Y-76756126D01*
X139337231Y-76690000D01*
X138443012Y-76690000D01*
X138475925Y-76632993D01*
X138510000Y-76505826D01*
X138510000Y-76374174D01*
X138475925Y-76247007D01*
X138443012Y-76190000D01*
X139337231Y-76190000D01*
X139326757Y-76123873D01*
X139326757Y-76123870D01*
X139261095Y-75921782D01*
X139164620Y-75732442D01*
X139039727Y-75560540D01*
X139039723Y-75560535D01*
X138925665Y-75446477D01*
X138892180Y-75385154D01*
X138897164Y-75315462D01*
X138939036Y-75259529D01*
X138970013Y-75242614D01*
X139102086Y-75193354D01*
X139102093Y-75193350D01*
X139217187Y-75107190D01*
X139217190Y-75107187D01*
X139303350Y-74992093D01*
X139303354Y-74992086D01*
X139353596Y-74857379D01*
X139353598Y-74857372D01*
X139359999Y-74797844D01*
X139360000Y-74797827D01*
X139360000Y-74150000D01*
X138443012Y-74150000D01*
X138475925Y-74092993D01*
X138510000Y-73965826D01*
X138510000Y-73834174D01*
X138475925Y-73707007D01*
X138443012Y-73650000D01*
X139360000Y-73650000D01*
X139360000Y-73002172D01*
X139359999Y-73002155D01*
X139353598Y-72942627D01*
X139353596Y-72942620D01*
X139303354Y-72807913D01*
X139303350Y-72807906D01*
X139217190Y-72692812D01*
X139217187Y-72692809D01*
X139102093Y-72606649D01*
X139102086Y-72606645D01*
X138967379Y-72556403D01*
X138967372Y-72556401D01*
X138907844Y-72550000D01*
X138260000Y-72550000D01*
X138260000Y-73466988D01*
X138202993Y-73434075D01*
X138075826Y-73400000D01*
X137944174Y-73400000D01*
X137817007Y-73434075D01*
X137760000Y-73466988D01*
X137760000Y-72550000D01*
X137112155Y-72550000D01*
X137052627Y-72556401D01*
X137052620Y-72556403D01*
X136917913Y-72606645D01*
X136917906Y-72606649D01*
X136898810Y-72620945D01*
X136833346Y-72645362D01*
X136765073Y-72630510D01*
X136715668Y-72581105D01*
X136700500Y-72521678D01*
X136700500Y-66796017D01*
X136720185Y-66728978D01*
X136772989Y-66683223D01*
X136842147Y-66673279D01*
X136905703Y-66702304D01*
X136924819Y-66723132D01*
X136980278Y-66799466D01*
X137130535Y-66949723D01*
X137130540Y-66949727D01*
X137302442Y-67074620D01*
X137491782Y-67171095D01*
X137693871Y-67236757D01*
X137760000Y-67247231D01*
X137760000Y-66353012D01*
X137817007Y-66385925D01*
X137944174Y-66420000D01*
X138075826Y-66420000D01*
X138202993Y-66385925D01*
X138260000Y-66353012D01*
X138260000Y-67247230D01*
X138326126Y-67236757D01*
X138326129Y-67236757D01*
X138528217Y-67171095D01*
X138717557Y-67074620D01*
X138889459Y-66949727D01*
X138889464Y-66949723D01*
X139039723Y-66799464D01*
X139039727Y-66799459D01*
X139164620Y-66627557D01*
X139261095Y-66438217D01*
X139326757Y-66236129D01*
X139326757Y-66236126D01*
X139337231Y-66170000D01*
X138443012Y-66170000D01*
X138475925Y-66112993D01*
X138510000Y-65985826D01*
X138510000Y-65854174D01*
X138475925Y-65727007D01*
X138443012Y-65670000D01*
X139337231Y-65670000D01*
X139326757Y-65603873D01*
X139326757Y-65603870D01*
X139261095Y-65401782D01*
X139164620Y-65212442D01*
X139039727Y-65040540D01*
X139039723Y-65040535D01*
X138889464Y-64890276D01*
X138889459Y-64890272D01*
X138717558Y-64765379D01*
X138707954Y-64760486D01*
X138657157Y-64712512D01*
X138640361Y-64644692D01*
X138662897Y-64578556D01*
X138707954Y-64539514D01*
X138717558Y-64534620D01*
X138889459Y-64409727D01*
X138889464Y-64409723D01*
X139039723Y-64259464D01*
X139039727Y-64259459D01*
X139164620Y-64087557D01*
X139261095Y-63898217D01*
X139326757Y-63696129D01*
X139326757Y-63696126D01*
X139337231Y-63630000D01*
X138443012Y-63630000D01*
X138475925Y-63572993D01*
X138510000Y-63445826D01*
X138510000Y-63314174D01*
X138475925Y-63187007D01*
X138443012Y-63130000D01*
X139337231Y-63130000D01*
X139326757Y-63063873D01*
X139326757Y-63063870D01*
X139261095Y-62861782D01*
X139164620Y-62672442D01*
X139039727Y-62500540D01*
X139039723Y-62500535D01*
X138889464Y-62350276D01*
X138889459Y-62350272D01*
X138717558Y-62225379D01*
X138707954Y-62220486D01*
X138657157Y-62172512D01*
X138640361Y-62104692D01*
X138662897Y-62038556D01*
X138707954Y-61999514D01*
X138717558Y-61994620D01*
X138889459Y-61869727D01*
X138889464Y-61869723D01*
X139039723Y-61719464D01*
X139039727Y-61719459D01*
X139164620Y-61547557D01*
X139261095Y-61358217D01*
X139326757Y-61156129D01*
X139326757Y-61156126D01*
X139337231Y-61090000D01*
X138443012Y-61090000D01*
X138475925Y-61032993D01*
X138510000Y-60905826D01*
X138510000Y-60774174D01*
X138475925Y-60647007D01*
X138443012Y-60590000D01*
X139337231Y-60590000D01*
X139326757Y-60523873D01*
X139326757Y-60523870D01*
X139261095Y-60321782D01*
X139164620Y-60132442D01*
X139039727Y-59960540D01*
X139039723Y-59960535D01*
X138925665Y-59846477D01*
X138892180Y-59785154D01*
X138897164Y-59715462D01*
X138939036Y-59659529D01*
X138970013Y-59642614D01*
X139102086Y-59593354D01*
X139102093Y-59593350D01*
X139217187Y-59507190D01*
X139217190Y-59507187D01*
X139303350Y-59392093D01*
X139303354Y-59392086D01*
X139353596Y-59257379D01*
X139353598Y-59257372D01*
X139359999Y-59197844D01*
X139360000Y-59197827D01*
X139360000Y-58550000D01*
X138443012Y-58550000D01*
X138475925Y-58492993D01*
X138510000Y-58365826D01*
X138510000Y-58234174D01*
X138475925Y-58107007D01*
X138443012Y-58050000D01*
X139360000Y-58050000D01*
X139360000Y-57402172D01*
X139359999Y-57402155D01*
X139353598Y-57342627D01*
X139353596Y-57342620D01*
X139303354Y-57207913D01*
X139303350Y-57207906D01*
X139217190Y-57092812D01*
X139217187Y-57092809D01*
X139102093Y-57006649D01*
X139102086Y-57006645D01*
X138967379Y-56956403D01*
X138967372Y-56956401D01*
X138907844Y-56950000D01*
X138260000Y-56950000D01*
X138260000Y-57866988D01*
X138202993Y-57834075D01*
X138075826Y-57800000D01*
X137944174Y-57800000D01*
X137817007Y-57834075D01*
X137760000Y-57866988D01*
X137760000Y-56950000D01*
X137112155Y-56950000D01*
X137052627Y-56956401D01*
X137052620Y-56956403D01*
X136917913Y-57006645D01*
X136917906Y-57006649D01*
X136898810Y-57020945D01*
X136833346Y-57045362D01*
X136765073Y-57030510D01*
X136715668Y-56981105D01*
X136700500Y-56921678D01*
X136700500Y-53869781D01*
X136720185Y-53802742D01*
X136772989Y-53756987D01*
X136842147Y-53747043D01*
X136905703Y-53776068D01*
X136924819Y-53796896D01*
X136970278Y-53859466D01*
X137120535Y-54009723D01*
X137120540Y-54009727D01*
X137292442Y-54134620D01*
X137481782Y-54231095D01*
X137683871Y-54296757D01*
X137750000Y-54307231D01*
X137750000Y-53413012D01*
X137807007Y-53445925D01*
X137934174Y-53480000D01*
X138065826Y-53480000D01*
X138192993Y-53445925D01*
X138250000Y-53413012D01*
X138250000Y-54307230D01*
X138316126Y-54296757D01*
X138316129Y-54296757D01*
X138518217Y-54231095D01*
X138707557Y-54134620D01*
X138879459Y-54009727D01*
X138879464Y-54009723D01*
X139029723Y-53859464D01*
X139029727Y-53859459D01*
X139154620Y-53687557D01*
X139251095Y-53498217D01*
X139316757Y-53296129D01*
X139316757Y-53296126D01*
X139327231Y-53230000D01*
X138433012Y-53230000D01*
X138465925Y-53172993D01*
X138500000Y-53045826D01*
X138500000Y-52914174D01*
X138465925Y-52787007D01*
X138433012Y-52730000D01*
X139327231Y-52730000D01*
X139316757Y-52663873D01*
X139316757Y-52663870D01*
X139251095Y-52461782D01*
X139154620Y-52272442D01*
X139029727Y-52100540D01*
X139029723Y-52100535D01*
X138879464Y-51950276D01*
X138879459Y-51950272D01*
X138707558Y-51825379D01*
X138697954Y-51820486D01*
X138647157Y-51772512D01*
X138630361Y-51704692D01*
X138652897Y-51638556D01*
X138697954Y-51599514D01*
X138707558Y-51594620D01*
X138879459Y-51469727D01*
X138879464Y-51469723D01*
X139029723Y-51319464D01*
X139029727Y-51319459D01*
X139154620Y-51147557D01*
X139251095Y-50958217D01*
X139316757Y-50756129D01*
X139316757Y-50756126D01*
X139327231Y-50690000D01*
X138433012Y-50690000D01*
X138465925Y-50632993D01*
X138500000Y-50505826D01*
X138500000Y-50374174D01*
X138465925Y-50247007D01*
X138433012Y-50190000D01*
X139327231Y-50190000D01*
X139316757Y-50123873D01*
X139316757Y-50123870D01*
X139251095Y-49921782D01*
X139154620Y-49732442D01*
X139029727Y-49560540D01*
X139029723Y-49560535D01*
X138879464Y-49410276D01*
X138879459Y-49410272D01*
X138707558Y-49285379D01*
X138697954Y-49280486D01*
X138647157Y-49232512D01*
X138630361Y-49164692D01*
X138652897Y-49098556D01*
X138697954Y-49059514D01*
X138707558Y-49054620D01*
X138879459Y-48929727D01*
X138879464Y-48929723D01*
X139029723Y-48779464D01*
X139029727Y-48779459D01*
X139154620Y-48607557D01*
X139251095Y-48418217D01*
X139316757Y-48216129D01*
X139316757Y-48216126D01*
X139327231Y-48150000D01*
X138433012Y-48150000D01*
X138465925Y-48092993D01*
X138500000Y-47965826D01*
X138500000Y-47834174D01*
X138465925Y-47707007D01*
X138433012Y-47650000D01*
X139327231Y-47650000D01*
X139316757Y-47583873D01*
X139316757Y-47583870D01*
X139251095Y-47381782D01*
X139154620Y-47192442D01*
X139029727Y-47020540D01*
X139029723Y-47020535D01*
X138915665Y-46906477D01*
X138882180Y-46845154D01*
X138887164Y-46775462D01*
X138929036Y-46719529D01*
X138960013Y-46702614D01*
X139092086Y-46653354D01*
X139092093Y-46653350D01*
X139207187Y-46567190D01*
X139207190Y-46567187D01*
X139293350Y-46452093D01*
X139293354Y-46452086D01*
X139343596Y-46317379D01*
X139343598Y-46317372D01*
X139349999Y-46257844D01*
X139350000Y-46257827D01*
X139350000Y-45610000D01*
X138433012Y-45610000D01*
X138465925Y-45552993D01*
X138500000Y-45425826D01*
X138500000Y-45294174D01*
X138465925Y-45167007D01*
X138433012Y-45110000D01*
X139350000Y-45110000D01*
X139350000Y-44462172D01*
X139349999Y-44462155D01*
X139343598Y-44402627D01*
X139343596Y-44402620D01*
X139293354Y-44267913D01*
X139293350Y-44267906D01*
X139207190Y-44152812D01*
X139207187Y-44152809D01*
X139092093Y-44066649D01*
X139092086Y-44066645D01*
X138957379Y-44016403D01*
X138957372Y-44016401D01*
X138897844Y-44010000D01*
X138250000Y-44010000D01*
X138250000Y-44926988D01*
X138192993Y-44894075D01*
X138065826Y-44860000D01*
X137934174Y-44860000D01*
X137807007Y-44894075D01*
X137750000Y-44926988D01*
X137750000Y-44010000D01*
X137102155Y-44010000D01*
X137042627Y-44016401D01*
X137042620Y-44016403D01*
X136907913Y-44066645D01*
X136907906Y-44066649D01*
X136792812Y-44152809D01*
X136792809Y-44152812D01*
X136706644Y-44267912D01*
X136704115Y-44272545D01*
X136654707Y-44321947D01*
X136586433Y-44336794D01*
X136520970Y-44312373D01*
X136486455Y-44272537D01*
X136483796Y-44267668D01*
X136397547Y-44152455D01*
X136397544Y-44152452D01*
X136282335Y-44066206D01*
X136282328Y-44066202D01*
X136147482Y-44015908D01*
X136147483Y-44015908D01*
X136087883Y-44009501D01*
X136087881Y-44009500D01*
X136087873Y-44009500D01*
X136087865Y-44009500D01*
X135874400Y-44009500D01*
X135818105Y-43995985D01*
X135765996Y-43969433D01*
X135541368Y-43896446D01*
X135308097Y-43859500D01*
X135308092Y-43859500D01*
X135071908Y-43859500D01*
X135071903Y-43859500D01*
X134838630Y-43896447D01*
X134838627Y-43896447D01*
X134614009Y-43969431D01*
X134614008Y-43969431D01*
X134561893Y-43995985D01*
X134505600Y-44009500D01*
X134292130Y-44009500D01*
X134292123Y-44009501D01*
X134232516Y-44015908D01*
X134097671Y-44066202D01*
X134097664Y-44066206D01*
X133982455Y-44152452D01*
X133982452Y-44152455D01*
X133896206Y-44267665D01*
X133893830Y-44272016D01*
X133844422Y-44321419D01*
X133776148Y-44336268D01*
X133710685Y-44311848D01*
X133676170Y-44272016D01*
X133673797Y-44267673D01*
X133673796Y-44267669D01*
X133636548Y-44217912D01*
X133587547Y-44152455D01*
X133587544Y-44152452D01*
X133472335Y-44066206D01*
X133472328Y-44066202D01*
X133337482Y-44015908D01*
X133337483Y-44015908D01*
X133277883Y-44009501D01*
X133277881Y-44009500D01*
X133277873Y-44009500D01*
X133277864Y-44009500D01*
X131482129Y-44009500D01*
X131482123Y-44009501D01*
X131422516Y-44015908D01*
X131287671Y-44066202D01*
X131287664Y-44066206D01*
X131172455Y-44152452D01*
X131172452Y-44152455D01*
X131086206Y-44267664D01*
X131086202Y-44267671D01*
X131035908Y-44402517D01*
X131029501Y-44462116D01*
X131029500Y-44462135D01*
X131029500Y-46257870D01*
X131029501Y-46257876D01*
X131035908Y-46317483D01*
X131086202Y-46452328D01*
X131086206Y-46452335D01*
X131172452Y-46567544D01*
X131172455Y-46567547D01*
X131287664Y-46653793D01*
X131287671Y-46653797D01*
X131419082Y-46702810D01*
X131475016Y-46744681D01*
X131499433Y-46810145D01*
X131484582Y-46878418D01*
X131463431Y-46906673D01*
X131349889Y-47020215D01*
X131224951Y-47192179D01*
X131128444Y-47381585D01*
X131062753Y-47583760D01*
X131029500Y-47793713D01*
X131029500Y-48006286D01*
X131060409Y-48201441D01*
X131062754Y-48216243D01*
X131127832Y-48416533D01*
X131128444Y-48418414D01*
X131224951Y-48607820D01*
X131349890Y-48779786D01*
X131500213Y-48930109D01*
X131672182Y-49055050D01*
X131680946Y-49059516D01*
X131731742Y-49107491D01*
X131748536Y-49175312D01*
X131725998Y-49241447D01*
X131680946Y-49280484D01*
X131672182Y-49284949D01*
X131500213Y-49409890D01*
X131349890Y-49560213D01*
X131224951Y-49732179D01*
X131128444Y-49921585D01*
X131062753Y-50123760D01*
X131029500Y-50333713D01*
X131029500Y-50546286D01*
X131060409Y-50741441D01*
X131062754Y-50756243D01*
X131106214Y-50890000D01*
X131128444Y-50958414D01*
X131224951Y-51147820D01*
X131349890Y-51319786D01*
X131500213Y-51470109D01*
X131672182Y-51595050D01*
X131680946Y-51599516D01*
X131731742Y-51647491D01*
X131748536Y-51715312D01*
X131725998Y-51781447D01*
X131680946Y-51820484D01*
X131672182Y-51824949D01*
X131500213Y-51949890D01*
X131349890Y-52100213D01*
X131224951Y-52272179D01*
X131128444Y-52461585D01*
X131062753Y-52663760D01*
X131029500Y-52873713D01*
X131029500Y-53086286D01*
X131060409Y-53281441D01*
X131062754Y-53296243D01*
X131106214Y-53430000D01*
X131128444Y-53498414D01*
X131224951Y-53687820D01*
X131349890Y-53859786D01*
X131500213Y-54010109D01*
X131672179Y-54135048D01*
X131672181Y-54135049D01*
X131672184Y-54135051D01*
X131861588Y-54231557D01*
X132063757Y-54297246D01*
X132273713Y-54330500D01*
X132273714Y-54330500D01*
X132486286Y-54330500D01*
X132486287Y-54330500D01*
X132696243Y-54297246D01*
X132898412Y-54231557D01*
X133087816Y-54135051D01*
X133157229Y-54084620D01*
X133259786Y-54010109D01*
X133259788Y-54010106D01*
X133259792Y-54010104D01*
X133410104Y-53859792D01*
X133475181Y-53770219D01*
X133530511Y-53727554D01*
X133600124Y-53721575D01*
X133661920Y-53754180D01*
X133696277Y-53815019D01*
X133699500Y-53843105D01*
X133699500Y-56921054D01*
X133679815Y-56988093D01*
X133627011Y-57033848D01*
X133557853Y-57043792D01*
X133501189Y-57020321D01*
X133482331Y-57006204D01*
X133482328Y-57006202D01*
X133347482Y-56955908D01*
X133347483Y-56955908D01*
X133287883Y-56949501D01*
X133287881Y-56949500D01*
X133287873Y-56949500D01*
X133287864Y-56949500D01*
X131492129Y-56949500D01*
X131492123Y-56949501D01*
X131432516Y-56955908D01*
X131297671Y-57006202D01*
X131297664Y-57006206D01*
X131182455Y-57092452D01*
X131182452Y-57092455D01*
X131096206Y-57207664D01*
X131096202Y-57207671D01*
X131045908Y-57342517D01*
X131039501Y-57402116D01*
X131039500Y-57402135D01*
X131039500Y-59197870D01*
X131039501Y-59197876D01*
X131045908Y-59257483D01*
X131096202Y-59392328D01*
X131096206Y-59392335D01*
X131182452Y-59507544D01*
X131182455Y-59507547D01*
X131297664Y-59593793D01*
X131297671Y-59593797D01*
X131429082Y-59642810D01*
X131485016Y-59684681D01*
X131509433Y-59750145D01*
X131494582Y-59818418D01*
X131473431Y-59846673D01*
X131359889Y-59960215D01*
X131234951Y-60132179D01*
X131138444Y-60321585D01*
X131072753Y-60523760D01*
X131039500Y-60733713D01*
X131039500Y-60946286D01*
X131070409Y-61141441D01*
X131072754Y-61156243D01*
X131131706Y-61337679D01*
X131138444Y-61358414D01*
X131234951Y-61547820D01*
X131359890Y-61719786D01*
X131510213Y-61870109D01*
X131682182Y-61995050D01*
X131690946Y-61999516D01*
X131741742Y-62047491D01*
X131758536Y-62115312D01*
X131735998Y-62181447D01*
X131690946Y-62220484D01*
X131682182Y-62224949D01*
X131510213Y-62349890D01*
X131359890Y-62500213D01*
X131234951Y-62672179D01*
X131138444Y-62861585D01*
X131072753Y-63063760D01*
X131039500Y-63273713D01*
X131039500Y-63486286D01*
X131070409Y-63681441D01*
X131072754Y-63696243D01*
X131116214Y-63830000D01*
X131138444Y-63898414D01*
X131234951Y-64087820D01*
X131359890Y-64259786D01*
X131510213Y-64410109D01*
X131682182Y-64535050D01*
X131690946Y-64539516D01*
X131741742Y-64587491D01*
X131758536Y-64655312D01*
X131735998Y-64721447D01*
X131690946Y-64760484D01*
X131682182Y-64764949D01*
X131510213Y-64889890D01*
X131359890Y-65040213D01*
X131234951Y-65212179D01*
X131138444Y-65401585D01*
X131072753Y-65603760D01*
X131039500Y-65813713D01*
X131039500Y-66026286D01*
X131070409Y-66221441D01*
X131072754Y-66236243D01*
X131116214Y-66370000D01*
X131138444Y-66438414D01*
X131234951Y-66627820D01*
X131359890Y-66799786D01*
X131510213Y-66950109D01*
X131682179Y-67075048D01*
X131682181Y-67075049D01*
X131682184Y-67075051D01*
X131871588Y-67171557D01*
X132073757Y-67237246D01*
X132283713Y-67270500D01*
X132283714Y-67270500D01*
X132496286Y-67270500D01*
X132496287Y-67270500D01*
X132706243Y-67237246D01*
X132908412Y-67171557D01*
X133097816Y-67075051D01*
X133167229Y-67024620D01*
X133269786Y-66950109D01*
X133269788Y-66950106D01*
X133269792Y-66950104D01*
X133420104Y-66799792D01*
X133475181Y-66723983D01*
X133530511Y-66681318D01*
X133600124Y-66675339D01*
X133661920Y-66707944D01*
X133696277Y-66768783D01*
X133699500Y-66796869D01*
X133699500Y-72521054D01*
X133679815Y-72588093D01*
X133627011Y-72633848D01*
X133557853Y-72643792D01*
X133501189Y-72620321D01*
X133482331Y-72606204D01*
X133482328Y-72606202D01*
X133347482Y-72555908D01*
X133347483Y-72555908D01*
X133287883Y-72549501D01*
X133287881Y-72549500D01*
X133287873Y-72549500D01*
X133287864Y-72549500D01*
X131492129Y-72549500D01*
X131492123Y-72549501D01*
X131432516Y-72555908D01*
X131297671Y-72606202D01*
X131297664Y-72606206D01*
X131182455Y-72692452D01*
X131182452Y-72692455D01*
X131096206Y-72807664D01*
X131096202Y-72807671D01*
X131045908Y-72942517D01*
X131039501Y-73002116D01*
X131039500Y-73002135D01*
X131039500Y-74797870D01*
X131039501Y-74797876D01*
X131045908Y-74857483D01*
X131096202Y-74992328D01*
X131096206Y-74992335D01*
X131182452Y-75107544D01*
X131182455Y-75107547D01*
X131297664Y-75193793D01*
X131297671Y-75193797D01*
X131429082Y-75242810D01*
X131485016Y-75284681D01*
X131509433Y-75350145D01*
X131494582Y-75418418D01*
X131473431Y-75446673D01*
X131359889Y-75560215D01*
X131234951Y-75732179D01*
X131138444Y-75921585D01*
X131072753Y-76123760D01*
X131063250Y-76183760D01*
X131039500Y-76333713D01*
X131039500Y-76546287D01*
X131072754Y-76756243D01*
X131122163Y-76908309D01*
X131138444Y-76958414D01*
X131234951Y-77147820D01*
X131359890Y-77319786D01*
X131510213Y-77470109D01*
X131682182Y-77595050D01*
X131690946Y-77599516D01*
X131741742Y-77647491D01*
X131758536Y-77715312D01*
X131735998Y-77781447D01*
X131690946Y-77820484D01*
X131682182Y-77824949D01*
X131510213Y-77949890D01*
X131359890Y-78100213D01*
X131234951Y-78272179D01*
X131138444Y-78461585D01*
X131072753Y-78663760D01*
X131053233Y-78787007D01*
X131039500Y-78873713D01*
X131039500Y-79086287D01*
X131072754Y-79296243D01*
X131132499Y-79480119D01*
X131138444Y-79498414D01*
X131234951Y-79687820D01*
X131359890Y-79859786D01*
X131510213Y-80010109D01*
X131682182Y-80135050D01*
X131690946Y-80139516D01*
X131741742Y-80187491D01*
X131758536Y-80255312D01*
X131735998Y-80321447D01*
X131690946Y-80360484D01*
X131682182Y-80364949D01*
X131510213Y-80489890D01*
X131359890Y-80640213D01*
X131234951Y-80812179D01*
X131138444Y-81001585D01*
X131072753Y-81203760D01*
X131063250Y-81263760D01*
X131039500Y-81413713D01*
X131039500Y-81626287D01*
X131072754Y-81836243D01*
X131122163Y-81988309D01*
X131138444Y-82038414D01*
X131234951Y-82227820D01*
X131359890Y-82399786D01*
X131497923Y-82537819D01*
X131531408Y-82599142D01*
X131526424Y-82668834D01*
X131484552Y-82724767D01*
X131419088Y-82749184D01*
X131410242Y-82749500D01*
X130381903Y-82749500D01*
X130148631Y-82786446D01*
X129924003Y-82859433D01*
X129713565Y-82966657D01*
X129522488Y-83105484D01*
X127837681Y-84790291D01*
X127776358Y-84823776D01*
X127706666Y-84818792D01*
X127662319Y-84790291D01*
X121760603Y-78888575D01*
X123050000Y-78888575D01*
X123050000Y-79111424D01*
X123079085Y-79332354D01*
X123079088Y-79332367D01*
X123136763Y-79547618D01*
X123222045Y-79753502D01*
X123222054Y-79753520D01*
X123333464Y-79946491D01*
X123333473Y-79946504D01*
X123384040Y-80012403D01*
X123384043Y-80012403D01*
X124185387Y-79211059D01*
X124190889Y-79231591D01*
X124269881Y-79368408D01*
X124381592Y-79480119D01*
X124518409Y-79559111D01*
X124538940Y-79564612D01*
X123737595Y-80365955D01*
X123737595Y-80365956D01*
X123803507Y-80416533D01*
X123996485Y-80527949D01*
X123996497Y-80527954D01*
X124202381Y-80613236D01*
X124417632Y-80670911D01*
X124417645Y-80670914D01*
X124638575Y-80700000D01*
X124861425Y-80700000D01*
X125082354Y-80670914D01*
X125082367Y-80670911D01*
X125297618Y-80613236D01*
X125503502Y-80527954D01*
X125503514Y-80527949D01*
X125696498Y-80416530D01*
X125762403Y-80365957D01*
X125762404Y-80365956D01*
X124961059Y-79564612D01*
X124981591Y-79559111D01*
X125118408Y-79480119D01*
X125230119Y-79368408D01*
X125309111Y-79231591D01*
X125314612Y-79211059D01*
X126115956Y-80012404D01*
X126115957Y-80012403D01*
X126166530Y-79946498D01*
X126277949Y-79753514D01*
X126277954Y-79753502D01*
X126363236Y-79547618D01*
X126420911Y-79332367D01*
X126420914Y-79332354D01*
X126450000Y-79111424D01*
X126450000Y-78888575D01*
X126420914Y-78667645D01*
X126420911Y-78667632D01*
X126363236Y-78452381D01*
X126277954Y-78246497D01*
X126277949Y-78246485D01*
X126166533Y-78053507D01*
X126115956Y-77987595D01*
X126115955Y-77987595D01*
X125314612Y-78788939D01*
X125309111Y-78768409D01*
X125230119Y-78631592D01*
X125118408Y-78519881D01*
X124981591Y-78440889D01*
X124961058Y-78435387D01*
X125762403Y-77634043D01*
X125762403Y-77634040D01*
X125696504Y-77583473D01*
X125696491Y-77583464D01*
X125503520Y-77472054D01*
X125503502Y-77472045D01*
X125297618Y-77386763D01*
X125082367Y-77329088D01*
X125082354Y-77329085D01*
X124861425Y-77300000D01*
X124638575Y-77300000D01*
X124417645Y-77329085D01*
X124417632Y-77329088D01*
X124202381Y-77386763D01*
X123996497Y-77472045D01*
X123996479Y-77472054D01*
X123803511Y-77583462D01*
X123737595Y-77634042D01*
X124538941Y-78435387D01*
X124518409Y-78440889D01*
X124381592Y-78519881D01*
X124269881Y-78631592D01*
X124190889Y-78768409D01*
X124185387Y-78788940D01*
X123384042Y-77987595D01*
X123333462Y-78053511D01*
X123222054Y-78246479D01*
X123222045Y-78246497D01*
X123136763Y-78452381D01*
X123079088Y-78667632D01*
X123079085Y-78667645D01*
X123050000Y-78888575D01*
X121760603Y-78888575D01*
X121486818Y-78614790D01*
X121453333Y-78553467D01*
X121450499Y-78527109D01*
X121450499Y-77752129D01*
X121450498Y-77752123D01*
X121450497Y-77752116D01*
X121447315Y-77722512D01*
X121444385Y-77695248D01*
X121444385Y-77695246D01*
X121444092Y-77692519D01*
X121393797Y-77557671D01*
X121393793Y-77557664D01*
X121307548Y-77442457D01*
X121307546Y-77442454D01*
X121307542Y-77442451D01*
X121307540Y-77442449D01*
X121300187Y-77436944D01*
X121258317Y-77381009D01*
X121250500Y-77337679D01*
X121250500Y-64662320D01*
X121270185Y-64595281D01*
X121300192Y-64563051D01*
X121307546Y-64557546D01*
X121393796Y-64442331D01*
X121444091Y-64307483D01*
X121450500Y-64247873D01*
X121450499Y-62888575D01*
X123050000Y-62888575D01*
X123050000Y-63111424D01*
X123079085Y-63332354D01*
X123079088Y-63332367D01*
X123136763Y-63547618D01*
X123222045Y-63753502D01*
X123222054Y-63753520D01*
X123333464Y-63946491D01*
X123333473Y-63946504D01*
X123384040Y-64012403D01*
X123384043Y-64012403D01*
X124185387Y-63211059D01*
X124190889Y-63231591D01*
X124269881Y-63368408D01*
X124381592Y-63480119D01*
X124518409Y-63559111D01*
X124538940Y-63564612D01*
X123737595Y-64365955D01*
X123737595Y-64365956D01*
X123803507Y-64416533D01*
X123996485Y-64527949D01*
X123996497Y-64527954D01*
X124202381Y-64613236D01*
X124417632Y-64670911D01*
X124417645Y-64670914D01*
X124638575Y-64700000D01*
X124861425Y-64700000D01*
X125082354Y-64670914D01*
X125082367Y-64670911D01*
X125297618Y-64613236D01*
X125503502Y-64527954D01*
X125503514Y-64527949D01*
X125696498Y-64416530D01*
X125762403Y-64365957D01*
X125762404Y-64365956D01*
X124961059Y-63564612D01*
X124981591Y-63559111D01*
X125118408Y-63480119D01*
X125230119Y-63368408D01*
X125309111Y-63231591D01*
X125314612Y-63211059D01*
X126115956Y-64012404D01*
X126115957Y-64012403D01*
X126166530Y-63946498D01*
X126277949Y-63753514D01*
X126277954Y-63753502D01*
X126363236Y-63547618D01*
X126420911Y-63332367D01*
X126420914Y-63332354D01*
X126450000Y-63111424D01*
X126450000Y-62888575D01*
X126420914Y-62667645D01*
X126420911Y-62667632D01*
X126363236Y-62452381D01*
X126277954Y-62246497D01*
X126277949Y-62246485D01*
X126166533Y-62053507D01*
X126115956Y-61987595D01*
X126115955Y-61987595D01*
X125314612Y-62788939D01*
X125309111Y-62768409D01*
X125230119Y-62631592D01*
X125118408Y-62519881D01*
X124981591Y-62440889D01*
X124961058Y-62435387D01*
X125762403Y-61634043D01*
X125762403Y-61634040D01*
X125696504Y-61583473D01*
X125696491Y-61583464D01*
X125503520Y-61472054D01*
X125503502Y-61472045D01*
X125297618Y-61386763D01*
X125082367Y-61329088D01*
X125082354Y-61329085D01*
X124861425Y-61300000D01*
X124638575Y-61300000D01*
X124417645Y-61329085D01*
X124417632Y-61329088D01*
X124202381Y-61386763D01*
X123996497Y-61472045D01*
X123996479Y-61472054D01*
X123803511Y-61583462D01*
X123737595Y-61634042D01*
X124538941Y-62435387D01*
X124518409Y-62440889D01*
X124381592Y-62519881D01*
X124269881Y-62631592D01*
X124190889Y-62768409D01*
X124185387Y-62788940D01*
X123384042Y-61987595D01*
X123333462Y-62053511D01*
X123222054Y-62246479D01*
X123222045Y-62246497D01*
X123136763Y-62452381D01*
X123079088Y-62667632D01*
X123079085Y-62667645D01*
X123050000Y-62888575D01*
X121450499Y-62888575D01*
X121450499Y-61752128D01*
X121444385Y-61695248D01*
X121444385Y-61695246D01*
X121444092Y-61692519D01*
X121393797Y-61557671D01*
X121393793Y-61557664D01*
X121307548Y-61442457D01*
X121307546Y-61442454D01*
X121307542Y-61442451D01*
X121307540Y-61442449D01*
X121300187Y-61436944D01*
X121258317Y-61381009D01*
X121250500Y-61337679D01*
X121250500Y-48576225D01*
X121270185Y-48509186D01*
X121275233Y-48501914D01*
X121319837Y-48442331D01*
X121370132Y-48307483D01*
X121376541Y-48247873D01*
X121376540Y-46888575D01*
X122976041Y-46888575D01*
X122976041Y-47111424D01*
X123005126Y-47332354D01*
X123005129Y-47332367D01*
X123062804Y-47547618D01*
X123148086Y-47753502D01*
X123148095Y-47753520D01*
X123259505Y-47946491D01*
X123259514Y-47946504D01*
X123310081Y-48012403D01*
X123310084Y-48012403D01*
X124111428Y-47211059D01*
X124116930Y-47231591D01*
X124195922Y-47368408D01*
X124307633Y-47480119D01*
X124444450Y-47559111D01*
X124464981Y-47564612D01*
X123663636Y-48365955D01*
X123663636Y-48365956D01*
X123729548Y-48416533D01*
X123922526Y-48527949D01*
X123922538Y-48527954D01*
X124128422Y-48613236D01*
X124343673Y-48670911D01*
X124343686Y-48670914D01*
X124564616Y-48700000D01*
X124787466Y-48700000D01*
X125008395Y-48670914D01*
X125008408Y-48670911D01*
X125223659Y-48613236D01*
X125429543Y-48527954D01*
X125429555Y-48527949D01*
X125622539Y-48416530D01*
X125688444Y-48365957D01*
X125688445Y-48365956D01*
X124887100Y-47564612D01*
X124907632Y-47559111D01*
X125044449Y-47480119D01*
X125156160Y-47368408D01*
X125235152Y-47231591D01*
X125240653Y-47211059D01*
X126041997Y-48012404D01*
X126041998Y-48012403D01*
X126092571Y-47946498D01*
X126203990Y-47753514D01*
X126203995Y-47753502D01*
X126289277Y-47547618D01*
X126346952Y-47332367D01*
X126346955Y-47332354D01*
X126376041Y-47111424D01*
X126376041Y-46888575D01*
X126346955Y-46667645D01*
X126346952Y-46667632D01*
X126289277Y-46452381D01*
X126203995Y-46246497D01*
X126203990Y-46246485D01*
X126092574Y-46053507D01*
X126041997Y-45987595D01*
X126041996Y-45987595D01*
X125240653Y-46788939D01*
X125235152Y-46768409D01*
X125156160Y-46631592D01*
X125044449Y-46519881D01*
X124907632Y-46440889D01*
X124887099Y-46435387D01*
X125688444Y-45634043D01*
X125688444Y-45634040D01*
X125622545Y-45583473D01*
X125622532Y-45583464D01*
X125429561Y-45472054D01*
X125429543Y-45472045D01*
X125223659Y-45386763D01*
X125008408Y-45329088D01*
X125008395Y-45329085D01*
X124787466Y-45300000D01*
X124564616Y-45300000D01*
X124343686Y-45329085D01*
X124343673Y-45329088D01*
X124128422Y-45386763D01*
X123922538Y-45472045D01*
X123922520Y-45472054D01*
X123729552Y-45583462D01*
X123663636Y-45634042D01*
X124464982Y-46435387D01*
X124444450Y-46440889D01*
X124307633Y-46519881D01*
X124195922Y-46631592D01*
X124116930Y-46768409D01*
X124111428Y-46788940D01*
X123310083Y-45987595D01*
X123259503Y-46053511D01*
X123148095Y-46246479D01*
X123148086Y-46246497D01*
X123062804Y-46452381D01*
X123005129Y-46667632D01*
X123005126Y-46667645D01*
X122976041Y-46888575D01*
X121376540Y-46888575D01*
X121376540Y-45752128D01*
X121370426Y-45695248D01*
X121370426Y-45695246D01*
X121370133Y-45692519D01*
X121319838Y-45557671D01*
X121319834Y-45557665D01*
X121275233Y-45498084D01*
X121250816Y-45432620D01*
X121250500Y-45423774D01*
X121250500Y-43098930D01*
X121270185Y-43031891D01*
X121286819Y-43011249D01*
X124394518Y-39903551D01*
X124533343Y-39712474D01*
X124640568Y-39502033D01*
X124713553Y-39277409D01*
X124750500Y-39044137D01*
X124750500Y-34922889D01*
X124770185Y-34855850D01*
X124786819Y-34835208D01*
X125335208Y-34286819D01*
X125396531Y-34253334D01*
X125422889Y-34250500D01*
X129544138Y-34250500D01*
X129650167Y-34233705D01*
X129777409Y-34213553D01*
X129791790Y-34208880D01*
X129798903Y-34206569D01*
X129837223Y-34200499D01*
X130923912Y-34200499D01*
X130923913Y-34200499D01*
X130983524Y-34194091D01*
X131118372Y-34143796D01*
X131233587Y-34057546D01*
X131319837Y-33942331D01*
X131370132Y-33807483D01*
X131376541Y-33747873D01*
X131376540Y-32388575D01*
X132976041Y-32388575D01*
X132976041Y-32611424D01*
X133005126Y-32832354D01*
X133005129Y-32832367D01*
X133062804Y-33047618D01*
X133148086Y-33253502D01*
X133148095Y-33253520D01*
X133259505Y-33446491D01*
X133259514Y-33446504D01*
X133310081Y-33512403D01*
X133310084Y-33512403D01*
X134111428Y-32711059D01*
X134116930Y-32731591D01*
X134195922Y-32868408D01*
X134307633Y-32980119D01*
X134444450Y-33059111D01*
X134464981Y-33064612D01*
X133663636Y-33865955D01*
X133663636Y-33865956D01*
X133729548Y-33916533D01*
X133922526Y-34027949D01*
X133922538Y-34027954D01*
X134128422Y-34113236D01*
X134343673Y-34170911D01*
X134343686Y-34170914D01*
X134564616Y-34200000D01*
X134787466Y-34200000D01*
X135008395Y-34170914D01*
X135008408Y-34170911D01*
X135223659Y-34113236D01*
X135429543Y-34027954D01*
X135429555Y-34027949D01*
X135622539Y-33916530D01*
X135688444Y-33865957D01*
X135688445Y-33865956D01*
X134887100Y-33064612D01*
X134907632Y-33059111D01*
X135044449Y-32980119D01*
X135156160Y-32868408D01*
X135235152Y-32731591D01*
X135240653Y-32711059D01*
X136041997Y-33512404D01*
X136041998Y-33512403D01*
X136092571Y-33446498D01*
X136203990Y-33253514D01*
X136203995Y-33253502D01*
X136289277Y-33047618D01*
X136346952Y-32832367D01*
X136346955Y-32832354D01*
X136376041Y-32611424D01*
X136376041Y-32388575D01*
X136346955Y-32167645D01*
X136346952Y-32167632D01*
X136289277Y-31952381D01*
X136203995Y-31746497D01*
X136203990Y-31746485D01*
X136092574Y-31553507D01*
X136041997Y-31487595D01*
X136041996Y-31487595D01*
X135240653Y-32288939D01*
X135235152Y-32268409D01*
X135156160Y-32131592D01*
X135044449Y-32019881D01*
X134907632Y-31940889D01*
X134887099Y-31935387D01*
X135688444Y-31134043D01*
X135688444Y-31134040D01*
X135622545Y-31083473D01*
X135622532Y-31083464D01*
X135429561Y-30972054D01*
X135429543Y-30972045D01*
X135223659Y-30886763D01*
X135008408Y-30829088D01*
X135008395Y-30829085D01*
X134787466Y-30800000D01*
X134564616Y-30800000D01*
X134343686Y-30829085D01*
X134343673Y-30829088D01*
X134128422Y-30886763D01*
X133922538Y-30972045D01*
X133922520Y-30972054D01*
X133729552Y-31083462D01*
X133663636Y-31134042D01*
X134464982Y-31935387D01*
X134444450Y-31940889D01*
X134307633Y-32019881D01*
X134195922Y-32131592D01*
X134116930Y-32268409D01*
X134111428Y-32288940D01*
X133310083Y-31487595D01*
X133259503Y-31553511D01*
X133148095Y-31746479D01*
X133148086Y-31746497D01*
X133062804Y-31952381D01*
X133005129Y-32167632D01*
X133005126Y-32167645D01*
X132976041Y-32388575D01*
X131376540Y-32388575D01*
X131376540Y-31252128D01*
X131370426Y-31195248D01*
X131370426Y-31195246D01*
X131370133Y-31192519D01*
X131319838Y-31057671D01*
X131319834Y-31057664D01*
X131233588Y-30942455D01*
X131233585Y-30942452D01*
X131118376Y-30856206D01*
X131118369Y-30856202D01*
X130983523Y-30805908D01*
X130983524Y-30805908D01*
X130923924Y-30799501D01*
X130923922Y-30799500D01*
X130923914Y-30799500D01*
X130923905Y-30799500D01*
X128428170Y-30799500D01*
X128428164Y-30799501D01*
X128368557Y-30805908D01*
X128233712Y-30856202D01*
X128233705Y-30856206D01*
X128118496Y-30942452D01*
X128118493Y-30942455D01*
X128032247Y-31057664D01*
X128032243Y-31057671D01*
X127990783Y-31168833D01*
X127948912Y-31224767D01*
X127883448Y-31249184D01*
X127874601Y-31249500D01*
X124631903Y-31249500D01*
X124398631Y-31286446D01*
X124228006Y-31341886D01*
X124186162Y-31355483D01*
X124186159Y-31355484D01*
X124174008Y-31359431D01*
X124174007Y-31359432D01*
X123963565Y-31466657D01*
X123772488Y-31605484D01*
X122105484Y-33272488D01*
X121966659Y-33463562D01*
X121966658Y-33463564D01*
X121929530Y-33536433D01*
X121859433Y-33674003D01*
X121786446Y-33898631D01*
X121749500Y-34131902D01*
X121749500Y-38253151D01*
X121729815Y-38320190D01*
X121713181Y-38340832D01*
X119800701Y-40253312D01*
X119739378Y-40286797D01*
X119669686Y-40281813D01*
X119625339Y-40253312D01*
X111510602Y-32138575D01*
X112800000Y-32138575D01*
X112800000Y-32361424D01*
X112829085Y-32582354D01*
X112829088Y-32582367D01*
X112886763Y-32797618D01*
X112972045Y-33003502D01*
X112972054Y-33003520D01*
X113083464Y-33196491D01*
X113083473Y-33196504D01*
X113134040Y-33262403D01*
X113134043Y-33262403D01*
X113935387Y-32461059D01*
X113940889Y-32481591D01*
X114019881Y-32618408D01*
X114131592Y-32730119D01*
X114268409Y-32809111D01*
X114288940Y-32814612D01*
X113487595Y-33615955D01*
X113487595Y-33615956D01*
X113553507Y-33666533D01*
X113746485Y-33777949D01*
X113746497Y-33777954D01*
X113952381Y-33863236D01*
X114167632Y-33920911D01*
X114167645Y-33920914D01*
X114388575Y-33950000D01*
X114611425Y-33950000D01*
X114832354Y-33920914D01*
X114832367Y-33920911D01*
X115047618Y-33863236D01*
X115253502Y-33777954D01*
X115253514Y-33777949D01*
X115446498Y-33666530D01*
X115512403Y-33615957D01*
X115512404Y-33615956D01*
X114711059Y-32814612D01*
X114731591Y-32809111D01*
X114868408Y-32730119D01*
X114980119Y-32618408D01*
X115059111Y-32481591D01*
X115064612Y-32461059D01*
X115865956Y-33262404D01*
X115865957Y-33262403D01*
X115916530Y-33196498D01*
X116027949Y-33003514D01*
X116027954Y-33003502D01*
X116113236Y-32797618D01*
X116170911Y-32582367D01*
X116170914Y-32582354D01*
X116200000Y-32361424D01*
X116200000Y-32138575D01*
X116170914Y-31917645D01*
X116170911Y-31917632D01*
X116113236Y-31702381D01*
X116027954Y-31496497D01*
X116027949Y-31496485D01*
X115916533Y-31303507D01*
X115865956Y-31237595D01*
X115865955Y-31237595D01*
X115064612Y-32038939D01*
X115059111Y-32018409D01*
X114980119Y-31881592D01*
X114868408Y-31769881D01*
X114731591Y-31690889D01*
X114711058Y-31685387D01*
X115512403Y-30884043D01*
X115512403Y-30884040D01*
X115446504Y-30833473D01*
X115446491Y-30833464D01*
X115253520Y-30722054D01*
X115253502Y-30722045D01*
X115047618Y-30636763D01*
X114832367Y-30579088D01*
X114832354Y-30579085D01*
X114611425Y-30550000D01*
X114388575Y-30550000D01*
X114167645Y-30579085D01*
X114167632Y-30579088D01*
X113952381Y-30636763D01*
X113746497Y-30722045D01*
X113746479Y-30722054D01*
X113553511Y-30833462D01*
X113487595Y-30884042D01*
X114288941Y-31685387D01*
X114268409Y-31690889D01*
X114131592Y-31769881D01*
X114019881Y-31881592D01*
X113940889Y-32018409D01*
X113935387Y-32038940D01*
X113134042Y-31237595D01*
X113083462Y-31303511D01*
X112972054Y-31496479D01*
X112972045Y-31496497D01*
X112886763Y-31702381D01*
X112829088Y-31917632D01*
X112829085Y-31917645D01*
X112800000Y-32138575D01*
X111510602Y-32138575D01*
X111236818Y-31864791D01*
X111203333Y-31803468D01*
X111200499Y-31777110D01*
X111200499Y-31002129D01*
X111200498Y-31002123D01*
X111200497Y-31002116D01*
X111194385Y-30945248D01*
X111194385Y-30945246D01*
X111194092Y-30942519D01*
X111143797Y-30807671D01*
X111143793Y-30807664D01*
X111057547Y-30692455D01*
X111057544Y-30692452D01*
X110942335Y-30606206D01*
X110942328Y-30606202D01*
X110807482Y-30555908D01*
X110807483Y-30555908D01*
X110747883Y-30549501D01*
X110747881Y-30549500D01*
X110747873Y-30549500D01*
X110747864Y-30549500D01*
X108252129Y-30549500D01*
X108252123Y-30549501D01*
X108192516Y-30555908D01*
X108057671Y-30606202D01*
X108057664Y-30606206D01*
X107942455Y-30692452D01*
X107942452Y-30692455D01*
X107856206Y-30807664D01*
X107856202Y-30807671D01*
X107805908Y-30942517D01*
X107802734Y-30972045D01*
X107799501Y-31002123D01*
X107799500Y-31002135D01*
X107799500Y-33497870D01*
X107799501Y-33497876D01*
X107805908Y-33557483D01*
X107856202Y-33692328D01*
X107856206Y-33692335D01*
X107942452Y-33807544D01*
X107942455Y-33807547D01*
X108057664Y-33893793D01*
X108057671Y-33893797D01*
X108192517Y-33944091D01*
X108192516Y-33944091D01*
X108199444Y-33944835D01*
X108252127Y-33950500D01*
X109027110Y-33950499D01*
X109094149Y-33970183D01*
X109114791Y-33986818D01*
X118213181Y-43085208D01*
X118246666Y-43146531D01*
X118249500Y-43172889D01*
X118249500Y-45282314D01*
X118229815Y-45349353D01*
X118199811Y-45381580D01*
X118118496Y-45442452D01*
X118118493Y-45442455D01*
X118032247Y-45557664D01*
X118032243Y-45557671D01*
X117981949Y-45692517D01*
X117975542Y-45752116D01*
X117975542Y-45752123D01*
X117975541Y-45752135D01*
X117975541Y-48247870D01*
X117975542Y-48247876D01*
X117981949Y-48307483D01*
X118032243Y-48442328D01*
X118032247Y-48442335D01*
X118118492Y-48557543D01*
X118118493Y-48557544D01*
X118118495Y-48557546D01*
X118199813Y-48618420D01*
X118241682Y-48674352D01*
X118249500Y-48717685D01*
X118249500Y-61337679D01*
X118229815Y-61404718D01*
X118199813Y-61436944D01*
X118192459Y-61442449D01*
X118192451Y-61442457D01*
X118106206Y-61557664D01*
X118106202Y-61557671D01*
X118055908Y-61692517D01*
X118049501Y-61752116D01*
X118049501Y-61752123D01*
X118049500Y-61752135D01*
X118049500Y-64247870D01*
X118049501Y-64247876D01*
X118055908Y-64307483D01*
X118106202Y-64442328D01*
X118106203Y-64442329D01*
X118106204Y-64442331D01*
X118175614Y-64535051D01*
X118192454Y-64557546D01*
X118199808Y-64563051D01*
X118241681Y-64618983D01*
X118249500Y-64662320D01*
X118249500Y-77337679D01*
X118229815Y-77404718D01*
X118199813Y-77436944D01*
X118192459Y-77442449D01*
X118192451Y-77442457D01*
X118106206Y-77557664D01*
X118106202Y-77557671D01*
X118055908Y-77692517D01*
X118052046Y-77728443D01*
X118049501Y-77752123D01*
X118049500Y-77752135D01*
X118049500Y-80247870D01*
X118049501Y-80247876D01*
X118055908Y-80307483D01*
X118106202Y-80442328D01*
X118106206Y-80442335D01*
X118192452Y-80557544D01*
X118192455Y-80557547D01*
X118307664Y-80643793D01*
X118307671Y-80643797D01*
X118442517Y-80694091D01*
X118442516Y-80694091D01*
X118449444Y-80694835D01*
X118502127Y-80700500D01*
X119277110Y-80700499D01*
X119344149Y-80720183D01*
X119364791Y-80736818D01*
X125608281Y-86980308D01*
X125641766Y-87041631D01*
X125644600Y-87067989D01*
X125644600Y-88682011D01*
X125624915Y-88749050D01*
X125608281Y-88769692D01*
X123605485Y-90772487D01*
X123605484Y-90772488D01*
X123466659Y-90963562D01*
X123466658Y-90963564D01*
X123438948Y-91017949D01*
X123359433Y-91174003D01*
X123286446Y-91398631D01*
X123249500Y-91631902D01*
X123249500Y-95118097D01*
X123286446Y-95351368D01*
X123359433Y-95575996D01*
X123440273Y-95734651D01*
X123466657Y-95786433D01*
X123605483Y-95977510D01*
X123772490Y-96144517D01*
X123963567Y-96283343D01*
X124062991Y-96334002D01*
X124174003Y-96390566D01*
X124174005Y-96390566D01*
X124174008Y-96390568D01*
X124208269Y-96401700D01*
X124398631Y-96463553D01*
X124631903Y-96500500D01*
X124631908Y-96500500D01*
X125577111Y-96500500D01*
X125644150Y-96520185D01*
X125664792Y-96536819D01*
X130363909Y-101235936D01*
X130397394Y-101297259D01*
X130392410Y-101366951D01*
X130358171Y-101416090D01*
X130358250Y-101416169D01*
X130357811Y-101416607D01*
X130357122Y-101417597D01*
X130354967Y-101419451D01*
X130169450Y-101604968D01*
X130013651Y-101816071D01*
X129891061Y-102048021D01*
X129891059Y-102048024D01*
X129891059Y-102048026D01*
X129847732Y-102171846D01*
X129804404Y-102295672D01*
X129804403Y-102295677D01*
X129755631Y-102553445D01*
X129755630Y-102553458D01*
X129749500Y-102662610D01*
X129749500Y-105337389D01*
X129755630Y-105446541D01*
X129755631Y-105446554D01*
X129804403Y-105704322D01*
X129804404Y-105704327D01*
X129804405Y-105704332D01*
X129804406Y-105704333D01*
X129891059Y-105951974D01*
X130013654Y-106183933D01*
X130169208Y-106394703D01*
X130169450Y-106395031D01*
X130257532Y-106483113D01*
X130291017Y-106544436D01*
X130286033Y-106614128D01*
X130244161Y-106670061D01*
X130178697Y-106694478D01*
X130170689Y-106694791D01*
X122074333Y-106749497D01*
X122073495Y-106749500D01*
X114274736Y-106749500D01*
X114207697Y-106729815D01*
X114161942Y-106677011D01*
X114151998Y-106607853D01*
X114181023Y-106544297D01*
X114187055Y-106537819D01*
X114330170Y-106394703D01*
X114485919Y-106183669D01*
X114485923Y-106183663D01*
X114608480Y-105951775D01*
X114695110Y-105704202D01*
X114695112Y-105704192D01*
X114743871Y-105446496D01*
X114743872Y-105446489D01*
X114749999Y-105337380D01*
X114750000Y-105337364D01*
X114750000Y-104250000D01*
X109374000Y-104250000D01*
X109306961Y-104230315D01*
X109261206Y-104177511D01*
X109250000Y-104126000D01*
X109250000Y-104000000D01*
X109124000Y-104000000D01*
X109056961Y-103980315D01*
X109011206Y-103927511D01*
X109000000Y-103876000D01*
X109000000Y-103750000D01*
X109500000Y-103750000D01*
X114749999Y-103750000D01*
X114749999Y-103378711D01*
X120649500Y-103378711D01*
X120649500Y-103621288D01*
X120681161Y-103861785D01*
X120743947Y-104096104D01*
X120807693Y-104250000D01*
X120836776Y-104320212D01*
X120958064Y-104530289D01*
X120958066Y-104530292D01*
X120958067Y-104530293D01*
X121105733Y-104722736D01*
X121105739Y-104722743D01*
X121277256Y-104894260D01*
X121277262Y-104894265D01*
X121469711Y-105041936D01*
X121679788Y-105163224D01*
X121903900Y-105256054D01*
X122138211Y-105318838D01*
X122318586Y-105342584D01*
X122378711Y-105350500D01*
X122378712Y-105350500D01*
X122621289Y-105350500D01*
X122669388Y-105344167D01*
X122861789Y-105318838D01*
X123096100Y-105256054D01*
X123320212Y-105163224D01*
X123530289Y-105041936D01*
X123722738Y-104894265D01*
X123894265Y-104722738D01*
X124041936Y-104530289D01*
X124163224Y-104320212D01*
X124256054Y-104096100D01*
X124318838Y-103861789D01*
X124350500Y-103621288D01*
X124350500Y-103378712D01*
X124318838Y-103138211D01*
X124256054Y-102903900D01*
X124163224Y-102679788D01*
X124041936Y-102469711D01*
X123908495Y-102295807D01*
X123894266Y-102277263D01*
X123894260Y-102277256D01*
X123722743Y-102105739D01*
X123722736Y-102105733D01*
X123530293Y-101958067D01*
X123530292Y-101958066D01*
X123530289Y-101958064D01*
X123320212Y-101836776D01*
X123320205Y-101836773D01*
X123096104Y-101743947D01*
X122861785Y-101681161D01*
X122621289Y-101649500D01*
X122621288Y-101649500D01*
X122378712Y-101649500D01*
X122378711Y-101649500D01*
X122138214Y-101681161D01*
X121903895Y-101743947D01*
X121679794Y-101836773D01*
X121679785Y-101836777D01*
X121469706Y-101958067D01*
X121277263Y-102105733D01*
X121277256Y-102105739D01*
X121105739Y-102277256D01*
X121105733Y-102277263D01*
X120958067Y-102469706D01*
X120836777Y-102679785D01*
X120836773Y-102679794D01*
X120743947Y-102903895D01*
X120681161Y-103138214D01*
X120649500Y-103378711D01*
X114749999Y-103378711D01*
X114749999Y-102662638D01*
X114749998Y-102662618D01*
X114743872Y-102553512D01*
X114743871Y-102553504D01*
X114695112Y-102295807D01*
X114695110Y-102295797D01*
X114608480Y-102048224D01*
X114485923Y-101816336D01*
X114485919Y-101816330D01*
X114330170Y-101605296D01*
X114144703Y-101419829D01*
X113933669Y-101264080D01*
X113933663Y-101264076D01*
X113701775Y-101141519D01*
X113454202Y-101054889D01*
X113454192Y-101054887D01*
X113196496Y-101006128D01*
X113196489Y-101006127D01*
X113087380Y-101000000D01*
X109500000Y-101000000D01*
X109500000Y-103750000D01*
X109000000Y-103750000D01*
X109000000Y-101000000D01*
X105412638Y-101000000D01*
X105412618Y-101000001D01*
X105303512Y-101006127D01*
X105303504Y-101006128D01*
X105045807Y-101054887D01*
X105045797Y-101054889D01*
X104798224Y-101141519D01*
X104566336Y-101264076D01*
X104566330Y-101264080D01*
X104355296Y-101419829D01*
X104212181Y-101562945D01*
X104150858Y-101596430D01*
X104081166Y-101591446D01*
X104025233Y-101549574D01*
X104000816Y-101484110D01*
X104000500Y-101475264D01*
X104000500Y-85852135D01*
X104649500Y-85852135D01*
X104649500Y-87647870D01*
X104649501Y-87647876D01*
X104655908Y-87707483D01*
X104706202Y-87842328D01*
X104706206Y-87842335D01*
X104792452Y-87957544D01*
X104792455Y-87957547D01*
X104907664Y-88043793D01*
X104907671Y-88043797D01*
X105039082Y-88092810D01*
X105095016Y-88134681D01*
X105119433Y-88200145D01*
X105104582Y-88268418D01*
X105083431Y-88296673D01*
X104969889Y-88410215D01*
X104844951Y-88582179D01*
X104748444Y-88771585D01*
X104682753Y-88973760D01*
X104649500Y-89183713D01*
X104649500Y-89396286D01*
X104673257Y-89546286D01*
X104682754Y-89606243D01*
X104731492Y-89756243D01*
X104748444Y-89808414D01*
X104844951Y-89997820D01*
X104969890Y-90169786D01*
X105120213Y-90320109D01*
X105292182Y-90445050D01*
X105300946Y-90449516D01*
X105351742Y-90497491D01*
X105368536Y-90565312D01*
X105345998Y-90631447D01*
X105300946Y-90670484D01*
X105292182Y-90674949D01*
X105120213Y-90799890D01*
X104969890Y-90950213D01*
X104844951Y-91122179D01*
X104748444Y-91311585D01*
X104682753Y-91513760D01*
X104649500Y-91723713D01*
X104649500Y-91936286D01*
X104673257Y-92086286D01*
X104682754Y-92146243D01*
X104731492Y-92296243D01*
X104748444Y-92348414D01*
X104844951Y-92537820D01*
X104969890Y-92709786D01*
X105120213Y-92860109D01*
X105292182Y-92985050D01*
X105300946Y-92989516D01*
X105351742Y-93037491D01*
X105368536Y-93105312D01*
X105345998Y-93171447D01*
X105300946Y-93210484D01*
X105292182Y-93214949D01*
X105120213Y-93339890D01*
X104969890Y-93490213D01*
X104844951Y-93662179D01*
X104748444Y-93851585D01*
X104682753Y-94053760D01*
X104649500Y-94263713D01*
X104649500Y-94476286D01*
X104680460Y-94671763D01*
X104682754Y-94686243D01*
X104734823Y-94846495D01*
X104748444Y-94888414D01*
X104844951Y-95077820D01*
X104969890Y-95249786D01*
X105120213Y-95400109D01*
X105292179Y-95525048D01*
X105292181Y-95525049D01*
X105292184Y-95525051D01*
X105481588Y-95621557D01*
X105683757Y-95687246D01*
X105893713Y-95720500D01*
X105893714Y-95720500D01*
X106106286Y-95720500D01*
X106106287Y-95720500D01*
X106316243Y-95687246D01*
X106518412Y-95621557D01*
X106707816Y-95525051D01*
X106738028Y-95503101D01*
X106879786Y-95400109D01*
X106879788Y-95400106D01*
X106879792Y-95400104D01*
X107030104Y-95249792D01*
X107030106Y-95249788D01*
X107030109Y-95249786D01*
X107155048Y-95077820D01*
X107155047Y-95077820D01*
X107155051Y-95077816D01*
X107251557Y-94888412D01*
X107287070Y-94779114D01*
X107326506Y-94721441D01*
X107390865Y-94694242D01*
X107459711Y-94706157D01*
X107511187Y-94753401D01*
X107522928Y-94779111D01*
X107552461Y-94870000D01*
X107558444Y-94888414D01*
X107654951Y-95077820D01*
X107779890Y-95249786D01*
X107930213Y-95400109D01*
X108102179Y-95525048D01*
X108102181Y-95525049D01*
X108102184Y-95525051D01*
X108291588Y-95621557D01*
X108493757Y-95687246D01*
X108703713Y-95720500D01*
X108703714Y-95720500D01*
X108916286Y-95720500D01*
X108916287Y-95720500D01*
X109126243Y-95687246D01*
X109328412Y-95621557D01*
X109517816Y-95525051D01*
X109548028Y-95503101D01*
X109689786Y-95400109D01*
X109689788Y-95400106D01*
X109689792Y-95400104D01*
X109840104Y-95249792D01*
X109840106Y-95249788D01*
X109840109Y-95249786D01*
X109965048Y-95077820D01*
X109965047Y-95077820D01*
X109965051Y-95077816D01*
X110061557Y-94888412D01*
X110097332Y-94778306D01*
X110136768Y-94720634D01*
X110201127Y-94693435D01*
X110269973Y-94705349D01*
X110321449Y-94752593D01*
X110333193Y-94778309D01*
X110368904Y-94888217D01*
X110465379Y-95077557D01*
X110590272Y-95249459D01*
X110590276Y-95249464D01*
X110740535Y-95399723D01*
X110740540Y-95399727D01*
X110912442Y-95524620D01*
X111101782Y-95621095D01*
X111303871Y-95686757D01*
X111370000Y-95697231D01*
X111370000Y-94803012D01*
X111427007Y-94835925D01*
X111554174Y-94870000D01*
X111685826Y-94870000D01*
X111812993Y-94835925D01*
X111870000Y-94803012D01*
X111870000Y-95697230D01*
X111936126Y-95686757D01*
X111936129Y-95686757D01*
X112138217Y-95621095D01*
X112327557Y-95524620D01*
X112499459Y-95399727D01*
X112499464Y-95399723D01*
X112649723Y-95249464D01*
X112649727Y-95249459D01*
X112774620Y-95077557D01*
X112870347Y-94889684D01*
X118348300Y-94889684D01*
X118348300Y-95110315D01*
X118382815Y-95328233D01*
X118382815Y-95328236D01*
X118450992Y-95538063D01*
X118551157Y-95734647D01*
X118597715Y-95798730D01*
X119150718Y-95245727D01*
X119176016Y-95306801D01*
X119246899Y-95412885D01*
X119337115Y-95503101D01*
X119443199Y-95573984D01*
X119504271Y-95599280D01*
X118951268Y-96152282D01*
X118951268Y-96152283D01*
X119015352Y-96198842D01*
X119211936Y-96299007D01*
X119421764Y-96367184D01*
X119639685Y-96401700D01*
X119860315Y-96401700D01*
X120078233Y-96367184D01*
X120078236Y-96367184D01*
X120288063Y-96299007D01*
X120484651Y-96198840D01*
X120548730Y-96152283D01*
X120548731Y-96152283D01*
X119995728Y-95599281D01*
X120056801Y-95573984D01*
X120162885Y-95503101D01*
X120253101Y-95412885D01*
X120323984Y-95306801D01*
X120349280Y-95245728D01*
X120902283Y-95798731D01*
X120902283Y-95798730D01*
X120948840Y-95734651D01*
X121049007Y-95538063D01*
X121117184Y-95328236D01*
X121117184Y-95328233D01*
X121151700Y-95110315D01*
X121151700Y-94889684D01*
X121117184Y-94671766D01*
X121117184Y-94671763D01*
X121049007Y-94461936D01*
X120948842Y-94265352D01*
X120902283Y-94201268D01*
X120902282Y-94201268D01*
X120349280Y-94754270D01*
X120323984Y-94693199D01*
X120253101Y-94587115D01*
X120162885Y-94496899D01*
X120056801Y-94426016D01*
X119995726Y-94400718D01*
X120548730Y-93847715D01*
X120484647Y-93801157D01*
X120288063Y-93700992D01*
X120078235Y-93632815D01*
X119860315Y-93598300D01*
X119639685Y-93598300D01*
X119421766Y-93632815D01*
X119421763Y-93632815D01*
X119211936Y-93700992D01*
X119015342Y-93801162D01*
X118951268Y-93847714D01*
X118951268Y-93847715D01*
X119504271Y-94400718D01*
X119443199Y-94426016D01*
X119337115Y-94496899D01*
X119246899Y-94587115D01*
X119176016Y-94693199D01*
X119150718Y-94754271D01*
X118597715Y-94201268D01*
X118597714Y-94201268D01*
X118551162Y-94265342D01*
X118450992Y-94461936D01*
X118382815Y-94671763D01*
X118382815Y-94671766D01*
X118348300Y-94889684D01*
X112870347Y-94889684D01*
X112871096Y-94888215D01*
X112884652Y-94846495D01*
X112884652Y-94846494D01*
X112936757Y-94686129D01*
X112936757Y-94686126D01*
X112947231Y-94620000D01*
X112053012Y-94620000D01*
X112085925Y-94562993D01*
X112120000Y-94435826D01*
X112120000Y-94304174D01*
X112085925Y-94177007D01*
X112053012Y-94120000D01*
X112947231Y-94120000D01*
X112936757Y-94053873D01*
X112936757Y-94053870D01*
X112897579Y-93933292D01*
X112897578Y-93933290D01*
X112871096Y-93851784D01*
X112774620Y-93662442D01*
X112649727Y-93490540D01*
X112649723Y-93490535D01*
X112499464Y-93340276D01*
X112499459Y-93340272D01*
X112327558Y-93215379D01*
X112317954Y-93210486D01*
X112267157Y-93162512D01*
X112250361Y-93094692D01*
X112272897Y-93028556D01*
X112317954Y-92989514D01*
X112327558Y-92984620D01*
X112499459Y-92859727D01*
X112499464Y-92859723D01*
X112649723Y-92709464D01*
X112649727Y-92709459D01*
X112774620Y-92537557D01*
X112871095Y-92348217D01*
X112936757Y-92146129D01*
X112936757Y-92146126D01*
X112947231Y-92080000D01*
X112053012Y-92080000D01*
X112085925Y-92022993D01*
X112120000Y-91895826D01*
X112120000Y-91764174D01*
X112085925Y-91637007D01*
X112053012Y-91580000D01*
X112947231Y-91580000D01*
X112936757Y-91513873D01*
X112936757Y-91513870D01*
X112871095Y-91311782D01*
X112774620Y-91122442D01*
X112649727Y-90950540D01*
X112649723Y-90950535D01*
X112499464Y-90800276D01*
X112499459Y-90800272D01*
X112327558Y-90675379D01*
X112317954Y-90670486D01*
X112267157Y-90622512D01*
X112250361Y-90554692D01*
X112272897Y-90488556D01*
X112317954Y-90449514D01*
X112327558Y-90444620D01*
X112499459Y-90319727D01*
X112499464Y-90319723D01*
X112649723Y-90169464D01*
X112649727Y-90169459D01*
X112774620Y-89997557D01*
X112871095Y-89808217D01*
X112936757Y-89606129D01*
X112936757Y-89606126D01*
X112947231Y-89540000D01*
X112053012Y-89540000D01*
X112085925Y-89482993D01*
X112120000Y-89355826D01*
X112120000Y-89224174D01*
X112085925Y-89097007D01*
X112053012Y-89040000D01*
X112947231Y-89040000D01*
X112936757Y-88973873D01*
X112936757Y-88973870D01*
X112871095Y-88771782D01*
X112774620Y-88582442D01*
X112649727Y-88410540D01*
X112649723Y-88410535D01*
X112535665Y-88296477D01*
X112502180Y-88235154D01*
X112507164Y-88165462D01*
X112549036Y-88109529D01*
X112580013Y-88092614D01*
X112712086Y-88043354D01*
X112712093Y-88043350D01*
X112827187Y-87957190D01*
X112827190Y-87957187D01*
X112913350Y-87842093D01*
X112913354Y-87842086D01*
X112963596Y-87707379D01*
X112963598Y-87707372D01*
X112969999Y-87647844D01*
X112970000Y-87647827D01*
X112970000Y-87000000D01*
X112053012Y-87000000D01*
X112085925Y-86942993D01*
X112120000Y-86815826D01*
X112120000Y-86684174D01*
X112085925Y-86557007D01*
X112053012Y-86500000D01*
X112970000Y-86500000D01*
X112970000Y-85852172D01*
X112969999Y-85852155D01*
X112963598Y-85792627D01*
X112963596Y-85792620D01*
X112913354Y-85657913D01*
X112913350Y-85657906D01*
X112827190Y-85542812D01*
X112827187Y-85542809D01*
X112712093Y-85456649D01*
X112712086Y-85456645D01*
X112577379Y-85406403D01*
X112577372Y-85406401D01*
X112517844Y-85400000D01*
X111870000Y-85400000D01*
X111870000Y-86316988D01*
X111812993Y-86284075D01*
X111685826Y-86250000D01*
X111554174Y-86250000D01*
X111427007Y-86284075D01*
X111370000Y-86316988D01*
X111370000Y-85400000D01*
X110722155Y-85400000D01*
X110662627Y-85406401D01*
X110662620Y-85406403D01*
X110527913Y-85456645D01*
X110527906Y-85456649D01*
X110412812Y-85542809D01*
X110412809Y-85542812D01*
X110326644Y-85657912D01*
X110324115Y-85662545D01*
X110274707Y-85711947D01*
X110206433Y-85726794D01*
X110140970Y-85702373D01*
X110106455Y-85662537D01*
X110103796Y-85657668D01*
X110017547Y-85542455D01*
X110017544Y-85542452D01*
X109902335Y-85456206D01*
X109902328Y-85456202D01*
X109767482Y-85405908D01*
X109767483Y-85405908D01*
X109707883Y-85399501D01*
X109707881Y-85399500D01*
X109707873Y-85399500D01*
X109707864Y-85399500D01*
X107912129Y-85399500D01*
X107912123Y-85399501D01*
X107852516Y-85405908D01*
X107717671Y-85456202D01*
X107717664Y-85456206D01*
X107602455Y-85542452D01*
X107602452Y-85542455D01*
X107516206Y-85657665D01*
X107513830Y-85662016D01*
X107464422Y-85711419D01*
X107396148Y-85726268D01*
X107330685Y-85701848D01*
X107296170Y-85662016D01*
X107293797Y-85657673D01*
X107293796Y-85657669D01*
X107266304Y-85620945D01*
X107207547Y-85542455D01*
X107207544Y-85542452D01*
X107092335Y-85456206D01*
X107092328Y-85456202D01*
X106957482Y-85405908D01*
X106957483Y-85405908D01*
X106897883Y-85399501D01*
X106897881Y-85399500D01*
X106897873Y-85399500D01*
X106897864Y-85399500D01*
X105102129Y-85399500D01*
X105102123Y-85399501D01*
X105042516Y-85405908D01*
X104907671Y-85456202D01*
X104907664Y-85456206D01*
X104792455Y-85542452D01*
X104792452Y-85542455D01*
X104706206Y-85657664D01*
X104706202Y-85657671D01*
X104655908Y-85792517D01*
X104649501Y-85852116D01*
X104649500Y-85852135D01*
X104000500Y-85852135D01*
X104000500Y-73062135D01*
X104649500Y-73062135D01*
X104649500Y-74857870D01*
X104649501Y-74857876D01*
X104655908Y-74917483D01*
X104706202Y-75052328D01*
X104706206Y-75052335D01*
X104792452Y-75167544D01*
X104792455Y-75167547D01*
X104907664Y-75253793D01*
X104907671Y-75253797D01*
X105039082Y-75302810D01*
X105095016Y-75344681D01*
X105119433Y-75410145D01*
X105104582Y-75478418D01*
X105083431Y-75506673D01*
X104969889Y-75620215D01*
X104844951Y-75792179D01*
X104748444Y-75981585D01*
X104682753Y-76183760D01*
X104649500Y-76393713D01*
X104649500Y-76606286D01*
X104677026Y-76780082D01*
X104682754Y-76816243D01*
X104728948Y-76958414D01*
X104748444Y-77018414D01*
X104844951Y-77207820D01*
X104969890Y-77379786D01*
X105120213Y-77530109D01*
X105292182Y-77655050D01*
X105300946Y-77659516D01*
X105351742Y-77707491D01*
X105368536Y-77775312D01*
X105345998Y-77841447D01*
X105300946Y-77880484D01*
X105292182Y-77884949D01*
X105120213Y-78009890D01*
X104969890Y-78160213D01*
X104844951Y-78332179D01*
X104748444Y-78521585D01*
X104682753Y-78723760D01*
X104649500Y-78933713D01*
X104649500Y-79146286D01*
X104677026Y-79320082D01*
X104682754Y-79356243D01*
X104728948Y-79498414D01*
X104748444Y-79558414D01*
X104844951Y-79747820D01*
X104969890Y-79919786D01*
X105120213Y-80070109D01*
X105292182Y-80195050D01*
X105300946Y-80199516D01*
X105351742Y-80247491D01*
X105368536Y-80315312D01*
X105345998Y-80381447D01*
X105300946Y-80420484D01*
X105292182Y-80424949D01*
X105120213Y-80549890D01*
X104969890Y-80700213D01*
X104844951Y-80872179D01*
X104748444Y-81061585D01*
X104682753Y-81263760D01*
X104649500Y-81473713D01*
X104649500Y-81686286D01*
X104677026Y-81860082D01*
X104682754Y-81896243D01*
X104728948Y-82038414D01*
X104748444Y-82098414D01*
X104844951Y-82287820D01*
X104969890Y-82459786D01*
X105120213Y-82610109D01*
X105292179Y-82735048D01*
X105292181Y-82735049D01*
X105292184Y-82735051D01*
X105481588Y-82831557D01*
X105683757Y-82897246D01*
X105893713Y-82930500D01*
X105893714Y-82930500D01*
X106106286Y-82930500D01*
X106106287Y-82930500D01*
X106316243Y-82897246D01*
X106518412Y-82831557D01*
X106707816Y-82735051D01*
X106729789Y-82719086D01*
X106879786Y-82610109D01*
X106879788Y-82610106D01*
X106879792Y-82610104D01*
X107030104Y-82459792D01*
X107030106Y-82459788D01*
X107030109Y-82459786D01*
X107155048Y-82287820D01*
X107155047Y-82287820D01*
X107155051Y-82287816D01*
X107251557Y-82098412D01*
X107287070Y-81989114D01*
X107326506Y-81931441D01*
X107390865Y-81904242D01*
X107459711Y-81916157D01*
X107511187Y-81963401D01*
X107522928Y-81989111D01*
X107541389Y-82045925D01*
X107558444Y-82098414D01*
X107654951Y-82287820D01*
X107779890Y-82459786D01*
X107930213Y-82610109D01*
X108102179Y-82735048D01*
X108102181Y-82735049D01*
X108102184Y-82735051D01*
X108291588Y-82831557D01*
X108493757Y-82897246D01*
X108703713Y-82930500D01*
X108703714Y-82930500D01*
X108916286Y-82930500D01*
X108916287Y-82930500D01*
X109126243Y-82897246D01*
X109328412Y-82831557D01*
X109517816Y-82735051D01*
X109539789Y-82719086D01*
X109689786Y-82610109D01*
X109689788Y-82610106D01*
X109689792Y-82610104D01*
X109840104Y-82459792D01*
X109840106Y-82459788D01*
X109840109Y-82459786D01*
X109965048Y-82287820D01*
X109965047Y-82287820D01*
X109965051Y-82287816D01*
X110061557Y-82098412D01*
X110097332Y-81988306D01*
X110136768Y-81930634D01*
X110201127Y-81903435D01*
X110269973Y-81915349D01*
X110321449Y-81962593D01*
X110333193Y-81988309D01*
X110368904Y-82098217D01*
X110465379Y-82287557D01*
X110590272Y-82459459D01*
X110590276Y-82459464D01*
X110740535Y-82609723D01*
X110740540Y-82609727D01*
X110912442Y-82734620D01*
X111101782Y-82831095D01*
X111303871Y-82896757D01*
X111370000Y-82907231D01*
X111370000Y-82013012D01*
X111427007Y-82045925D01*
X111554174Y-82080000D01*
X111685826Y-82080000D01*
X111812993Y-82045925D01*
X111870000Y-82013012D01*
X111870000Y-82907230D01*
X111936126Y-82896757D01*
X111936129Y-82896757D01*
X112138217Y-82831095D01*
X112327557Y-82734620D01*
X112499459Y-82609727D01*
X112499464Y-82609723D01*
X112649723Y-82459464D01*
X112649727Y-82459459D01*
X112774620Y-82287557D01*
X112871095Y-82098217D01*
X112936757Y-81896129D01*
X112936757Y-81896126D01*
X112947231Y-81830000D01*
X112053012Y-81830000D01*
X112085925Y-81772993D01*
X112120000Y-81645826D01*
X112120000Y-81514174D01*
X112085925Y-81387007D01*
X112053012Y-81330000D01*
X112947231Y-81330000D01*
X112936757Y-81263873D01*
X112936757Y-81263870D01*
X112871095Y-81061782D01*
X112774620Y-80872442D01*
X112649727Y-80700540D01*
X112649723Y-80700535D01*
X112499464Y-80550276D01*
X112499459Y-80550272D01*
X112327558Y-80425379D01*
X112317954Y-80420486D01*
X112267157Y-80372512D01*
X112250361Y-80304692D01*
X112272897Y-80238556D01*
X112317954Y-80199514D01*
X112327558Y-80194620D01*
X112499459Y-80069727D01*
X112499464Y-80069723D01*
X112649723Y-79919464D01*
X112649727Y-79919459D01*
X112774620Y-79747557D01*
X112871095Y-79558217D01*
X112936757Y-79356129D01*
X112936757Y-79356126D01*
X112947231Y-79290000D01*
X112053012Y-79290000D01*
X112085925Y-79232993D01*
X112120000Y-79105826D01*
X112120000Y-78974174D01*
X112085925Y-78847007D01*
X112053012Y-78790000D01*
X112947231Y-78790000D01*
X112936757Y-78723873D01*
X112936757Y-78723870D01*
X112871095Y-78521782D01*
X112774620Y-78332442D01*
X112649727Y-78160540D01*
X112649723Y-78160535D01*
X112499464Y-78010276D01*
X112499459Y-78010272D01*
X112327558Y-77885379D01*
X112317954Y-77880486D01*
X112267157Y-77832512D01*
X112250361Y-77764692D01*
X112272897Y-77698556D01*
X112317954Y-77659514D01*
X112327558Y-77654620D01*
X112499459Y-77529727D01*
X112499464Y-77529723D01*
X112649723Y-77379464D01*
X112649727Y-77379459D01*
X112774620Y-77207557D01*
X112871095Y-77018217D01*
X112936757Y-76816129D01*
X112936757Y-76816126D01*
X112947231Y-76750000D01*
X112053012Y-76750000D01*
X112085925Y-76692993D01*
X112120000Y-76565826D01*
X112120000Y-76434174D01*
X112085925Y-76307007D01*
X112053012Y-76250000D01*
X112947231Y-76250000D01*
X112936757Y-76183873D01*
X112936757Y-76183870D01*
X112871095Y-75981782D01*
X112774620Y-75792442D01*
X112649727Y-75620540D01*
X112649723Y-75620535D01*
X112535665Y-75506477D01*
X112502180Y-75445154D01*
X112507164Y-75375462D01*
X112549036Y-75319529D01*
X112580013Y-75302614D01*
X112712086Y-75253354D01*
X112712093Y-75253350D01*
X112827187Y-75167190D01*
X112827190Y-75167187D01*
X112913350Y-75052093D01*
X112913354Y-75052086D01*
X112963596Y-74917379D01*
X112963598Y-74917372D01*
X112969999Y-74857844D01*
X112970000Y-74857827D01*
X112970000Y-74210000D01*
X112053012Y-74210000D01*
X112085925Y-74152993D01*
X112120000Y-74025826D01*
X112120000Y-73894174D01*
X112085925Y-73767007D01*
X112053012Y-73710000D01*
X112970000Y-73710000D01*
X112970000Y-73062172D01*
X112969999Y-73062155D01*
X112963598Y-73002627D01*
X112963596Y-73002620D01*
X112913354Y-72867913D01*
X112913350Y-72867906D01*
X112827190Y-72752812D01*
X112827187Y-72752809D01*
X112712093Y-72666649D01*
X112712086Y-72666645D01*
X112577379Y-72616403D01*
X112577372Y-72616401D01*
X112517844Y-72610000D01*
X111870000Y-72610000D01*
X111870000Y-73526988D01*
X111812993Y-73494075D01*
X111685826Y-73460000D01*
X111554174Y-73460000D01*
X111427007Y-73494075D01*
X111370000Y-73526988D01*
X111370000Y-72610000D01*
X110722155Y-72610000D01*
X110662627Y-72616401D01*
X110662620Y-72616403D01*
X110527913Y-72666645D01*
X110527906Y-72666649D01*
X110412812Y-72752809D01*
X110412809Y-72752812D01*
X110326644Y-72867912D01*
X110324115Y-72872545D01*
X110274707Y-72921947D01*
X110206433Y-72936794D01*
X110140970Y-72912373D01*
X110106455Y-72872537D01*
X110103796Y-72867668D01*
X110017547Y-72752455D01*
X110017544Y-72752452D01*
X109902335Y-72666206D01*
X109902328Y-72666202D01*
X109767482Y-72615908D01*
X109767483Y-72615908D01*
X109707883Y-72609501D01*
X109707881Y-72609500D01*
X109707873Y-72609500D01*
X109707864Y-72609500D01*
X107912129Y-72609500D01*
X107912123Y-72609501D01*
X107852516Y-72615908D01*
X107717671Y-72666202D01*
X107717664Y-72666206D01*
X107602455Y-72752452D01*
X107602452Y-72752455D01*
X107516206Y-72867665D01*
X107513830Y-72872016D01*
X107464422Y-72921419D01*
X107396148Y-72936268D01*
X107330685Y-72911848D01*
X107296170Y-72872016D01*
X107293797Y-72867673D01*
X107293796Y-72867669D01*
X107249063Y-72807913D01*
X107207547Y-72752455D01*
X107207544Y-72752452D01*
X107092335Y-72666206D01*
X107092328Y-72666202D01*
X106957482Y-72615908D01*
X106957483Y-72615908D01*
X106897883Y-72609501D01*
X106897881Y-72609500D01*
X106897873Y-72609500D01*
X106897864Y-72609500D01*
X105102129Y-72609500D01*
X105102123Y-72609501D01*
X105042516Y-72615908D01*
X104907671Y-72666202D01*
X104907664Y-72666206D01*
X104792455Y-72752452D01*
X104792452Y-72752455D01*
X104706206Y-72867664D01*
X104706202Y-72867671D01*
X104655908Y-73002517D01*
X104649501Y-73062116D01*
X104649500Y-73062135D01*
X104000500Y-73062135D01*
X104000500Y-57352135D01*
X104649500Y-57352135D01*
X104649500Y-59147870D01*
X104649501Y-59147876D01*
X104655908Y-59207483D01*
X104706202Y-59342328D01*
X104706206Y-59342335D01*
X104792452Y-59457544D01*
X104792455Y-59457547D01*
X104907664Y-59543793D01*
X104907671Y-59543797D01*
X105039082Y-59592810D01*
X105095016Y-59634681D01*
X105119433Y-59700145D01*
X105104582Y-59768418D01*
X105083431Y-59796673D01*
X104969889Y-59910215D01*
X104844951Y-60082179D01*
X104748444Y-60271585D01*
X104682753Y-60473760D01*
X104672262Y-60540000D01*
X104649500Y-60683713D01*
X104649500Y-60896287D01*
X104682754Y-61106243D01*
X104712930Y-61199116D01*
X104748444Y-61308414D01*
X104844951Y-61497820D01*
X104969890Y-61669786D01*
X105120213Y-61820109D01*
X105292182Y-61945050D01*
X105300946Y-61949516D01*
X105351742Y-61997491D01*
X105368536Y-62065312D01*
X105345998Y-62131447D01*
X105300946Y-62170484D01*
X105292182Y-62174949D01*
X105120213Y-62299890D01*
X104969890Y-62450213D01*
X104844951Y-62622179D01*
X104748444Y-62811585D01*
X104682753Y-63013760D01*
X104649500Y-63223713D01*
X104649500Y-63436286D01*
X104668953Y-63559111D01*
X104682754Y-63646243D01*
X104712930Y-63739116D01*
X104748444Y-63848414D01*
X104844951Y-64037820D01*
X104969890Y-64209786D01*
X105120213Y-64360109D01*
X105292182Y-64485050D01*
X105300946Y-64489516D01*
X105351742Y-64537491D01*
X105368536Y-64605312D01*
X105345998Y-64671447D01*
X105300946Y-64710484D01*
X105292182Y-64714949D01*
X105120213Y-64839890D01*
X104969890Y-64990213D01*
X104844951Y-65162179D01*
X104748444Y-65351585D01*
X104682753Y-65553760D01*
X104672262Y-65620000D01*
X104649500Y-65763713D01*
X104649500Y-65976287D01*
X104682754Y-66186243D01*
X104712930Y-66279116D01*
X104748444Y-66388414D01*
X104844951Y-66577820D01*
X104969890Y-66749786D01*
X105120213Y-66900109D01*
X105292179Y-67025048D01*
X105292181Y-67025049D01*
X105292184Y-67025051D01*
X105481588Y-67121557D01*
X105683757Y-67187246D01*
X105893713Y-67220500D01*
X105893714Y-67220500D01*
X106106286Y-67220500D01*
X106106287Y-67220500D01*
X106316243Y-67187246D01*
X106518412Y-67121557D01*
X106707816Y-67025051D01*
X106810966Y-66950109D01*
X106879786Y-66900109D01*
X106879788Y-66900106D01*
X106879792Y-66900104D01*
X107030104Y-66749792D01*
X107030106Y-66749788D01*
X107030109Y-66749786D01*
X107155048Y-66577820D01*
X107155047Y-66577820D01*
X107155051Y-66577816D01*
X107251557Y-66388412D01*
X107287070Y-66279114D01*
X107326506Y-66221441D01*
X107390865Y-66194242D01*
X107459711Y-66206157D01*
X107511187Y-66253401D01*
X107522928Y-66279111D01*
X107536247Y-66320099D01*
X107558444Y-66388414D01*
X107654951Y-66577820D01*
X107779890Y-66749786D01*
X107930213Y-66900109D01*
X108102179Y-67025048D01*
X108102181Y-67025049D01*
X108102184Y-67025051D01*
X108291588Y-67121557D01*
X108493757Y-67187246D01*
X108703713Y-67220500D01*
X108703714Y-67220500D01*
X108916286Y-67220500D01*
X108916287Y-67220500D01*
X109126243Y-67187246D01*
X109328412Y-67121557D01*
X109517816Y-67025051D01*
X109620966Y-66950109D01*
X109689786Y-66900109D01*
X109689788Y-66900106D01*
X109689792Y-66900104D01*
X109840104Y-66749792D01*
X109840106Y-66749788D01*
X109840109Y-66749786D01*
X109965048Y-66577820D01*
X109965047Y-66577820D01*
X109965051Y-66577816D01*
X110061557Y-66388412D01*
X110097332Y-66278306D01*
X110136768Y-66220634D01*
X110201127Y-66193435D01*
X110269973Y-66205349D01*
X110321449Y-66252593D01*
X110333193Y-66278309D01*
X110368904Y-66388217D01*
X110465379Y-66577557D01*
X110590272Y-66749459D01*
X110590276Y-66749464D01*
X110740535Y-66899723D01*
X110740540Y-66899727D01*
X110912442Y-67024620D01*
X111101782Y-67121095D01*
X111303871Y-67186757D01*
X111370000Y-67197231D01*
X111370000Y-66303012D01*
X111427007Y-66335925D01*
X111554174Y-66370000D01*
X111685826Y-66370000D01*
X111812993Y-66335925D01*
X111870000Y-66303012D01*
X111870000Y-67197230D01*
X111936126Y-67186757D01*
X111936129Y-67186757D01*
X112138217Y-67121095D01*
X112327557Y-67024620D01*
X112499459Y-66899727D01*
X112499464Y-66899723D01*
X112649723Y-66749464D01*
X112649727Y-66749459D01*
X112774620Y-66577557D01*
X112871095Y-66388217D01*
X112936757Y-66186129D01*
X112936757Y-66186126D01*
X112947231Y-66120000D01*
X112053012Y-66120000D01*
X112085925Y-66062993D01*
X112120000Y-65935826D01*
X112120000Y-65804174D01*
X112085925Y-65677007D01*
X112053012Y-65620000D01*
X112947231Y-65620000D01*
X112936757Y-65553873D01*
X112936757Y-65553870D01*
X112871095Y-65351782D01*
X112774620Y-65162442D01*
X112649727Y-64990540D01*
X112649723Y-64990535D01*
X112499464Y-64840276D01*
X112499459Y-64840272D01*
X112327558Y-64715379D01*
X112317954Y-64710486D01*
X112267157Y-64662512D01*
X112250361Y-64594692D01*
X112272897Y-64528556D01*
X112317954Y-64489514D01*
X112327558Y-64484620D01*
X112499459Y-64359727D01*
X112499464Y-64359723D01*
X112649723Y-64209464D01*
X112649727Y-64209459D01*
X112774620Y-64037557D01*
X112871095Y-63848217D01*
X112936757Y-63646129D01*
X112936757Y-63646126D01*
X112947231Y-63580000D01*
X112053012Y-63580000D01*
X112085925Y-63522993D01*
X112120000Y-63395826D01*
X112120000Y-63264174D01*
X112085925Y-63137007D01*
X112053012Y-63080000D01*
X112947231Y-63080000D01*
X112936757Y-63013873D01*
X112936757Y-63013870D01*
X112871095Y-62811782D01*
X112774620Y-62622442D01*
X112649727Y-62450540D01*
X112649723Y-62450535D01*
X112499464Y-62300276D01*
X112499459Y-62300272D01*
X112327558Y-62175379D01*
X112317954Y-62170486D01*
X112267157Y-62122512D01*
X112250361Y-62054692D01*
X112272897Y-61988556D01*
X112317954Y-61949514D01*
X112327558Y-61944620D01*
X112499459Y-61819727D01*
X112499464Y-61819723D01*
X112649723Y-61669464D01*
X112649727Y-61669459D01*
X112774620Y-61497557D01*
X112871095Y-61308217D01*
X112936757Y-61106129D01*
X112936757Y-61106126D01*
X112947231Y-61040000D01*
X112053012Y-61040000D01*
X112085925Y-60982993D01*
X112120000Y-60855826D01*
X112120000Y-60724174D01*
X112085925Y-60597007D01*
X112053012Y-60540000D01*
X112947231Y-60540000D01*
X112936757Y-60473873D01*
X112936757Y-60473870D01*
X112871095Y-60271782D01*
X112774620Y-60082442D01*
X112649727Y-59910540D01*
X112649723Y-59910535D01*
X112535665Y-59796477D01*
X112502180Y-59735154D01*
X112507164Y-59665462D01*
X112549036Y-59609529D01*
X112580013Y-59592614D01*
X112712086Y-59543354D01*
X112712093Y-59543350D01*
X112827187Y-59457190D01*
X112827190Y-59457187D01*
X112913350Y-59342093D01*
X112913354Y-59342086D01*
X112963596Y-59207379D01*
X112963598Y-59207372D01*
X112969999Y-59147844D01*
X112970000Y-59147827D01*
X112970000Y-58500000D01*
X112053012Y-58500000D01*
X112085925Y-58442993D01*
X112120000Y-58315826D01*
X112120000Y-58184174D01*
X112085925Y-58057007D01*
X112053012Y-58000000D01*
X112970000Y-58000000D01*
X112970000Y-57352172D01*
X112969999Y-57352155D01*
X112963598Y-57292627D01*
X112963596Y-57292620D01*
X112913354Y-57157913D01*
X112913350Y-57157906D01*
X112827190Y-57042812D01*
X112827187Y-57042809D01*
X112712093Y-56956649D01*
X112712086Y-56956645D01*
X112577379Y-56906403D01*
X112577372Y-56906401D01*
X112517844Y-56900000D01*
X111870000Y-56900000D01*
X111870000Y-57816988D01*
X111812993Y-57784075D01*
X111685826Y-57750000D01*
X111554174Y-57750000D01*
X111427007Y-57784075D01*
X111370000Y-57816988D01*
X111370000Y-56900000D01*
X110722155Y-56900000D01*
X110662627Y-56906401D01*
X110662620Y-56906403D01*
X110527913Y-56956645D01*
X110527906Y-56956649D01*
X110412812Y-57042809D01*
X110412809Y-57042812D01*
X110326644Y-57157912D01*
X110324115Y-57162545D01*
X110274707Y-57211947D01*
X110206433Y-57226794D01*
X110140970Y-57202373D01*
X110106455Y-57162537D01*
X110103796Y-57157668D01*
X110017547Y-57042455D01*
X110017544Y-57042452D01*
X109902335Y-56956206D01*
X109902328Y-56956202D01*
X109767482Y-56905908D01*
X109767483Y-56905908D01*
X109707883Y-56899501D01*
X109707881Y-56899500D01*
X109707873Y-56899500D01*
X109707864Y-56899500D01*
X107912129Y-56899500D01*
X107912123Y-56899501D01*
X107852516Y-56905908D01*
X107717671Y-56956202D01*
X107717664Y-56956206D01*
X107602455Y-57042452D01*
X107602452Y-57042455D01*
X107516206Y-57157665D01*
X107513830Y-57162016D01*
X107464422Y-57211419D01*
X107396148Y-57226268D01*
X107330685Y-57201848D01*
X107296170Y-57162016D01*
X107293797Y-57157673D01*
X107293796Y-57157669D01*
X107207546Y-57042454D01*
X107207544Y-57042452D01*
X107092335Y-56956206D01*
X107092328Y-56956202D01*
X106957482Y-56905908D01*
X106957483Y-56905908D01*
X106897883Y-56899501D01*
X106897881Y-56899500D01*
X106897873Y-56899500D01*
X106897864Y-56899500D01*
X105102129Y-56899500D01*
X105102123Y-56899501D01*
X105042516Y-56905908D01*
X104907671Y-56956202D01*
X104907664Y-56956206D01*
X104792455Y-57042452D01*
X104792452Y-57042455D01*
X104706206Y-57157664D01*
X104706202Y-57157671D01*
X104655908Y-57292517D01*
X104649501Y-57352116D01*
X104649500Y-57352135D01*
X104000500Y-57352135D01*
X104000500Y-44412135D01*
X104649500Y-44412135D01*
X104649500Y-46207870D01*
X104649501Y-46207876D01*
X104655908Y-46267483D01*
X104706202Y-46402328D01*
X104706206Y-46402335D01*
X104792452Y-46517544D01*
X104792455Y-46517547D01*
X104907664Y-46603793D01*
X104907671Y-46603797D01*
X105039082Y-46652810D01*
X105095016Y-46694681D01*
X105119433Y-46760145D01*
X105104582Y-46828418D01*
X105083431Y-46856673D01*
X104969889Y-46970215D01*
X104844951Y-47142179D01*
X104748444Y-47331585D01*
X104682753Y-47533760D01*
X104672262Y-47600000D01*
X104649500Y-47743713D01*
X104649500Y-47956287D01*
X104682754Y-48166243D01*
X104747645Y-48365957D01*
X104748444Y-48368414D01*
X104844951Y-48557820D01*
X104969890Y-48729786D01*
X105120213Y-48880109D01*
X105292182Y-49005050D01*
X105300946Y-49009516D01*
X105351742Y-49057491D01*
X105368536Y-49125312D01*
X105345998Y-49191447D01*
X105300946Y-49230484D01*
X105292182Y-49234949D01*
X105120213Y-49359890D01*
X104969890Y-49510213D01*
X104844951Y-49682179D01*
X104748444Y-49871585D01*
X104682753Y-50073760D01*
X104672262Y-50140000D01*
X104649500Y-50283713D01*
X104649500Y-50496287D01*
X104682754Y-50706243D01*
X104712930Y-50799116D01*
X104748444Y-50908414D01*
X104844951Y-51097820D01*
X104969890Y-51269786D01*
X105120213Y-51420109D01*
X105292182Y-51545050D01*
X105300946Y-51549516D01*
X105351742Y-51597491D01*
X105368536Y-51665312D01*
X105345998Y-51731447D01*
X105300946Y-51770484D01*
X105292182Y-51774949D01*
X105120213Y-51899890D01*
X104969890Y-52050213D01*
X104844951Y-52222179D01*
X104748444Y-52411585D01*
X104682753Y-52613760D01*
X104672262Y-52680000D01*
X104649500Y-52823713D01*
X104649500Y-53036287D01*
X104682754Y-53246243D01*
X104712930Y-53339116D01*
X104748444Y-53448414D01*
X104844951Y-53637820D01*
X104969890Y-53809786D01*
X105120213Y-53960109D01*
X105292179Y-54085048D01*
X105292181Y-54085049D01*
X105292184Y-54085051D01*
X105481588Y-54181557D01*
X105683757Y-54247246D01*
X105893713Y-54280500D01*
X105893714Y-54280500D01*
X106106286Y-54280500D01*
X106106287Y-54280500D01*
X106316243Y-54247246D01*
X106518412Y-54181557D01*
X106707816Y-54085051D01*
X106810966Y-54010109D01*
X106879786Y-53960109D01*
X106879788Y-53960106D01*
X106879792Y-53960104D01*
X107030104Y-53809792D01*
X107030106Y-53809788D01*
X107030109Y-53809786D01*
X107155048Y-53637820D01*
X107155047Y-53637820D01*
X107155051Y-53637816D01*
X107251557Y-53448412D01*
X107287070Y-53339114D01*
X107326506Y-53281441D01*
X107390865Y-53254242D01*
X107459711Y-53266157D01*
X107511187Y-53313401D01*
X107522928Y-53339111D01*
X107536247Y-53380099D01*
X107558444Y-53448414D01*
X107654951Y-53637820D01*
X107779890Y-53809786D01*
X107930213Y-53960109D01*
X108102179Y-54085048D01*
X108102181Y-54085049D01*
X108102184Y-54085051D01*
X108291588Y-54181557D01*
X108493757Y-54247246D01*
X108703713Y-54280500D01*
X108703714Y-54280500D01*
X108916286Y-54280500D01*
X108916287Y-54280500D01*
X109126243Y-54247246D01*
X109328412Y-54181557D01*
X109517816Y-54085051D01*
X109620966Y-54010109D01*
X109689786Y-53960109D01*
X109689788Y-53960106D01*
X109689792Y-53960104D01*
X109840104Y-53809792D01*
X109840106Y-53809788D01*
X109840109Y-53809786D01*
X109965048Y-53637820D01*
X109965047Y-53637820D01*
X109965051Y-53637816D01*
X110061557Y-53448412D01*
X110097332Y-53338306D01*
X110136768Y-53280634D01*
X110201127Y-53253435D01*
X110269973Y-53265349D01*
X110321449Y-53312593D01*
X110333193Y-53338309D01*
X110368904Y-53448217D01*
X110465379Y-53637557D01*
X110590272Y-53809459D01*
X110590276Y-53809464D01*
X110740535Y-53959723D01*
X110740540Y-53959727D01*
X110912442Y-54084620D01*
X111101782Y-54181095D01*
X111303871Y-54246757D01*
X111370000Y-54257231D01*
X111370000Y-53363012D01*
X111427007Y-53395925D01*
X111554174Y-53430000D01*
X111685826Y-53430000D01*
X111812993Y-53395925D01*
X111870000Y-53363012D01*
X111870000Y-54257230D01*
X111936126Y-54246757D01*
X111936129Y-54246757D01*
X112138217Y-54181095D01*
X112327557Y-54084620D01*
X112499459Y-53959727D01*
X112499464Y-53959723D01*
X112649723Y-53809464D01*
X112649727Y-53809459D01*
X112774620Y-53637557D01*
X112871095Y-53448217D01*
X112936757Y-53246129D01*
X112936757Y-53246126D01*
X112947231Y-53180000D01*
X112053012Y-53180000D01*
X112085925Y-53122993D01*
X112120000Y-52995826D01*
X112120000Y-52864174D01*
X112085925Y-52737007D01*
X112053012Y-52680000D01*
X112947231Y-52680000D01*
X112936757Y-52613873D01*
X112936757Y-52613870D01*
X112871095Y-52411782D01*
X112774620Y-52222442D01*
X112649727Y-52050540D01*
X112649723Y-52050535D01*
X112499464Y-51900276D01*
X112499459Y-51900272D01*
X112327558Y-51775379D01*
X112317954Y-51770486D01*
X112267157Y-51722512D01*
X112250361Y-51654692D01*
X112272897Y-51588556D01*
X112317954Y-51549514D01*
X112327558Y-51544620D01*
X112499459Y-51419727D01*
X112499464Y-51419723D01*
X112649723Y-51269464D01*
X112649727Y-51269459D01*
X112774620Y-51097557D01*
X112871095Y-50908217D01*
X112936757Y-50706129D01*
X112936757Y-50706126D01*
X112947231Y-50640000D01*
X112053012Y-50640000D01*
X112085925Y-50582993D01*
X112120000Y-50455826D01*
X112120000Y-50324174D01*
X112085925Y-50197007D01*
X112053012Y-50140000D01*
X112947231Y-50140000D01*
X112936757Y-50073873D01*
X112936757Y-50073870D01*
X112871095Y-49871782D01*
X112774620Y-49682442D01*
X112649727Y-49510540D01*
X112649723Y-49510535D01*
X112499464Y-49360276D01*
X112499459Y-49360272D01*
X112327558Y-49235379D01*
X112317954Y-49230486D01*
X112267157Y-49182512D01*
X112250361Y-49114692D01*
X112272897Y-49048556D01*
X112317954Y-49009514D01*
X112327558Y-49004620D01*
X112499459Y-48879727D01*
X112499464Y-48879723D01*
X112649723Y-48729464D01*
X112649727Y-48729459D01*
X112774620Y-48557557D01*
X112871095Y-48368217D01*
X112936757Y-48166129D01*
X112936757Y-48166126D01*
X112947231Y-48100000D01*
X112053012Y-48100000D01*
X112085925Y-48042993D01*
X112120000Y-47915826D01*
X112120000Y-47784174D01*
X112085925Y-47657007D01*
X112053012Y-47600000D01*
X112947231Y-47600000D01*
X112936757Y-47533873D01*
X112936757Y-47533870D01*
X112871095Y-47331782D01*
X112774620Y-47142442D01*
X112649727Y-46970540D01*
X112649723Y-46970535D01*
X112535665Y-46856477D01*
X112502180Y-46795154D01*
X112507164Y-46725462D01*
X112549036Y-46669529D01*
X112580013Y-46652614D01*
X112712086Y-46603354D01*
X112712093Y-46603350D01*
X112827187Y-46517190D01*
X112827190Y-46517187D01*
X112913350Y-46402093D01*
X112913354Y-46402086D01*
X112963596Y-46267379D01*
X112963598Y-46267372D01*
X112969999Y-46207844D01*
X112970000Y-46207827D01*
X112970000Y-45560000D01*
X112053012Y-45560000D01*
X112085925Y-45502993D01*
X112120000Y-45375826D01*
X112120000Y-45244174D01*
X112085925Y-45117007D01*
X112053012Y-45060000D01*
X112970000Y-45060000D01*
X112970000Y-44412172D01*
X112969999Y-44412155D01*
X112963598Y-44352627D01*
X112963596Y-44352620D01*
X112913354Y-44217913D01*
X112913350Y-44217906D01*
X112827190Y-44102812D01*
X112827187Y-44102809D01*
X112712093Y-44016649D01*
X112712086Y-44016645D01*
X112577379Y-43966403D01*
X112577372Y-43966401D01*
X112517844Y-43960000D01*
X111870000Y-43960000D01*
X111870000Y-44876988D01*
X111812993Y-44844075D01*
X111685826Y-44810000D01*
X111554174Y-44810000D01*
X111427007Y-44844075D01*
X111370000Y-44876988D01*
X111370000Y-43960000D01*
X110722155Y-43960000D01*
X110662627Y-43966401D01*
X110662620Y-43966403D01*
X110527913Y-44016645D01*
X110527906Y-44016649D01*
X110412812Y-44102809D01*
X110412809Y-44102812D01*
X110326644Y-44217912D01*
X110324115Y-44222545D01*
X110274707Y-44271947D01*
X110206433Y-44286794D01*
X110140970Y-44262373D01*
X110106455Y-44222537D01*
X110103796Y-44217668D01*
X110017547Y-44102455D01*
X110017544Y-44102452D01*
X109902335Y-44016206D01*
X109902328Y-44016202D01*
X109767482Y-43965908D01*
X109767483Y-43965908D01*
X109707883Y-43959501D01*
X109707881Y-43959500D01*
X109707873Y-43959500D01*
X109707864Y-43959500D01*
X107912129Y-43959500D01*
X107912123Y-43959501D01*
X107852516Y-43965908D01*
X107717671Y-44016202D01*
X107717664Y-44016206D01*
X107602455Y-44102452D01*
X107602452Y-44102455D01*
X107516206Y-44217665D01*
X107513830Y-44222016D01*
X107464422Y-44271419D01*
X107396148Y-44286268D01*
X107330685Y-44261848D01*
X107296170Y-44222016D01*
X107293797Y-44217673D01*
X107293796Y-44217669D01*
X107207546Y-44102454D01*
X107207544Y-44102452D01*
X107092335Y-44016206D01*
X107092328Y-44016202D01*
X106957482Y-43965908D01*
X106957483Y-43965908D01*
X106897883Y-43959501D01*
X106897881Y-43959500D01*
X106897873Y-43959500D01*
X106897864Y-43959500D01*
X105102129Y-43959500D01*
X105102123Y-43959501D01*
X105042516Y-43965908D01*
X104907671Y-44016202D01*
X104907664Y-44016206D01*
X104792455Y-44102452D01*
X104792452Y-44102455D01*
X104706206Y-44217664D01*
X104706202Y-44217671D01*
X104655908Y-44352517D01*
X104649501Y-44412116D01*
X104649500Y-44412135D01*
X104000500Y-44412135D01*
X104000500Y-29760746D01*
X104020185Y-29693707D01*
X104036564Y-29673320D01*
X106342988Y-27353711D01*
X120374500Y-27353711D01*
X120374500Y-27596288D01*
X120406161Y-27836785D01*
X120468947Y-28071104D01*
X120561773Y-28295205D01*
X120561776Y-28295212D01*
X120683064Y-28505289D01*
X120683066Y-28505292D01*
X120683067Y-28505293D01*
X120830733Y-28697736D01*
X120830739Y-28697743D01*
X121002256Y-28869260D01*
X121002262Y-28869265D01*
X121194711Y-29016936D01*
X121404788Y-29138224D01*
X121628900Y-29231054D01*
X121863211Y-29293838D01*
X122043586Y-29317584D01*
X122103711Y-29325500D01*
X122103712Y-29325500D01*
X122346289Y-29325500D01*
X122394388Y-29319167D01*
X122586789Y-29293838D01*
X122821100Y-29231054D01*
X123045212Y-29138224D01*
X123255289Y-29016936D01*
X123447738Y-28869265D01*
X123619265Y-28697738D01*
X123766936Y-28505289D01*
X123888224Y-28295212D01*
X123981054Y-28071100D01*
X124043838Y-27836789D01*
X124075500Y-27596288D01*
X124075500Y-27353712D01*
X124043838Y-27113211D01*
X123981054Y-26878900D01*
X123888224Y-26654788D01*
X123766936Y-26444711D01*
X123619265Y-26252262D01*
X123619260Y-26252256D01*
X123447743Y-26080739D01*
X123447736Y-26080733D01*
X123255293Y-25933067D01*
X123255292Y-25933066D01*
X123255289Y-25933064D01*
X123045212Y-25811776D01*
X123045205Y-25811773D01*
X122821104Y-25718947D01*
X122586785Y-25656161D01*
X122346289Y-25624500D01*
X122346288Y-25624500D01*
X122103712Y-25624500D01*
X122103711Y-25624500D01*
X121863214Y-25656161D01*
X121628895Y-25718947D01*
X121404794Y-25811773D01*
X121404785Y-25811777D01*
X121194706Y-25933067D01*
X121002263Y-26080733D01*
X121002256Y-26080739D01*
X120830739Y-26252256D01*
X120830733Y-26252263D01*
X120683067Y-26444706D01*
X120561777Y-26654785D01*
X120561773Y-26654794D01*
X120468947Y-26878895D01*
X120406161Y-27113214D01*
X120374500Y-27353711D01*
X106342988Y-27353711D01*
X108963871Y-24717846D01*
X109025098Y-24684188D01*
X109050105Y-24681290D01*
X122375000Y-24500000D01*
X135698485Y-24318728D01*
X135765786Y-24337499D01*
G37*
%TD.AperFunction*%
%TA.AperFunction,Conductor*%
G36*
X138260000Y-94086988D02*
G01*
X138202993Y-94054075D01*
X138075826Y-94020000D01*
X137944174Y-94020000D01*
X137817007Y-94054075D01*
X137760000Y-94086988D01*
X137760000Y-92413012D01*
X137817007Y-92445925D01*
X137944174Y-92480000D01*
X138075826Y-92480000D01*
X138202993Y-92445925D01*
X138260000Y-92413012D01*
X138260000Y-94086988D01*
G37*
%TD.AperFunction*%
%TA.AperFunction,Conductor*%
G36*
X138260000Y-91546988D02*
G01*
X138202993Y-91514075D01*
X138075826Y-91480000D01*
X137944174Y-91480000D01*
X137817007Y-91514075D01*
X137760000Y-91546988D01*
X137760000Y-89873012D01*
X137817007Y-89905925D01*
X137944174Y-89940000D01*
X138075826Y-89940000D01*
X138202993Y-89905925D01*
X138260000Y-89873012D01*
X138260000Y-91546988D01*
G37*
%TD.AperFunction*%
%TA.AperFunction,Conductor*%
G36*
X138260000Y-89006988D02*
G01*
X138202993Y-88974075D01*
X138075826Y-88940000D01*
X137944174Y-88940000D01*
X137817007Y-88974075D01*
X137760000Y-89006988D01*
X137760000Y-87333012D01*
X137817007Y-87365925D01*
X137944174Y-87400000D01*
X138075826Y-87400000D01*
X138202993Y-87365925D01*
X138260000Y-87333012D01*
X138260000Y-89006988D01*
G37*
%TD.AperFunction*%
%TA.AperFunction,Conductor*%
G36*
X138260000Y-81086988D02*
G01*
X138202993Y-81054075D01*
X138075826Y-81020000D01*
X137944174Y-81020000D01*
X137817007Y-81054075D01*
X137760000Y-81086988D01*
X137760000Y-79413012D01*
X137817007Y-79445925D01*
X137944174Y-79480000D01*
X138075826Y-79480000D01*
X138202993Y-79445925D01*
X138260000Y-79413012D01*
X138260000Y-81086988D01*
G37*
%TD.AperFunction*%
%TA.AperFunction,Conductor*%
G36*
X138260000Y-78546988D02*
G01*
X138202993Y-78514075D01*
X138075826Y-78480000D01*
X137944174Y-78480000D01*
X137817007Y-78514075D01*
X137760000Y-78546988D01*
X137760000Y-76873012D01*
X137817007Y-76905925D01*
X137944174Y-76940000D01*
X138075826Y-76940000D01*
X138202993Y-76905925D01*
X138260000Y-76873012D01*
X138260000Y-78546988D01*
G37*
%TD.AperFunction*%
%TA.AperFunction,Conductor*%
G36*
X138260000Y-76006988D02*
G01*
X138202993Y-75974075D01*
X138075826Y-75940000D01*
X137944174Y-75940000D01*
X137817007Y-75974075D01*
X137760000Y-76006988D01*
X137760000Y-74333012D01*
X137817007Y-74365925D01*
X137944174Y-74400000D01*
X138075826Y-74400000D01*
X138202993Y-74365925D01*
X138260000Y-74333012D01*
X138260000Y-76006988D01*
G37*
%TD.AperFunction*%
%TA.AperFunction,Conductor*%
G36*
X138260000Y-65486988D02*
G01*
X138202993Y-65454075D01*
X138075826Y-65420000D01*
X137944174Y-65420000D01*
X137817007Y-65454075D01*
X137760000Y-65486988D01*
X137760000Y-63813012D01*
X137817007Y-63845925D01*
X137944174Y-63880000D01*
X138075826Y-63880000D01*
X138202993Y-63845925D01*
X138260000Y-63813012D01*
X138260000Y-65486988D01*
G37*
%TD.AperFunction*%
%TA.AperFunction,Conductor*%
G36*
X138260000Y-62946988D02*
G01*
X138202993Y-62914075D01*
X138075826Y-62880000D01*
X137944174Y-62880000D01*
X137817007Y-62914075D01*
X137760000Y-62946988D01*
X137760000Y-61273012D01*
X137817007Y-61305925D01*
X137944174Y-61340000D01*
X138075826Y-61340000D01*
X138202993Y-61305925D01*
X138260000Y-61273012D01*
X138260000Y-62946988D01*
G37*
%TD.AperFunction*%
%TA.AperFunction,Conductor*%
G36*
X138260000Y-60406988D02*
G01*
X138202993Y-60374075D01*
X138075826Y-60340000D01*
X137944174Y-60340000D01*
X137817007Y-60374075D01*
X137760000Y-60406988D01*
X137760000Y-58733012D01*
X137817007Y-58765925D01*
X137944174Y-58800000D01*
X138075826Y-58800000D01*
X138202993Y-58765925D01*
X138260000Y-58733012D01*
X138260000Y-60406988D01*
G37*
%TD.AperFunction*%
%TA.AperFunction,Conductor*%
G36*
X138250000Y-52546988D02*
G01*
X138192993Y-52514075D01*
X138065826Y-52480000D01*
X137934174Y-52480000D01*
X137807007Y-52514075D01*
X137750000Y-52546988D01*
X137750000Y-50873012D01*
X137807007Y-50905925D01*
X137934174Y-50940000D01*
X138065826Y-50940000D01*
X138192993Y-50905925D01*
X138250000Y-50873012D01*
X138250000Y-52546988D01*
G37*
%TD.AperFunction*%
%TA.AperFunction,Conductor*%
G36*
X138250000Y-50006988D02*
G01*
X138192993Y-49974075D01*
X138065826Y-49940000D01*
X137934174Y-49940000D01*
X137807007Y-49974075D01*
X137750000Y-50006988D01*
X137750000Y-48333012D01*
X137807007Y-48365925D01*
X137934174Y-48400000D01*
X138065826Y-48400000D01*
X138192993Y-48365925D01*
X138250000Y-48333012D01*
X138250000Y-50006988D01*
G37*
%TD.AperFunction*%
%TA.AperFunction,Conductor*%
G36*
X138250000Y-47466988D02*
G01*
X138192993Y-47434075D01*
X138065826Y-47400000D01*
X137934174Y-47400000D01*
X137807007Y-47434075D01*
X137750000Y-47466988D01*
X137750000Y-45793012D01*
X137807007Y-45825925D01*
X137934174Y-45860000D01*
X138065826Y-45860000D01*
X138192993Y-45825925D01*
X138250000Y-45793012D01*
X138250000Y-47466988D01*
G37*
%TD.AperFunction*%
%TD*%
M02*
